<?xml version="1.0" encoding="UTF-8"?> <svg xmlns="http://www.w3.org/2000/svg" width="178" height="210" viewBox="0 0 178 210" fill="none"><path d="M55.5209 18.9794C71.0339 -5.65984 106.966 -5.6598 122.479 18.9795L128.566 28.6477L110.339 28.6477C97.3585 20.6393 80.6414 20.6393 67.6609 28.6477L49.4338 28.6477L55.5209 18.9794ZM111.879 29.6477L129.196 29.6477L143.359 52.1428C141.578 51.9099 139.75 51.789 137.879 51.789H129.748L123.325 41.5881C120.209 36.638 116.288 32.6578 111.879 29.6477ZM144.661 52.3344L130.377 29.6477H137.879C164.744 29.6477 182.525 55.1782 176.228 79.0977C171.545 65.6798 159.961 54.8374 144.661 52.3344ZM137.879 52.789C139.997 52.789 142.059 52.9478 144.057 53.2519L169.353 93.4293L162.659 104.062L130.377 52.789H137.879ZM169.944 92.4909L145.38 53.4762C160.38 56.2804 171.581 67.3498 175.737 80.805C174.733 84.0146 173.285 87.1834 171.358 90.2448L169.944 92.4909ZM163.25 105L169.944 94.3678L171.358 96.6139C173.074 99.3398 174.41 102.151 175.391 105C174.41 107.849 173.074 110.66 171.358 113.386L169.944 115.632L163.25 105ZM175.891 103.443C174.938 100.945 173.715 98.4809 172.204 96.0811L170.535 93.4293L172.204 90.7775C173.897 88.0889 175.229 85.3195 176.223 82.5121C177.968 89.2057 177.985 96.414 175.891 103.443ZM172.204 113.919C173.715 111.519 174.938 109.055 175.891 106.557C177.985 113.586 177.968 120.794 176.223 127.488C175.229 124.681 173.897 121.911 172.204 119.223L170.535 116.571L172.204 113.919ZM171.358 119.755C173.285 122.817 174.733 125.985 175.737 129.195C171.581 142.65 160.38 153.72 145.38 156.524L169.944 117.509L171.358 119.755ZM144.661 157.666C159.961 155.163 171.545 144.32 176.228 130.902C182.525 154.822 164.744 180.352 137.879 180.352H130.377L144.661 157.666ZM169.353 116.571L144.057 156.748C142.059 157.052 139.997 157.211 137.879 157.211H130.377L162.659 105.938L169.353 116.571ZM129.748 158.211H137.879C139.75 158.211 141.578 158.09 143.359 157.857L129.196 180.352H111.879C116.288 177.342 120.209 173.362 123.325 168.412L129.748 158.211ZM162.068 105L129.196 157.211H48.8042L15.9321 105L48.8042 52.789L129.196 52.789L162.068 105ZM49.4338 158.211H128.566L122.479 167.879C119.145 173.175 114.867 177.333 110.051 180.352H67.9489C63.1332 177.333 58.8554 173.175 55.5209 167.879L49.4338 158.211ZM15.3412 105.938L47.6225 157.211H40.1212C38.0028 157.211 35.941 157.052 33.9429 156.748L8.64711 116.571L15.3412 105.938ZM34.6413 157.857C36.4217 158.09 38.25 158.211 40.1212 158.211H48.2521L54.6747 168.412C57.7913 173.362 61.7117 177.342 66.1209 180.352H48.8042L34.6413 157.857ZM8.05627 117.509L32.62 156.524C17.6205 153.72 6.41881 142.65 2.26321 129.195C3.26721 125.985 4.71462 122.817 6.64208 119.755L8.05627 117.509ZM1.7717 130.902C6.45539 144.32 18.0394 155.163 33.3389 157.666L47.6225 180.352H40.1212C13.2558 180.352 -4.52528 154.822 1.7717 130.902ZM5.79584 119.222C4.10304 121.911 2.77138 124.681 1.77724 127.488C0.0317723 120.794 0.0147035 113.586 2.10946 106.557C3.06176 109.055 4.28496 111.519 5.79585 113.919L7.46543 116.571L5.79584 119.222ZM6.64209 113.386C4.92586 110.66 3.59023 107.849 2.60932 105C3.59023 102.151 4.92586 99.3398 6.64208 96.6139L8.05627 94.3677L14.7504 105L8.05627 115.632L6.64209 113.386ZM7.46543 93.4293L5.79584 96.0811C4.28495 98.4808 3.06176 100.945 2.10946 103.443C0.0147137 96.4139 0.0317858 89.2057 1.77725 82.512C2.77139 85.3194 4.10305 88.0888 5.79585 90.7775L7.46543 93.4293ZM15.3412 104.062L8.64712 93.4293L33.9429 53.2519C35.9409 52.9478 38.0028 52.789 40.1212 52.789H47.6225L15.3412 104.062ZM32.62 53.4762L8.05627 92.4908L6.64209 90.2447C4.71463 87.1833 3.26723 84.0146 2.26322 80.8049C6.41882 67.3498 17.6204 56.2804 32.62 53.4762ZM40.1212 51.789C38.25 51.789 36.4217 51.9098 34.6412 52.1427L48.8042 29.6477L66.1209 29.6477C61.7117 32.6578 57.7913 36.6379 54.6747 41.588L48.2521 51.789H40.1212ZM47.6225 29.6476L33.3389 52.3344C18.0394 54.8374 6.4554 65.6798 1.77171 79.0976C-4.52527 55.1782 13.2558 29.6476 40.1212 29.6476H47.6225ZM110.339 181.352H128.566L122.479 191.021C106.966 215.66 71.0339 215.66 55.5209 191.021L49.4338 181.352H67.661C80.6415 189.361 97.3586 189.361 110.339 181.352ZM108.363 181.352C96.414 188.027 81.586 188.027 69.6373 181.352H108.363ZM55.5209 42.1208C58.8554 36.8247 63.1332 32.667 67.9489 29.6477L110.051 29.6477C114.867 32.667 119.145 36.8248 122.479 42.1209L128.566 51.789L49.4338 51.789L55.5209 42.1208ZM69.6372 28.6477C81.586 21.9726 96.414 21.9726 108.363 28.6477L69.6372 28.6477Z" stroke="url(#paint0_radial_1042_1633)"></path><defs><radialGradient id="paint0_radial_1042_1633" cx="0" cy="0" r="1" gradientUnits="userSpaceOnUse" gradientTransform="translate(89 105) rotate(90) scale(171 144.943)"><stop stop-color="white"></stop><stop offset="1" stop-color="#095540" stop-opacity="0.2"></stop></radialGradient></defs></svg> 