<?xml version="1.0" encoding="UTF-8"?> <svg xmlns="http://www.w3.org/2000/svg" width="153" height="28" viewBox="0 0 153 28" fill="none"><path fill-rule="evenodd" clip-rule="evenodd" d="M123.66 4.30852L119.717 6.71412V14.0832L123.66 16.4583H139.22V20.4322H124.071V18.0265H119.702V22.0004L123.752 24.3755H139.479L143.575 22.0004V14.7683L139.479 12.3627H123.919V8.41936H139.205V10.7945H143.575V6.71412L139.479 4.30852H123.645H123.66ZM147.868 0.898041V2.32922H150.807V26.3548H147.868V27.786H152.253V0.882812H147.868V0.898041ZM0 27.8012H4.3849V26.37H1.44641V2.34445H4.3849V0.913269H0V27.8164V27.8012ZM93.6206 4.30852V24.3755H117.494V20.4322H97.9903V16.3518H111.891V12.3779H97.9903V8.43459H117.494V4.30852H93.6206ZM38.1547 2.34445H36.9367V26.37H38.1547V2.34445ZM8.73934 4.30852V24.3755H28.6998L32.6127 22.0004V15.895L29.3544 14.3572L32.6127 12.789V6.71412L28.6693 4.30852H8.73934ZM28.2582 12.3779H13.109V8.26711H28.2582V12.3779ZM28.2582 20.2951H13.109V16.3518H28.2582V20.2951ZM62.3782 4.30852H46.4068L42.4635 6.71412V24.3755H46.8179V16.3518H61.9671V24.3755H66.3216V6.71412L62.3782 4.30852ZM61.9671 12.3779H46.8179V8.26711H61.9671V12.3779ZM91.824 6.77502L82.1559 16.504V24.4212H77.7862V16.504L68.1181 6.77502L71.9549 4.43032L79.9482 12.4845L87.9415 4.43032L91.7935 6.77502H91.824Z" fill="white"></path></svg> 