<?xml version="1.0" encoding="UTF-8"?> <svg xmlns="http://www.w3.org/2000/svg" width="522" height="463" viewBox="0 0 522 463" fill="none"><path d="M359.524 5.10156H365.516V12.4067H359.524V5.10156Z" fill="#095540" stroke="#EAFFFB" stroke-miterlimit="10"></path><path d="M359.528 7.52344H368.062V14.8286H359.528V7.52344Z" fill="#095540" stroke="#EAFFFB" stroke-miterlimit="10"></path><path d="M352.054 13.5391H370.727V22.6384H352.054V13.5391Z" fill="#095540" stroke="#EAFFFB" stroke-miterlimit="10"></path><path d="M359.088 5.10156H365.961V5.88288H359.088V5.10156Z" fill="#095540" stroke="#EAFFFB" stroke-miterlimit="10"></path><path d="M359.085 5.10273V1L365.961 2.39544V5.10273H359.085Z" fill="#095540" stroke="#EAFFFB" stroke-miterlimit="10"></path><path d="M335.026 15.0043L342.425 14.9432L343.068 14.9368L350.632 14.8596L351.275 14.8532L374.843 14.6217L375.486 14.6153L383.583 14.5349L384.226 14.5285L392.201 14.4642L392.844 14.4609V15.104V21.5828H392.201V18.3997L384.226 18.4769V21.5828H383.583V18.4833L375.486 18.5637V21.7983H374.843V18.5701L351.275 18.8016V21.7983H350.632V18.808L343.068 18.882V21.795H342.425V18.8852L335.026 18.9592V21.3738H334.383V15.6474V15.0043H335.026ZM392.201 17.7566V15.1072L384.226 15.1715V17.8338L392.201 17.7566ZM383.583 17.8402V15.1779L375.486 15.2583V17.9206L383.583 17.8402ZM374.843 17.927V15.2648L351.275 15.4963V18.1585L374.843 17.927ZM350.632 18.165V15.5027L343.068 15.5799V18.2389L350.632 18.165ZM335.026 18.3193L342.425 18.2454V15.5863L335.026 15.6474V18.3193Z" fill="#EAFFFB"></path><path d="M311.042 80.8569C311.042 80.8569 317.667 78.7959 344.793 78.619C372.004 78.4422 408.5 78.2042 408.992 82.1912" stroke="#EAFFFB" stroke-miterlimit="10"></path><path d="M311.042 83.7709C311.042 83.7709 317.667 81.7099 344.793 81.5331C372.004 81.3562 408.5 81.1183 408.992 85.1053" stroke="#EAFFFB" stroke-miterlimit="10"></path><path d="M388.039 91.3967L387.297 82.426C387.232 81.635 386.57 81.0273 385.779 81.0273H343.175C342.445 81.0273 341.819 81.545 341.68 82.2588L340.035 90.67L388.039 91.3967Z" fill="#095540" stroke="#EAFFFB" stroke-miterlimit="10"></path><path d="M343.727 81.0277L345.967 53.4275C346.025 52.733 346.594 52.1896 347.291 52.1671L373.406 51.3633C374.09 51.3408 374.717 50.9742 375.071 50.3891L376 48.8489C376.257 48.4245 376.717 48.1641 377.212 48.1641H381.284C382.13 48.1641 382.789 48.9036 382.692 49.7428L382.515 51.2733C382.47 51.6623 382.544 52.0546 382.724 52.4018L383.01 52.9484C383.329 53.5561 383.522 54.2185 383.579 54.9001L385.781 81.0245H343.727V81.0277Z" fill="#095540" stroke="#EAFFFB" stroke-miterlimit="10"></path><path d="M345.234 44.5888H372.932C373.562 44.5888 374.07 44.0776 374.07 43.4506V42.3413C374.07 41.7111 373.559 41.2031 372.932 41.2031H345.234C344.604 41.2031 344.096 41.7144 344.096 42.3413V43.4506C344.096 44.0776 344.604 44.5888 345.234 44.5888Z" stroke="#EAFFFB" stroke-miterlimit="10"></path><path d="M345.234 44.5898L345.742 44.995C346.835 45.8631 347.452 47.2007 347.407 48.5961L347.288 52.1651L372.894 51.3774L372.93 44.5898H345.234Z" stroke="#EAFFFB" stroke-miterlimit="10"></path><path d="M358.744 41.2052H372.93L372.528 25.6367L359.082 26.6753L358.744 41.2052Z" stroke="#EAFFFB" stroke-miterlimit="10"></path><path d="M333.696 21.3789V23.8418L359.087 26.6745L372.533 25.636L393.401 24.0251L393.648 21.3789H333.696Z" fill="#095540" stroke="#EAFFFB" stroke-miterlimit="10"></path><path d="M347.138 39.4913L368.356 39.1055L368.688 72.5993L347.466 72.9658L347.138 39.4913Z" stroke="#EAFFFB" stroke-width="2" stroke-miterlimit="10"></path><path d="M368.492 64.3242L347.27 64.6908" stroke="#EAFFFB" stroke-width="2" stroke-miterlimit="10"></path><path d="M368.297 56.0469L347.075 56.4134" stroke="#EAFFFB" stroke-width="2" stroke-miterlimit="10"></path><path d="M368.109 47.7656L346.888 48.1354" stroke="#EAFFFB" stroke-width="2" stroke-miterlimit="10"></path><path d="M216.868 92.3748C224.403 92.1079 231.899 91.8796 239.34 91.6835C239.752 91.6706 240.163 91.661 240.571 91.6513C301.951 90.0533 359.618 90.6256 405.264 91.7896C405.675 91.8024 406.086 91.8121 406.495 91.8217C414.364 92.0275 421.869 92.2461 428.967 92.4744C429.378 92.4905 429.79 92.5034 430.198 92.5162C438.24 92.7799 445.753 93.0532 452.67 93.3265C453.082 93.3426 453.493 93.3586 453.901 93.3747C462.342 93.7123 469.874 94.0467 476.373 94.3554C476.788 94.3747 477.2 94.394 477.605 94.4165C488.087 94.9181 495.753 95.3489 500.074 95.6029C500.52 95.6286 500.932 95.6512 501.305 95.6737V98.5739V111.085H500.074V98.4999C495.818 98.2491 488.145 97.8183 477.605 97.3102V111.085H476.373V97.2524C469.88 96.9437 462.349 96.6093 453.901 96.2717V111.085H452.67V96.2203C445.756 95.9502 438.244 95.6737 430.198 95.41V111.085H428.967V95.3714C421.869 95.1399 414.364 94.9181 406.495 94.7155V111.085H405.264V94.6833C398.06 94.5001 390.561 94.3329 382.791 94.185V111.085H381.56V94.1593C374.292 94.0242 366.793 93.9052 359.088 93.812V111.085H357.857V93.7959C350.541 93.7123 343.042 93.6448 335.385 93.6062V111.085H334.154V93.5998C326.802 93.5644 319.306 93.5516 311.681 93.5676V111.085H310.45V93.5708C303.07 93.5901 295.574 93.6319 287.978 93.7059V111.085H286.747V93.7187C279.344 93.7927 271.848 93.8956 264.275 94.0274V111.085H263.044V94.0499C255.621 94.1818 248.122 94.3457 240.571 94.5419V111.085H239.34V94.5772C231.899 94.7734 224.403 95.0017 216.868 95.2685V111.085H215.637V95.3135V92.4166C216.048 92.4037 216.457 92.3876 216.868 92.3748Z" stroke="#EAFFFB" stroke-miterlimit="10"></path><path d="M512.633 142.753V130.297C512.633 130.297 346.44 104.806 165.473 135.898V169.478" stroke="#EAFFFB" stroke-miterlimit="10" stroke-linecap="round" stroke-linejoin="round"></path><path d="M443.445 174.04V165.819L448.864 163.507V122.782L451.632 120.01H479.681L481.526 122.576V126.563C483.834 126.798 486.023 127.026 488.093 127.248V122.66L489.98 120.01H501.305V109.381C478.463 106.191 449.279 104.358 418.333 103.4V97.1688L417.43 97.1656L301.463 96.5579L300.768 96.5547V103.03C252.044 103.908 215.637 105.603 215.637 105.603V117.978H225.055L227.27 120.197V127.27C229.491 127.029 231.709 126.795 233.918 126.57V120.936L236.505 117.978H263.095L265.679 120.01V127.553" stroke="#EAFFFB" stroke-miterlimit="10"></path><path d="M301.462 92.1211V96.5582L417.43 97.1659V92.5294L301.462 92.1211Z" fill="#095540" stroke="#EAFFFB" stroke-miterlimit="10"></path><path d="M416.438 103.613L410.25 103.568V99.5195L416.438 99.5903V103.613Z" fill="#EAFFFB"></path><path d="M408.438 103.554L394.249 103.452V99.3359L408.438 99.4967V103.554Z" fill="#EAFFFB"></path><path d="M392.438 103.438L368.516 103.267V99.0391L392.438 99.3124V103.438Z" fill="#EAFFFB"></path><path d="M366.703 103.254L349.712 103.132V98.8203L366.703 99.0164V103.254Z" fill="#EAFFFB"></path><path d="M347.891 103.119L324.303 102.948V98.5273L347.891 98.8006V103.119Z" fill="#EAFFFB"></path><path d="M322.492 102.937L310.451 102.85V98.3711L322.492 98.5094V102.937Z" fill="#EAFFFB"></path><path d="M308.633 98.3481V102.837L302.368 102.792V98.2773L308.633 98.3481Z" fill="#EAFFFB"></path><path d="M305.115 88.434L305.118 87.791L313.582 87.807V86.7106L305.115 86.6977L305.118 86.0547L313.582 86.0676L314.225 86.0708L316.539 86.074L317.182 86.0772L320.4 86.0804L321.042 86.0836H322.74L323.383 86.0868L325.944 86.0901H326.587L328.944 86.0933H329.586L331.57 86.0965L332.213 86.0997L333.167 86.1029H333.81L336.989 86.1061L337.632 86.1094L340.808 86.1126L341.451 86.1158L385.402 86.193H386.045L388.356 86.1962H388.999L392.217 86.2026H392.86L394.557 86.2058H395.2L397.758 86.209L398.401 86.2122L400.757 86.2155H401.4L403.384 86.2187H404.027L404.984 86.2219L405.627 86.2251L408.803 86.2283H409.446L412.625 86.2347H413.268L417.055 86.2412L417.051 86.8842L413.268 86.8778V87.9742L417.055 87.9807L417.051 88.6237L413.271 88.6173V92.5882L412.628 92.5914V88.6173L409.449 88.6109V92.6075L408.806 92.6107V88.6109L405.631 88.6044V92.6236L404.988 92.6268V88.6012L404.03 88.598V92.63L403.387 92.6332V88.598L401.404 88.5948V92.6429L400.761 92.6461V88.5916L398.404 88.5883V92.6557L397.762 92.6589V88.5851L395.203 88.5819V92.6332L394.56 92.6364V88.5819L392.863 88.5787V92.6461L392.22 92.6493V88.5787L389.002 88.5723V92.5367L388.359 92.54V88.5723L386.048 88.5691V92.6814L385.405 92.6847V88.5691L341.454 88.4919V92.2216L340.811 92.2249V88.4887L337.635 88.4822V92.2377L336.993 92.2409V88.4822L333.813 88.4758V92.257L333.171 92.2602V88.4758L332.216 88.4726V92.2634L331.573 92.2667V88.4694L329.59 88.4662V92.2763L328.947 92.2795V88.4662L326.591 88.463V92.2924L325.948 92.2956V88.463L323.386 88.4597V92.2731L322.743 92.2763V88.4565L321.046 88.4533V92.2827L320.403 92.286V88.4501L317.185 88.4437V92.1831L316.542 92.1863V88.4437L314.228 88.4404V92.3149L313.585 92.3181V88.4372L305.115 88.434ZM412.632 87.9807V86.8842L409.453 86.8778V87.9742L412.632 87.9807ZM408.81 87.971V86.8746L405.634 86.8714V87.9646L408.81 87.971ZM404.991 87.9646V86.8682L404.033 86.865V87.9614L404.991 87.9646ZM403.39 87.9646V86.8682L401.407 86.865V87.9614L403.39 87.9646ZM400.761 87.9582V86.865L398.404 86.8617V87.9582H400.761ZM397.762 87.9549V86.8585L395.203 86.8553V87.9517L397.762 87.9549ZM394.563 87.9485V86.8521L392.866 86.8489V87.9453L394.563 87.9485ZM392.22 87.9453V86.8489L389.002 86.8424V87.9389L392.22 87.9453ZM388.359 87.9356V86.8392L386.045 86.836V87.9324L388.359 87.9356ZM385.405 87.9324V86.836L341.454 86.7588V87.8553L385.405 87.9324ZM340.808 87.8553V86.7588L337.632 86.7556V87.852L340.808 87.8553ZM336.989 87.8488V86.7524L333.81 86.7492V87.8456L336.989 87.8488ZM333.167 87.8424V86.746L332.213 86.7428V87.8392L333.167 87.8424ZM331.57 87.8392V86.7428L329.586 86.7395V87.836L331.57 87.8392ZM328.944 87.8328V86.7363L326.587 86.7331V87.8295L328.944 87.8328ZM325.944 87.8295V86.7331L323.383 86.7299V87.8263L325.944 87.8295ZM322.74 87.8231V86.7267H321.042V87.8231H322.74ZM320.4 87.8199V86.7235L317.182 86.7203V87.8167L320.4 87.8199ZM316.539 87.8135V86.717L314.225 86.7138V87.8103L316.539 87.8135Z" fill="#EAFFFB"></path><path d="M408.67 86.0751L408.455 86.0655L408.606 83.0109L408.622 82.7087V82.6894L408.635 82.3679L408.821 78.606L408.837 78.2973V78.2845L408.853 77.9629L409.037 74.201L409.053 73.8763C409.053 73.8602 409.056 73.8409 409.056 73.8216L409.069 73.558L409.252 69.7928L409.284 69.1498L409.471 65.3879L409.487 65.0663L409.5 64.7448L409.686 60.9829L409.702 60.6614L409.718 60.3398L409.927 56.0474C409.927 56.0442 409.927 56.041 409.927 56.041L409.943 55.7227H412.605L412.868 60.3398L412.884 60.6614L412.904 60.9829L413.119 64.7448L413.135 65.0663L413.154 65.3879L413.37 69.1498L413.386 69.4713L413.405 69.7928L413.62 73.558L413.637 73.8538C413.64 73.8634 413.64 73.8763 413.64 73.8859L413.656 74.201L413.871 77.9629L413.887 78.2812L413.907 78.606L413.981 79.8921L414.157 82.9884L414.302 85.5575V85.5607L414.344 86.2616L414.161 86.2713L414.218 86.3163L413.829 86.8275L411.374 84.953L408.622 86.8983L408.252 86.3709L408.67 86.0751ZM409.448 78.979L409.304 81.9017L410.946 80.3358L409.448 78.979ZM410.605 60.9829L411.3 62.0729L411.981 60.9829H410.605ZM412.042 60.3398L411.287 58.8286L410.538 60.3398H412.042ZM410.387 64.7448H412.229L411.303 63.2818L410.387 64.7448ZM410.445 65.3879L411.316 66.5679L412.18 65.3879H410.445ZM410.226 69.1498H412.428L411.319 67.6547L410.226 69.1498ZM410.284 69.7928L411.335 71.0372L412.377 69.7928H410.284ZM410.062 73.558H412.624L411.338 72.0371L410.062 73.558ZM410.126 74.201L411.354 75.4904L412.569 74.201H410.126ZM409.905 77.9629H412.82L411.354 76.426L409.905 77.9629ZM409.995 78.606L411.412 79.8921L412.762 78.606H409.995ZM409.75 82.3679H413.19L411.425 80.7699L409.75 82.3679ZM409.66 74.6415L409.522 77.4292L410.911 75.9598L409.66 74.6415ZM409.872 70.3041L409.744 72.9374L410.917 71.5387L409.872 70.3041ZM409.966 68.4167L410.92 67.1113L410.085 65.9827L409.966 68.4167ZM410.191 63.8477L410.92 62.6774L410.297 61.6935L410.191 63.8477ZM410.422 59.1212L410.924 58.1052L410.512 57.2821L410.422 59.1212ZM410.769 56.3657L411.28 57.3818L411.782 56.3657H410.769ZM412.049 57.2789L411.64 58.1052L412.155 59.1309L412.049 57.2789ZM412.299 61.6903L411.682 62.6774L412.422 63.8477L412.299 61.6903ZM412.544 65.9795L411.718 67.1081L412.682 68.4135L412.544 65.9795ZM412.791 70.3008L411.756 71.5355L412.939 72.9342L412.791 70.3008ZM413.039 74.6415L411.798 75.9566L413.196 77.426L413.039 74.6415ZM413.286 78.995L411.891 80.3262L413.44 81.7313L413.286 78.995ZM413.678 85.9047L413.537 83.4257L411.926 84.5639L413.678 85.9047ZM411.39 84.1556L413.01 83.0109H409.892L411.39 84.1556ZM410.84 84.5447L409.233 83.3196L409.114 85.7632L410.84 84.5447Z" stroke="#EAFFFB" stroke-width="0.5" stroke-miterlimit="10"></path><path d="M409.791 57.0605H412.925C413.073 57.0605 413.195 56.9383 413.195 56.7904V55.1763C413.195 55.0284 413.073 54.9062 412.925 54.9062H409.791C409.643 54.9062 409.521 55.0284 409.521 55.1763V56.7904C409.521 56.9383 409.64 57.0605 409.791 57.0605Z" stroke="#EAFFFB" stroke-miterlimit="10"></path><path d="M408.772 57.2789H413.941C414.089 57.2789 414.211 57.1567 414.211 57.0088V55.9927C414.211 55.8448 414.089 55.7227 413.941 55.7227H408.772C408.624 55.7227 408.502 55.8448 408.502 55.9927V57.0088C408.502 57.1567 408.621 57.2789 408.772 57.2789Z" fill="#095540" stroke="#EAFFFB" stroke-width="0.5" stroke-miterlimit="10"></path><path d="M409.042 51.8711H414.162C414.349 51.8711 414.5 52.0222 414.5 52.2087V54.7295C414.5 54.916 414.349 55.0671 414.162 55.0671H409.042C408.855 55.0671 408.704 54.916 408.704 54.7295V52.2087C408.708 52.0222 408.859 51.8711 409.042 51.8711ZM410.006 52.2055V54.7424L412.153 54.7359V52.1991L410.006 52.2055ZM414.179 54.7295L414.162 52.1926L412.475 52.1991V54.7359L414.179 54.7295ZM409.029 54.7295C409.029 54.7391 409.035 54.7456 409.045 54.7456L409.688 54.7424V52.2055L409.029 52.2087V54.7295Z" stroke="#EAFFFB" stroke-width="0.5" stroke-miterlimit="10"></path><path d="M408.497 86.1328H417.016V92.4959H408.497V86.1328Z" fill="#095540" stroke="#EAFFFB" stroke-miterlimit="10"></path><path d="M305.737 85.757L305.772 85.1815V85.1782L305.917 82.6092L306.094 79.5129L306.167 78.2268L306.187 77.902L306.203 77.5837L306.418 73.8218L306.434 73.5067C306.434 73.497 306.434 73.4842 306.438 73.4745L306.454 73.1787L306.669 69.4136L306.688 69.0921L306.704 68.7705L306.92 65.0086L306.939 64.6871L306.955 64.3656L307.17 60.6037L307.19 60.2821L307.206 59.9606L307.379 56.8996H306.129C305.981 56.8996 305.859 56.7775 305.859 56.6296V55.6135C305.859 55.4656 305.981 55.3434 306.129 55.3434H306.878V54.7936C306.878 54.755 306.888 54.7164 306.904 54.6843H305.907C305.721 54.6843 305.57 54.5332 305.57 54.3467V51.8259C305.57 51.6394 305.721 51.4883 305.907 51.4883H311.028C311.214 51.4883 311.365 51.6394 311.365 51.8259V54.3467C311.365 54.5332 311.214 54.6843 311.028 54.6843H310.529C310.546 54.7164 310.555 54.755 310.555 54.7936V55.3434H311.304C311.452 55.3434 311.574 55.4656 311.574 55.6135V56.6296C311.574 56.7775 311.452 56.8996 311.304 56.8996H310.211L310.359 59.9606L310.375 60.2821L310.391 60.6037L310.578 64.3656L310.591 64.6871L310.607 65.0086L310.793 68.7705L310.825 69.4136L311.008 73.1787L311.021 73.4424C311.021 73.4617 311.025 73.481 311.025 73.497L311.041 73.8218L311.224 77.5837L311.24 77.9052V77.9181L311.256 78.2268L311.442 81.9887L311.455 82.3102V82.3295L311.471 82.6317L311.497 83.1237L311.648 85.8631L311.828 85.9917L311.667 86.22L311.677 86.384L311.59 86.3325L311.577 86.3518V92.1233H303.059V85.7602H305.737V85.757ZM307.595 51.8162L305.907 51.8098L305.891 54.3467L307.591 54.3531V51.8162H307.595ZM310.06 51.8227L307.913 51.8162V54.3531L310.06 54.3596V51.8227ZM311.041 54.3499V51.8291L310.382 51.8259V54.3628L311.025 54.366C311.034 54.3628 311.041 54.3563 311.041 54.3499ZM308.771 62.9026L307.845 64.3656H309.687L308.771 62.9026ZM308.774 61.6937L309.469 60.6037H308.093L308.774 61.6937ZM307.894 65.0086L308.758 66.1887L309.629 65.0086H307.894ZM307.53 65.6003L307.392 68.0342L308.357 66.7288L307.53 65.6003ZM308.392 62.2981L307.775 61.311L307.653 63.4685L308.392 62.2981ZM309.536 59.9606L308.787 58.4494L308.032 59.9606H309.536ZM309.652 58.742L309.562 56.9028L309.151 57.726L309.652 58.742ZM309.154 62.2981L309.883 63.4685L309.777 61.3142L309.154 62.2981ZM309.154 66.732L310.108 68.0375L309.989 65.6035L309.154 66.732ZM308.755 67.2754L307.646 68.7705H309.848L308.755 67.2754ZM307.698 69.4136L308.739 70.6579L309.79 69.4136H307.698ZM308.736 71.6579L307.45 73.1787H310.012L308.736 71.6579ZM307.505 73.8218L308.72 75.1111L309.948 73.8218H307.505ZM307.254 77.5837H310.169L308.72 76.0468L307.254 77.5837ZM307.312 78.2268L308.662 79.5129L310.079 78.2268H307.312ZM308.649 80.3907L306.884 81.9887H310.324L308.649 80.3907ZM307.064 82.6317L308.684 83.7764L310.182 82.6317H307.064ZM307.151 85.757H310.375L308.7 84.5738L307.151 85.757ZM306.396 85.5255L308.148 84.1847L306.537 83.0465L306.396 85.5255ZM306.634 81.352L308.183 79.9469L306.788 78.6158L306.634 81.352ZM306.878 77.0467L308.276 75.5773L307.035 74.2623L306.878 77.0467ZM307.135 72.555L308.318 71.1563L307.283 69.9216L307.135 72.555ZM307.919 58.7516L308.434 57.726L308.025 56.8996L307.919 58.7516ZM308.742 56.8996L308.794 57.0025L308.845 56.8996H308.742ZM310.202 69.9248L309.157 71.1595L310.33 72.5582L310.202 69.9248ZM310.414 74.2623L309.163 75.5806L310.552 77.0499L310.414 74.2623ZM310.626 78.5997L309.128 79.9566L310.771 81.5224L310.626 78.5997ZM310.841 82.9404L309.234 84.1654L310.96 85.384L310.841 82.9404Z" stroke="#EAFFFB" stroke-width="0.5" stroke-miterlimit="10"></path><path d="M422.365 120.406V124.242L425.258 124.277V120.442L422.365 120.406Z" fill="#EAFFFB"></path><path d="M415.998 120.324V124.16L418.891 124.195V120.36L415.998 120.324Z" fill="#EAFFFB"></path><path d="M370.255 119.77V123.602L373.148 123.638V119.805L370.255 119.77Z" fill="#EAFFFB"></path><path d="M363.888 119.691V123.524L366.781 123.559V119.727L363.888 119.691Z" fill="#EAFFFB"></path><path d="M347.193 119.484V123.32L350.086 123.356V119.52L347.193 119.484Z" fill="#EAFFFB"></path><path d="M340.826 119.41V123.246L343.719 123.281V119.446L340.826 119.41Z" fill="#EAFFFB"></path><path d="M325.154 119.219V123.051L328.047 123.087V119.254L325.154 119.219Z" fill="#EAFFFB"></path><path d="M318.779 119.137V122.973L321.672 123.008V119.172L318.779 119.137Z" fill="#EAFFFB"></path><path d="M279.544 118.664V122.497L282.438 122.532V118.699L279.544 118.664Z" fill="#EAFFFB"></path><path d="M301.615 118.93V122.766L304.508 122.801V118.965L301.615 118.93Z" fill="#EAFFFB"></path><path d="M273.169 118.582V122.415L276.062 122.45V118.617L273.169 118.582Z" fill="#EAFFFB"></path><path d="M392.232 120.035V123.871L395.125 123.906V120.071L392.232 120.035Z" fill="#EAFFFB"></path><path d="M345.672 262.313L295.809 261.039L270.766 260.4L245.635 259.76L220.415 259.114L195.091 258.467L169.659 257.818L144.097 257.165L66.5231 255.184L40.3157 254.516" stroke="#EAFFFB" stroke-miterlimit="10"></path><path d="M345.672 291.719L295.809 290.446L270.766 289.806L245.635 289.166L220.415 288.52L195.091 287.873L169.659 287.224L144.097 286.571L66.5231 284.591L40.3157 283.922" stroke="#EAFFFB" stroke-miterlimit="10"></path><path d="M56.4609 179.715V207.379" stroke="#EAFFFB" stroke-miterlimit="10"></path><path d="M411.555 314.944V285.131V254.875V224.957" stroke="#EAFFFB" stroke-miterlimit="10" stroke-linecap="round" stroke-linejoin="round"></path><path d="M420.594 219.836V248.954V278.354V308.064V332.79" stroke="#EAFFFB" stroke-miterlimit="10" stroke-linecap="round" stroke-linejoin="round"></path><path d="M429.633 324.504V300.389V271.586V243.038V214.724V186.625" stroke="#EAFFFB" stroke-miterlimit="10" stroke-linecap="round" stroke-linejoin="round"></path><path d="M439.625 181.805V209.064V236.491V264.097V291.897V315.336" stroke="#EAFFFB" stroke-miterlimit="10" stroke-linecap="round" stroke-linejoin="round"></path><path d="M447.711 177.91V204.491V231.197V258.042V285.028V307.924" stroke="#EAFFFB" stroke-miterlimit="10" stroke-linecap="round" stroke-linejoin="round"></path><path d="M454.945 301.291V278.884V252.621V226.462V216.324V200.398V174.422" stroke="#EAFFFB" stroke-miterlimit="10" stroke-linecap="round" stroke-linejoin="round"></path><path d="M470.086 287.402V266.017V241.276V216.544V191.824V167.121" stroke="#EAFFFB" stroke-miterlimit="10" stroke-linecap="round" stroke-linejoin="round"></path><path d="M476.18 164.184V188.376V212.555V236.708V260.839V281.812" stroke="#EAFFFB" stroke-miterlimit="10" stroke-linecap="round" stroke-linejoin="round"></path><path d="M482.961 160.914V184.54V208.115V231.631V255.081V275.598" stroke="#EAFFFB" stroke-miterlimit="10" stroke-linecap="round" stroke-linejoin="round"></path><path d="M489.281 157.867V180.96V203.971V226.89V249.706V269.795" stroke="#EAFFFB" stroke-miterlimit="10" stroke-linecap="round" stroke-linejoin="round"></path><path d="M494.711 155.25V177.889V200.419V222.826V245.095V264.821" stroke="#EAFFFB" stroke-miterlimit="10" stroke-linecap="round" stroke-linejoin="round"></path><path d="M499.688 260.248V240.863V219.093V197.155V175.069V152.848" stroke="#EAFFFB" stroke-miterlimit="10" stroke-linecap="round" stroke-linejoin="round"></path><path d="M510.539 250.301V231.646V210.965V190.05V168.928V147.617" stroke="#EAFFFB" stroke-miterlimit="10" stroke-linecap="round" stroke-linejoin="round"></path><path d="M515.523 145.215V166.108V186.786V207.232V227.411V245.732" stroke="#EAFFFB" stroke-miterlimit="10" stroke-linecap="round" stroke-linejoin="round"></path><path d="M520.016 143.051V163.568V183.847V203.865V223.597V241.613" stroke="#EAFFFB" stroke-miterlimit="10" stroke-linecap="round" stroke-linejoin="round"></path><path d="M415.62 312.295L420.596 308.067L429.635 300.389L439.626 291.9L447.71 285.029L454.942 278.885L470.086 266.02L476.18 260.841L482.96 255.082L489.286 249.706L494.708 245.098L499.691 240.867L510.539 231.649L515.522 227.414L520.016 223.598" stroke="#EAFFFB" stroke-miterlimit="10" stroke-linecap="round" stroke-linejoin="round"></path><path d="M520.016 203.863L515.522 207.233L510.539 210.966L499.691 219.094L494.708 222.827L489.286 226.888L482.96 231.631L476.18 236.708L470.086 241.277L454.942 252.62L447.71 258.041L439.626 264.099L429.635 271.584L420.596 278.355L411.557 285.13L386.311 284.468" stroke="#EAFFFB" stroke-miterlimit="10" stroke-linecap="round" stroke-linejoin="round"></path><path d="M520.016 183.844L515.522 186.786L510.539 190.049H499.691" stroke="#EAFFFB" stroke-miterlimit="10" stroke-linecap="round" stroke-linejoin="round"></path><path d="M499.688 197.156L494.705 200.42L489.282 203.969L482.956 208.114L476.177 212.554L470.082 216.545" stroke="#EAFFFB" stroke-miterlimit="10" stroke-linecap="round" stroke-linejoin="round"></path><path d="M454.945 216.324L469.789 216.623L454.945 226.462L447.712 231.198L439.628 236.494L429.637 243.037L420.598 248.956L411.559 254.876L386.77 254.297" stroke="#EAFFFB" stroke-miterlimit="10" stroke-linecap="round" stroke-linejoin="round"></path><path d="M429.638 214.723L56.4603 207.382L12.326 217.909L411.56 224.957L420.599 219.838L429.638 214.723ZM429.638 214.723L439.628 209.067L447.713 204.492L454.945 200.398" stroke="#EAFFFB" stroke-miterlimit="10" stroke-linecap="round" stroke-linejoin="round"></path><path d="M470.082 191.825L476.177 188.375L482.956 184.539L489.282 180.958L494.705 177.89L499.688 175.07" stroke="#EAFFFB" stroke-miterlimit="10" stroke-linecap="round" stroke-linejoin="round"></path><path d="M520.016 163.566L515.522 166.11L510.539 168.93H499.691" stroke="#EAFFFB" stroke-miterlimit="10" stroke-linecap="round" stroke-linejoin="round"></path><path d="M443.438 174.04V165.818L470.082 167.12L476.177 164.182L482.956 160.912L489.282 157.864L494.705 155.249L499.688 152.848H474.007L443.438 165.818" stroke="#EAFFFB" stroke-miterlimit="10" stroke-linecap="round" stroke-linejoin="round"></path><path d="M490.327 146.911L510.539 147.618L512.629 146.612L515.522 145.216L520.016 143.049L512.629 142.753L502.654 142.352L490.327 146.911Z" stroke="#EAFFFB" stroke-miterlimit="10" stroke-linecap="round" stroke-linejoin="round"></path><path d="M56.4568 179.717L429.635 186.624L439.625 181.807L76.0391 175.855L56.4568 179.717Z" stroke="#EAFFFB" stroke-miterlimit="10" stroke-linecap="round" stroke-linejoin="round"></path><path d="M94.3136 172.468L447.713 177.908L454.945 174.419L113.52 168.59L94.3136 172.468Z" stroke="#EAFFFB" stroke-miterlimit="10" stroke-linecap="round" stroke-linejoin="round"></path><path d="M345.664 232.91L320.771 232.276H320.768L295.802 231.636L270.758 230.997L245.631 230.357H245.627L220.407 229.71L195.083 229.064L169.651 228.415L144.093 227.762H144.089L118.39 227.106H118.387L92.5426 226.444H92.5394L66.5185 225.781H66.5153L40.3111 225.109H40.3079" stroke="#EAFFFB" stroke-miterlimit="10"></path><path d="M411.557 224.956L420.596 219.837L429.632 214.721H429.635L439.626 209.066L441.844 207.809" stroke="#EAFFFB" stroke-miterlimit="10" stroke-linecap="round" stroke-linejoin="round"></path><path d="M385.867 313.718L387.22 224.525L406.25 214.262" stroke="#EAFFFB" stroke-miterlimit="10" stroke-linecap="round" stroke-linejoin="round"></path><path d="M382.875 213.805L362.833 224.097H362.83L345.668 232.913V313.72" stroke="#EAFFFB" stroke-miterlimit="10" stroke-linecap="round" stroke-linejoin="round"></path><path d="M359.773 185.332L359.503 213.344L338.388 223.665H338.385L320.773 232.279H320.769" stroke="#EAFFFB" stroke-miterlimit="10" stroke-linecap="round" stroke-linejoin="round"></path><path d="M336.141 212.883L313.884 223.233H313.881L295.803 231.638V306.053" stroke="#EAFFFB" stroke-miterlimit="10" stroke-linecap="round" stroke-linejoin="round"></path><path d="M312.789 212.426L289.317 222.802L270.763 231.001V307.171" stroke="#EAFFFB" stroke-miterlimit="10" stroke-linecap="round" stroke-linejoin="round"></path><path d="M289.445 211.965H289.442L264.678 222.366H264.675L245.636 230.36H245.632V307.865" stroke="#EAFFFB" stroke-miterlimit="10" stroke-linecap="round" stroke-linejoin="round"></path><path d="M266.117 211.508H266.114L239.955 221.929L220.414 229.713V307.17" stroke="#EAFFFB" stroke-miterlimit="10" stroke-linecap="round" stroke-linejoin="round"></path><path d="M242.781 211.047L215.143 221.49H215.14L195.085 229.065V305.255" stroke="#EAFFFB" stroke-miterlimit="10" stroke-linecap="round" stroke-linejoin="round"></path><path d="M219.477 210.59H219.473L190.241 221.052L169.656 228.419V303.191" stroke="#EAFFFB" stroke-miterlimit="10" stroke-linecap="round" stroke-linejoin="round"></path><path d="M196.18 210.133H196.177L165.234 220.611H165.231L144.099 227.766H144.096V303.19" stroke="#EAFFFB" stroke-miterlimit="10" stroke-linecap="round" stroke-linejoin="round"></path><path d="M172.891 209.672H172.887L140.1 220.167H140.097L118.396 227.108H118.393" stroke="#EAFFFB" stroke-miterlimit="10" stroke-linecap="round" stroke-linejoin="round"></path><path d="M149.625 209.215L114.835 219.719H114.832L92.5461 226.446H92.5429" stroke="#EAFFFB" stroke-miterlimit="10" stroke-linecap="round" stroke-linejoin="round"></path><path d="M126.375 208.758H126.372L89.4153 219.269H89.4121L66.522 225.783H66.5188V302.494" stroke="#EAFFFB" stroke-miterlimit="10" stroke-linecap="round" stroke-linejoin="round"></path><path d="M103.148 208.301H103.145L63.8358 218.818H63.8325L40.3124 225.11H40.3093V300.22" stroke="#EAFFFB" stroke-miterlimit="10" stroke-linecap="round" stroke-linejoin="round"></path><path d="M79.9375 207.844H79.9343L38.0501 218.361" stroke="#EAFFFB" stroke-miterlimit="10" stroke-linecap="round" stroke-linejoin="round"></path><path d="M56.7656 207.391L32.5319 213.091L32.4066 213.12" stroke="#EAFFFB" stroke-miterlimit="10" stroke-linecap="round" stroke-linejoin="round"></path><path d="M320.773 232.277V305.313" stroke="#EAFFFB" stroke-miterlimit="10" stroke-linecap="round" stroke-linejoin="round"></path><path d="M118.391 227.105V304.032" stroke="#EAFFFB" stroke-miterlimit="10" stroke-linecap="round" stroke-linejoin="round"></path><path d="M92.5469 226.445V304.796" stroke="#EAFFFB" stroke-miterlimit="10" stroke-linecap="round" stroke-linejoin="round"></path><path d="M12.3281 217.906V306.832" stroke="#EAFFFB" stroke-miterlimit="10" stroke-linecap="round" stroke-linejoin="round"></path><path d="M12.3243 245.043L40.3125 246.088" stroke="#EAFFFB" stroke-miterlimit="10" stroke-linecap="round" stroke-linejoin="round"></path><path d="M12.3243 273.281L40.3125 274.326" stroke="#EAFFFB" stroke-miterlimit="10" stroke-linecap="round" stroke-linejoin="round"></path><path d="M127.359 176.68L102.438 180.551V208.257" stroke="#EAFFFB" stroke-miterlimit="10" stroke-linecap="round" stroke-linejoin="round"></path><path d="M176.242 177.496L149.623 181.441V209.215" stroke="#EAFFFB" stroke-miterlimit="10" stroke-linecap="round" stroke-linejoin="round"></path><path d="M213.484 178.008L195.847 182.271V210.087" stroke="#EAFFFB" stroke-miterlimit="10" stroke-linecap="round" stroke-linejoin="round"></path><path d="M429.638 186.624L439.628 181.807L447.71 177.91H447.713L454.945 174.422" stroke="#EAFFFB" stroke-miterlimit="10" stroke-linecap="round" stroke-linejoin="round"></path><path d="M406.256 214.263L406.369 186.194L416.668 181.432L425.035 177.561H425.038L432.653 174.043H432.656" stroke="#EAFFFB" stroke-miterlimit="10" stroke-linecap="round" stroke-linejoin="round"></path><path d="M382.879 213.804L383.078 185.763L393.711 181.056H393.715L402.4 177.214L410.426 173.664H410.43" stroke="#EAFFFB" stroke-miterlimit="10" stroke-linecap="round" stroke-linejoin="round"></path><path d="M359.779 185.333H359.782L370.775 180.68H370.779L379.808 176.867L388.281 173.285" stroke="#EAFFFB" stroke-miterlimit="10" stroke-linecap="round" stroke-linejoin="round"></path><path d="M336.146 212.882L336.458 184.896L347.859 180.305L357.261 176.517L366.227 172.906" stroke="#EAFFFB" stroke-miterlimit="10" stroke-linecap="round" stroke-linejoin="round"></path><path d="M312.789 212.424L313.117 184.466L324.959 179.93H324.962L334.773 176.171H334.776L344.278 172.531H344.281" stroke="#EAFFFB" stroke-miterlimit="10" stroke-linecap="round" stroke-linejoin="round"></path><path d="M289.443 211.962L289.742 184.03L302.075 179.555H302.079L312.346 175.825L322.442 172.156H322.445" stroke="#EAFFFB" stroke-miterlimit="10" stroke-linecap="round" stroke-linejoin="round"></path><path d="M266.111 211.508L266.355 183.602H266.358L279.226 179.181H279.229L290.007 175.483L300.762 171.789H300.766" stroke="#EAFFFB" stroke-miterlimit="10" stroke-linecap="round" stroke-linejoin="round"></path><path d="M242.787 211.047L242.938 183.167L256.413 178.807H256.416L267.757 175.139H267.76L279.258 171.422" stroke="#EAFFFB" stroke-miterlimit="10" stroke-linecap="round" stroke-linejoin="round"></path><path d="M219.47 210.588L219.473 182.733H219.477L233.627 178.435H233.63L245.607 174.798H245.61L257.938 171.059" stroke="#EAFFFB" stroke-miterlimit="10" stroke-linecap="round" stroke-linejoin="round"></path><path d="M33.9443 212.75H33.9635L58.5958 213.2L83.1445 213.65L107.584 214.1L131.959 214.547L156.257 214.991L180.5 215.435L204.68 215.878L228.82 216.322L252.909 216.763L276.959 217.203L300.971 217.644L324.954 218.084L348.905 218.521L372.824 218.962L396.72 219.399L420.594 219.837" stroke="#EAFFFB" stroke-miterlimit="10" stroke-linecap="round" stroke-linejoin="round"></path><path d="M94.3125 172.469V176.153" stroke="#EAFFFB" stroke-miterlimit="10"></path><path d="M133.297 168.93L116.926 172.82V176.524" stroke="#EAFFFB" stroke-miterlimit="10"></path><path d="M157.562 169.328L139.25 173.161V176.891" stroke="#EAFFFB" stroke-miterlimit="10"></path><path d="M218.375 170.383L202.197 174.106V177.894" stroke="#EAFFFB" stroke-miterlimit="10"></path><path d="M187.352 169.852L170.148 173.572V177.494" stroke="#EAFFFB" stroke-miterlimit="10"></path><path d="M454.945 191.527L469.789 191.826" stroke="#EAFFFB" stroke-miterlimit="10" stroke-linecap="round" stroke-linejoin="round"></path><path d="M362.828 224.094V312.852" stroke="#EAFFFB" stroke-miterlimit="10" stroke-linecap="round" stroke-linejoin="round"></path><path d="M345.666 262.313L362.828 253.5L386.766 254.294" stroke="#EAFFFB" stroke-miterlimit="10" stroke-linecap="round" stroke-linejoin="round"></path><path d="M345.667 291.665L362.829 282.852L386.32 283.919" stroke="#EAFFFB" stroke-miterlimit="10" stroke-linecap="round" stroke-linejoin="round"></path><path d="M104.968 226.762L104.717 256.162L105.398 256.179L105.058 285.573L104.412 285.557L104.907 304.434" stroke="#EAFFFB" stroke-miterlimit="10"></path><path d="M101.73 239.487H107.886C108.204 239.487 108.461 239.23 108.461 238.911C108.461 238.593 108.204 238.336 107.886 238.336H101.73C101.412 238.336 101.155 238.593 101.155 238.911C101.155 239.23 101.412 239.487 101.73 239.487Z" fill="#095540" stroke="#EAFFFB" stroke-miterlimit="10"></path><path d="M101.73 246.546H107.886C108.204 246.546 108.461 246.288 108.461 245.97C108.461 245.652 108.204 245.395 107.886 245.395H101.73C101.412 245.395 101.155 245.652 101.155 245.97C101.155 246.288 101.412 246.546 101.73 246.546Z" fill="#095540" stroke="#EAFFFB" stroke-miterlimit="10"></path><path d="M102.324 268.546H108.479C108.798 268.546 109.055 268.288 109.055 267.97C109.055 267.652 108.798 267.395 108.479 267.395H102.324C102.005 267.395 101.748 267.652 101.748 267.97C101.748 268.288 102.005 268.546 102.324 268.546Z" fill="#095540" stroke="#EAFFFB" stroke-miterlimit="10"></path><path d="M102.324 275.604H108.479C108.798 275.604 109.055 275.347 109.055 275.029C109.055 274.71 108.798 274.453 108.479 274.453H102.324C102.005 274.453 101.748 274.71 101.748 275.029C101.748 275.347 102.005 275.604 102.324 275.604Z" fill="#095540" stroke="#EAFFFB" stroke-miterlimit="10"></path><path d="M101.831 296.542H107.987C108.305 296.542 108.562 296.284 108.562 295.966C108.562 295.648 108.305 295.391 107.987 295.391H101.831C101.513 295.391 101.256 295.648 101.256 295.966C101.259 296.284 101.516 296.542 101.831 296.542Z" fill="#095540" stroke="#EAFFFB" stroke-miterlimit="10"></path><path d="M101.831 303.6H107.987C108.305 303.6 108.562 303.343 108.562 303.025C108.562 302.706 108.305 302.449 107.987 302.449H101.831C101.513 302.449 101.256 302.706 101.256 303.025C101.259 303.343 101.516 303.6 101.831 303.6Z" fill="#095540" stroke="#EAFFFB" stroke-miterlimit="10"></path><path d="M130.785 227.426L130.537 256.823L131.219 256.843L130.878 286.237L130.232 286.221L130.724 305.098" stroke="#EAFFFB" stroke-miterlimit="10"></path><path d="M127.55 240.147H133.706C134.024 240.147 134.281 239.89 134.281 239.572C134.281 239.253 134.024 238.996 133.706 238.996H127.55C127.232 238.996 126.975 239.253 126.975 239.572C126.975 239.89 127.232 240.147 127.55 240.147Z" fill="#095540" stroke="#EAFFFB" stroke-miterlimit="10"></path><path d="M127.55 247.21H133.706C134.024 247.21 134.281 246.952 134.281 246.634C134.281 246.316 134.024 246.059 133.706 246.059H127.55C127.232 246.059 126.975 246.316 126.975 246.634C126.975 246.952 127.232 247.21 127.55 247.21Z" fill="#095540" stroke="#EAFFFB" stroke-miterlimit="10"></path><path d="M128.144 269.206H134.3C134.618 269.206 134.875 268.949 134.875 268.63C134.875 268.312 134.618 268.055 134.3 268.055H128.144C127.826 268.055 127.569 268.312 127.569 268.63C127.569 268.949 127.826 269.206 128.144 269.206Z" fill="#095540" stroke="#EAFFFB" stroke-miterlimit="10"></path><path d="M128.144 276.268H134.3C134.618 276.268 134.875 276.011 134.875 275.693C134.875 275.374 134.618 275.117 134.3 275.117H128.144C127.826 275.117 127.569 275.374 127.569 275.693C127.569 276.011 127.826 276.268 128.144 276.268Z" fill="#095540" stroke="#EAFFFB" stroke-miterlimit="10"></path><path d="M127.652 297.202H133.807C134.126 297.202 134.383 296.945 134.383 296.626C134.383 296.308 134.126 296.051 133.807 296.051H127.652C127.334 296.051 127.076 296.308 127.076 296.626C127.076 296.945 127.334 297.202 127.652 297.202Z" fill="#095540" stroke="#EAFFFB" stroke-miterlimit="10"></path><path d="M127.652 304.26H133.807C134.126 304.26 134.383 304.003 134.383 303.685C134.383 303.367 134.126 303.109 133.807 303.109H127.652C127.334 303.109 127.076 303.367 127.076 303.685C127.076 304.003 127.334 304.26 127.652 304.26Z" fill="#095540" stroke="#EAFFFB" stroke-miterlimit="10"></path><path d="M157.054 228.121L156.803 257.519L157.484 257.538L157.144 286.932L156.498 286.916L156.989 305.793" stroke="#EAFFFB" stroke-miterlimit="10"></path><path d="M153.816 240.846H159.972C160.29 240.846 160.547 240.589 160.547 240.271C160.547 239.953 160.29 239.695 159.972 239.695H153.816C153.498 239.695 153.24 239.953 153.24 240.271C153.24 240.589 153.498 240.846 153.816 240.846Z" fill="#095540" stroke="#EAFFFB" stroke-miterlimit="10"></path><path d="M153.816 247.905H159.972C160.29 247.905 160.547 247.648 160.547 247.329C160.547 247.011 160.29 246.754 159.972 246.754H153.816C153.498 246.754 153.24 247.011 153.24 247.329C153.24 247.648 153.498 247.905 153.816 247.905Z" fill="#095540" stroke="#EAFFFB" stroke-miterlimit="10"></path><path d="M154.41 269.905H160.565C160.883 269.905 161.141 269.648 161.141 269.329C161.141 269.011 160.883 268.754 160.565 268.754H154.41C154.091 268.754 153.834 269.011 153.834 269.329C153.834 269.648 154.091 269.905 154.41 269.905Z" fill="#095540" stroke="#EAFFFB" stroke-miterlimit="10"></path><path d="M154.41 276.967H160.565C160.883 276.967 161.141 276.71 161.141 276.392C161.141 276.074 160.883 275.816 160.565 275.816H154.41C154.091 275.816 153.834 276.074 153.834 276.392C153.834 276.71 154.091 276.967 154.41 276.967Z" fill="#095540" stroke="#EAFFFB" stroke-miterlimit="10"></path><path d="M153.917 297.901H160.073C160.391 297.901 160.648 297.644 160.648 297.326C160.648 297.007 160.391 296.75 160.073 296.75H153.917C153.599 296.75 153.342 297.007 153.342 297.326C153.342 297.644 153.599 297.901 153.917 297.901Z" fill="#095540" stroke="#EAFFFB" stroke-miterlimit="10"></path><path d="M153.917 304.96H160.073C160.391 304.96 160.648 304.702 160.648 304.384C160.648 304.066 160.391 303.809 160.073 303.809H153.917C153.599 303.809 153.342 304.066 153.342 304.384C153.342 304.702 153.599 304.96 153.917 304.96Z" fill="#095540" stroke="#EAFFFB" stroke-miterlimit="10"></path><path d="M207.202 229.395L206.951 258.792L207.633 258.811L207.292 288.206L206.646 288.19L207.138 307.067" stroke="#EAFFFB" stroke-miterlimit="10"></path><path d="M203.956 242.12H210.112C210.43 242.12 210.688 241.863 210.688 241.544C210.688 241.226 210.43 240.969 210.112 240.969H203.956C203.638 240.969 203.381 241.226 203.381 241.544C203.381 241.863 203.638 242.12 203.956 242.12Z" fill="#095540" stroke="#EAFFFB" stroke-miterlimit="10"></path><path d="M203.956 249.178H210.112C210.43 249.178 210.688 248.921 210.688 248.603C210.688 248.285 210.43 248.027 210.112 248.027H203.956C203.638 248.027 203.381 248.285 203.381 248.603C203.381 248.921 203.638 249.178 203.956 249.178Z" fill="#095540" stroke="#EAFFFB" stroke-miterlimit="10"></path><path d="M204.55 271.178H210.706C211.024 271.178 211.281 270.921 211.281 270.603C211.281 270.285 211.024 270.027 210.706 270.027H204.55C204.232 270.027 203.975 270.285 203.975 270.603C203.975 270.921 204.232 271.178 204.55 271.178Z" fill="#095540" stroke="#EAFFFB" stroke-miterlimit="10"></path><path d="M204.55 278.241H210.706C211.024 278.241 211.281 277.984 211.281 277.665C211.281 277.347 211.024 277.09 210.706 277.09H204.55C204.232 277.09 203.975 277.347 203.975 277.665C203.975 277.984 204.232 278.241 204.55 278.241Z" fill="#095540" stroke="#EAFFFB" stroke-miterlimit="10"></path><path d="M204.058 299.171H210.214C210.532 299.171 210.789 298.913 210.789 298.595C210.789 298.277 210.532 298.02 210.214 298.02H204.058C203.74 298.02 203.483 298.277 203.483 298.595C203.483 298.913 203.74 299.171 204.058 299.171Z" fill="#095540" stroke="#EAFFFB" stroke-miterlimit="10"></path><path d="M204.058 306.233H210.214C210.532 306.233 210.789 305.976 210.789 305.658C210.789 305.339 210.532 305.082 210.214 305.082H204.058C203.74 305.082 203.483 305.339 203.483 305.658C203.483 305.976 203.74 306.233 204.058 306.233Z" fill="#095540" stroke="#EAFFFB" stroke-miterlimit="10"></path><path d="M232.777 230.043L232.526 259.44L233.211 259.46L232.867 288.854L232.221 288.838L232.716 307.715" stroke="#EAFFFB" stroke-miterlimit="10"></path><path d="M229.535 242.764H235.69C236.008 242.764 236.266 242.507 236.266 242.189C236.266 241.87 236.008 241.613 235.69 241.613H229.535C229.216 241.613 228.959 241.87 228.959 242.189C228.959 242.507 229.216 242.764 229.535 242.764Z" fill="#095540" stroke="#EAFFFB" stroke-miterlimit="10"></path><path d="M229.535 249.827H235.69C236.008 249.827 236.266 249.57 236.266 249.251C236.266 248.933 236.008 248.676 235.69 248.676H229.535C229.216 248.676 228.959 248.933 228.959 249.251C228.959 249.57 229.216 249.827 229.535 249.827Z" fill="#095540" stroke="#EAFFFB" stroke-miterlimit="10"></path><path d="M230.128 271.827H236.284C236.602 271.827 236.859 271.57 236.859 271.251C236.859 270.933 236.602 270.676 236.284 270.676H230.128C229.81 270.676 229.553 270.933 229.553 271.251C229.553 271.57 229.81 271.827 230.128 271.827Z" fill="#095540" stroke="#EAFFFB" stroke-miterlimit="10"></path><path d="M230.128 278.885H236.284C236.602 278.885 236.859 278.628 236.859 278.31C236.859 277.992 236.602 277.734 236.284 277.734H230.128C229.81 277.734 229.553 277.992 229.553 278.31C229.553 278.628 229.81 278.885 230.128 278.885Z" fill="#095540" stroke="#EAFFFB" stroke-miterlimit="10"></path><path d="M229.636 299.819H235.792C236.11 299.819 236.367 299.562 236.367 299.244C236.367 298.925 236.11 298.668 235.792 298.668H229.636C229.318 298.668 229.061 298.925 229.061 299.244C229.064 299.562 229.321 299.819 229.636 299.819Z" fill="#095540" stroke="#EAFFFB" stroke-miterlimit="10"></path><path d="M229.636 306.878H235.792C236.11 306.878 236.367 306.62 236.367 306.302C236.367 305.984 236.11 305.727 235.792 305.727H229.636C229.318 305.727 229.061 305.984 229.061 306.302C229.064 306.62 229.321 306.878 229.636 306.878Z" fill="#095540" stroke="#EAFFFB" stroke-miterlimit="10"></path><path d="M257.332 230.656L257.084 260.057L257.766 260.073L257.425 289.467L256.779 289.451L257.271 308.332" stroke="#EAFFFB" stroke-miterlimit="10"></path><path d="M254.097 243.378H260.253C260.571 243.378 260.828 243.12 260.828 242.802C260.828 242.484 260.571 242.227 260.253 242.227H254.097C253.779 242.227 253.522 242.484 253.522 242.802C253.522 243.12 253.779 243.378 254.097 243.378Z" fill="#095540" stroke="#EAFFFB" stroke-miterlimit="10"></path><path d="M254.097 250.44H260.253C260.571 250.44 260.828 250.183 260.828 249.865C260.828 249.546 260.571 249.289 260.253 249.289H254.097C253.779 249.289 253.522 249.546 253.522 249.865C253.522 250.183 253.779 250.44 254.097 250.44Z" fill="#095540" stroke="#EAFFFB" stroke-miterlimit="10"></path><path d="M254.691 272.444H260.846C261.165 272.444 261.422 272.187 261.422 271.869C261.422 271.55 261.165 271.293 260.846 271.293H254.691C254.373 271.293 254.115 271.55 254.115 271.869C254.115 272.187 254.373 272.444 254.691 272.444Z" fill="#095540" stroke="#EAFFFB" stroke-miterlimit="10"></path><path d="M254.691 279.499H260.846C261.165 279.499 261.422 279.242 261.422 278.923C261.422 278.605 261.165 278.348 260.846 278.348H254.691C254.373 278.348 254.115 278.605 254.115 278.923C254.115 279.242 254.373 279.499 254.691 279.499Z" fill="#095540" stroke="#EAFFFB" stroke-miterlimit="10"></path><path d="M254.191 300.436H260.346C260.665 300.436 260.922 300.179 260.922 299.861C260.922 299.542 260.665 299.285 260.346 299.285H254.191C253.873 299.285 253.615 299.542 253.615 299.861C253.615 300.179 253.873 300.436 254.191 300.436Z" fill="#095540" stroke="#EAFFFB" stroke-miterlimit="10"></path><path d="M254.191 307.495H260.346C260.665 307.495 260.922 307.238 260.922 306.919C260.922 306.601 260.665 306.344 260.346 306.344H254.191C253.873 306.344 253.615 306.601 253.615 306.919C253.615 307.238 253.873 307.495 254.191 307.495Z" fill="#095540" stroke="#EAFFFB" stroke-miterlimit="10"></path><path d="M283.371 231.273L283.123 260.671L283.805 260.69L283.464 290.085L282.818 290.069L283.31 308.946" stroke="#EAFFFB" stroke-miterlimit="10"></path><path d="M280.128 243.995H286.284C286.602 243.995 286.859 243.738 286.859 243.419C286.859 243.101 286.602 242.844 286.284 242.844H280.128C279.81 242.844 279.553 243.101 279.553 243.419C279.553 243.738 279.81 243.995 280.128 243.995Z" fill="#095540" stroke="#EAFFFB" stroke-miterlimit="10"></path><path d="M280.128 251.057H286.284C286.602 251.057 286.859 250.8 286.859 250.482C286.859 250.163 286.602 249.906 286.284 249.906H280.128C279.81 249.906 279.553 250.163 279.553 250.482C279.553 250.8 279.81 251.057 280.128 251.057Z" fill="#095540" stroke="#EAFFFB" stroke-miterlimit="10"></path><path d="M280.73 273.057H286.886C287.204 273.057 287.461 272.8 287.461 272.482C287.461 272.163 287.204 271.906 286.886 271.906H280.73C280.412 271.906 280.155 272.163 280.155 272.482C280.155 272.8 280.412 273.057 280.73 273.057Z" fill="#095540" stroke="#EAFFFB" stroke-miterlimit="10"></path><path d="M280.73 280.116H286.886C287.204 280.116 287.461 279.859 287.461 279.54C287.461 279.222 287.204 278.965 286.886 278.965H280.73C280.412 278.965 280.155 279.222 280.155 279.54C280.155 279.859 280.412 280.116 280.73 280.116Z" fill="#095540" stroke="#EAFFFB" stroke-miterlimit="10"></path><path d="M280.23 301.053H286.386C286.704 301.053 286.961 300.796 286.961 300.478C286.961 300.16 286.704 299.902 286.386 299.902H280.23C279.912 299.902 279.655 300.16 279.655 300.478C279.655 300.796 279.912 301.053 280.23 301.053Z" fill="#095540" stroke="#EAFFFB" stroke-miterlimit="10"></path><path d="M280.23 308.108H286.386C286.704 308.108 286.961 307.851 286.961 307.533C286.961 307.214 286.704 306.957 286.386 306.957H280.23C279.912 306.957 279.655 307.214 279.655 307.533C279.655 307.851 279.912 308.108 280.23 308.108Z" fill="#095540" stroke="#EAFFFB" stroke-miterlimit="10"></path><path d="M308.05 231.977L307.8 261.377L308.484 261.393L308.144 290.791L307.494 290.772L307.989 309.652" stroke="#EAFFFB" stroke-miterlimit="10"></path><path d="M304.816 244.698H310.971C311.29 244.698 311.547 244.441 311.547 244.122C311.547 243.804 311.29 243.547 310.971 243.547H304.816C304.498 243.547 304.24 243.804 304.24 244.122C304.244 244.441 304.501 244.698 304.816 244.698Z" fill="#095540" stroke="#EAFFFB" stroke-miterlimit="10"></path><path d="M304.816 251.76H310.971C311.29 251.76 311.547 251.503 311.547 251.185C311.547 250.867 311.29 250.609 310.971 250.609H304.816C304.498 250.609 304.24 250.867 304.24 251.185C304.244 251.503 304.501 251.76 304.816 251.76Z" fill="#095540" stroke="#EAFFFB" stroke-miterlimit="10"></path><path d="M305.41 273.76H311.565C311.883 273.76 312.141 273.503 312.141 273.185C312.141 272.867 311.883 272.609 311.565 272.609H305.41C305.091 272.609 304.834 272.867 304.834 273.185C304.837 273.503 305.095 273.76 305.41 273.76Z" fill="#095540" stroke="#EAFFFB" stroke-miterlimit="10"></path><path d="M305.41 280.819H311.565C311.883 280.819 312.141 280.562 312.141 280.244C312.141 279.925 311.883 279.668 311.565 279.668H305.41C305.091 279.668 304.834 279.925 304.834 280.244C304.837 280.562 305.095 280.819 305.41 280.819Z" fill="#095540" stroke="#EAFFFB" stroke-miterlimit="10"></path><path d="M304.917 301.753H311.073C311.391 301.753 311.648 301.495 311.648 301.177C311.648 300.859 311.391 300.602 311.073 300.602H304.917C304.599 300.602 304.342 300.859 304.342 301.177C304.342 301.495 304.599 301.753 304.917 301.753Z" fill="#095540" stroke="#EAFFFB" stroke-miterlimit="10"></path><path d="M304.917 308.815H311.073C311.391 308.815 311.648 308.558 311.648 308.24C311.648 307.921 311.391 307.664 311.073 307.664H304.917C304.599 307.664 304.342 307.921 304.342 308.24C304.342 308.558 304.599 308.815 304.917 308.815Z" fill="#095540" stroke="#EAFFFB" stroke-miterlimit="10"></path><path d="M332.491 232.457L332.24 261.974L332.922 261.99L332.581 291.384L331.938 291.368L332.584 316.042" stroke="#EAFFFB" stroke-miterlimit="10"></path><path d="M329.246 245.178H335.401C335.719 245.178 335.977 244.921 335.977 244.603C335.977 244.285 335.719 244.027 335.401 244.027H329.246C328.927 244.027 328.67 244.285 328.67 244.603C328.673 244.921 328.93 245.178 329.246 245.178Z" fill="#095540" stroke="#EAFFFB" stroke-miterlimit="10"></path><path d="M329.246 252.237H335.401C335.719 252.237 335.977 251.98 335.977 251.661C335.977 251.343 335.719 251.086 335.401 251.086H329.246C328.927 251.086 328.67 251.343 328.67 251.661C328.673 251.98 328.93 252.237 329.246 252.237Z" fill="#095540" stroke="#EAFFFB" stroke-miterlimit="10"></path><path d="M329.847 274.241H336.003C336.321 274.241 336.578 273.984 336.578 273.665C336.578 273.347 336.321 273.09 336.003 273.09H329.847C329.529 273.09 329.272 273.347 329.272 273.665C329.275 273.984 329.532 274.241 329.847 274.241Z" fill="#095540" stroke="#EAFFFB" stroke-miterlimit="10"></path><path d="M329.847 281.3H336.003C336.321 281.3 336.578 281.042 336.578 280.724C336.578 280.406 336.321 280.148 336.003 280.148H329.847C329.529 280.148 329.272 280.406 329.272 280.724C329.275 281.042 329.532 281.3 329.847 281.3Z" fill="#095540" stroke="#EAFFFB" stroke-miterlimit="10"></path><path d="M329.355 302.233H335.511C335.829 302.233 336.086 301.976 336.086 301.658C336.086 301.339 335.829 301.082 335.511 301.082H329.355C329.037 301.082 328.78 301.339 328.78 301.658C328.78 301.976 329.037 302.233 329.355 302.233Z" fill="#095540" stroke="#EAFFFB" stroke-miterlimit="10"></path><path d="M329.355 309.292H335.511C335.829 309.292 336.086 309.034 336.086 308.716C336.086 308.398 335.829 308.141 335.511 308.141H329.355C329.037 308.141 328.78 308.398 328.78 308.716C328.78 309.034 329.037 309.292 329.355 309.292Z" fill="#095540" stroke="#EAFFFB" stroke-miterlimit="10"></path><path d="M374.515 224.305L374.264 253.882L374.945 253.905L374.605 283.457L373.962 283.441L374.241 312.51" stroke="#EAFFFB" stroke-miterlimit="10"></path><path d="M371.269 237.249H377.425C377.743 237.249 378 236.992 378 236.673C378 236.355 377.743 236.098 377.425 236.098H371.269C370.951 236.098 370.694 236.355 370.694 236.673C370.694 236.992 370.951 237.249 371.269 237.249Z" fill="#095540" stroke="#EAFFFB" stroke-miterlimit="10"></path><path d="M371.269 244.307H377.425C377.743 244.307 378 244.05 378 243.732C378 243.413 377.743 243.156 377.425 243.156H371.269C370.951 243.156 370.694 243.413 370.694 243.732C370.694 244.05 370.951 244.307 371.269 244.307Z" fill="#095540" stroke="#EAFFFB" stroke-miterlimit="10"></path><path d="M371.863 266.307H378.018C378.337 266.307 378.594 266.05 378.594 265.732C378.594 265.413 378.337 265.156 378.018 265.156H371.863C371.544 265.156 371.287 265.413 371.287 265.732C371.287 266.05 371.544 266.307 371.863 266.307Z" fill="#095540" stroke="#EAFFFB" stroke-miterlimit="10"></path><path d="M371.863 273.37H378.018C378.337 273.37 378.594 273.113 378.594 272.794C378.594 272.476 378.337 272.219 378.018 272.219H371.863C371.544 272.219 371.287 272.476 371.287 272.794C371.287 273.113 371.544 273.37 371.863 273.37Z" fill="#095540" stroke="#EAFFFB" stroke-miterlimit="10"></path><path d="M371.371 294.303H377.526C377.844 294.303 378.102 294.046 378.102 293.728C378.102 293.41 377.844 293.152 377.526 293.152H371.371C371.052 293.152 370.795 293.41 370.795 293.728C370.795 294.046 371.052 294.303 371.371 294.303Z" fill="#095540" stroke="#EAFFFB" stroke-miterlimit="10"></path><path d="M371.371 301.362H377.526C377.844 301.362 378.102 301.105 378.102 300.786C378.102 300.468 377.844 300.211 377.526 300.211H371.371C371.052 300.211 370.795 300.468 370.795 300.786C370.795 301.105 371.052 301.362 371.371 301.362Z" fill="#095540" stroke="#EAFFFB" stroke-miterlimit="10"></path><path d="M398.994 224.734L398.74 254.572L399.422 254.592L399.252 284.787L398.609 284.771L398.93 319.589" stroke="#EAFFFB" stroke-miterlimit="10"></path><path d="M395.746 237.78H401.901C402.219 237.78 402.477 237.523 402.477 237.204C402.477 236.886 402.219 236.629 401.901 236.629H395.746C395.427 236.629 395.17 236.886 395.17 237.204C395.17 237.523 395.427 237.78 395.746 237.78Z" fill="#095540" stroke="#EAFFFB" stroke-miterlimit="10"></path><path d="M395.746 244.839H401.901C402.219 244.839 402.477 244.581 402.477 244.263C402.477 243.945 402.219 243.688 401.901 243.688H395.746C395.427 243.688 395.17 243.945 395.17 244.263C395.17 244.581 395.427 244.839 395.746 244.839Z" fill="#095540" stroke="#EAFFFB" stroke-miterlimit="10"></path><path d="M396.347 266.839H402.503C402.821 266.839 403.078 266.581 403.078 266.263C403.078 265.945 402.821 265.688 402.503 265.688H396.347C396.029 265.688 395.772 265.945 395.772 266.263C395.772 266.581 396.029 266.839 396.347 266.839Z" fill="#095540" stroke="#EAFFFB" stroke-miterlimit="10"></path><path d="M396.347 273.901H402.503C402.821 273.901 403.078 273.644 403.078 273.326C403.078 273.007 402.821 272.75 402.503 272.75H396.347C396.029 272.75 395.772 273.007 395.772 273.326C395.772 273.644 396.029 273.901 396.347 273.901Z" fill="#095540" stroke="#EAFFFB" stroke-miterlimit="10"></path><path d="M395.847 294.835H402.003C402.321 294.835 402.578 294.577 402.578 294.259C402.578 293.941 402.321 293.684 402.003 293.684H395.847C395.529 293.684 395.272 293.941 395.272 294.259C395.275 294.577 395.532 294.835 395.847 294.835Z" fill="#095540" stroke="#EAFFFB" stroke-miterlimit="10"></path><path d="M395.847 301.893H402.003C402.321 301.893 402.578 301.636 402.578 301.318C402.578 300.999 402.321 300.742 402.003 300.742H395.847C395.529 300.742 395.272 300.999 395.272 301.318C395.275 301.636 395.532 301.893 395.847 301.893Z" fill="#095540" stroke="#EAFFFB" stroke-miterlimit="10"></path><path d="M374.241 165.418V173.045L375.727 173.07V165.45L374.241 165.418Z" stroke="#EAFFFB" stroke-miterlimit="10"></path><path d="M371.976 165.363V173.003L373.461 173.029V165.395L371.976 165.363Z" stroke="#EAFFFB" stroke-miterlimit="10"></path><path d="M369.717 165.316V172.966L371.195 172.991V165.349L369.717 165.316Z" stroke="#EAFFFB" stroke-miterlimit="10"></path><path d="M367.448 165.27V172.928L368.93 172.954V165.302L367.448 165.27Z" stroke="#EAFFFB" stroke-miterlimit="10"></path><path d="M365.19 165.219V172.887L366.672 172.913V165.251L365.19 165.219Z" stroke="#EAFFFB" stroke-miterlimit="10"></path><path d="M362.924 165.168V172.849L364.406 172.875V165.2L362.924 165.168Z" stroke="#EAFFFB" stroke-miterlimit="10"></path><path d="M360.656 165.121V172.812L362.141 172.838V165.15L360.656 165.121Z" stroke="#EAFFFB" stroke-miterlimit="10"></path><path d="M358.393 165.07V172.774L359.875 172.8V165.106L358.393 165.07Z" stroke="#EAFFFB" stroke-miterlimit="10"></path><path d="M356.124 165.02V172.733L357.609 172.759V165.052L356.124 165.02Z" stroke="#EAFFFB" stroke-miterlimit="10"></path><path d="M353.862 164.973V172.696L355.344 172.722V165.005L353.862 164.973Z" stroke="#EAFFFB" stroke-miterlimit="10"></path><path d="M351.596 164.922V172.658L353.078 172.684V164.954L351.596 164.922Z" stroke="#EAFFFB" stroke-miterlimit="10"></path><path d="M349.331 164.871V172.617L350.812 172.642V164.903L349.331 164.871Z" stroke="#EAFFFB" stroke-miterlimit="10"></path><path d="M347.068 164.82V172.579L348.547 172.601V164.856L347.068 164.82Z" stroke="#EAFFFB" stroke-miterlimit="10"></path><path d="M344.799 164.777V172.542L346.281 172.565V164.81L344.799 164.777Z" stroke="#EAFFFB" stroke-miterlimit="10"></path><path d="M342.538 164.727V172.504L344.023 172.527V164.759L342.538 164.727Z" stroke="#EAFFFB" stroke-miterlimit="10"></path><path d="M340.273 164.676V172.46L341.758 172.486V164.708L340.273 164.676Z" stroke="#EAFFFB" stroke-miterlimit="10"></path><path d="M338.007 164.625V172.422L339.492 172.448V164.657L338.007 164.625Z" stroke="#EAFFFB" stroke-miterlimit="10"></path><path d="M335.748 164.578V172.385L337.227 172.411V164.613L335.748 164.578Z" stroke="#EAFFFB" stroke-miterlimit="10"></path><path d="M333.479 164.527V172.344L334.961 172.369V164.559L333.479 164.527Z" stroke="#EAFFFB" stroke-miterlimit="10"></path><path d="M331.213 164.48V172.307L332.695 172.332V164.513L331.213 164.48Z" stroke="#EAFFFB" stroke-miterlimit="10"></path><path d="M424.734 166.887V173.909L426.203 173.935V166.922L424.734 166.887Z" stroke="#EAFFFB" stroke-miterlimit="10"></path><path d="M422.492 166.836V173.868L423.961 173.894V166.868L422.492 166.836Z" stroke="#EAFFFB" stroke-miterlimit="10"></path><path d="M420.253 166.789V173.831L421.719 173.856V166.821L420.253 166.789Z" stroke="#EAFFFB" stroke-miterlimit="10"></path><path d="M418.008 166.738V173.793L419.477 173.818V166.77L418.008 166.738Z" stroke="#EAFFFB" stroke-miterlimit="10"></path><path d="M415.765 166.688V173.755L417.234 173.777V166.72L415.765 166.688Z" stroke="#EAFFFB" stroke-miterlimit="10"></path><path d="M413.523 166.641V173.717L414.992 173.74V166.673L413.523 166.641Z" stroke="#EAFFFB" stroke-miterlimit="10"></path><path d="M411.284 166.594V173.68L412.75 173.706V166.623L411.284 166.594Z" stroke="#EAFFFB" stroke-miterlimit="10"></path><path d="M409.034 166.539V173.638L410.5 173.664V166.571L409.034 166.539Z" stroke="#EAFFFB" stroke-miterlimit="10"></path><path d="M406.797 166.488V173.601L408.266 173.626V166.52L406.797 166.488Z" stroke="#EAFFFB" stroke-miterlimit="10"></path><path d="M404.554 166.441V173.563L406.023 173.589V166.474L404.554 166.441Z" stroke="#EAFFFB" stroke-miterlimit="10"></path><path d="M402.312 166.395V173.526L403.781 173.552V166.427L402.312 166.395Z" stroke="#EAFFFB" stroke-miterlimit="10"></path><path d="M400.07 166.344V173.485L401.539 173.511V166.376L400.07 166.344Z" stroke="#EAFFFB" stroke-miterlimit="10"></path><path d="M397.823 166.293V173.447L399.289 173.473V166.325L397.823 166.293Z" stroke="#EAFFFB" stroke-miterlimit="10"></path><path d="M395.586 166.246V173.41L397.055 173.436V166.278L395.586 166.246Z" stroke="#EAFFFB" stroke-miterlimit="10"></path><path d="M393.343 166.195V173.372L394.812 173.398V166.227L393.343 166.195Z" stroke="#EAFFFB" stroke-miterlimit="10"></path><path d="M391.101 166.148V173.331L392.57 173.357V166.181L391.101 166.148Z" stroke="#EAFFFB" stroke-miterlimit="10"></path><path d="M388.859 166.098V173.297L390.328 173.319V166.13L388.859 166.098Z" stroke="#EAFFFB" stroke-miterlimit="10"></path><path d="M386.616 166.047V173.256L388.078 173.278V166.079L386.616 166.047Z" stroke="#EAFFFB" stroke-miterlimit="10"></path><path d="M384.375 165.996V173.218L385.844 173.243V166.028L384.375 165.996Z" stroke="#EAFFFB" stroke-miterlimit="10"></path><path d="M382.133 165.949V173.18L383.602 173.206V165.985L382.133 165.949Z" stroke="#EAFFFB" stroke-miterlimit="10"></path><path d="M79.0664 226.105V255.509L79.9375 284.936L79.0664 284.913L79.5003 304.961L52.7722 303.813V284.241L52.0586 283.923L53.6305 254.86L52.7722 254.837L52.0586 225.414" stroke="#EAFFFB" stroke-miterlimit="10"></path><path d="M75.9955 238.589H82.1512C82.4694 238.589 82.7266 238.331 82.7266 238.013C82.7266 237.695 82.4694 237.438 82.1512 237.438H75.9955C75.6773 237.438 75.4201 237.695 75.4201 238.013C75.4201 238.331 75.6773 238.589 75.9955 238.589Z" fill="#095540" stroke="#EAFFFB" stroke-miterlimit="10"></path><path d="M75.9955 245.651H82.1512C82.4694 245.651 82.7266 245.394 82.7266 245.076C82.7266 244.757 82.4694 244.5 82.1512 244.5H75.9955C75.6773 244.5 75.4201 244.757 75.4201 245.076C75.4201 245.394 75.6773 245.651 75.9955 245.651Z" fill="#095540" stroke="#EAFFFB" stroke-miterlimit="10"></path><path d="M49.3393 237.194H55.495C55.8132 237.194 56.0703 236.937 56.0703 236.619C56.0703 236.3 55.8132 236.043 55.495 236.043H49.3393C49.0211 236.043 48.7639 236.3 48.7639 236.619C48.7671 236.937 49.0243 237.194 49.3393 237.194Z" fill="#095540" stroke="#EAFFFB" stroke-miterlimit="10"></path><path d="M49.3393 244.253H55.495C55.8132 244.253 56.0703 243.995 56.0703 243.677C56.0703 243.359 55.8132 243.102 55.495 243.102H49.3393C49.0211 243.102 48.7639 243.359 48.7639 243.677C48.7671 243.995 49.0243 244.253 49.3393 244.253Z" fill="#095540" stroke="#EAFFFB" stroke-miterlimit="10"></path><path d="M50.0346 267.85H56.1902C56.5085 267.85 56.7656 267.593 56.7656 267.275C56.7656 266.956 56.5085 266.699 56.1902 266.699H50.0346C49.7164 266.699 49.4592 266.956 49.4592 267.275C49.4592 267.593 49.7164 267.85 50.0346 267.85Z" fill="#095540" stroke="#EAFFFB" stroke-miterlimit="10"></path><path d="M50.0346 274.909H56.1902C56.5085 274.909 56.7656 274.652 56.7656 274.333C56.7656 274.015 56.5085 273.758 56.1902 273.758H50.0346C49.7164 273.758 49.4592 274.015 49.4592 274.333C49.4592 274.652 49.7164 274.909 50.0346 274.909Z" fill="#095540" stroke="#EAFFFB" stroke-miterlimit="10"></path><path d="M76.1752 267.85H82.3309C82.6491 267.85 82.9062 267.593 82.9062 267.275C82.9062 266.956 82.6491 266.699 82.3309 266.699H76.1752C75.857 266.699 75.5998 266.956 75.5998 267.275C75.603 267.593 75.8602 267.85 76.1752 267.85Z" fill="#095540" stroke="#EAFFFB" stroke-miterlimit="10"></path><path d="M76.1752 274.909H82.3309C82.6491 274.909 82.9062 274.652 82.9062 274.333C82.9062 274.015 82.6491 273.758 82.3309 273.758H76.1752C75.857 273.758 75.5998 274.015 75.5998 274.333C75.603 274.652 75.8602 274.909 76.1752 274.909Z" fill="#095540" stroke="#EAFFFB" stroke-miterlimit="10"></path><path d="M75.9955 295.964H82.1512C82.4694 295.964 82.7266 295.706 82.7266 295.388C82.7266 295.07 82.4694 294.812 82.1512 294.812H75.9955C75.6773 294.812 75.4201 295.07 75.4201 295.388C75.4201 295.706 75.6773 295.964 75.9955 295.964Z" fill="#095540" stroke="#EAFFFB" stroke-miterlimit="10"></path><path d="M75.9955 303.026H82.1512C82.4694 303.026 82.7266 302.769 82.7266 302.451C82.7266 302.132 82.4694 301.875 82.1512 301.875H75.9955C75.6773 301.875 75.4201 302.132 75.4201 302.451C75.4201 302.769 75.6773 303.026 75.9955 303.026Z" fill="#095540" stroke="#EAFFFB" stroke-miterlimit="10"></path><path d="M49.6439 294.249H55.7996C56.1178 294.249 56.375 293.992 56.375 293.673C56.375 293.355 56.1178 293.098 55.7996 293.098H49.6439C49.3257 293.098 49.0686 293.355 49.0686 293.673C49.0686 293.992 49.3257 294.249 49.6439 294.249Z" fill="#095540" stroke="#EAFFFB" stroke-miterlimit="10"></path><path d="M49.6439 301.307H55.7996C56.1178 301.307 56.375 301.05 56.375 300.732C56.375 300.413 56.1178 300.156 55.7996 300.156H49.6439C49.3257 300.156 49.0686 300.413 49.0686 300.732C49.0686 301.05 49.3257 301.307 49.6439 301.307Z" fill="#095540" stroke="#EAFFFB" stroke-miterlimit="10"></path><path d="M490.328 146.91V152.849" stroke="#EAFFFB" stroke-miterlimit="10" stroke-linecap="round" stroke-linejoin="round"></path><path d="M510.539 210.965H499.69" stroke="#EAFFFB" stroke-miterlimit="10" stroke-linecap="round" stroke-linejoin="round"></path><path d="M206.641 210.13L207.033 182.504L231.029 182.948L230.457 210.802L254.096 211.046V183.375L277.892 183.816L276.742 211.715L300.763 212.188L301.615 184.253L325.164 184.69L323.688 212.638L347.819 213.114L348.308 185.118L371.619 185.549L370.693 213.564L394.763 214.036L394.432 185.973L418.945 186.472L417.698 214.606" stroke="#EAFFFB" stroke-miterlimit="10" stroke-linecap="round" stroke-linejoin="round"></path><path d="M203.831 194.202H209.987C210.305 194.202 210.562 193.945 210.562 193.626C210.562 193.308 210.305 193.051 209.987 193.051H203.831C203.513 193.051 203.256 193.308 203.256 193.626C203.259 193.945 203.516 194.202 203.831 194.202Z" fill="#095540" stroke="#EAFFFB" stroke-miterlimit="10"></path><path d="M203.831 201.26H209.987C210.305 201.26 210.562 201.003 210.562 200.685C210.562 200.367 210.305 200.109 209.987 200.109H203.831C203.513 200.109 203.256 200.367 203.256 200.685C203.259 201.003 203.516 201.26 203.831 201.26Z" fill="#095540" stroke="#EAFFFB" stroke-miterlimit="10"></path><path d="M227.316 194.389H233.471C233.79 194.389 234.047 194.132 234.047 193.814C234.047 193.495 233.79 193.238 233.471 193.238H227.316C226.998 193.238 226.74 193.495 226.74 193.814C226.74 194.132 226.998 194.389 227.316 194.389Z" fill="#095540" stroke="#EAFFFB" stroke-miterlimit="10"></path><path d="M227.316 201.452H233.471C233.79 201.452 234.047 201.195 234.047 200.876C234.047 200.558 233.79 200.301 233.471 200.301H227.316C226.998 200.301 226.74 200.558 226.74 200.876C226.74 201.195 226.998 201.452 227.316 201.452Z" fill="#095540" stroke="#EAFFFB" stroke-miterlimit="10"></path><path d="M251.05 194.87H257.206C257.524 194.87 257.781 194.613 257.781 194.294C257.781 193.976 257.524 193.719 257.206 193.719H251.05C250.732 193.719 250.475 193.976 250.475 194.294C250.478 194.613 250.735 194.87 251.05 194.87Z" fill="#095540" stroke="#EAFFFB" stroke-miterlimit="10"></path><path d="M251.05 201.932H257.206C257.524 201.932 257.781 201.675 257.781 201.357C257.781 201.038 257.524 200.781 257.206 200.781H251.05C250.732 200.781 250.475 201.038 250.475 201.357C250.478 201.675 250.735 201.932 251.05 201.932Z" fill="#095540" stroke="#EAFFFB" stroke-miterlimit="10"></path><path d="M274.035 194.87H280.19C280.508 194.87 280.766 194.613 280.766 194.294C280.766 193.976 280.508 193.719 280.19 193.719H274.035C273.716 193.719 273.459 193.976 273.459 194.294C273.459 194.613 273.716 194.87 274.035 194.87Z" fill="#095540" stroke="#EAFFFB" stroke-miterlimit="10"></path><path d="M274.035 201.932H280.19C280.508 201.932 280.766 201.675 280.766 201.357C280.766 201.038 280.508 200.781 280.19 200.781H274.035C273.716 200.781 273.459 201.038 273.459 201.357C273.459 201.675 273.716 201.932 274.035 201.932Z" fill="#095540" stroke="#EAFFFB" stroke-miterlimit="10"></path><path d="M298.081 196.135H304.237C304.555 196.135 304.812 195.878 304.812 195.56C304.812 195.242 304.555 194.984 304.237 194.984H298.081C297.763 194.984 297.506 195.242 297.506 195.56C297.506 195.878 297.763 196.135 298.081 196.135Z" fill="#095540" stroke="#EAFFFB" stroke-miterlimit="10"></path><path d="M298.081 203.194H304.237C304.555 203.194 304.812 202.937 304.812 202.619C304.812 202.3 304.555 202.043 304.237 202.043H298.081C297.763 202.043 297.506 202.3 297.506 202.619C297.506 202.937 297.763 203.194 298.081 203.194Z" fill="#095540" stroke="#EAFFFB" stroke-miterlimit="10"></path><path d="M320.972 196.135H327.128C327.446 196.135 327.703 195.878 327.703 195.56C327.703 195.242 327.446 194.984 327.128 194.984H320.972C320.654 194.984 320.397 195.242 320.397 195.56C320.4 195.878 320.657 196.135 320.972 196.135Z" fill="#095540" stroke="#EAFFFB" stroke-miterlimit="10"></path><path d="M320.972 203.194H327.128C327.446 203.194 327.703 202.937 327.703 202.619C327.703 202.3 327.446 202.043 327.128 202.043H320.972C320.654 202.043 320.397 202.3 320.397 202.619C320.4 202.937 320.657 203.194 320.972 203.194Z" fill="#095540" stroke="#EAFFFB" stroke-miterlimit="10"></path><path d="M344.855 196.135H351.011C351.329 196.135 351.586 195.878 351.586 195.56C351.586 195.242 351.329 194.984 351.011 194.984H344.855C344.537 194.984 344.279 195.242 344.279 195.56C344.283 195.878 344.54 196.135 344.855 196.135Z" fill="#095540" stroke="#EAFFFB" stroke-miterlimit="10"></path><path d="M344.855 203.194H351.011C351.329 203.194 351.586 202.937 351.586 202.619C351.586 202.3 351.329 202.043 351.011 202.043H344.855C344.537 202.043 344.279 202.3 344.279 202.619C344.283 202.937 344.54 203.194 344.855 203.194Z" fill="#095540" stroke="#EAFFFB" stroke-miterlimit="10"></path><path d="M367.621 196.706H373.776C374.094 196.706 374.352 196.449 374.352 196.13C374.352 195.812 374.094 195.555 373.776 195.555H367.621C367.302 195.555 367.045 195.812 367.045 196.13C367.045 196.449 367.302 196.706 367.621 196.706Z" fill="#095540" stroke="#EAFFFB" stroke-miterlimit="10"></path><path d="M367.621 203.768H373.776C374.094 203.768 374.352 203.511 374.352 203.193C374.352 202.874 374.094 202.617 373.776 202.617H367.621C367.302 202.617 367.045 202.874 367.045 203.193C367.045 203.511 367.302 203.768 367.621 203.768Z" fill="#095540" stroke="#EAFFFB" stroke-miterlimit="10"></path><path d="M390.925 197.444H397.081C397.399 197.444 397.656 197.187 397.656 196.869C397.656 196.55 397.399 196.293 397.081 196.293H390.925C390.607 196.293 390.35 196.55 390.35 196.869C390.35 197.187 390.607 197.444 390.925 197.444Z" fill="#095540" stroke="#EAFFFB" stroke-miterlimit="10"></path><path d="M390.925 204.507H397.081C397.399 204.507 397.656 204.249 397.656 203.931C397.656 203.613 397.399 203.355 397.081 203.355H390.925C390.607 203.355 390.35 203.613 390.35 203.931C390.35 204.249 390.607 204.507 390.925 204.507Z" fill="#095540" stroke="#EAFFFB" stroke-miterlimit="10"></path><path d="M414.621 197.557H420.776C421.094 197.557 421.352 197.3 421.352 196.982C421.352 196.663 421.094 196.406 420.776 196.406H414.621C414.302 196.406 414.045 196.663 414.045 196.982C414.045 197.3 414.302 197.557 414.621 197.557Z" fill="#095540" stroke="#EAFFFB" stroke-miterlimit="10"></path><path d="M414.621 204.616H420.776C421.094 204.616 421.352 204.359 421.352 204.04C421.352 203.722 421.094 203.465 420.776 203.465H414.621C414.302 203.465 414.045 203.722 414.045 204.04C414.045 204.359 414.302 204.616 414.621 204.616Z" fill="#095540" stroke="#EAFFFB" stroke-miterlimit="10"></path><path d="M456.156 166.57L455.986 216.346" stroke="#EAFFFB" stroke-miterlimit="10"></path><path d="M454.941 174.98V176.132H459.229C459.548 176.132 459.805 175.874 459.805 175.556C459.805 175.238 459.548 174.98 459.229 174.98H454.941Z" fill="#095540" stroke="#EAFFFB" stroke-miterlimit="10"></path><path d="M454.941 182.043V183.194H459.229C459.548 183.194 459.805 182.937 459.805 182.619C459.805 182.3 459.548 182.043 459.229 182.043H454.941Z" fill="#095540" stroke="#EAFFFB" stroke-miterlimit="10"></path><path d="M454.94 199.938V201.089H459.061C459.376 201.089 459.633 200.831 459.633 200.513C459.633 200.195 459.376 199.938 459.061 199.938H454.94Z" fill="#095540" stroke="#EAFFFB" stroke-miterlimit="10"></path><path d="M454.94 207V208.148H459.061C459.376 208.148 459.633 207.891 459.633 207.576C459.633 207.257 459.376 207 459.061 207H454.94Z" fill="#095540" stroke="#EAFFFB" stroke-miterlimit="10"></path><path d="M500.312 147.211V210.967" stroke="#EAFFFB" stroke-miterlimit="10"></path><path d="M499.692 154.684V155.458H502.392C502.604 155.458 502.781 155.285 502.781 155.069C502.781 154.857 502.604 154.684 502.392 154.684H499.692Z" fill="#095540" stroke="#EAFFFB" stroke-miterlimit="10"></path><path d="M499.692 159.457V160.235H502.392C502.604 160.235 502.781 160.058 502.781 159.846C502.781 159.631 502.604 159.457 502.392 159.457H499.692Z" fill="#095540" stroke="#EAFFFB" stroke-miterlimit="10"></path><path d="M499.692 176.957V177.735H502.392C502.604 177.735 502.781 177.562 502.781 177.346C502.781 177.134 502.604 176.957 502.392 176.957H499.692Z" fill="#095540" stroke="#EAFFFB" stroke-miterlimit="10"></path><path d="M499.692 181.734V182.512L502.392 182.509C502.604 182.509 502.781 182.336 502.781 182.123C502.781 181.908 502.604 181.734 502.392 181.734H499.692Z" fill="#095540" stroke="#EAFFFB" stroke-miterlimit="10"></path><path d="M499.692 197.625V198.403H502.392C502.604 198.403 502.781 198.229 502.781 198.014C502.781 197.799 502.604 197.625 502.392 197.625H499.692Z" fill="#095540" stroke="#EAFFFB" stroke-miterlimit="10"></path><path d="M499.692 202.398V203.177H502.392C502.604 203.177 502.781 203.003 502.781 202.787C502.781 202.572 502.604 202.398 502.392 202.398H499.692Z" fill="#095540" stroke="#EAFFFB" stroke-miterlimit="10"></path><path d="M512.633 142.752L502.658 142.351L490.331 146.91V152.849H474.014L448.865 163.507V123.75C448.865 123.75 492.125 127.21 512.633 130.296V142.752Z" stroke="#EAFFFB" stroke-miterlimit="10"></path><path d="M265.68 123.766V171.143L165.473 169.481V135.9C165.473 135.9 219.81 127.116 265.68 123.766Z" stroke="#EAFFFB" stroke-miterlimit="10"></path><path d="M186.359 99.1518L186.086 56.7227L185.594 99.1518H186.359Z" fill="#EAFFFB" stroke="#EAFFFB" stroke-miterlimit="10" stroke-linecap="round" stroke-linejoin="round"></path><path d="M185.254 98.5391C186.167 98.5391 186.897 98.6355 186.897 98.7416C186.897 98.7513 186.903 98.7513 186.89 98.7609L186.906 104.989H183.599V98.732C183.602 98.6259 184.341 98.5391 185.254 98.5391Z" fill="#095540" stroke="#EAFFFB" stroke-miterlimit="10" stroke-linecap="round" stroke-linejoin="round"></path><path d="M183.686 103.82C185.827 103.82 187.534 104.045 187.534 104.293C187.534 104.315 187.55 104.315 187.521 104.335L187.562 113.99H179.812V104.27C179.809 104.023 181.545 103.82 183.686 103.82Z" fill="#095540" stroke="#EAFFFB" stroke-miterlimit="10" stroke-linecap="round" stroke-linejoin="round"></path><path d="M183.692 112.074C186.611 112.074 188.938 112.38 188.938 112.72C188.938 112.749 188.957 112.749 188.922 112.778L188.977 125.948H178.404V112.688C178.404 112.348 180.77 112.074 183.692 112.074Z" fill="#095540" stroke="#EAFFFB" stroke-miterlimit="10" stroke-linecap="round" stroke-linejoin="round"></path><path d="M171.465 113.074H174.024H174.667H185.255H185.898H190.98H191.623H194.336H194.979H196.49H196.708C196.943 113.074 197.133 113.264 197.133 113.499V113.717V119.322V119.965V124.17C197.133 124.347 196.988 124.492 196.811 124.492C196.635 124.492 196.49 124.347 196.49 124.17V119.965H194.979V124.17C194.979 124.347 194.834 124.492 194.658 124.492C194.481 124.492 194.336 124.347 194.336 124.17V119.965H191.623V124.17C191.623 124.347 191.482 124.492 191.302 124.492C191.125 124.492 190.98 124.347 190.98 124.17V119.965H185.898V124.17C185.898 124.347 185.757 124.492 185.577 124.492C185.4 124.492 185.255 124.347 185.255 124.17V119.965H174.667V124.17C174.667 124.347 174.522 124.492 174.346 124.492C174.169 124.492 174.024 124.347 174.024 124.17V119.965H171.465V124.17C171.465 124.347 171.321 124.492 171.144 124.492C170.967 124.492 170.823 124.347 170.823 124.17V119.965V119.322V113.717V113.499C170.823 113.264 171.012 113.074 171.247 113.074H171.465ZM194.979 119.322H196.49V113.717H194.979V119.322ZM194.336 113.717H191.623V119.322H194.336V113.717ZM190.98 113.717H185.898V119.322H190.98V113.717ZM185.255 113.717H174.667V119.322H185.255V113.717ZM174.024 113.717H171.465V119.322H174.024V113.717Z" fill="#EAFFFB"></path><path d="M176.053 128.19L170.595 125.084V124.387H197.352V125.023L186.57 128.277" fill="#095540"></path><path d="M176.053 128.19L170.595 125.084V124.387H197.352V125.023L186.57 128.277" stroke="#EAFFFB" stroke-miterlimit="10"></path><path d="M177.045 191.047V306.055H185.383V191.047C185.383 191.352 183.515 191.6 181.214 191.6C178.912 191.6 177.045 191.352 177.045 191.047Z" fill="#095540" stroke="#EAFFFB" stroke-miterlimit="10"></path><path d="M174.169 186.16L177.043 191.044C177.043 191.35 178.91 191.597 181.212 191.597C183.513 191.597 185.381 191.35 185.381 191.044L188.531 186.16H174.169Z" fill="#095540" stroke="#EAFFFB" stroke-miterlimit="10"></path><path d="M191.18 186.623V184.434H191.064C190.376 184.987 186.287 185.411 181.347 185.411C176.403 185.411 172.317 184.987 171.629 184.434H171.527V186.623V186.671C171.527 187.302 175.921 187.813 181.347 187.813C186.769 187.813 191.18 187.298 191.18 186.668V186.623Z" fill="#095540" stroke="#EAFFFB" stroke-miterlimit="10" stroke-linecap="round" stroke-linejoin="round"></path><path d="M171.524 184.27C171.524 184.325 171.559 184.383 171.627 184.434C172.315 184.987 176.4 185.412 181.344 185.412C186.285 185.412 190.373 184.987 191.061 184.434C191.129 184.383 191.164 184.325 191.164 184.27C191.164 183.64 186.767 183.129 181.344 183.129C175.918 183.129 171.524 183.64 171.524 184.27Z" fill="#095540" stroke="#EAFFFB" stroke-miterlimit="10" stroke-linecap="round" stroke-linejoin="round"></path><path d="M176.053 128.188V184.27C176.053 184.302 176.072 184.331 176.111 184.36C176.48 184.659 178.679 184.887 181.34 184.887C183.999 184.887 186.201 184.659 186.57 184.36C186.609 184.331 186.625 184.302 186.625 184.27L186.57 128.275C186.606 128.249 186.586 128.249 186.586 128.217C186.586 127.88 184.259 127.574 181.34 127.574C178.419 127.574 176.053 127.848 176.053 128.188Z" fill="#095540" stroke="#EAFFFB" stroke-miterlimit="10" stroke-linecap="round" stroke-linejoin="round"></path><path d="M170.295 123.738H197.656V124.6H170.295V123.738Z" fill="#EAFFFB"></path><path d="M328.91 162.13L429.818 165.088H429.821L441.859 159.763L344.15 156.898L328.91 162.13Z" stroke="#EAFFFB" stroke-miterlimit="10" stroke-linecap="round" stroke-linejoin="round"></path><path d="M393.477 158.27L378.867 163.507V172.906" stroke="#EAFFFB" stroke-miterlimit="10" stroke-linecap="round" stroke-linejoin="round"></path><path d="M328.914 162.129V172.174" stroke="#EAFFFB" stroke-miterlimit="10" stroke-linecap="round" stroke-linejoin="round"></path><path d="M429.82 165.086V173.661" stroke="#EAFFFB" stroke-miterlimit="10" stroke-linecap="round" stroke-linejoin="round"></path><path d="M441.859 159.762V174.015" stroke="#EAFFFB" stroke-miterlimit="10" stroke-linecap="round" stroke-linejoin="round"></path><path d="M0.996094 305.15C0.996094 305.15 0.996033 305.15 0.999268 305.153V305.157C0.999268 305.166 1.00574 305.186 1.01538 305.211C1.52325 306.903 12.8027 343.255 47.6344 368.945C83.3051 395.256 89.3869 431.737 89.3869 431.737C89.3869 431.737 89.4094 431.75 89.4544 431.772C89.4673 431.779 89.4833 431.788 89.4994 431.798C114.897 446.145 113.836 444.675 137.15 460.06C138.314 460.829 139.391 461.617 140.39 462.424C153.11 459.771 176.039 455.334 201.6 451.99C201.793 451.971 201.992 451.942 202.195 451.913C203.419 451.755 204.65 451.598 205.888 451.443C205.901 451.443 205.914 451.443 205.927 451.44C218.987 449.997 246.358 448.595 276.477 446.865C291.039 446.289 307.622 445.402 324.839 443.781C327.905 443.556 330.936 443.325 333.919 443.09C349.471 441.852 363.708 440.453 374.836 438.833C374.852 438.83 374.871 438.83 374.887 438.826C375.556 438.73 376.215 438.63 376.861 438.534C418.62 430.624 504.973 311.275 514.099 296.289C518.85 288.489 520.29 274.354 520.56 262.422C520.605 251.509 520.103 243.034 520.023 241.773C520.023 241.751 520.02 241.732 520.02 241.719C520.02 241.703 520.016 241.69 520.016 241.677C520.013 241.632 520.013 241.609 520.013 241.609L515.519 245.731L510.537 250.3L499.688 260.248L494.706 264.821L489.283 269.792L482.957 275.595L476.178 281.81L470.083 287.402L454.94 301.289L447.707 307.922L439.623 315.336L429.633 324.5L420.594 332.789L419.311 333.966L415.618 312.291L415.608 312.301C415.476 312.398 413.908 313.584 411.555 314.941C406.55 317.831 398.006 321.513 392.229 317.217C390.037 315.587 387.957 314.468 385.868 313.713C379.751 311.504 373.586 312.417 364.405 312.787C358.896 313.005 351.811 313.372 345.665 313.713C338.072 314.134 331.907 314.51 331.907 314.51C331.907 314.51 323.357 316.391 323.357 310.034C323.357 308.761 323.701 307.16 324.52 305.15C324.52 305.15 216.547 295.813 115.382 291.109C115.382 291.109 100.679 292.289 82.5369 293.893C64.3978 295.501 42.8192 297.533 29.0646 299.24C29.0646 299.24 30.6461 301.253 31.7197 305.388C32.2758 307.52 30.4693 309.526 28.2932 309.205L0.996094 305.15Z" fill="#095540" stroke="#EAFFFB" stroke-miterlimit="10"></path><path d="M115.381 291.109C115.381 291.109 114.812 353.374 125.108 387.324C140.807 439.094 140.39 462.424 140.39 462.424" stroke="#EAFFFB" stroke-miterlimit="10"></path><path d="M29.0669 299.242C29.0669 299.246 29.0669 299.246 29.0703 299.249" stroke="#EAFFFB" stroke-miterlimit="10"></path><path d="M31.6111 307.27C56.8285 380.579 135.274 457.534 139.938 462.068C140.083 462.209 140.157 462.28 140.157 462.28C140.163 462.273 140.169 462.264 140.176 462.257C199.968 395.8 226.734 298.184 226.734 298.184" stroke="#EAFFFB" stroke-miterlimit="10"></path><path d="M325.07 313.719C325.07 313.719 309.554 369.112 265.671 395.687C234.738 414.416 214.966 441.923 208.897 451.138" stroke="#EAFFFB" stroke-miterlimit="10"></path><path d="M333.916 443.09L333.919 443.093C349.471 441.855 363.708 440.456 374.836 438.836C333.916 443.09 333.916 443.09 333.916 443.09Z" fill="#095540" stroke="#EAFFFB" stroke-miterlimit="10"></path></svg> 