<?xml version="1.0" encoding="UTF-8"?> <svg xmlns="http://www.w3.org/2000/svg" width="210" height="210" viewBox="0 0 210 210" fill="none"><mask id="path-2-inside-1_1042_1299" fill="white"><path fill-rule="evenodd" clip-rule="evenodd" d="M97.0125 6.19849L82.172 49.1782L41.4677 28.9132C40.0825 28.0266 38.5888 27.6479 37.1317 27.6756C34.9087 27.6586 32.9018 28.6075 31.4269 30.0875C29.9195 31.5358 28.9339 33.5263 28.9112 35.7503C28.8575 37.2064 29.2092 38.7062 30.0704 40.1068L49.9488 81.9059L6.1986 97.0125C4.59535 97.3795 3.27841 98.1799 2.27708 99.239C0.706902 100.813 -0.0222876 102.911 0.000518426 105.001C-0.0219974 107.09 0.707058 109.186 2.2766 110.76C3.278 111.82 4.59512 112.62 6.19867 112.988L49.1783 127.828L28.9135 168.532C28.026 169.918 27.6473 171.413 27.6756 172.871C27.6595 175.093 28.6076 177.098 30.0861 178.572C31.5344 180.08 33.5249 181.066 35.7494 181.089C37.2059 181.143 38.7063 180.791 40.1073 179.929L81.9059 160.051L97.0125 203.801C97.3796 205.405 98.18 206.722 99.2391 207.723C100.813 209.293 102.91 210.022 105 209.999C107.09 210.022 109.187 209.293 110.761 207.723C111.82 206.722 112.62 205.405 112.987 203.801L127.828 160.822L168.532 181.087C169.918 181.973 171.411 182.352 172.869 182.324C175.092 182.341 177.098 181.393 178.573 179.913C180.08 178.464 181.066 176.474 181.089 174.25C181.143 172.794 180.791 171.294 179.93 169.893L160.051 128.094L203.802 112.987C205.405 112.62 206.722 111.82 207.723 110.761C209.293 109.187 210.022 107.09 209.999 105C210.022 102.91 209.293 100.813 207.723 99.2389C206.721 98.1798 205.405 97.3796 203.802 97.0125L160.822 82.172L181.087 41.4683C181.974 40.0819 182.353 38.5868 182.324 37.1284C182.34 34.9075 181.393 32.9026 179.914 31.4286C178.466 29.9203 176.475 28.934 174.25 28.9112C172.794 28.8574 171.294 29.2092 169.893 30.0705L128.094 49.9488L112.987 6.19849C112.62 4.59532 111.82 3.27845 110.761 2.27715C109.187 0.707069 107.09 -0.0221526 105 0.000512094C102.91 -0.0221526 100.813 0.707069 99.239 2.27715C98.1799 3.27845 97.3796 4.59532 97.0125 6.19849ZM105 114.235C110.1 114.235 114.235 110.1 114.235 105C114.235 99.8996 110.1 95.765 105 95.765C99.8996 95.765 95.765 99.8996 95.765 105C95.765 110.1 99.8996 114.235 105 114.235Z"></path></mask><path d="M82.172 49.1782L82.3948 48.7306L81.8852 48.4769L81.6994 49.015L82.172 49.1782ZM97.0125 6.19849L96.5399 6.0353L96.5311 6.0607L96.5251 6.0869L97.0125 6.19849ZM41.4677 28.9132L41.7372 28.492L41.7146 28.4775L41.6905 28.4656L41.4677 28.9132ZM37.1317 27.6756L37.1355 27.1755L37.1221 27.1757L37.1317 27.6756ZM31.4269 30.0875L31.0804 29.7269L31.0727 29.7345L31.4269 30.0875ZM28.9112 35.7503L28.4114 35.7319L28.4112 35.7452L28.9112 35.7503ZM30.0704 40.1068L29.6188 40.3215L29.6304 40.3458L29.6444 40.3687L30.0704 40.1068ZM49.9488 81.9059L49.7856 81.4333L49.2571 81.6158L49.4973 82.1206L49.9488 81.9059ZM6.1986 97.0125L6.08702 96.5251L6.06082 96.5311L6.03541 96.5399L6.1986 97.0125ZM2.27708 99.239L1.92292 98.8858L1.91375 98.8955L2.27708 99.239ZM0.000518426 105.001L-0.49957 104.995L-0.499452 105.006L0.000518426 105.001ZM2.2766 110.76L1.91311 111.104L1.92254 111.113L2.2766 110.76ZM6.19867 112.988L6.03548 113.46L6.06088 113.469L6.08709 113.475L6.19867 112.988ZM49.1783 127.828L48.7307 127.605L48.4769 128.115L49.0151 128.301L49.1783 127.828ZM28.9135 168.532L28.4924 168.262L28.4779 168.285L28.4659 168.309L28.9135 168.532ZM27.6756 172.871L27.1755 172.868L27.1757 172.881L27.6756 172.871ZM30.0861 178.572L29.7254 178.918L29.7331 178.926L30.0861 178.572ZM35.7494 181.089L35.7309 181.589L35.7442 181.589L35.7494 181.089ZM40.1073 179.929L40.322 180.381L40.3463 180.369L40.3692 180.355L40.1073 179.929ZM81.9059 160.051L81.4333 160.214L81.6158 160.743L82.1207 160.503L81.9059 160.051ZM97.0125 203.801L96.5251 203.913L96.5311 203.939L96.5399 203.965L97.0125 203.801ZM99.2391 207.723L98.8859 208.077L98.8956 208.086L99.2391 207.723ZM105 209.999L104.995 210.5L105.005 210.499L105 209.999ZM110.761 207.723L111.105 208.086L111.114 208.077L110.761 207.723ZM112.987 203.801L113.46 203.965L113.469 203.939L113.475 203.913L112.987 203.801ZM127.828 160.822L127.605 161.269L128.115 161.523L128.301 160.985L127.828 160.822ZM168.532 181.087L168.263 181.508L168.285 181.522L168.309 181.534L168.532 181.087ZM172.869 182.324L172.865 182.825L172.878 182.824L172.869 182.324ZM178.573 179.913L178.92 180.273L178.927 180.266L178.573 179.913ZM181.089 174.25L181.589 174.268L181.589 174.255L181.089 174.25ZM179.93 169.893L180.381 169.679L180.37 169.654L180.356 169.631L179.93 169.893ZM160.051 128.094L160.214 128.567L160.743 128.384L160.503 127.879L160.051 128.094ZM203.802 112.987L203.913 113.475L203.939 113.469L203.965 113.46L203.802 112.987ZM207.723 110.761L208.077 111.114L208.086 111.105L207.723 110.761ZM209.999 105L210.5 105.005L210.499 104.995L209.999 105ZM207.723 99.2389L208.086 98.8953L208.077 98.8858L207.723 99.2389ZM203.802 97.0125L203.965 96.5399L203.939 96.5311L203.913 96.5251L203.802 97.0125ZM160.822 82.172L161.269 82.3948L161.523 81.8852L160.985 81.6993L160.822 82.172ZM181.087 41.4683L181.508 41.7378L181.522 41.7152L181.534 41.6911L181.087 41.4683ZM182.324 37.1284L182.825 37.132L182.824 37.1187L182.324 37.1284ZM179.914 31.4286L180.275 31.0822L180.267 31.0745L179.914 31.4286ZM174.25 28.9112L174.269 28.4114L174.255 28.4112L174.25 28.9112ZM169.893 30.0705L169.678 29.619L169.654 29.6306L169.631 29.6446L169.893 30.0705ZM128.094 49.9488L128.567 49.7856L128.384 49.2571L127.879 49.4973L128.094 49.9488ZM112.987 6.19849L113.475 6.0869L113.469 6.0607L113.46 6.0353L112.987 6.19849ZM110.761 2.27715L111.114 1.923L111.105 1.91382L110.761 2.27715ZM105 0.000512094L105.005 -0.499576L104.995 -0.499458L105 0.000512094ZM99.239 2.27715L98.8953 1.91369L98.8859 1.92312L99.239 2.27715ZM97.2406 5.53781L96.768 5.37462V5.37462L97.2406 5.53781ZM75.0075 69.9274L75.4801 70.0905L75.0075 69.9274ZM69.9274 75.0075L70.0905 75.4801L69.9274 75.0075ZM5.53782 97.2406L5.70101 97.7133H5.70101L5.53782 97.2406ZM112.759 5.53781L113.232 5.37462V5.37462L112.759 5.53781ZM134.993 69.9274L134.52 70.0905L134.993 69.9274ZM140.073 75.0075L139.909 75.4801L140.073 75.0075ZM204.462 97.2406L204.299 97.7133L204.462 97.2406ZM112.759 204.462L113.232 204.625L112.759 204.462ZM134.993 140.073L134.52 139.909L134.993 140.073ZM140.073 134.993L139.909 134.52L140.073 134.993ZM204.462 112.759L204.299 112.287L204.462 112.759ZM97.2406 204.462L96.768 204.625L97.2406 204.462ZM75.0075 140.073L75.4801 139.909L75.0075 140.073ZM69.9274 134.993L70.0906 134.52L69.9274 134.993ZM5.53783 112.759L5.37464 113.232H5.37464L5.53783 112.759ZM29.7703 39.4758L29.3188 39.6905L29.7703 39.4758ZM59.0262 100.993L58.5747 101.208L59.0262 100.993ZM58.9615 108.177L59.4091 108.4V108.4L58.9615 108.177ZM28.6017 169.158L29.0493 169.381L28.6017 169.158ZM40.8421 28.6017L41.065 28.1541L40.8421 28.6017ZM101.823 58.9615L101.6 59.4091L101.823 58.9615ZM109.007 59.0262L108.792 58.5747L109.007 59.0262ZM170.524 29.7703L170.739 30.2218L170.524 29.7703ZM180.23 170.524L179.778 170.739L180.23 170.524ZM150.974 109.007L150.522 109.221L150.974 109.007ZM151.038 101.823L151.486 102.045L151.038 101.823ZM181.398 40.8421L180.951 40.6193V40.6193L181.398 40.8421ZM169.158 181.398L169.381 180.951L169.158 181.398ZM108.177 151.039L107.955 151.486L108.177 151.039ZM100.993 150.974L100.779 150.522L100.993 150.974ZM39.4757 180.23L39.6905 180.681H39.6905L39.4757 180.23ZM96.768 5.37462L96.5399 6.0353L97.4851 6.36168L97.7132 5.701L96.768 5.37462ZM81.6994 49.015L74.5349 69.7642L75.4801 70.0905L82.6446 49.3414L81.6994 49.015ZM69.7642 74.5349L49.7856 81.4333L50.112 82.3785L70.0905 75.4801L69.7642 74.5349ZM6.03541 96.5399L5.37462 96.768L5.70101 97.7133L6.36179 97.4851L6.03541 96.5399ZM5.37462 96.768C3.96855 97.2535 2.82009 97.9865 1.92305 98.886L2.63111 99.5921C3.41619 98.8049 4.43244 98.1513 5.70101 97.7133L5.37462 96.768ZM-0.499452 105.006C-0.475156 107.232 0.356964 109.457 1.91324 111.104L2.63996 110.417C1.26851 108.966 0.522233 106.988 0.500489 104.995L-0.499452 105.006ZM6.08709 113.475C6.75427 113.628 7.46515 113.709 8.21705 113.709V112.709C7.53751 112.709 6.90161 112.636 6.31025 112.5L6.08709 113.475ZM74.5349 69.7642C73.7619 72.0028 72.0028 73.7619 69.7642 74.5349L70.0905 75.4801C72.6196 74.6068 74.6068 72.6196 75.4801 70.0905L74.5349 69.7642ZM97.7132 5.70101C98.1513 4.43247 98.8049 3.41624 99.592 2.63117L98.8859 1.92312C97.9865 2.82015 97.2535 3.96859 96.768 5.37462L97.7132 5.70101ZM104.995 0.500483C106.988 0.522099 108.966 1.26858 110.418 2.64048L111.105 1.91382C109.458 0.35703 107.232 -0.475306 105.005 -0.499458L104.995 0.500483ZM112.5 6.31008C112.635 6.90149 112.709 7.53745 112.709 8.21705H113.709C113.709 7.46508 113.628 6.75414 113.475 6.0869L112.5 6.31008ZM112.287 5.701L112.515 6.36168L113.46 6.0353L113.232 5.37462L112.287 5.701ZM127.621 50.112L134.52 70.0905L135.465 69.7642L128.567 49.7856L127.621 50.112ZM139.909 75.4801L160.659 82.6446L160.985 81.6993L140.236 74.5349L139.909 75.4801ZM203.638 97.4851L204.299 97.7133L204.625 96.768L203.965 96.5399L203.638 97.4851ZM204.299 97.7133C205.567 98.1513 206.584 98.8048 207.369 99.592L208.077 98.8858C207.18 97.9864 206.031 97.2535 204.625 96.768L204.299 97.7133ZM209.5 104.995C209.478 106.988 208.731 108.966 207.36 110.418L208.086 111.105C209.643 109.458 210.475 107.232 210.499 105.005L209.5 104.995ZM203.69 112.5C203.099 112.636 202.463 112.709 201.783 112.709V113.709C202.535 113.709 203.246 113.628 203.913 113.475L203.69 112.5ZM134.52 70.0905C135.393 72.6196 137.38 74.6068 139.909 75.4801L140.236 74.5349C137.997 73.7619 136.238 72.0028 135.465 69.7642L134.52 70.0905ZM113.232 5.37462C112.746 3.96859 112.014 2.82015 111.114 1.92312L110.408 2.63117C111.195 3.41624 111.849 4.43247 112.287 5.70101L113.232 5.37462ZM104.995 -0.499458C102.768 -0.475306 100.542 0.35703 98.8955 1.91382L99.5825 2.64048C101.034 1.26858 103.012 0.522099 105.005 0.500483L104.995 -0.499458ZM96.5251 6.0869C96.3724 6.75414 96.2911 7.46508 96.2911 8.21705H97.2911C97.2911 7.53745 97.3645 6.90149 97.4999 6.31008L96.5251 6.0869ZM113.232 204.625L113.46 203.965L112.515 203.638L112.287 204.299L113.232 204.625ZM128.301 160.985L135.465 140.236L134.52 139.909L127.355 160.659L128.301 160.985ZM140.236 135.465L160.214 128.567L159.888 127.621L139.909 134.52L140.236 135.465ZM203.965 113.46L204.625 113.232L204.299 112.287L203.638 112.515L203.965 113.46ZM204.625 113.232C206.031 112.747 207.18 112.014 208.077 111.114L207.369 110.408C206.584 111.195 205.567 111.849 204.299 112.287L204.625 113.232ZM210.499 104.995C210.475 102.768 209.643 100.542 208.086 98.8954L207.359 99.5824C208.731 101.033 209.478 103.013 209.5 105.005L210.499 104.995ZM203.913 96.5251C203.246 96.3724 202.535 96.2911 201.783 96.2911V97.2911C202.463 97.2911 203.099 97.3645 203.69 97.4999L203.913 96.5251ZM135.465 140.236C136.238 137.997 137.997 136.238 140.236 135.465L139.909 134.52C137.38 135.393 135.393 137.38 134.52 139.909L135.465 140.236ZM112.287 204.299C111.849 205.568 111.195 206.584 110.408 207.369L111.114 208.077C112.014 207.18 112.746 206.031 113.232 204.625L112.287 204.299ZM105.005 209.5C103.012 209.478 101.034 208.731 99.5826 207.36L98.8956 208.086C100.542 209.643 102.768 210.475 104.995 210.499L105.005 209.5ZM97.4999 203.69C97.3645 203.098 97.2911 202.463 97.2911 201.783H96.2911C96.2911 202.535 96.3724 203.246 96.5251 203.913L97.4999 203.69ZM97.7133 204.299L97.4851 203.638L96.5399 203.965L96.768 204.625L97.7133 204.299ZM82.3785 159.888L75.4801 139.909L74.5349 140.236L81.4333 160.214L82.3785 159.888ZM70.0906 134.52L49.3415 127.355L49.0151 128.301L69.7642 135.465L70.0906 134.52ZM6.36186 112.515L5.70102 112.287L5.37464 113.232L6.03548 113.46L6.36186 112.515ZM5.70102 112.287C4.4322 111.849 3.4158 111.195 2.63066 110.407L1.92254 111.113C2.81965 112.013 3.96829 112.746 5.37464 113.232L5.70102 112.287ZM0.500489 105.006C0.52197 103.013 1.26843 101.034 2.64041 99.5825L1.91375 98.8955C0.356864 100.542 -0.475452 102.768 -0.499453 104.995L0.500489 105.006ZM6.31019 97.4999C6.90157 97.3645 7.5375 97.2911 8.21706 97.2911V96.2911C7.46513 96.2911 6.75423 96.3723 6.08702 96.5251L6.31019 97.4999ZM75.4801 139.909C74.6068 137.38 72.6196 135.393 70.0906 134.52L69.7642 135.465C72.0028 136.238 73.7619 137.997 74.5349 140.236L75.4801 139.909ZM96.768 204.625C97.2535 206.031 97.9866 207.18 98.886 208.077L99.5922 207.369C98.805 206.584 98.1513 205.568 97.7133 204.299L96.768 204.625ZM105.005 210.499C107.232 210.475 109.458 209.643 111.104 208.086L110.417 207.36C108.966 208.731 106.987 209.478 104.995 209.5L105.005 210.499ZM113.475 203.913C113.628 203.246 113.709 202.535 113.709 201.783H112.709C112.709 202.463 112.636 203.098 112.5 203.69L113.475 203.913ZM29.3188 39.6905L29.6188 40.3215L30.5219 39.892L30.2218 39.261L29.3188 39.6905ZM49.4973 82.1206L58.5747 101.208L59.4778 100.779L50.4003 81.6912L49.4973 82.1206ZM58.5139 107.955L48.7307 127.605L49.6259 128.051L59.4091 108.4L58.5139 107.955ZM28.4659 168.309L28.1541 168.935L29.0493 169.381L29.3611 168.754L28.4659 168.309ZM28.1541 168.935C27.4906 170.268 27.1849 171.597 27.1757 172.868L28.1756 172.875C28.1837 171.763 28.4507 170.583 29.0493 169.381L28.1541 168.935ZM29.7331 178.926C31.3109 180.499 33.4652 181.505 35.7309 181.588L35.7679 180.589C33.7713 180.515 31.8512 179.626 30.4391 178.218L29.7331 178.926ZM40.3692 180.355C40.9522 179.997 41.5162 179.557 42.0527 179.03L41.352 178.316C40.8672 178.792 40.3621 179.186 39.8454 179.503L40.3692 180.355ZM58.5747 101.208C59.5918 103.347 59.5694 105.835 58.5139 107.955L59.4091 108.4C60.6015 106.005 60.6269 103.195 59.4778 100.779L58.5747 101.208ZM30.2218 39.261C29.6456 38.0495 29.3999 36.8668 29.4112 35.7554L28.4112 35.7452C28.3983 37.0151 28.6801 38.3476 29.3188 39.6905L30.2218 39.261ZM31.7733 30.448C33.2103 29.0673 35.1449 28.2135 37.1412 28.1756L37.1221 27.1757C34.8568 27.2188 32.686 28.1843 31.0805 29.7269L31.7733 30.448ZM41.1982 29.3343C41.7092 29.6614 42.2072 30.0637 42.6835 30.5486L43.3969 29.8479C42.87 29.3113 42.3138 28.861 41.7372 28.492L41.1982 29.3343ZM40.6193 29.0493L41.2449 29.3608L41.6905 28.4656L41.065 28.1541L40.6193 29.0493ZM81.9491 49.6258L101.6 59.4091L102.045 58.5139L82.3948 48.7306L81.9491 49.6258ZM109.221 59.4777L128.309 50.4003L127.879 49.4973L108.792 58.5747L109.221 59.4777ZM170.108 30.5221L170.739 30.2218L170.31 29.3187L169.678 29.619L170.108 30.5221ZM170.739 30.2218C171.951 29.6456 173.133 29.3998 174.245 29.4112L174.255 28.4112C172.985 28.3982 171.653 28.68 170.31 29.3187L170.739 30.2218ZM179.554 31.7749C180.933 33.211 181.786 35.1437 181.824 37.1381L182.824 37.1187C182.78 34.8555 181.816 32.6868 180.275 31.0823L179.554 31.7749ZM180.665 41.1987C180.338 41.7096 179.936 42.2074 179.451 42.6834L180.152 43.3969C180.689 42.8701 181.139 42.3142 181.508 41.7378L180.665 41.1987ZM101.6 59.4091C103.995 60.6015 106.805 60.6268 109.221 59.4777L108.792 58.5747C106.653 59.5918 104.166 59.5694 102.045 58.5139L101.6 59.4091ZM41.065 28.1541C39.7334 27.4912 38.4057 27.1854 37.1355 27.1757L37.1278 28.1756C38.2395 28.1842 39.4179 28.4512 40.6193 29.0493L41.065 28.1541ZM31.0727 29.7345C29.5003 31.3125 28.4952 33.4666 28.4116 35.7319L29.4109 35.7688C29.4846 33.7725 30.3737 31.8526 31.7811 30.4404L31.0727 29.7345ZM29.6444 40.3687C30.003 40.9518 30.4433 41.5161 30.9702 42.0526L31.6837 41.3519C31.2074 40.867 30.8141 40.3618 30.4963 39.8449L29.6444 40.3687ZM180.681 170.309L180.381 169.679L179.478 170.108L179.778 170.739L180.681 170.309ZM160.503 127.879L151.425 108.792L150.522 109.221L159.6 128.309L160.503 127.879ZM151.486 102.045L161.269 82.3948L160.374 81.9491L150.591 101.6L151.486 102.045ZM181.534 41.6911L181.846 41.0649L180.951 40.6193L180.639 41.2454L181.534 41.6911ZM181.846 41.065C182.509 39.7322 182.815 38.4033 182.824 37.132L181.824 37.1248C181.816 38.2374 181.549 39.4169 180.951 40.6193L181.846 41.065ZM180.267 31.0745C178.689 29.5011 176.535 28.4953 174.268 28.4115L174.232 29.4109C176.228 29.4847 178.149 30.3744 179.561 31.7826L180.267 31.0745ZM169.631 29.6446C169.048 30.0032 168.484 30.4433 167.947 30.9702L168.648 31.6837C169.133 31.2075 169.638 30.8142 170.155 30.4965L169.631 29.6446ZM151.425 108.792C150.408 106.653 150.431 104.165 151.486 102.045L150.591 101.6C149.398 103.995 149.373 106.805 150.522 109.221L151.425 108.792ZM179.778 170.739C180.354 171.951 180.6 173.133 180.589 174.244L181.589 174.255C181.602 172.985 181.32 171.652 180.681 170.309L179.778 170.739ZM178.227 179.552C176.79 180.933 174.855 181.786 172.859 181.824L172.878 182.824C175.143 182.781 177.314 181.816 178.919 180.273L178.227 179.552ZM168.802 180.666C168.291 180.339 167.793 179.936 167.316 179.451L166.603 180.152C167.13 180.689 167.686 181.139 168.263 181.508L168.802 180.666ZM169.381 180.951L168.755 180.639L168.309 181.534L168.935 181.846L169.381 180.951ZM128.051 160.374L108.4 150.591L107.955 151.486L127.605 161.269L128.051 160.374ZM100.779 150.522L81.6912 159.6L82.1207 160.503L101.208 151.425L100.779 150.522ZM39.8925 179.478L39.261 179.778L39.6905 180.681L40.322 180.381L39.8925 179.478ZM39.261 179.778C38.0491 180.354 36.8661 180.6 35.7545 180.589L35.7442 181.589C37.0143 181.602 38.3473 181.32 39.6905 180.681L39.261 179.778ZM30.4467 178.225C29.0675 176.789 28.2143 174.856 28.1756 172.862L27.1757 172.881C27.2197 175.145 28.1844 177.313 29.7255 178.918L30.4467 178.225ZM29.3346 168.801C29.6616 168.29 30.0638 167.793 30.5485 167.317L29.8478 166.603C29.3115 167.13 28.8613 167.686 28.4924 168.262L29.3346 168.801ZM108.4 150.591C106.005 149.398 103.195 149.373 100.779 150.522L101.208 151.425C103.347 150.408 105.834 150.431 107.955 151.486L108.4 150.591ZM168.935 181.846C170.267 182.509 171.594 182.815 172.865 182.824L172.872 181.824C171.761 181.816 170.582 181.549 169.381 180.951L168.935 181.846ZM178.927 180.266C180.5 178.688 181.505 176.533 181.588 174.268L180.589 174.231C180.515 176.227 179.626 178.147 178.219 179.56L178.927 180.266ZM180.356 169.631C179.997 169.048 179.557 168.484 179.03 167.947L178.316 168.648C178.793 169.133 179.186 169.638 179.504 170.155L180.356 169.631ZM82.172 49.1782L81.7263 50.0734L82.7456 50.5809L83.1172 49.5046L82.172 49.1782ZM97.0125 6.19849L97.9577 6.52487L97.9753 6.47406L97.9873 6.42167L97.0125 6.19849ZM41.4677 28.9132L40.9286 29.7554L40.9739 29.7844L41.022 29.8083L41.4677 28.9132ZM37.1317 27.6756L37.124 28.6756L37.1373 28.6757L37.1507 28.6755L37.1317 27.6756ZM31.4269 30.0875L32.1197 30.8086L32.1276 30.8011L32.1352 30.7934L31.4269 30.0875ZM28.9112 35.7503L29.9105 35.7872L29.911 35.7739L29.9112 35.7605L28.9112 35.7503ZM30.0704 40.1068L30.9735 39.6773L30.9504 39.6288L30.9222 39.583L30.0704 40.1068ZM49.9488 81.9059L50.2752 82.8511L51.3321 82.4862L50.8519 81.4764L49.9488 81.9059ZM6.1986 97.0125L6.42177 97.9873L6.47417 97.9753L6.52499 97.9577L6.1986 97.0125ZM2.27708 99.239L2.98514 99.9452L2.99457 99.9357L3.00374 99.926L2.27708 99.239ZM0.000518426 105.001L1.00046 105.011L1.00058 105.001L1.00046 104.99L0.000518426 105.001ZM2.2766 110.76L3.00332 110.074L2.99415 110.064L2.98472 110.054L2.2766 110.76ZM6.19867 112.988L6.52505 112.042L6.47423 112.025L6.42182 112.013L6.19867 112.988ZM49.1783 127.828L50.0735 128.274L50.5809 127.254L49.5046 126.883L49.1783 127.828ZM28.9135 168.532L29.7557 169.071L29.7847 169.025L29.8087 168.977L28.9135 168.532ZM27.6756 172.871L28.6756 172.879L28.6757 172.865L28.6755 172.852L27.6756 172.871ZM30.0861 178.572L30.8073 177.879L30.7998 177.871L30.7921 177.864L30.0861 178.572ZM35.7494 181.089L35.7864 180.089L35.773 180.089L35.7597 180.089L35.7494 181.089ZM40.1073 179.929L39.6778 179.026L39.6292 179.049L39.5834 179.078L40.1073 179.929ZM81.9059 160.051L82.8512 159.725L82.4862 158.668L81.4764 159.148L81.9059 160.051ZM97.0125 203.801L97.9873 203.578L97.9753 203.526L97.9577 203.475L97.0125 203.801ZM99.2391 207.723L99.9453 207.015L99.9358 207.005L99.9261 206.996L99.2391 207.723ZM105 209.999L105.011 209L105 208.999L104.989 209L105 209.999ZM110.761 207.723L110.074 206.996L110.064 207.005L110.055 207.015L110.761 207.723ZM112.987 203.801L112.042 203.475L112.025 203.526L112.013 203.578L112.987 203.801ZM127.828 160.822L128.274 159.927L127.254 159.419L126.883 160.495L127.828 160.822ZM168.532 181.087L169.071 180.245L169.026 180.216L168.978 180.192L168.532 181.087ZM172.869 182.324L172.876 181.324L172.863 181.324L172.85 181.325L172.869 182.324ZM178.573 179.913L177.88 179.192L177.872 179.199L177.865 179.207L178.573 179.913ZM181.089 174.25L180.089 174.213L180.089 174.226L180.089 174.239L181.089 174.25ZM179.93 169.893L179.027 170.323L179.05 170.371L179.078 170.417L179.93 169.893ZM160.051 128.094L159.725 127.149L158.668 127.514L159.148 128.524L160.051 128.094ZM203.802 112.987L203.578 112.013L203.526 112.025L203.475 112.042L203.802 112.987ZM207.723 110.761L207.015 110.055L207.005 110.064L206.996 110.074L207.723 110.761ZM209.999 105L209 104.989L208.999 105L209 105.011L209.999 105ZM207.723 99.2389L206.996 99.9259L207.005 99.9356L207.015 99.9451L207.723 99.2389ZM203.802 97.0125L203.475 97.9578L203.526 97.9753L203.578 97.9873L203.802 97.0125ZM160.822 82.172L159.927 81.7263L159.419 82.7456L160.495 83.1172L160.822 82.172ZM181.087 41.4683L180.244 40.9291L180.215 40.9744L180.191 41.0226L181.087 41.4683ZM182.324 37.1284L181.324 37.1211L181.324 37.1345L181.325 37.1479L182.324 37.1284ZM179.914 31.4286L179.193 32.1212L179.2 32.1291L179.208 32.1367L179.914 31.4286ZM174.25 28.9112L174.213 29.9105L174.226 29.911L174.24 29.9111L174.25 28.9112ZM169.893 30.0705L170.322 30.9736L170.371 30.9505L170.417 30.9224L169.893 30.0705ZM128.094 49.9488L127.149 50.2752L127.514 51.3321L128.524 50.8519L128.094 49.9488ZM112.987 6.19849L112.013 6.42167L112.025 6.47406L112.042 6.52487L112.987 6.19849ZM110.761 2.27715L110.055 2.9852L110.064 2.99463L110.074 3.0038L110.761 2.27715ZM105 0.000512094L104.989 1.00045L105 1.00057L105.011 1.00045L105 0.000512094ZM99.239 2.27715L99.926 3.0038L99.9357 2.99463L99.9451 2.9852L99.239 2.27715ZM83.1172 49.5046L97.9577 6.52487L96.0673 5.87211L81.2267 48.8518L83.1172 49.5046ZM41.022 29.8083L81.7263 50.0734L82.6177 48.283L41.9134 28.018L41.022 29.8083ZM37.1507 28.6755C38.4169 28.6514 39.7153 28.9789 40.9286 29.7554L42.0068 28.0709C40.4497 27.0744 38.7607 26.6445 37.1126 26.6758L37.1507 28.6755ZM32.1352 30.7934C33.4429 29.4812 35.1994 28.6608 37.124 28.6756L37.1393 26.6757C34.6179 26.6563 32.3607 27.7337 30.7186 29.3816L32.1352 30.7934ZM29.9112 35.7605C29.9308 33.835 30.7833 32.0927 32.1197 30.8086L30.734 29.3664C29.0557 30.979 27.937 33.2175 27.9113 35.7401L29.9112 35.7605ZM30.9222 39.583C30.1679 38.3562 29.8638 37.0525 29.9105 35.7872L27.9119 35.7134C27.8511 37.3603 28.2505 39.0562 29.2185 40.6306L30.9222 39.583ZM50.8519 81.4764L30.9735 39.6773L29.1673 40.5362L49.0457 82.3354L50.8519 81.4764ZM6.52499 97.9577L50.2752 82.8511L49.6224 80.9607L5.87222 96.0672L6.52499 97.9577ZM3.00374 99.926C3.87389 99.0056 5.01742 98.3088 6.42177 97.9873L5.97544 96.0377C4.17327 96.4503 2.68293 97.3541 1.55042 98.552L3.00374 99.926ZM1.00046 104.99C0.980239 103.137 1.62575 101.308 2.98514 99.9452L1.56902 98.5329C-0.211948 100.319 -1.02481 102.685 -0.999422 105.011L1.00046 104.99ZM2.98472 110.054C1.62588 108.692 0.980498 106.864 1.00046 105.011L-0.999424 104.99C-1.02449 107.316 -0.211769 109.681 1.56847 111.467L2.98472 110.054ZM6.42182 112.013C5.01723 111.691 3.87353 110.994 3.00332 110.074L1.54987 111.447C2.68247 112.646 4.17302 113.55 5.97551 113.962L6.42182 112.013ZM49.5046 126.883L6.52505 112.042L5.87228 113.933L48.8519 128.773L49.5046 126.883ZM29.8087 168.977L50.0735 128.274L48.2831 127.382L28.0183 168.086L29.8087 168.977ZM28.6755 172.852C28.6508 171.585 28.9784 170.285 29.7557 169.071L28.0713 167.993C27.0737 169.551 26.6438 171.241 26.6758 172.891L28.6755 172.852ZM30.7921 177.864C29.4813 176.557 28.6616 174.802 28.6756 172.879L26.6757 172.864C26.6574 175.383 27.7339 177.639 29.38 179.28L30.7921 177.864ZM35.7597 180.089C33.8338 180.069 32.0914 179.216 30.8073 177.879L29.3648 179.264C30.9774 180.943 33.216 182.063 35.7391 182.089L35.7597 180.089ZM39.5834 179.078C38.3562 179.832 37.0521 180.136 35.7864 180.089L35.7123 182.088C37.3597 182.149 39.0563 181.75 40.6311 180.781L39.5834 179.078ZM81.4764 159.148L39.6778 179.026L40.5368 180.832L82.3354 160.954L81.4764 159.148ZM97.9577 203.475L82.8512 159.725L80.9607 160.378L96.0673 204.128L97.9577 203.475ZM99.9261 206.996C99.0057 206.126 98.3088 204.983 97.9873 203.578L96.0377 204.025C96.4503 205.827 97.3542 207.317 98.5521 208.45L99.9261 206.996ZM104.989 209C103.136 209.02 101.308 208.374 99.9453 207.015L98.533 208.431C100.319 210.212 102.684 211.025 105.011 210.999L104.989 209ZM110.055 207.015C108.692 208.374 106.863 209.02 105.011 209L104.989 210.999C107.316 211.025 109.681 210.212 111.467 208.431L110.055 207.015ZM112.013 203.578C111.691 204.983 110.994 206.126 110.074 206.996L111.448 208.45C112.646 207.317 113.55 205.827 113.962 204.025L112.013 203.578ZM126.883 160.495L112.042 203.475L113.933 204.128L128.773 161.148L126.883 160.495ZM168.978 180.192L128.274 159.927L127.382 161.717L168.087 181.982L168.978 180.192ZM172.85 181.325C171.583 181.349 170.285 181.021 169.071 180.245L167.993 181.929C169.55 182.926 171.239 183.356 172.888 183.324L172.85 181.325ZM177.865 179.207C176.557 180.519 174.801 181.339 172.876 181.324L172.861 183.324C175.382 183.344 177.639 182.266 179.281 180.618L177.865 179.207ZM180.089 174.239C180.069 176.165 179.217 177.907 177.88 179.192L179.266 180.634C180.944 179.021 182.063 176.783 182.089 174.26L180.089 174.239ZM179.078 170.417C179.832 171.644 180.136 172.947 180.089 174.213L182.088 174.286C182.149 172.64 181.749 170.944 180.781 169.369L179.078 170.417ZM159.148 128.524L179.027 170.323L180.833 169.464L160.954 127.665L159.148 128.524ZM203.475 112.042L159.725 127.149L160.378 129.039L204.128 113.933L203.475 112.042ZM206.996 110.074C206.126 110.994 204.983 111.691 203.578 112.013L204.025 113.962C205.827 113.55 207.317 112.646 208.449 111.448L206.996 110.074ZM209 105.011C209.02 106.864 208.374 108.692 207.015 110.055L208.431 111.467C210.212 109.682 211.025 107.316 210.999 104.989L209 105.011ZM207.015 99.9451C208.374 101.308 209.02 103.136 209 104.989L210.999 105.011C211.025 102.684 210.212 100.318 208.431 98.5327L207.015 99.9451ZM203.578 97.9873C204.983 98.3088 206.126 99.0056 206.996 99.9259L208.449 98.5519C207.317 97.354 205.827 96.4503 204.025 96.0378L203.578 97.9873ZM160.495 83.1172L203.475 97.9578L204.128 96.0673L161.148 81.2267L160.495 83.1172ZM180.191 41.0226L159.927 81.7263L161.717 82.6176L181.982 41.914L180.191 41.0226ZM181.325 37.1479C181.349 38.4152 181.022 39.7148 180.244 40.9291L181.929 42.0074C182.926 40.449 183.356 38.7584 183.324 37.109L181.325 37.1479ZM179.208 32.1367C180.519 33.4436 181.338 35.1984 181.324 37.1211L183.324 37.1357C183.343 34.6167 182.266 32.3617 180.62 30.7205L179.208 32.1367ZM174.24 29.9111C176.166 29.9309 177.909 30.784 179.193 32.1212L180.635 30.7359C179.023 29.0566 176.784 27.9371 174.26 27.9113L174.24 29.9111ZM170.417 30.9224C171.644 30.1679 172.948 29.8637 174.213 29.9105L174.287 27.9119C172.64 27.851 170.944 28.2505 169.369 29.2187L170.417 30.9224ZM128.524 50.8519L170.322 30.9736L169.463 29.1675L127.665 49.0457L128.524 50.8519ZM112.042 6.52487L127.149 50.2752L129.039 49.6224L113.933 5.87211L112.042 6.52487ZM110.074 3.0038C110.994 3.87392 111.691 5.0174 112.013 6.42167L113.962 5.97531C113.55 4.17324 112.646 2.68298 111.448 1.55049L110.074 3.0038ZM105.011 1.00045C106.864 0.980359 108.692 1.6259 110.055 2.9852L111.467 1.5691C109.682 -0.211759 107.316 -1.02466 104.989 -0.999429L105.011 1.00045ZM99.9451 2.9852C101.308 1.6259 103.136 0.980359 104.989 1.00045L105.011 -0.999429C102.684 -1.02466 100.318 -0.211759 98.5328 1.5691L99.9451 2.9852ZM97.9873 6.42167C98.3088 5.0174 99.0056 3.87392 99.926 3.0038L98.552 1.55049C97.3541 2.68298 96.4503 4.17324 96.0377 5.97531L97.9873 6.42167ZM113.235 105C113.235 109.548 109.548 113.235 105 113.235V115.235C110.653 115.235 115.235 110.653 115.235 105H113.235ZM105 96.765C109.548 96.765 113.235 100.452 113.235 105H115.235C115.235 99.3474 110.653 94.765 105 94.765V96.765ZM96.765 105C96.765 100.452 100.452 96.765 105 96.765V94.765C99.3474 94.765 94.765 99.3474 94.765 105H96.765ZM105 113.235C100.452 113.235 96.765 109.548 96.765 105H94.765C94.765 110.653 99.3474 115.235 105 115.235V113.235Z" fill="url(#paint0_radial_1042_1299)" mask="url(#path-2-inside-1_1042_1299)"></path><defs><radialGradient id="paint0_radial_1042_1299" cx="0" cy="0" r="1" gradientUnits="userSpaceOnUse" gradientTransform="translate(105 105) rotate(90) scale(177.5)"><stop stop-color="#EAFFFB"></stop><stop offset="1" stop-color="#095540" stop-opacity="0.2"></stop></radialGradient></defs></svg> 