<?xml version="1.0" encoding="UTF-8"?> <svg xmlns="http://www.w3.org/2000/svg" width="36" height="36" viewBox="0 0 36 36" fill="none"><path d="M18 36C8.05887 36 0 27.9411 0 18C0 8.05887 8.05887 0 18 0C27.9411 0 36 8.05887 36 18C36 27.9411 27.9411 36 18 36Z" fill="#EAFFFB"></path><path fill-rule="evenodd" clip-rule="evenodd" d="M21.9228 13.7788C21.629 13.7346 21.3272 13.708 21.0175 13.708C20.81 13.708 20.6049 13.7177 20.4027 13.7365C17.2315 13.9077 14.7188 16.2566 14.7188 19.1318C14.7188 19.5836 14.7808 20.0224 14.8977 20.4418C14.4198 20.3585 13.9682 20.2175 13.5369 20.0466L11.3451 21.0986L12.1472 19.304C10.7257 18.2608 9.8125 16.6607 9.8125 14.8484C9.8125 11.7101 12.5522 9.16406 15.9272 9.16406C18.9052 9.16406 21.3828 11.1532 21.9228 13.7788ZM14.8977 20.4418C15.5535 22.7948 17.9357 24.5371 20.7739 24.5371C21.3218 24.5371 21.8508 24.453 22.3515 24.3268L25.6199 25.8937L24.4863 23.3698C25.9033 22.3813 26.8291 20.867 26.8291 19.1318C26.8291 16.1453 24.1179 13.7266 20.7739 13.7266C20.6492 13.7266 20.5255 13.7299 20.4027 13.7365C17.316 14.0244 14.9033 16.4553 14.9107 19.3924C14.9107 19.7637 14.9504 20.1173 15.0219 20.4621C14.9803 20.4558 14.9389 20.449 14.8977 20.4418ZM18.2519 11.7835C18.1594 11.7409 18.0603 11.7189 17.9602 11.7189C17.758 11.7189 17.5641 11.8084 17.4211 11.9675C17.2781 12.1267 17.1978 12.3425 17.1978 12.5676C17.1978 12.7927 17.2781 13.0086 17.4211 13.1677C17.5641 13.3269 17.758 13.4163 17.9602 13.4163C18.0603 13.4163 18.1594 13.3943 18.2519 13.3517C18.3444 13.309 18.4284 13.2465 18.4992 13.1677C18.57 13.0889 18.6262 12.9954 18.6645 12.8924C18.7028 12.7894 18.7225 12.6791 18.7225 12.5676C18.7225 12.4562 18.7028 12.3458 18.6645 12.2428C18.6262 12.1399 18.57 12.0463 18.4992 11.9675C18.4284 11.8887 18.3444 11.8262 18.2519 11.7835ZM13.3473 13.1766C13.4902 13.3357 13.6841 13.4251 13.8863 13.4251C14.0885 13.4251 14.2824 13.3357 14.4254 13.1766C14.5684 13.0174 14.6487 12.8015 14.6487 12.5765C14.6487 12.3514 14.5684 12.1355 14.4254 11.9764C14.2824 11.8172 14.0885 11.7278 13.8863 11.7278C13.6841 11.7278 13.4902 11.8172 13.3473 11.9764C13.2043 12.1355 13.124 12.3514 13.124 12.5765C13.124 12.8015 13.2043 13.0174 13.3473 13.1766ZM18.4469 18.6252C18.5961 18.7361 18.7714 18.7953 18.9507 18.7953C19.4514 18.7953 19.867 18.3431 19.8576 17.7858C19.8576 17.5861 19.8044 17.3909 19.7048 17.2249C19.6051 17.0589 19.4635 16.9295 19.2978 16.8531C19.1321 16.7767 18.9497 16.7567 18.7738 16.7956C18.5979 16.8346 18.4363 16.9307 18.3095 17.0719C18.1827 17.2131 18.0963 17.393 18.0613 17.5888C18.0263 17.7847 18.0443 17.9876 18.1129 18.1721C18.1816 18.3566 18.2978 18.5142 18.4469 18.6252ZM21.9464 18.4996C22.1164 18.689 22.3471 18.7953 22.5876 18.7953C22.8281 18.7953 23.0588 18.689 23.2289 18.4996C23.3989 18.3103 23.4945 18.0535 23.4945 17.7858C23.4945 17.518 23.3989 17.2612 23.2289 17.0719C23.0588 16.8826 22.8281 16.7762 22.5876 16.7762C22.3471 16.7762 22.1164 16.8826 21.9464 17.0719C21.7763 17.2612 21.6808 17.518 21.6808 17.7858C21.6808 18.0535 21.7763 18.3103 21.9464 18.4996Z" fill="#095540"></path></svg> 