<?xml version="1.0" encoding="UTF-8"?> <svg xmlns="http://www.w3.org/2000/svg" width="210" height="210" viewBox="0 0 210 210" fill="none"><mask id="path-1-inside-1_1042_1627" fill="white"><path fill-rule="evenodd" clip-rule="evenodd" d="M58 98.4577C57.7097 100.619 57.5673 102.804 57.5801 104.999C57.5673 107.194 57.7097 109.38 58 111.541C58 116.425 52.2003 118.987 48.5893 115.698L43.7536 111.292C40.047 107.916 40.047 102.083 43.7536 98.7059L48.5893 94.3006C52.2003 91.0109 58 93.5729 58 98.4577ZM152 111.541C152.29 109.38 152.433 107.195 152.42 105.001C152.433 102.805 152.29 100.619 152 98.4577C152 93.5728 157.8 91.0109 161.411 94.3005L166.246 98.7059C169.953 102.083 169.953 107.916 166.246 111.292L161.411 115.698C157.8 118.987 152 116.425 152 111.541ZM150.372 125.754C149.536 126.516 148.002 125.322 148.451 124.284C148.909 123.226 151 123.594 151 124.746C151 125.023 150.884 125.288 150.679 125.474L150.372 125.754ZM133.298 143.663C133.5 143.44 133.722 143.237 133.96 143.052C137.238 140.51 140.138 137.554 142.611 134.291C142.792 134.052 142.992 133.829 143.214 133.628C146.201 130.906 151 133.026 151 137.068V144.036C151 148.281 147.559 151.722 143.314 151.722H136.881C132.7 151.722 130.497 146.767 133.298 143.663ZM124.264 151.722C123.137 151.722 122.797 149.44 123.834 149C123.904 148.97 123.973 148.941 124.041 148.911C125.061 148.472 126.247 149.985 125.504 150.809L124.959 151.413C124.781 151.609 124.529 151.722 124.264 151.722ZM105.164 152.722C105.164 152.722 105.163 152.722 105.163 152.722C105.108 152.722 105.053 152.722 104.998 152.721L104.879 152.722L104.821 152.722C97.657 152.722 93.9629 161.3 98.7621 166.618C102.077 170.292 107.923 170.292 111.238 166.618C116.037 161.3 112.343 152.722 105.179 152.722L105.164 152.722ZM133.96 66.9458C133.722 66.7615 133.5 66.5581 133.298 66.3348C130.497 63.2309 132.7 58.2766 136.881 58.2766L143.314 58.2766C147.559 58.2766 151 61.7176 151 65.9623V72.9305C151 76.9722 146.201 79.092 143.214 76.3701C142.992 76.1686 142.792 75.9459 142.611 75.7075C140.138 72.4446 137.238 69.4882 133.96 66.9458ZM124.264 58.2766C124.529 58.2766 124.781 58.3889 124.959 58.5855L125.504 59.1893C126.247 60.0137 125.061 61.5267 124.041 61.0872C123.973 61.0575 123.904 61.028 123.834 60.9986C122.797 60.5578 123.137 58.2766 124.264 58.2766ZM122.146 53.9759C124.042 56.0772 126.74 57.2766 129.57 57.2766L141 57.2766C146.523 57.2766 151 52.7995 151 47.2766V10.6953C151 5.34288 146.661 1.00391 141.309 1.00391C138.566 1.00391 135.951 2.16629 134.114 4.20276L111.719 29.0213C108.284 32.8272 108.284 38.6139 111.719 42.4198L122.146 53.9759ZM98.7621 43.3798C102.077 39.7058 107.923 39.7058 111.238 43.3798C116.037 48.6984 112.343 57.2766 105.179 57.2766L105.017 57.2769L105.001 57.2769L104.89 57.2767L104.821 57.2766C97.657 57.2766 93.9629 48.6984 98.7621 43.3798ZM97.5757 26.7465C101.547 31.1475 108.453 31.1475 112.424 26.7465L133.371 3.53284C135.398 1.28622 138.283 0.00390625 141.309 0.00390625C147.213 0.00390625 152 4.7906 152 10.6953V47.2766C152 52.7995 156.477 57.2766 162 57.2766L199.243 57.2766C205.184 57.2766 210 62.0927 210 68.0335C210 71.0603 208.725 73.9471 206.487 75.9854L182.754 97.6068C178.4 101.573 178.4 108.425 182.754 112.391L206.487 134.013C208.725 136.051 210 138.938 210 141.965C210 147.906 205.184 152.722 199.243 152.722H162C156.477 152.722 152 157.199 152 162.722V199.303C152 205.208 147.213 209.994 141.309 209.994C138.283 209.994 135.398 208.712 133.371 206.465L112.424 183.252C108.453 178.851 101.547 178.851 97.5757 183.252L76.6289 206.465C74.6017 208.712 71.7174 209.994 68.6914 209.994C62.7867 209.994 58 205.208 58 199.303V162.722C58 157.199 53.5228 152.722 48 152.722H10.7569C4.81604 152.722 0 147.906 0 141.965C0 138.938 1.27519 136.051 3.51271 134.013L27.2462 112.391C31.6003 108.425 31.6002 101.573 27.2462 97.6068L3.51272 75.9854C1.2752 73.9471 1.20011e-05 71.0603 1.22645e-05 68.0335C1.27814e-05 62.0927 4.81605 57.2766 10.7569 57.2766L48 57.2766C53.5228 57.2766 58 52.7995 58 47.2766V10.6953C58 4.7906 62.7867 0.00390625 68.6914 0.00390625C71.7174 0.00390625 74.6017 1.28622 76.6289 3.53284L97.5757 26.7465ZM69 57.2766C63.4771 57.2766 59 52.7995 59 47.2766V10.6953C59 5.34288 63.339 1.00391 68.6914 1.00391C71.4344 1.00391 74.0489 2.16629 75.8865 4.20276L98.2814 29.0213C101.716 32.8272 101.716 38.6139 98.2814 42.4198L87.8538 53.9759C85.9577 56.0772 83.2599 57.2766 80.4296 57.2766L69 57.2766ZM58 68.2766C58 62.7538 53.5229 58.2766 48 58.2766L10.7569 58.2766C5.36833 58.2766 1.00001 62.6449 1.00001 68.0335C1.00001 70.7789 2.15666 73.3973 4.18617 75.2462L29.3687 98.1876C33.1852 101.664 39.0211 101.664 42.8376 98.1876L54.7345 87.3495C56.8145 85.4546 58 82.771 58 79.9572V68.2766ZM66.7865 76.3701C63.7987 79.092 59 76.9722 59 72.9305V65.9623C59 61.7176 62.441 58.2766 66.6857 58.2766L73.1192 58.2766C77.2999 58.2766 79.5026 63.2309 76.7018 66.3348C76.5003 66.5581 76.2779 66.7615 76.0402 66.9458C72.7619 69.4882 69.8622 72.4446 67.3889 75.7075C67.2082 75.9459 67.0076 76.1686 66.7865 76.3701ZM59 85.2519C59 84.9757 59.1164 84.7104 59.3206 84.5243L59.6275 84.2447C60.464 83.4827 61.9983 84.6761 61.5488 85.7145C61.0909 86.7721 59 86.4044 59 85.2519ZM66.7864 133.628C67.0076 133.83 67.2082 134.052 67.3889 134.291C69.8622 137.554 72.7618 140.51 76.0402 143.052C76.2779 143.237 76.5003 143.44 76.7018 143.663C79.5025 146.767 77.2999 151.722 73.1192 151.722H66.6857C62.441 151.722 59 148.281 59 144.036V137.068C59 133.026 63.7986 130.906 66.7864 133.628ZM59 162.722C59 157.199 63.4771 152.722 69 152.722H80.4296C83.2599 152.722 85.9577 153.921 87.8538 156.022L98.2814 167.578C101.716 171.384 101.716 177.171 98.2814 180.977L75.8865 205.796C74.0489 207.832 71.4343 208.994 68.6914 208.994C63.339 208.994 59 204.655 59 199.303V162.722ZM151 199.303V162.722C151 157.199 146.523 152.722 141 152.722H129.57C126.74 152.722 124.042 153.921 122.146 156.022L111.719 167.578C108.284 171.384 108.284 177.171 111.719 180.977L134.114 205.796C135.951 207.832 138.566 208.994 141.309 208.994C146.661 208.994 151 204.655 151 199.303ZM199.243 151.722H162C156.477 151.722 152 147.244 152 141.722V130.041C152 127.227 153.185 124.544 155.266 122.649L167.162 111.811C170.979 108.334 176.815 108.334 180.631 111.811L205.814 134.752C207.843 136.601 209 139.219 209 141.965C209 147.353 204.632 151.722 199.243 151.722ZM85.7361 151.722C86.863 151.722 87.2026 149.44 86.1656 149C86.0965 148.97 86.0275 148.941 85.9586 148.911C84.9388 148.472 83.7525 149.985 84.4965 150.809L85.0413 151.413C85.2187 151.609 85.4712 151.722 85.7361 151.722ZM85.0413 58.5855C85.2187 58.3889 85.4712 58.2766 85.7361 58.2766C86.863 58.2766 87.2026 60.5578 86.1656 60.9986C86.0965 61.028 86.0275 61.0575 85.9586 61.0872C84.9388 61.5267 83.7525 60.0137 84.4965 59.1893L85.0413 58.5855ZM61.5488 124.284C61.0909 123.226 59 123.594 59 124.746C59 125.023 59.1164 125.288 59.3205 125.474L59.6275 125.754C60.464 126.516 61.9983 125.322 61.5488 124.284ZM148.451 85.7145C148.909 86.7721 151 86.4044 151 85.2519C151 84.9756 150.884 84.7103 150.679 84.5243L150.372 84.2447C149.536 83.4827 148.002 84.6761 148.451 85.7145ZM152 79.9572C152 82.771 153.185 85.4546 155.266 87.3495L167.162 98.1876C170.979 101.664 176.815 101.664 180.631 98.1876L205.814 75.2462C207.843 73.3973 209 70.7789 209 68.0335C209 62.6449 204.632 58.2766 199.243 58.2766L162 58.2766C156.477 58.2766 152 62.7538 152 68.2766V79.9572ZM150.997 105C150.704 132.194 128.469 150.485 105 150.724C81.5302 150.485 59.2956 132.194 59.0029 104.999C59.2952 77.8044 81.5302 59.5136 105 59.2746C128.47 59.5136 150.705 77.8046 150.997 105ZM29.3687 111.811C33.1852 108.334 39.0211 108.334 42.8376 111.811L54.7345 122.649C56.8145 124.544 58 127.227 58 130.041L58 141.722C58 147.244 53.5228 151.722 48 151.722H10.7569C5.36832 151.722 1 147.353 1 141.965C1 139.219 2.15665 136.601 4.18616 134.752L29.3687 111.811Z"></path></mask><path d="M57.5801 104.999L58.5802 105.005L58.5801 104.993L57.5801 104.999ZM152.42 105.001L151.42 104.995L151.42 105.006L152.42 105.001ZM105.164 152.722L105.165 151.722H105.164V152.722ZM104.998 152.721L105.001 151.721L104.996 151.721L104.998 152.721ZM104.879 152.722L104.88 153.722H104.882L104.879 152.722ZM134.114 4.20276L134.856 4.87269V4.87269L134.114 4.20276ZM105.017 57.2769L105.019 58.2769L105.017 57.2769ZM105.001 57.2769L104.999 58.2769L105.003 58.2769L105.001 57.2769ZM104.89 57.2767L104.893 56.2767H104.891L104.89 57.2767ZM133.371 3.53284L134.114 4.20276V4.20276L133.371 3.53284ZM199.243 57.2766V56.2766V57.2766ZM206.487 75.9854L205.814 75.2462L206.487 75.9854ZM206.487 134.013L207.161 133.274L206.487 134.013ZM133.371 206.465L134.114 205.796L133.371 206.465ZM76.6289 206.465L75.8865 205.796L76.6289 206.465ZM3.51271 134.013L2.83926 133.274H2.83926L3.51271 134.013ZM3.51272 75.9854L2.83927 76.7247H2.83928L3.51272 75.9854ZM1.22645e-05 68.0335H-0.999988H1.22645e-05ZM10.7569 57.2766V56.2766V57.2766ZM76.6289 3.53284L75.8865 4.20276V4.20276L76.6289 3.53284ZM75.8865 4.20276L75.1441 4.87269V4.87269L75.8865 4.20276ZM10.7569 58.2766V57.2766V58.2766ZM1.00001 68.0335H1.22786e-05H1.00001ZM4.18617 75.2462L4.85962 74.507H4.85961L4.18617 75.2462ZM75.8865 205.796L75.144 205.126L75.8865 205.796ZM134.114 205.796L134.856 205.126L134.114 205.796ZM205.814 134.752L205.14 135.491L205.814 134.752ZM205.814 75.2462L205.14 74.507L205.814 75.2462ZM199.243 58.2766V57.2766V58.2766ZM105 150.724L104.99 151.724L105 151.724L105.01 151.724L105 150.724ZM150.997 105L151.997 105.011L151.997 105L151.997 104.989L150.997 105ZM59.0029 104.999L58.003 104.989L58.0029 104.999L58.003 105.01L59.0029 104.999ZM105 59.2746L105.01 58.2746L105 58.2745L104.99 58.2746L105 59.2746ZM4.18616 134.752L4.8596 135.491H4.8596L4.18616 134.752ZM42.8376 111.811L42.1642 112.55L42.8376 111.811ZM29.3687 111.811L28.6952 111.071L29.3687 111.811ZM162 58.2766V57.2766V58.2766ZM167.162 98.1876L166.489 98.9268L167.162 98.1876ZM180.631 98.1876L181.305 98.9268L180.631 98.1876ZM150.372 84.2447L151.046 83.5054L150.372 84.2447ZM111.719 167.578L110.976 166.909L111.719 167.578ZM111.719 180.977L112.461 180.307L111.719 180.977ZM59.3206 84.5243L58.6471 83.7851L59.3206 84.5243ZM59.6275 84.2447L58.9541 83.5054L59.6275 84.2447ZM66.6857 58.2766V59.2766V58.2766ZM42.8376 98.1876L42.1642 97.4484L42.8376 98.1876ZM87.8538 53.9759L87.1114 53.306L87.8538 53.9759ZM80.4296 57.2766V58.2766V57.2766ZM98.2814 42.4198L97.539 41.7499L98.2814 42.4198ZM27.2462 112.391L27.9197 113.131L27.2462 112.391ZM112.424 183.252L113.167 182.582L112.424 183.252ZM97.5757 183.252L96.8333 182.582L97.5757 183.252ZM58 130.041H57H58ZM48 58.2766V59.2766V58.2766ZM155.266 87.3495L155.939 86.6103L155.266 87.3495ZM111.719 42.4198L112.461 41.7499L111.719 42.4198ZM150.679 84.5243L150.006 85.2636L150.679 84.5243ZM59.6275 125.754L60.301 125.014L59.6275 125.754ZM69 57.2766V58.2766V57.2766ZM123.834 60.9986L124.226 60.0783L123.834 60.9986ZM59.3205 125.474L58.6471 126.213L59.3205 125.474ZM124.041 61.0872L123.646 62.0056L124.041 61.0872ZM85.9586 61.0872L85.5628 60.1689L85.9586 61.0872ZM84.4965 59.1893L83.7541 58.5194L84.4965 59.1893ZM124.959 58.5855L124.216 59.2555L124.959 58.5855ZM85.0413 58.5855L84.2988 57.9156L85.0413 58.5855ZM142.611 75.7075L143.408 75.1034L142.611 75.7075ZM86.1656 60.9986L85.7743 60.0783L86.1656 60.9986ZM167.162 111.811L166.489 111.071L167.162 111.811ZM180.631 111.811L181.305 111.071L180.631 111.811ZM122.146 156.022L121.404 155.352L122.146 156.022ZM124.959 151.413L125.701 152.083L124.959 151.413ZM124.041 148.911L124.437 149.829L124.041 148.911ZM125.504 150.809L124.761 150.139L125.504 150.809ZM123.834 149L124.226 149.92L123.834 149ZM150.372 125.754L151.046 126.493L150.372 125.754ZM85.0413 151.413L84.2988 152.083L85.0413 151.413ZM162 57.2766V56.2766V57.2766ZM161.411 115.698L160.737 114.958L161.411 115.698ZM86.1656 149L85.7743 149.92L86.1656 149ZM67.3889 134.291L68.1859 133.687L67.3889 134.291ZM166.246 98.7059L166.92 97.9666L166.246 98.7059ZM166.246 111.292L165.573 110.553L166.246 111.292ZM98.2814 167.578L97.539 168.248L98.2814 167.578ZM142.611 134.291L143.408 134.895L142.611 134.291ZM67.3889 75.7075L68.1859 76.3116L67.3889 75.7075ZM48.5893 94.3006L47.9159 93.5613L48.5893 94.3006ZM85.9586 148.911L86.3543 147.993L85.9586 148.911ZM84.4965 150.809L85.2389 150.139L84.4965 150.809ZM133.96 66.9458L134.573 66.1556L133.96 66.9458ZM76.0402 143.052L76.653 142.262L76.0402 143.052ZM161.411 94.3005L160.737 95.0398L161.411 94.3005ZM182.754 97.6068L182.08 96.8675L182.754 97.6068ZM182.754 112.391L182.08 113.131L182.754 112.391ZM133.96 143.052L134.573 143.843L133.96 143.052ZM76.0402 66.9458L76.653 67.7361L76.0402 66.9458ZM43.7536 111.292L43.0802 112.032L43.7536 111.292ZM43.7536 98.7059L43.0802 97.9666L43.7536 98.7059ZM87.8538 156.022L88.5963 155.352L87.8538 156.022ZM150.679 125.474L151.353 126.213L150.679 125.474ZM48.5893 115.698L49.2627 114.958L48.5893 115.698ZM58.5801 104.993C58.5676 102.846 58.7069 100.706 58.9911 98.5908L57.0089 98.3245C56.7125 100.531 56.5671 102.763 56.5801 105.005L58.5801 104.993ZM58.9911 111.407C58.7069 109.292 58.5676 107.153 58.5801 105.005L56.5801 104.993C56.5671 107.235 56.7125 109.467 57.0089 111.674L58.9911 111.407ZM43.0802 112.032L47.9159 116.437L49.2627 114.958L44.4271 110.553L43.0802 112.032ZM47.9159 93.5613L43.0802 97.9666L44.4271 99.4451L49.2627 95.0398L47.9159 93.5613ZM152.991 111.674C153.287 109.468 153.433 107.236 153.42 104.995L151.42 105.006C151.432 107.153 151.293 109.292 151.009 111.407L152.991 111.674ZM151.009 98.5908C151.293 100.707 151.432 102.847 151.42 104.995L153.42 105.006C153.433 102.764 153.288 100.531 152.991 98.3245L151.009 98.5908ZM166.92 97.9666L162.084 93.5613L160.737 95.0398L165.573 99.4451L166.92 97.9666ZM162.084 116.437L166.92 112.032L165.573 110.553L160.737 114.958L162.084 116.437ZM150.006 124.735L149.699 125.014L151.046 126.493L151.353 126.213L150.006 124.735ZM134.573 143.843C137.922 141.245 140.883 138.226 143.408 134.895L141.814 133.687C139.393 136.882 136.554 139.775 133.347 142.262L134.573 143.843ZM150 137.068V144.036H152V137.068H150ZM143.314 150.722H136.881V152.722H143.314V150.722ZM124.226 149.92C124.296 149.89 124.367 149.86 124.437 149.829L123.646 147.993C123.578 148.022 123.511 148.051 123.443 148.079L124.226 149.92ZM124.761 150.139L124.216 150.743L125.701 152.083L126.246 151.479L124.761 150.139ZM105.163 153.722H105.163C105.163 153.722 105.163 153.722 105.163 153.722C105.163 153.722 105.163 153.722 105.163 153.722C105.163 153.722 105.163 153.722 105.163 153.722C105.163 153.722 105.163 153.722 105.163 153.722H105.163H105.163H105.163C105.163 153.722 105.163 153.722 105.163 153.722C105.163 153.722 105.163 153.722 105.163 153.722C105.163 153.722 105.163 153.722 105.163 153.722C105.163 153.722 105.163 153.722 105.163 153.722H105.163H105.163C105.163 153.722 105.163 153.722 105.163 153.722C105.163 153.722 105.163 153.722 105.163 153.722C105.163 153.722 105.163 153.722 105.163 153.722C105.163 153.722 105.163 153.722 105.163 153.722C105.163 153.722 105.163 153.722 105.163 153.722H105.163H105.163C105.163 153.722 105.163 153.722 105.163 153.722C105.163 153.722 105.163 153.722 105.163 153.722C105.163 153.722 105.163 153.722 105.163 153.722C105.163 153.722 105.163 153.722 105.163 153.722C105.163 153.722 105.163 153.722 105.163 153.722H105.163H105.163C105.163 153.722 105.163 153.722 105.163 153.722C105.163 153.722 105.163 153.722 105.163 153.722C105.163 153.722 105.163 153.722 105.163 153.722C105.163 153.722 105.163 153.722 105.163 153.722C105.163 153.722 105.163 153.722 105.163 153.722H105.163H105.163C105.163 153.722 105.163 153.722 105.163 153.722C105.163 153.722 105.163 153.722 105.163 153.722C105.163 153.722 105.163 153.722 105.163 153.722C105.163 153.722 105.163 153.722 105.163 153.722C105.163 153.722 105.163 153.722 105.163 153.722H105.163H105.163C105.163 153.722 105.163 153.722 105.163 153.722C105.163 153.722 105.163 153.722 105.163 153.722C105.163 153.722 105.163 153.722 105.163 153.722C105.163 153.722 105.163 153.722 105.163 153.722C105.163 153.722 105.163 153.722 105.163 153.722H105.163H105.163C105.163 153.722 105.163 153.722 105.163 153.722C105.163 153.722 105.163 153.722 105.163 153.722C105.163 153.722 105.163 153.722 105.163 153.722C105.163 153.722 105.163 153.722 105.163 153.722C105.163 153.722 105.163 153.722 105.163 153.722H105.163H105.163H105.163C105.163 153.722 105.163 153.722 105.163 153.722C105.163 153.722 105.163 153.722 105.163 153.722C105.163 153.722 105.163 153.722 105.163 153.722C105.163 153.722 105.163 153.722 105.163 153.722C105.163 153.722 105.163 153.722 105.163 153.722H105.163H105.163C105.163 153.722 105.163 153.722 105.163 153.722C105.163 153.722 105.163 153.722 105.163 153.722C105.163 153.722 105.163 153.722 105.163 153.722C105.163 153.722 105.163 153.722 105.163 153.722C105.163 153.722 105.163 153.722 105.163 153.722H105.163H105.163H105.163C105.163 153.722 105.163 153.722 105.163 153.722C105.163 153.722 105.163 153.722 105.163 153.722C105.163 153.722 105.163 153.722 105.163 153.722C105.163 153.722 105.163 153.722 105.163 153.722C105.163 153.722 105.163 153.722 105.163 153.722H105.163H105.163C105.163 153.722 105.163 153.722 105.163 153.722C105.163 153.722 105.163 153.722 105.163 153.722C105.163 153.722 105.163 153.722 105.163 153.722C105.163 153.722 105.163 153.722 105.163 153.722C105.163 153.722 105.163 153.722 105.163 153.722H105.163H105.163H105.163C105.163 153.722 105.163 153.722 105.163 153.722C105.163 153.722 105.163 153.722 105.163 153.722C105.163 153.722 105.163 153.722 105.163 153.722C105.163 153.722 105.163 153.722 105.163 153.722C105.163 153.722 105.163 153.722 105.163 153.722H105.163H105.163H105.163C105.163 153.722 105.163 153.722 105.163 153.722C105.163 153.722 105.163 153.722 105.163 153.722C105.163 153.722 105.163 153.722 105.163 153.722C105.163 153.722 105.163 153.722 105.163 153.722C105.163 153.722 105.163 153.722 105.163 153.722H105.163H105.163C105.163 153.722 105.163 153.722 105.163 153.722C105.163 153.722 105.163 153.722 105.163 153.722C105.163 153.722 105.163 153.722 105.163 153.722C105.163 153.722 105.163 153.722 105.163 153.722C105.163 153.722 105.163 153.722 105.163 153.722H105.163H105.163H105.163C105.163 153.722 105.163 153.722 105.163 153.722C105.164 153.722 105.164 153.722 105.164 153.722C105.164 153.722 105.164 153.722 105.164 153.722C105.164 153.722 105.164 153.722 105.164 153.722C105.164 153.722 105.164 153.722 105.164 153.722H105.164H105.164C105.164 153.722 105.164 153.722 105.164 153.722C105.164 153.722 105.164 153.722 105.164 153.722C105.164 153.722 105.164 153.722 105.164 153.722C105.164 153.722 105.164 153.722 105.164 153.722C105.164 153.722 105.164 153.722 105.164 153.722H105.164H105.164H105.164C105.164 153.722 105.164 153.722 105.164 153.722C105.164 153.722 105.164 153.722 105.164 153.722C105.164 153.722 105.164 153.722 105.164 153.722C105.164 153.722 105.164 153.722 105.164 153.722C105.164 153.722 105.164 153.722 105.164 153.722H105.164H105.164C105.164 153.722 105.164 153.722 105.164 153.722C105.164 153.722 105.164 153.722 105.164 153.722C105.164 153.722 105.164 153.722 105.164 153.722C105.164 153.722 105.164 153.722 105.164 153.722C105.164 153.722 105.164 153.722 105.164 153.722H105.164H105.164C105.164 153.722 105.164 153.722 105.164 153.722C105.164 153.722 105.164 153.722 105.164 153.722C105.164 153.722 105.164 153.722 105.164 153.722C105.164 153.722 105.164 153.722 105.164 153.722C105.164 153.722 105.164 153.722 105.164 153.722H105.164H105.164C105.164 153.722 105.164 153.722 105.164 153.722C105.164 153.722 105.164 153.722 105.164 153.722C105.164 153.722 105.164 153.722 105.164 153.722C105.164 153.722 105.164 153.722 105.164 153.722C105.164 153.722 105.164 153.722 105.164 153.722H105.164H105.164C105.164 153.722 105.164 153.722 105.164 153.722C105.164 153.722 105.164 153.722 105.164 153.722C105.164 153.722 105.164 153.722 105.164 153.722C105.164 153.722 105.164 153.722 105.164 153.722C105.164 153.722 105.164 153.722 105.164 153.722H105.164H105.164C105.164 153.722 105.164 153.722 105.164 153.722C105.164 153.722 105.164 153.722 105.164 153.722C105.164 153.722 105.164 153.722 105.164 153.722C105.164 153.722 105.164 153.722 105.164 153.722C105.164 153.722 105.164 153.722 105.164 153.722H105.164H105.164C105.164 153.722 105.164 153.722 105.164 153.722C105.164 153.722 105.164 153.722 105.164 153.722C105.164 153.722 105.164 153.722 105.164 153.722C105.164 153.722 105.164 153.722 105.164 153.722H105.164H105.164H105.164C105.164 153.722 105.164 153.722 105.164 153.722C105.164 153.722 105.164 153.722 105.164 153.722C105.164 153.722 105.164 153.722 105.164 153.722C105.164 153.722 105.164 153.722 105.164 153.722H105.164V151.722H105.164C105.164 151.722 105.164 151.722 105.164 151.722C105.164 151.722 105.164 151.722 105.164 151.722C105.164 151.722 105.164 151.722 105.164 151.722C105.164 151.722 105.164 151.722 105.164 151.722H105.164H105.164H105.164C105.164 151.722 105.164 151.722 105.164 151.722C105.164 151.722 105.164 151.722 105.164 151.722C105.164 151.722 105.164 151.722 105.164 151.722C105.164 151.722 105.164 151.722 105.164 151.722H105.164H105.164C105.164 151.722 105.164 151.722 105.164 151.722C105.164 151.722 105.164 151.722 105.164 151.722C105.164 151.722 105.164 151.722 105.164 151.722C105.164 151.722 105.164 151.722 105.164 151.722C105.164 151.722 105.164 151.722 105.164 151.722H105.164H105.164C105.164 151.722 105.164 151.722 105.164 151.722C105.164 151.722 105.164 151.722 105.164 151.722C105.164 151.722 105.164 151.722 105.164 151.722C105.164 151.722 105.164 151.722 105.164 151.722C105.164 151.722 105.164 151.722 105.164 151.722H105.164H105.164C105.164 151.722 105.164 151.722 105.164 151.722C105.164 151.722 105.164 151.722 105.164 151.722C105.164 151.722 105.164 151.722 105.164 151.722C105.164 151.722 105.164 151.722 105.164 151.722C105.164 151.722 105.164 151.722 105.164 151.722H105.164H105.164C105.164 151.722 105.164 151.722 105.164 151.722C105.164 151.722 105.164 151.722 105.164 151.722C105.164 151.722 105.164 151.722 105.164 151.722C105.164 151.722 105.164 151.722 105.164 151.722C105.164 151.722 105.164 151.722 105.164 151.722H105.164H105.164C105.164 151.722 105.164 151.722 105.164 151.722C105.164 151.722 105.164 151.722 105.164 151.722C105.164 151.722 105.164 151.722 105.164 151.722C105.164 151.722 105.164 151.722 105.164 151.722C105.164 151.722 105.164 151.722 105.164 151.722H105.164H105.164C105.164 151.722 105.164 151.722 105.164 151.722C105.164 151.722 105.164 151.722 105.164 151.722C105.164 151.722 105.164 151.722 105.164 151.722C105.164 151.722 105.164 151.722 105.164 151.722C105.164 151.722 105.164 151.722 105.164 151.722H105.164H105.164H105.164C105.164 151.722 105.164 151.722 105.164 151.722C105.164 151.722 105.164 151.722 105.164 151.722C105.164 151.722 105.164 151.722 105.164 151.722C105.164 151.722 105.164 151.722 105.164 151.722C105.164 151.722 105.164 151.722 105.164 151.722H105.164H105.164C105.164 151.722 105.164 151.722 105.164 151.722C105.164 151.722 105.164 151.722 105.164 151.722C105.164 151.722 105.164 151.722 105.164 151.722C105.164 151.722 105.164 151.722 105.163 151.722C105.163 151.722 105.163 151.722 105.163 151.722H105.163H105.163H105.163C105.163 151.722 105.163 151.722 105.163 151.722C105.163 151.722 105.163 151.722 105.163 151.722C105.163 151.722 105.163 151.722 105.163 151.722C105.163 151.722 105.163 151.722 105.163 151.722C105.163 151.722 105.163 151.722 105.163 151.722H105.163H105.163C105.163 151.722 105.163 151.722 105.163 151.722C105.163 151.722 105.163 151.722 105.163 151.722C105.163 151.722 105.163 151.722 105.163 151.722C105.163 151.722 105.163 151.722 105.163 151.722C105.163 151.722 105.163 151.722 105.163 151.722H105.163H105.163H105.163C105.163 151.722 105.163 151.722 105.163 151.722C105.163 151.722 105.163 151.722 105.163 151.722C105.163 151.722 105.163 151.722 105.163 151.722C105.163 151.722 105.163 151.722 105.163 151.722C105.163 151.722 105.163 151.722 105.163 151.722H105.163H105.163H105.163C105.163 151.722 105.163 151.722 105.163 151.722C105.163 151.722 105.163 151.722 105.163 151.722C105.163 151.722 105.163 151.722 105.163 151.722C105.163 151.722 105.163 151.722 105.163 151.722C105.163 151.722 105.163 151.722 105.163 151.722H105.163H105.163C105.163 151.722 105.163 151.722 105.163 151.722C105.163 151.722 105.163 151.722 105.163 151.722C105.163 151.722 105.163 151.722 105.163 151.722C105.163 151.722 105.163 151.722 105.163 151.722C105.163 151.722 105.163 151.722 105.163 151.722H105.163H105.163H105.163C105.163 151.722 105.163 151.722 105.163 151.722C105.163 151.722 105.163 151.722 105.163 151.722C105.163 151.722 105.163 151.722 105.163 151.722C105.163 151.722 105.163 151.722 105.163 151.722C105.163 151.722 105.163 151.722 105.163 151.722H105.163H105.163C105.163 151.722 105.163 151.722 105.163 151.722C105.163 151.722 105.163 151.722 105.163 151.722C105.163 151.722 105.163 151.722 105.163 151.722C105.163 151.722 105.163 151.722 105.163 151.722C105.163 151.722 105.163 151.722 105.163 151.722H105.163H105.163H105.163C105.163 151.722 105.163 151.722 105.163 151.722C105.163 151.722 105.163 151.722 105.163 151.722C105.163 151.722 105.163 151.722 105.163 151.722C105.163 151.722 105.163 151.722 105.163 151.722C105.163 151.722 105.163 151.722 105.163 151.722H105.163H105.163C105.163 151.722 105.163 151.722 105.163 151.722C105.163 151.722 105.163 151.722 105.163 151.722C105.163 151.722 105.163 151.722 105.163 151.722C105.163 151.722 105.163 151.722 105.163 151.722C105.163 151.722 105.163 151.722 105.163 151.722H105.163H105.163C105.163 151.722 105.163 151.722 105.163 151.722C105.163 151.722 105.163 151.722 105.163 151.722C105.163 151.722 105.163 151.722 105.163 151.722C105.163 151.722 105.163 151.722 105.163 151.722C105.163 151.722 105.163 151.722 105.163 151.722H105.163H105.163C105.163 151.722 105.163 151.722 105.163 151.722C105.163 151.722 105.163 151.722 105.163 151.722C105.163 151.722 105.163 151.722 105.163 151.722C105.163 151.722 105.163 151.722 105.163 151.722C105.163 151.722 105.163 151.722 105.163 151.722H105.163H105.163C105.163 151.722 105.163 151.722 105.163 151.722C105.163 151.722 105.163 151.722 105.163 151.722C105.163 151.722 105.163 151.722 105.163 151.722C105.163 151.722 105.163 151.722 105.163 151.722C105.163 151.722 105.163 151.722 105.163 151.722H105.163H105.163C105.163 151.722 105.163 151.722 105.163 151.722C105.163 151.722 105.163 151.722 105.163 151.722C105.163 151.722 105.163 151.722 105.163 151.722C105.163 151.722 105.163 151.722 105.163 151.722C105.163 151.722 105.163 151.722 105.163 151.722H105.163H105.163C105.163 151.722 105.163 151.722 105.163 151.722C105.163 151.722 105.163 151.722 105.163 151.722C105.163 151.722 105.163 151.722 105.163 151.722C105.163 151.722 105.163 151.722 105.163 151.722H105.163H105.163H105.163C105.163 151.722 105.163 151.722 105.163 151.722C105.163 151.722 105.163 151.722 105.163 151.722C105.163 151.722 105.163 151.722 105.163 151.722C105.163 151.722 105.163 151.722 105.163 151.722H105.163V153.722ZM104.995 153.721C105.05 153.722 105.106 153.722 105.163 153.722V151.722C105.109 151.722 105.055 151.722 105.001 151.721L104.995 153.721ZM104.882 153.722L105 153.721L104.996 151.721L104.877 151.722L104.882 153.722ZM104.821 153.722L104.88 153.722L104.879 151.722L104.82 151.722L104.821 153.722ZM105.163 153.722L105.178 153.722L105.18 151.722L105.165 151.722L105.163 153.722ZM143.314 57.2766L136.881 57.2766V59.2766L143.314 59.2766V57.2766ZM152 72.9305V65.9623H150V72.9305H152ZM133.347 67.7361C136.554 70.2233 139.392 73.1167 141.814 76.3116L143.408 75.1034C140.883 71.7725 137.922 68.7531 134.573 66.1556L133.347 67.7361ZM124.216 59.2555L124.761 59.8592L126.246 58.5194L125.701 57.9156L124.216 59.2555ZM123.443 61.9189C123.511 61.9477 123.578 61.9765 123.646 62.0056L124.437 60.1689C124.367 60.1385 124.296 60.1083 124.226 60.0783L123.443 61.9189ZM129.57 58.2766L141 58.2766V56.2766L129.57 56.2766V58.2766ZM152 47.2766V10.6953H150V47.2766H152ZM152 10.6953C152 4.7906 147.213 0.00390625 141.309 0.00390625V2.00391C146.109 2.00391 150 5.89516 150 10.6953H152ZM141.309 0.00390625C138.283 0.00390625 135.398 1.28623 133.371 3.53283L134.856 4.87269C136.504 3.04635 138.849 2.00391 141.309 2.00391V0.00390625ZM133.371 3.53283L110.976 28.3513L112.461 29.6912L134.856 4.87269L133.371 3.53283ZM122.889 53.306L112.461 41.7499L110.976 43.0898L121.404 54.6458L122.889 53.306ZM105.019 58.2769L105.181 58.2766L105.178 56.2766L105.015 56.2769L105.019 58.2769ZM105.003 58.2769L105.019 58.2769L105.015 56.2769L104.999 56.2769L105.003 58.2769ZM104.888 58.2767L104.999 58.2769L105.003 56.2769L104.893 56.2767L104.888 58.2767ZM104.82 58.2766L104.89 58.2767L104.891 56.2767L104.821 56.2766L104.82 58.2766ZM113.167 27.4164L134.114 4.20276L132.629 2.86291L111.682 26.0766L113.167 27.4164ZM134.114 4.20276C135.951 2.16628 138.566 1.00391 141.309 1.00391V-0.996094C138 -0.996094 134.846 0.406165 132.629 2.86291L134.114 4.20276ZM141.309 1.00391C146.661 1.00391 151 5.34289 151 10.6953H153C153 4.23832 147.766 -0.996094 141.309 -0.996094V1.00391ZM151 10.6953V47.2766H153V10.6953H151ZM162 58.2766L199.243 58.2766V56.2766L162 56.2766V58.2766ZM199.243 58.2766C204.632 58.2766 209 62.6449 209 68.0335H211C211 61.5404 205.736 56.2766 199.243 56.2766V58.2766ZM209 68.0335C209 70.779 207.843 73.3973 205.814 75.2462L207.161 76.7247C209.606 74.4968 211 71.3417 211 68.0335H209ZM205.814 75.2462L182.08 96.8675L183.427 98.346L207.161 76.7247L205.814 75.2462ZM182.08 113.131L205.814 134.752L207.161 133.274L183.427 111.652L182.08 113.131ZM205.814 134.752C207.843 136.601 209 139.219 209 141.965H211C211 138.657 209.606 135.501 207.161 133.274L205.814 134.752ZM209 141.965C209 147.353 204.632 151.722 199.243 151.722V153.722C205.736 153.722 211 148.458 211 141.965H209ZM199.243 151.722H162V153.722H199.243V151.722ZM151 162.722V199.303H153V162.722H151ZM151 199.303C151 204.655 146.661 208.994 141.309 208.994V210.994C147.766 210.994 153 205.76 153 199.303H151ZM141.309 208.994C138.566 208.994 135.951 207.832 134.114 205.796L132.629 207.135C134.846 209.592 138 210.994 141.309 210.994V208.994ZM134.114 205.796L113.167 182.582L111.682 183.922L132.629 207.135L134.114 205.796ZM96.8333 182.582L75.8865 205.796L77.3713 207.135L98.3182 183.922L96.8333 182.582ZM75.8865 205.796C74.0489 207.832 71.4343 208.994 68.6914 208.994V210.994C72.0004 210.994 75.1545 209.592 77.3713 207.135L75.8865 205.796ZM68.6914 208.994C63.339 208.994 59 204.655 59 199.303H57C57 205.76 62.2344 210.994 68.6914 210.994V208.994ZM59 199.303V162.722H57V199.303H59ZM48 151.722H10.7569V153.722H48V151.722ZM10.7569 151.722C5.36832 151.722 1 147.353 1 141.965H-1C-1 148.458 4.26376 153.722 10.7569 153.722V151.722ZM1 141.965C1 139.219 2.15665 136.601 4.18616 134.752L2.83926 133.274C0.393739 135.501 -1 138.657 -1 141.965H1ZM4.18616 134.752L27.9197 113.131L26.5728 111.652L2.83926 133.274L4.18616 134.752ZM27.9196 96.8675L4.18617 75.2462L2.83928 76.7247L26.5728 98.346L27.9196 96.8675ZM4.18617 75.2462C2.15666 73.3973 1.00001 70.779 1.00001 68.0335H-0.999988C-0.999988 71.3417 0.393751 74.4968 2.83927 76.7247L4.18617 75.2462ZM1.00001 68.0335C1.00001 62.6449 5.36834 58.2766 10.7569 58.2766V56.2766C4.26377 56.2766 -0.999987 61.5404 -0.999988 68.0335H1.00001ZM10.7569 58.2766L48 58.2766V56.2766L10.7569 56.2766V58.2766ZM57 10.6953V47.2766H59V10.6953H57ZM68.6914 -0.996094C62.2344 -0.996094 57 4.23832 57 10.6953H59C59 5.34289 63.339 1.00391 68.6914 1.00391V-0.996094ZM77.3713 2.86291C75.1545 0.406165 72.0004 -0.996094 68.6914 -0.996094V1.00391C71.4344 1.00391 74.0489 2.16628 75.8865 4.20276L77.3713 2.86291ZM98.3182 26.0766L77.3713 2.86291L75.8865 4.20276L96.8333 27.4164L98.3182 26.0766ZM60 47.2766V10.6953H58V47.2766H60ZM60 10.6953C60 5.89516 63.8913 2.00391 68.6914 2.00391V0.00390625C62.7867 0.00390625 58 4.7906 58 10.6953H60ZM68.6914 2.00391C71.1513 2.00391 73.4961 3.04635 75.1441 4.87269L76.6289 3.53283C74.6017 1.28623 71.7174 0.00390625 68.6914 0.00390625V2.00391ZM75.1441 4.87269L97.539 29.6912L99.0239 28.3513L76.6289 3.53283L75.1441 4.87269ZM88.5963 54.6458L99.0239 43.0898L97.539 41.7499L87.1114 53.306L88.5963 54.6458ZM69 58.2766L80.4296 58.2766V56.2766L69 56.2766V58.2766ZM48 57.2766L10.7569 57.2766V59.2766L48 59.2766V57.2766ZM10.7569 57.2766C4.81604 57.2766 1.28043e-05 62.0927 1.22786e-05 68.0335H2.00001C2.00001 63.1972 5.92062 59.2766 10.7569 59.2766V57.2766ZM1.22786e-05 68.0335C1.20157e-05 71.0603 1.2752 73.9471 3.51272 75.9854L4.85961 74.507C3.03811 72.8476 2.00001 70.4976 2.00001 68.0335H1.22786e-05ZM3.51272 75.9854L28.6952 98.9268L30.0421 97.4484L4.85962 74.507L3.51272 75.9854ZM43.5111 98.9268L55.4079 88.0888L54.061 86.6103L42.1642 97.4484L43.5111 98.9268ZM57 68.2766V79.9572H59V68.2766H57ZM60 72.9305V65.9623H58V72.9305H60ZM73.1192 57.2766L66.6857 57.2766V59.2766L73.1192 59.2766V57.2766ZM68.1859 76.3116C70.6075 73.1167 73.4457 70.2233 76.653 67.7361L75.4274 66.1556C72.078 68.7531 69.1168 71.7725 66.592 75.1034L68.1859 76.3116ZM58.9541 83.5054L58.6471 83.7851L59.994 85.2636L60.301 84.9839L58.9541 83.5054ZM76.653 142.262C73.4457 139.775 70.6075 136.882 68.1859 133.687L66.592 134.895C69.1168 138.226 72.078 141.245 75.4274 143.843L76.653 142.262ZM66.6857 152.722H73.1192V150.722H66.6857V152.722ZM58 137.068V144.036H60V137.068H58ZM80.4296 151.722H69V153.722H80.4296V151.722ZM99.0239 166.909L88.5963 155.352L87.1114 156.692L97.539 168.248L99.0239 166.909ZM76.6289 206.465L99.0239 181.647L97.539 180.307L75.144 205.126L76.6289 206.465ZM68.6914 209.994C71.7174 209.994 74.6017 208.712 76.6289 206.465L75.144 205.126C73.496 206.952 71.1513 207.994 68.6914 207.994V209.994ZM58 199.303C58 205.208 62.7867 209.994 68.6914 209.994V207.994C63.8913 207.994 60 204.103 60 199.303H58ZM58 162.722V199.303H60V162.722H58ZM150 162.722V199.303H152V162.722H150ZM129.57 153.722H141V151.722H129.57V153.722ZM112.461 168.248L122.889 156.692L121.404 155.352L110.976 166.909L112.461 168.248ZM134.856 205.126L112.461 180.307L110.976 181.647L133.371 206.465L134.856 205.126ZM141.309 207.994C138.849 207.994 136.504 206.952 134.856 205.126L133.371 206.465C135.398 208.712 138.283 209.994 141.309 209.994V207.994ZM150 199.303C150 204.103 146.109 207.994 141.309 207.994V209.994C147.213 209.994 152 205.208 152 199.303H150ZM162 152.722H199.243V150.722H162V152.722ZM151 130.041V141.722H153V130.041H151ZM166.489 111.071L154.592 121.909L155.939 123.388L167.836 112.55L166.489 111.071ZM206.487 134.013L181.305 111.071L179.958 112.55L205.14 135.491L206.487 134.013ZM210 141.965C210 138.938 208.725 136.051 206.487 134.013L205.14 135.491C206.962 137.151 208 139.501 208 141.965H210ZM199.243 152.722C205.184 152.722 210 147.906 210 141.965H208C208 146.801 204.079 150.722 199.243 150.722V152.722ZM85.5628 149.829C85.6332 149.86 85.7037 149.89 85.7743 149.92L86.5568 148.079C86.4892 148.051 86.4217 148.022 86.3543 147.993L85.5628 149.829ZM85.7837 150.743L85.2389 150.139L83.7541 151.479L84.2988 152.083L85.7837 150.743ZM86.3543 62.0056C86.4217 61.9765 86.4892 61.9477 86.5568 61.9189L85.7743 60.0783C85.7037 60.1084 85.6332 60.1385 85.5628 60.1689L86.3543 62.0056ZM84.2988 57.9156L83.7541 58.5194L85.2389 59.8592L85.7837 59.2555L84.2988 57.9156ZM60.301 125.014L59.994 124.735L58.6471 126.213L58.9541 126.493L60.301 125.014ZM149.699 84.9839L150.006 85.2636L151.353 83.7851L151.046 83.5054L149.699 84.9839ZM167.836 97.4484L155.939 86.6103L154.592 88.0888L166.489 98.9268L167.836 97.4484ZM205.14 74.507L179.958 97.4484L181.305 98.9268L206.487 75.9854L205.14 74.507ZM208 68.0335C208 70.4976 206.962 72.8476 205.14 74.507L206.487 75.9854C208.725 73.9471 210 71.0603 210 68.0335H208ZM199.243 59.2766C204.079 59.2766 208 63.1972 208 68.0335H210C210 62.0927 205.184 57.2766 199.243 57.2766V59.2766ZM162 59.2766L199.243 59.2766V57.2766L162 57.2766V59.2766ZM153 79.9572V68.2766H151V79.9572H153ZM105.01 151.724C128.964 151.48 151.698 132.807 151.997 105.011L149.997 104.989C149.711 131.582 127.975 149.49 104.99 149.724L105.01 151.724ZM58.003 105.01C58.3021 132.807 81.0359 151.48 104.99 151.724L105.01 149.724C82.0246 149.49 60.2891 131.581 60.0029 104.989L58.003 105.01ZM104.99 58.2746C81.0358 58.5186 58.3018 77.1916 58.003 104.989L60.0029 105.01C60.2887 78.4173 82.0246 60.5086 105.01 60.2745L104.99 58.2746ZM151.997 104.989C151.698 77.1918 128.964 58.5186 105.01 58.2746L104.99 60.2745C127.975 60.5086 149.711 78.4175 149.997 105.011L151.997 104.989ZM55.4079 121.909L43.5111 111.071L42.1642 112.55L54.061 123.388L55.4079 121.909ZM59 141.722L59 130.041H57L57 141.722H59ZM10.7569 152.722H48V150.722H10.7569V152.722ZM0 141.965C0 147.906 4.81603 152.722 10.7569 152.722V150.722C5.9206 150.722 2 146.801 2 141.965H0ZM3.51271 134.013C1.27519 136.051 0 138.938 0 141.965H2C2 139.501 3.0381 137.151 4.8596 135.491L3.51271 134.013ZM28.6952 111.071L3.51271 134.013L4.8596 135.491L30.0421 112.55L28.6952 111.071ZM57 141.722C57 146.692 52.9706 150.722 48 150.722V152.722C54.0751 152.722 59 147.797 59 141.722H57ZM43.5111 111.071C39.3129 107.247 32.8934 107.247 28.6952 111.071L30.0421 112.55C33.477 109.421 38.7293 109.421 42.1642 112.55L43.5111 111.071ZM162 57.2766C155.925 57.2766 151 62.2015 151 68.2766H153C153 63.306 157.029 59.2766 162 59.2766V57.2766ZM166.489 98.9268C170.687 102.751 177.107 102.751 181.305 98.9268L179.958 97.4484C176.523 100.578 171.271 100.578 167.836 97.4484L166.489 98.9268ZM151.046 83.5054C150.123 82.6643 148.953 83.0237 148.319 83.5124C147.684 84.0022 147.058 85.0129 147.534 86.1118L149.369 85.3171C149.369 85.3163 149.369 85.3175 149.37 85.3204C149.37 85.3233 149.37 85.3254 149.37 85.3263C149.37 85.3281 149.37 85.3182 149.379 85.2956C149.398 85.2442 149.45 85.1657 149.54 85.0965C149.631 85.0266 149.708 85.006 149.738 85.0035C149.75 85.0025 149.745 85.0047 149.73 85C149.723 84.9977 149.716 84.9946 149.709 84.9908C149.706 84.989 149.704 84.9873 149.702 84.986C149.7 84.9847 149.699 84.9839 149.699 84.9839L151.046 83.5054ZM150 85.2519C150 85.2067 150.03 85.1868 150.003 85.2106C149.962 85.2467 149.866 85.3017 149.721 85.3276C149.577 85.3534 149.457 85.3375 149.389 85.3125C149.334 85.2919 149.355 85.2847 149.369 85.3171L147.534 86.1118C148.032 87.2629 149.288 87.4369 150.074 87.2963C150.854 87.1567 152 86.5474 152 85.2519H150ZM162 150.722C157.029 150.722 153 146.692 153 141.722H151C151 147.797 155.925 152.722 162 152.722V150.722ZM110.976 166.909C107.198 171.095 107.198 177.46 110.976 181.647L112.461 180.307C109.37 176.882 109.37 171.674 112.461 168.248L110.976 166.909ZM60.6311 85.3172C60.6451 85.2847 60.6663 85.2919 60.6107 85.3125C60.5431 85.3375 60.4227 85.3534 60.2788 85.3276C60.1339 85.3017 60.0377 85.2467 59.997 85.2106C59.9701 85.1868 60 85.2067 60 85.2519H58C58 86.5474 59.1463 87.1567 59.9265 87.2963C60.7117 87.4369 61.9681 87.2629 62.4665 86.1118L60.6311 85.3172ZM58.6471 83.7851C58.2334 84.162 58 84.6963 58 85.2519H60C60 85.2542 59.9995 85.2558 59.999 85.2571C59.9984 85.2583 59.9971 85.2608 59.994 85.2636L58.6471 83.7851ZM60.301 84.9839C60.301 84.9839 60.3001 84.9847 60.2983 84.986C60.2965 84.9873 60.294 84.989 60.2909 84.9908C60.2843 84.9946 60.2771 84.9978 60.2699 85C60.2549 85.0047 60.2503 85.0025 60.2617 85.0035C60.2922 85.006 60.3693 85.0266 60.46 85.0965C60.5497 85.1657 60.6018 85.2442 60.6214 85.2956C60.63 85.3182 60.6296 85.3281 60.6296 85.3263C60.6296 85.3255 60.6297 85.3233 60.6303 85.3204C60.6309 85.3175 60.6315 85.3163 60.6311 85.3172L62.4665 86.1118C62.9422 85.0129 62.3163 84.0022 61.6808 83.5124C61.0467 83.0237 59.8774 82.6643 58.9541 83.5054L60.301 84.9839ZM60 65.9623C60 62.2699 62.9933 59.2766 66.6857 59.2766V57.2766C61.8887 57.2766 58 61.1653 58 65.9623H60ZM58 72.9305C58 77.8409 63.83 80.4162 67.4599 77.1093L66.113 75.6309C63.7673 77.7678 60 76.1036 60 72.9305H58ZM55.4079 88.0888C57.696 86.0043 59 83.0524 59 79.9572H57C57 82.4896 55.9331 84.9048 54.061 86.6103L55.4079 88.0888ZM28.6952 98.9268C32.8934 102.751 39.3129 102.751 43.5111 98.9268L42.1642 97.4484C38.7293 100.578 33.477 100.578 30.0421 97.4484L28.6952 98.9268ZM87.1114 53.306C85.4049 55.1972 82.9769 56.2766 80.4296 56.2766V58.2766C83.543 58.2766 86.5105 56.9573 88.5963 54.6458L87.1114 53.306ZM97.539 29.6912C100.63 33.1166 100.63 38.3245 97.539 41.7499L99.0239 43.0898C102.802 38.9032 102.802 32.5379 99.0239 28.3513L97.539 29.6912ZM27.9197 113.131C32.7091 108.767 32.7091 101.231 27.9196 96.8675L26.5728 98.346C30.4914 101.916 30.4914 108.082 26.5728 111.652L27.9197 113.131ZM59 162.722C59 156.647 54.0751 151.722 48 151.722V153.722C52.9706 153.722 57 157.751 57 162.722H59ZM113.167 182.582C108.798 177.741 101.202 177.741 96.8333 182.582L98.3182 183.922C101.892 179.961 108.108 179.961 111.682 183.922L113.167 182.582ZM54.061 123.388C55.9331 125.093 57 127.509 57 130.041H59C59 126.946 57.696 123.994 55.4079 121.909L54.061 123.388ZM111.682 26.0766C108.108 30.0374 101.892 30.0374 98.3182 26.0766L96.8333 27.4164C101.202 32.2575 108.798 32.2575 113.167 27.4164L111.682 26.0766ZM104.821 56.2766C98.5526 56.2766 95.2661 48.7469 99.5046 44.0498L98.0197 42.7099C92.6598 48.6499 96.7613 58.2766 104.821 58.2766V56.2766ZM110.495 44.0498C114.734 48.7469 111.447 56.2766 105.179 56.2766V58.2766C113.239 58.2766 117.34 48.6499 111.98 42.7099L110.495 44.0498ZM111.98 42.7099C108.268 38.5958 101.732 38.5958 98.0197 42.7099L99.5046 44.0498C102.423 40.8158 107.577 40.8158 110.495 44.0498L111.98 42.7099ZM48 59.2766C52.9706 59.2766 57 63.3061 57 68.2766H59C59 62.2015 54.0751 57.2766 48 57.2766V59.2766ZM155.939 86.6103C154.067 84.9048 153 82.4896 153 79.9572H151C151 83.0524 152.304 86.0043 154.592 88.0888L155.939 86.6103ZM110.976 28.3513C107.198 32.5379 107.198 38.9032 110.976 43.0898L112.461 41.7499C109.37 38.3245 109.37 33.1166 112.461 29.6912L110.976 28.3513ZM152 85.2519C152 84.6963 151.767 84.162 151.353 83.7851L150.006 85.2636C150.003 85.2608 150.002 85.2583 150.001 85.2571C150 85.2558 150 85.2542 150 85.2519H152ZM141 58.2766C147.075 58.2766 152 53.3518 152 47.2766H150C150 52.2472 145.971 56.2766 141 56.2766V58.2766ZM58.9541 126.493C59.8774 127.334 61.0467 126.975 61.6808 126.486C62.3163 125.996 62.9422 124.985 62.4665 123.886L60.6311 124.681C60.6315 124.682 60.6309 124.681 60.6303 124.678C60.6297 124.675 60.6296 124.673 60.6296 124.672C60.6296 124.67 60.63 124.68 60.6214 124.703C60.6018 124.754 60.5497 124.833 60.46 124.902C60.3693 124.972 60.2922 124.992 60.2617 124.995C60.2503 124.996 60.2549 124.993 60.2699 124.998C60.2771 125 60.2843 125.004 60.2909 125.007C60.294 125.009 60.2965 125.011 60.2983 125.012C60.3001 125.014 60.301 125.014 60.301 125.014L58.9541 126.493ZM129.57 56.2766C127.023 56.2766 124.595 55.1972 122.889 53.306L121.404 54.6458C123.489 56.9573 126.457 58.2766 129.57 58.2766V56.2766ZM58 47.2766C58 53.3518 62.9249 58.2766 69 58.2766V56.2766C64.0294 56.2766 60 52.2472 60 47.2766H58ZM60 124.746C60 124.792 59.9701 124.811 59.997 124.788C60.0377 124.752 60.1339 124.697 60.2788 124.671C60.4227 124.645 60.5431 124.661 60.6107 124.686C60.6663 124.706 60.6451 124.714 60.6311 124.681L62.4665 123.886C61.9681 122.735 60.7117 122.561 59.9265 122.702C59.1463 122.842 58 123.451 58 124.746H60ZM124.226 60.0783C124.294 60.1073 124.281 60.1467 124.25 60.0575C124.217 59.9629 124.198 59.8056 124.226 59.6242C124.254 59.4408 124.317 59.3148 124.361 59.2592C124.394 59.2166 124.36 59.2766 124.264 59.2766V57.2766C123.605 57.2766 123.105 57.6218 122.79 58.0207C122.486 58.4066 122.317 58.8785 122.249 59.3204C122.181 59.7644 122.202 60.2601 122.362 60.7172C122.523 61.1797 122.856 61.6695 123.443 61.9189L124.226 60.0783ZM58 124.746C58 125.302 58.2334 125.836 58.6471 126.213L59.994 124.735C59.9971 124.737 59.9984 124.74 59.999 124.741C59.9995 124.742 60 124.744 60 124.746H58ZM124.761 59.8592C124.756 59.8538 124.746 59.8394 124.74 59.8198C124.735 59.8024 124.737 59.7959 124.736 59.806C124.734 59.834 124.714 59.9093 124.644 59.9989C124.575 60.0875 124.498 60.1388 124.448 60.158C124.409 60.1727 124.417 60.1602 124.437 60.1689L123.646 62.0056C124.736 62.4757 125.739 61.8501 126.224 61.2255C126.707 60.6028 127.078 59.4419 126.246 58.5194L124.761 59.8592ZM85.5628 60.1689C85.5829 60.1602 85.591 60.1727 85.5525 60.158C85.5024 60.1388 85.4248 60.0875 85.356 59.9989C85.2864 59.9093 85.2662 59.834 85.2637 59.806C85.2628 59.7959 85.265 59.8024 85.2596 59.8198C85.2536 59.8394 85.2437 59.8538 85.2389 59.8592L83.7541 58.5194C82.9216 59.4419 83.2928 60.6028 83.7763 61.2255C84.2612 61.8501 85.2635 62.4757 86.3543 62.0056L85.5628 60.1689ZM125.701 57.9156C125.334 57.5088 124.812 57.2766 124.264 57.2766V59.2766C124.246 59.2766 124.228 59.2689 124.216 59.2555L125.701 57.9156ZM85.7361 57.2766C85.1882 57.2766 84.6659 57.5088 84.2988 57.9156L85.7837 59.2555C85.7715 59.2689 85.7542 59.2766 85.7361 59.2766V57.2766ZM143.887 75.6309C143.714 75.4737 143.555 75.2969 143.408 75.1034L141.814 76.3116C142.029 76.5949 142.27 76.8636 142.54 77.1093L143.887 75.6309ZM48 58.2766C54.0751 58.2766 59 53.3517 59 47.2766H57C57 52.2472 52.9706 56.2766 48 56.2766V58.2766ZM85.7361 59.2766C85.6402 59.2766 85.6057 59.2166 85.6393 59.2592C85.6831 59.3148 85.7457 59.4408 85.7739 59.6242C85.8018 59.8056 85.7835 59.9629 85.7504 60.0575C85.7192 60.1467 85.7061 60.1073 85.7743 60.0783L86.5568 61.9189C87.1435 61.6695 87.4768 61.1797 87.6385 60.7172C87.7982 60.2601 87.8189 59.7644 87.7507 59.3204C87.6828 58.8785 87.514 58.4066 87.2096 58.0207C86.895 57.6218 86.3954 57.2766 85.7361 57.2766V59.2766ZM150 72.9305C150 76.1036 146.233 77.7678 143.887 75.6309L142.54 77.1093C146.17 80.4162 152 77.8409 152 72.9305H150ZM111.98 167.288C117.34 161.348 113.239 151.722 105.179 151.722V153.722C111.447 153.722 114.734 161.251 110.495 165.949L111.98 167.288ZM167.836 112.55C171.271 109.421 176.523 109.421 179.958 112.55L181.305 111.071C177.107 107.247 170.687 107.247 166.489 111.071L167.836 112.55ZM98.0197 167.288C101.732 171.402 108.268 171.402 111.98 167.288L110.495 165.949C107.577 169.182 102.423 169.182 99.5046 165.949L98.0197 167.288ZM129.57 151.722C126.457 151.722 123.489 153.041 121.404 155.352L122.889 156.692C124.595 154.801 127.023 153.722 129.57 153.722V151.722ZM124.216 150.743C124.228 150.729 124.246 150.722 124.264 150.722V152.722C124.812 152.722 125.334 152.489 125.701 152.083L124.216 150.743ZM124.437 149.829C124.417 149.838 124.409 149.826 124.448 149.84C124.498 149.859 124.575 149.911 124.644 149.999C124.714 150.089 124.734 150.164 124.736 150.192C124.737 150.202 124.735 150.196 124.74 150.178C124.746 150.159 124.756 150.144 124.761 150.139L126.246 151.479C127.078 150.556 126.707 149.395 126.224 148.773C125.739 148.148 124.736 147.523 123.646 147.993L124.437 149.829ZM152 162.722C152 156.646 147.075 151.722 141 151.722V153.722C145.971 153.722 150 157.751 150 162.722H152ZM123.443 148.079C122.856 148.329 122.523 148.819 122.362 149.281C122.202 149.738 122.181 150.234 122.249 150.678C122.317 151.12 122.486 151.592 122.79 151.978C123.105 152.376 123.605 152.722 124.264 152.722V150.722C124.36 150.722 124.394 150.782 124.361 150.739C124.317 150.683 124.254 150.557 124.226 150.374C124.198 150.193 124.217 150.035 124.25 149.941C124.281 149.852 124.294 149.891 124.226 149.92L123.443 148.079ZM162 151.722C155.925 151.722 151 156.646 151 162.722H153C153 157.751 157.029 153.722 162 153.722V151.722ZM136.881 150.722C133.566 150.722 131.82 146.794 134.041 144.333L132.556 142.994C129.175 146.741 131.834 152.722 136.881 152.722V150.722ZM150 144.036C150 147.728 147.007 150.722 143.314 150.722V152.722C148.111 152.722 152 148.833 152 144.036H150ZM143.887 134.367C146.233 132.23 150 133.895 150 137.068H152C152 132.157 146.17 129.582 142.54 132.889L143.887 134.367ZM60 137.068C60 133.895 63.7673 132.23 66.113 134.367L67.4599 132.889C63.83 129.582 58 132.157 58 137.068H60ZM149.369 124.681C149.355 124.714 149.334 124.706 149.389 124.686C149.457 124.661 149.577 124.645 149.721 124.671C149.866 124.697 149.962 124.752 150.003 124.788C150.03 124.812 150 124.792 150 124.746H152C152 123.451 150.854 122.842 150.073 122.702C149.288 122.561 148.032 122.735 147.534 123.886L149.369 124.681ZM66.6857 150.722C62.9933 150.722 60 147.728 60 144.036H58C58 148.833 61.8887 152.722 66.6857 152.722V150.722ZM147.534 123.886C147.058 124.985 147.684 125.996 148.319 126.486C148.953 126.975 150.123 127.334 151.046 126.493L149.699 125.014C149.699 125.014 149.7 125.014 149.702 125.012C149.703 125.011 149.706 125.009 149.709 125.007C149.716 125.004 149.723 125.001 149.73 124.998C149.745 124.994 149.75 124.996 149.738 124.995C149.708 124.992 149.631 124.972 149.54 124.902C149.45 124.833 149.398 124.754 149.379 124.703C149.37 124.68 149.37 124.67 149.37 124.672C149.37 124.673 149.37 124.675 149.37 124.678C149.369 124.681 149.368 124.682 149.369 124.681L147.534 123.886ZM84.2988 152.083C84.6659 152.489 85.1882 152.722 85.7361 152.722V150.722C85.7542 150.722 85.7715 150.729 85.7837 150.743L84.2988 152.083ZM143.314 59.2766C147.007 59.2766 150 62.2699 150 65.9623H152C152 61.1653 148.111 57.2766 143.314 57.2766V59.2766ZM151 47.2766C151 53.3517 155.925 58.2766 162 58.2766V56.2766C157.029 56.2766 153 52.2472 153 47.2766H151ZM75.9593 144.333C78.1797 146.794 76.4335 150.722 73.1192 150.722V152.722C78.1663 152.722 80.8254 146.741 77.4442 142.994L75.9593 144.333ZM160.737 114.958C157.768 117.663 153 115.557 153 111.541H151C151 117.294 157.831 120.312 162.084 116.437L160.737 114.958ZM85.7743 149.92C85.7061 149.891 85.7192 149.852 85.7504 149.941C85.7835 150.035 85.8018 150.193 85.7739 150.374C85.7457 150.557 85.6831 150.683 85.6393 150.739C85.6057 150.782 85.6402 150.722 85.7361 150.722V152.722C86.3954 152.722 86.895 152.376 87.2096 151.978C87.514 151.592 87.6828 151.12 87.7507 150.678C87.8189 150.234 87.7982 149.738 87.6385 149.281C87.4768 148.819 87.1435 148.329 86.5568 148.079L85.7743 149.92ZM134.041 65.6649C131.82 63.2042 133.566 59.2766 136.881 59.2766V57.2766C131.834 57.2766 129.175 63.2576 132.556 67.0047L134.041 65.6649ZM68.1859 133.687C67.9711 133.403 67.7296 133.135 67.4599 132.889L66.113 134.367C66.2855 134.525 66.4453 134.701 66.592 134.895L68.1859 133.687ZM165.573 99.4451C168.844 102.425 168.844 107.573 165.573 110.553L166.92 112.032C171.062 108.258 171.062 101.74 166.92 97.9666L165.573 99.4451ZM97.539 168.248C100.63 171.674 100.63 176.882 97.539 180.307L99.0239 181.647C102.802 177.46 102.802 171.095 99.0239 166.909L97.539 168.248ZM143.408 134.895C143.555 134.701 143.715 134.524 143.887 134.367L142.54 132.889C142.27 133.135 142.029 133.403 141.814 133.687L143.408 134.895ZM153 130.041C153 127.509 154.067 125.093 155.939 123.388L154.592 121.909C152.304 123.994 151 126.946 151 130.041H153ZM104.821 151.722C96.7613 151.722 92.6598 161.348 98.0197 167.288L99.5046 165.949C95.2661 161.251 98.5526 153.722 104.821 153.722V151.722ZM66.592 75.1034C66.4454 75.2969 66.2855 75.4737 66.113 75.6309L67.4599 77.1093C67.7297 76.8636 67.9711 76.5949 68.1859 76.3116L66.592 75.1034ZM49.2627 95.0398C52.2317 92.3351 57 94.4415 57 98.4577H59C59 92.7042 52.169 89.6867 47.9159 93.5613L49.2627 95.0398ZM86.3543 147.993C85.2635 147.523 84.2612 148.148 83.7763 148.773C83.2928 149.395 82.9216 150.556 83.7541 151.479L85.2389 150.139C85.2437 150.144 85.2536 150.159 85.2596 150.178C85.265 150.196 85.2628 150.202 85.2637 150.192C85.2662 150.164 85.2864 150.089 85.356 149.999C85.4248 149.911 85.5024 149.859 85.5525 149.84C85.591 149.826 85.5829 149.838 85.5628 149.829L86.3543 147.993ZM132.556 67.0047C132.8 67.2755 133.067 67.5186 133.347 67.7361L134.573 66.1556C134.378 66.0044 134.199 65.8408 134.041 65.6649L132.556 67.0047ZM75.4274 143.843C75.6223 143.994 75.8006 144.157 75.9593 144.333L77.4442 142.994C77.1999 142.723 76.9334 142.48 76.653 142.262L75.4274 143.843ZM153 98.4577C153 94.4415 157.768 92.3351 160.737 95.0398L162.084 93.5613C157.831 89.6867 151 92.7042 151 98.4577H153ZM182.08 96.8675C177.291 101.231 177.291 108.768 182.08 113.131L183.427 111.652C179.509 108.082 179.509 101.916 183.427 98.346L182.08 96.8675ZM69 151.722C62.9249 151.722 58 156.646 58 162.722H60C60 157.751 64.0294 153.722 69 153.722V151.722ZM133.347 142.262C133.067 142.48 132.8 142.723 132.556 142.994L134.041 144.333C134.199 144.158 134.378 143.994 134.573 143.843L133.347 142.262ZM75.9594 65.6649C75.8007 65.8408 75.6224 66.0044 75.4274 66.1556L76.653 67.7361C76.9334 67.5186 77.1999 67.2755 77.4442 67.0047L75.9594 65.6649ZM44.4271 110.553C41.1558 107.573 41.1558 102.425 44.4271 99.4451L43.0802 97.9666C38.9381 101.74 38.9381 108.258 43.0802 112.032L44.4271 110.553ZM80.4296 153.722C82.9769 153.722 85.4049 154.801 87.1114 156.692L88.5963 155.352C86.5105 153.041 83.543 151.722 80.4296 151.722V153.722ZM150 124.746C150 124.744 150 124.742 150.001 124.741C150.002 124.74 150.003 124.737 150.006 124.735L151.353 126.213C151.767 125.836 152 125.302 152 124.746H150ZM73.1192 59.2766C76.4336 59.2766 78.1797 63.2042 75.9594 65.6649L77.4442 67.0047C80.8254 63.2576 78.1663 57.2766 73.1192 57.2766V59.2766ZM57 111.541C57 115.557 52.2317 117.663 49.2627 114.958L47.9159 116.437C52.169 120.312 59 117.294 59 111.541H57Z" fill="url(#paint0_radial_1042_1627)" mask="url(#path-1-inside-1_1042_1627)"></path><defs><radialGradient id="paint0_radial_1042_1627" cx="0" cy="0" r="1" gradientUnits="userSpaceOnUse" gradientTransform="translate(105 104.999) rotate(90) scale(163 163.007)"><stop stop-color="white"></stop><stop offset="1" stop-color="#095540" stop-opacity="0.2"></stop></radialGradient></defs></svg> 