<?xml version="1.0" encoding="UTF-8"?> <svg xmlns="http://www.w3.org/2000/svg" width="36" height="36" viewBox="0 0 36 36" fill="none"><path fill-rule="evenodd" clip-rule="evenodd" d="M0 18C0 27.9411 8.05887 36 18 36C27.9411 36 36 27.9411 36 18C36 8.05887 27.9411 0 18 0C8.05887 0 0 8.05887 0 18ZM29.2966 17.3111C29.2942 23.2112 24.4946 28.012 18.5933 28.0144H18.5889C16.7975 28.0138 15.0374 27.5643 13.474 26.7116L7.8 28.2L9.31846 22.6536C8.3818 21.0304 7.88893 19.1891 7.88974 17.3027C7.89209 11.4013 12.6936 6.6 18.5932 6.6C21.4565 6.60124 24.1439 7.7159 26.1647 9.73906C28.1854 11.7621 29.2977 14.4513 29.2966 17.3111Z" fill="#EAFFFB"></path><path fill-rule="evenodd" clip-rule="evenodd" d="M10.3683 25.6575L13.7353 24.7743L14.0602 24.9671C15.4261 25.7776 16.9918 26.2065 18.5881 26.2071H18.5917C23.4951 26.2071 27.4859 22.2162 27.4878 17.3109C27.4888 14.9338 26.5643 12.6987 24.8847 11.0171C23.2051 9.33554 20.9714 8.40903 18.5952 8.4082C13.6881 8.4082 9.69726 12.3987 9.69531 17.3037C9.69462 18.9847 10.165 20.6217 11.0555 22.0381L11.267 22.3747L10.3683 25.6575ZM23.6177 19.6159C23.8043 19.7061 23.9302 19.7669 23.984 19.8567C24.0508 19.9682 24.0508 20.5037 23.8281 21.1285C23.6051 21.7532 22.5367 22.3234 22.0228 22.4001C21.5621 22.469 20.979 22.4977 20.3384 22.2941C19.9499 22.1709 19.4518 22.0064 18.8138 21.7308C16.3066 20.6482 14.6122 18.2182 14.292 17.7589C14.2695 17.7267 14.2538 17.7042 14.2451 17.6925L14.2429 17.6897C14.1014 17.5008 13.1531 16.2355 13.1531 14.926C13.1531 13.6941 13.7582 13.0484 14.0367 12.7511C14.0558 12.7308 14.0734 12.712 14.0891 12.6949C14.3342 12.4271 14.624 12.3602 14.8023 12.3602C14.9805 12.3602 15.159 12.3618 15.3148 12.3697C15.3341 12.3706 15.3541 12.3705 15.3747 12.3704C15.5306 12.3695 15.7249 12.3683 15.9166 12.8288C15.9903 13.0059 16.0982 13.2686 16.212 13.5457C16.4421 14.106 16.6964 14.725 16.7411 14.8145C16.808 14.9484 16.8526 15.1045 16.7634 15.2831C16.75 15.3099 16.7377 15.3351 16.7258 15.3593C16.6589 15.496 16.6096 15.5965 16.496 15.7292C16.4513 15.7814 16.4051 15.8376 16.3589 15.8939C16.2669 16.0059 16.1749 16.118 16.0948 16.1978C15.9609 16.3311 15.8216 16.4758 15.9776 16.7436C16.1336 17.0113 16.6703 17.8871 17.4654 18.5962C18.32 19.3585 19.0628 19.6807 19.4393 19.8441C19.5128 19.8759 19.5724 19.9018 19.6161 19.9237C19.8834 20.0576 20.0394 20.0352 20.1955 19.8567C20.3515 19.6782 20.864 19.0758 21.0423 18.8081C21.2205 18.5404 21.3989 18.585 21.644 18.6742C21.8892 18.7636 23.204 19.4105 23.4715 19.5443C23.5237 19.5705 23.5725 19.5941 23.6177 19.6159Z" fill="#EAFFFB"></path></svg> 