<?xml version="1.0" encoding="UTF-8"?> <svg xmlns="http://www.w3.org/2000/svg" width="1920" height="994" viewBox="0 0 1920 994" fill="none"><g opacity="0.2" clip-path="url(#clip0_1115_1014)"><path d="M1920 0H0V994H1920V0Z" fill="#095540"></path><path d="M1907.74 12.5469V30.4963L1911.46 28.2526L1906.97 39.8917L1902.48 28.2526L1906.13 30.4963V14.2998H1882.08V12.5469H1907.74ZM1777.11 168.553V166.8H1753.06V150.603L1756.7 152.847L1752.22 141.208L1747.73 152.847L1751.37 150.603V168.553H1777.04H1777.11ZM1882.08 260.964V262.717H1906.13V278.914L1902.48 276.67L1906.97 288.309L1911.46 276.67L1907.74 278.914V260.964H1882.08ZM1777.11 416.97V415.218H1753.06V399.021L1756.7 401.265L1752.22 389.626L1747.73 401.265L1751.37 399.021V416.97H1777.04H1777.11ZM1882.08 509.452V511.205H1906.13V527.402L1902.48 525.158L1906.97 536.797L1911.46 525.158L1907.74 527.402V509.452H1882.08ZM1777.11 665.388V663.635H1753.06V647.439L1756.7 649.682L1752.22 638.043L1747.73 649.682L1751.37 647.439V665.388H1777.04H1777.11ZM1882.08 757.87V759.623H1906.13V775.819L1902.48 773.575L1906.97 785.215L1911.46 773.575L1907.74 775.819V757.87H1882.08ZM1777.11 913.876V912.123H1753.06V895.926L1756.7 898.17L1752.22 886.531L1747.73 898.17L1751.37 895.926V913.876H1777.04H1777.11ZM1882.08 1006.29V1008.04H1906.13V1024.24L1902.48 1021.99L1906.97 1033.63L1911.46 1021.99L1907.74 1024.24V1006.29H1882.08ZM1777.11 1162.29V1160.54H1753.06V1144.34L1756.7 1146.59L1752.22 1134.95L1747.73 1146.59L1751.37 1144.34V1162.29H1777.04H1777.11ZM1882.08 1254.7V1256.46H1906.13V1272.65L1902.48 1270.41L1906.97 1282.05L1911.46 1270.41L1907.74 1272.65V1254.7H1882.08ZM1777.11 1410.71V1408.96H1753.06V1392.76L1756.7 1395.01L1752.22 1383.37L1747.73 1395.01L1751.37 1392.76V1410.71H1777.04H1777.11ZM1882.08 1503.19V1504.95H1906.13V1521.14L1902.48 1518.9L1906.97 1530.54L1911.46 1518.9L1907.74 1521.14V1503.19H1882.08ZM1777.11 1659.13V1657.38H1753.06V1641.18L1756.7 1643.42L1752.22 1631.78L1747.73 1643.42L1751.37 1641.18V1659.13H1777.04H1777.11ZM1882.08 1751.61V1753.36H1906.13V1769.56L1902.48 1767.32L1906.97 1778.95L1911.46 1767.32L1907.74 1769.56V1751.61H1882.08ZM1777.11 1907.62V1905.86H1753.06V1889.67L1756.7 1891.91L1752.22 1880.27L1747.73 1891.91L1751.37 1889.67V1907.62H1777.04H1777.11ZM1633.64 12.5469V14.2998H1657.69V30.4963L1654.05 28.2526L1658.54 39.8917L1663.02 28.2526L1659.31 30.4963V12.5469H1633.64ZM1528.68 168.553V166.8H1504.62V150.603L1508.27 152.847L1503.78 141.208L1499.3 152.847L1503.01 150.603V168.553H1528.68ZM1633.64 260.964V262.717H1657.69V278.914L1654.05 276.67L1658.54 288.309L1663.02 276.67L1659.31 278.914V260.964H1633.64ZM1528.68 416.97V415.218H1504.62V399.021L1508.27 401.265L1503.78 389.626L1499.3 401.265L1503.01 399.021V416.97H1528.68ZM1633.64 509.452V511.205H1657.69V527.402L1654.05 525.158L1658.54 536.797L1663.02 525.158L1659.31 527.402V509.452H1633.64ZM1528.68 665.388V663.635H1504.62V647.439L1508.27 649.682L1503.78 638.043L1499.3 649.682L1503.01 647.439V665.388H1528.68ZM1633.64 757.87V759.623H1657.69V775.819L1654.05 773.575L1658.54 785.215L1663.02 773.575L1659.31 775.819V757.87H1633.64ZM1528.68 913.876V912.123H1504.62V895.926L1508.27 898.17L1503.78 886.531L1499.3 898.17L1503.01 895.926V913.876H1528.68ZM1633.64 1006.29V1008.04H1657.69V1024.24L1654.05 1021.99L1658.54 1033.63L1663.02 1021.99L1659.31 1024.24V1006.29H1633.64ZM1528.68 1162.29V1160.54H1504.62V1144.34L1508.27 1146.59L1503.78 1134.95L1499.3 1146.59L1503.01 1144.34V1162.29H1528.68ZM1633.64 1254.7V1256.46H1657.69V1272.65L1654.05 1270.41L1658.54 1282.05L1663.02 1270.41L1659.31 1272.65V1254.7H1633.64ZM1528.68 1410.71V1408.96H1504.62V1392.76L1508.27 1395.01L1503.78 1383.37L1499.3 1395.01L1503.01 1392.76V1410.71H1528.68ZM1633.64 1503.19V1504.95H1657.69V1521.14L1654.05 1518.9L1658.54 1530.54L1663.02 1518.9L1659.31 1521.14V1503.19H1633.64ZM1528.68 1659.13V1657.38H1504.62V1641.18L1508.27 1643.42L1503.78 1631.78L1499.3 1643.42L1503.01 1641.18V1659.13H1528.68ZM1633.64 1751.61V1753.36H1657.69V1769.56L1654.05 1767.32L1658.54 1778.95L1663.02 1767.32L1659.31 1769.56V1751.61H1633.64ZM1528.68 1907.62V1905.86H1504.62V1889.67L1508.27 1891.91L1503.78 1880.27L1499.3 1891.91L1503.01 1889.67V1907.62H1528.68ZM1385.21 12.5469V14.2998H1409.26V30.4963L1405.62 28.2526L1410.1 39.8917L1414.59 28.2526L1410.88 30.4963V12.5469H1385.21ZM1280.24 168.553V166.8H1256.19V150.603L1259.84 152.847L1255.35 141.208L1250.86 152.847L1254.58 150.603V168.553H1280.24ZM1385.21 260.964V262.717H1409.26V278.914L1405.62 276.67L1410.1 288.309L1414.59 276.67L1410.88 278.914V260.964H1385.21ZM1280.24 416.97V415.218H1256.19V399.021L1259.84 401.265L1255.35 389.626L1250.86 401.265L1254.58 399.021V416.97H1280.24ZM1385.21 509.452V511.205H1409.26V527.402L1405.62 525.158L1410.1 536.797L1414.59 525.158L1410.88 527.402V509.452H1385.21ZM1280.24 665.388V663.635H1256.19V647.439L1259.84 649.682L1255.35 638.043L1250.86 649.682L1254.58 647.439V665.388H1280.24ZM1385.21 757.87V759.623H1409.26V775.819L1405.62 773.575L1410.1 785.215L1414.59 773.575L1410.88 775.819V757.87H1385.21ZM1280.24 913.876V912.123H1256.19V895.926L1259.84 898.17L1255.35 886.531L1250.86 898.17L1254.58 895.926V913.876H1280.24ZM1385.21 1006.29V1008.04H1409.26V1024.24L1405.62 1021.99L1410.1 1033.63L1414.59 1021.99L1410.88 1024.24V1006.29H1385.21ZM1280.24 1162.29V1160.54H1256.19V1144.34L1259.84 1146.59L1255.35 1134.95L1250.86 1146.59L1254.58 1144.34V1162.29H1280.24ZM1385.21 1254.7V1256.46H1409.26V1272.65L1405.62 1270.41L1410.1 1282.05L1414.59 1270.41L1410.88 1272.65V1254.7H1385.21ZM1280.24 1410.71V1408.96H1256.19V1392.76L1259.84 1395.01L1255.35 1383.37L1250.86 1395.01L1254.58 1392.76V1410.71H1280.24ZM1385.21 1503.19V1504.95H1409.26V1521.14L1405.62 1518.9L1410.1 1530.54L1414.59 1518.9L1410.88 1521.14V1503.19H1385.21ZM1280.24 1659.13V1657.38H1256.19V1641.18L1259.84 1643.42L1255.35 1631.78L1250.86 1643.42L1254.58 1641.18V1659.13H1280.24ZM1385.21 1751.61V1753.36H1409.26V1769.56L1405.62 1767.32L1410.1 1778.95L1414.59 1767.32L1410.88 1769.56V1751.61H1385.21ZM1280.24 1907.62V1905.86H1256.19V1889.67L1259.84 1891.91L1255.35 1880.27L1250.86 1891.91L1254.58 1889.67V1907.62H1280.24ZM1136.78 12.5469V14.2998H1160.83V30.4963L1157.18 28.2526L1161.67 39.8917L1166.16 28.2526L1162.44 30.4963V12.5469H1136.78ZM1031.74 168.553V166.8H1007.69V150.603L1011.34 152.847L1006.85 141.208L1002.36 152.847L1006.08 150.603V168.553H1031.74ZM1136.78 260.964V262.717H1160.83V278.914L1157.18 276.67L1161.67 288.309L1166.16 276.67L1162.44 278.914V260.964H1136.78ZM1031.74 416.97V415.218H1007.69V399.021L1011.34 401.265L1006.85 389.626L1002.36 401.265L1006.08 399.021V416.97H1031.74ZM1136.78 509.452V511.205H1160.83V527.402L1157.18 525.158L1161.67 536.797L1166.16 525.158L1162.44 527.402V509.452H1136.78ZM1031.74 665.388V663.635H1007.69V647.439L1011.34 649.682L1006.85 638.043L1002.36 649.682L1006.08 647.439V665.388H1031.74ZM1136.78 757.87V759.623H1160.83V775.819L1157.18 773.575L1161.67 785.215L1166.16 773.575L1162.44 775.819V757.87H1136.78ZM1031.74 913.876V912.123H1007.69V895.926L1011.34 898.17L1006.85 886.531L1002.36 898.17L1006.08 895.926V913.876H1031.74ZM1136.78 1006.29V1008.04H1160.83V1024.24L1157.18 1021.99L1161.67 1033.63L1166.16 1021.99L1162.44 1024.24V1006.29H1136.78ZM1031.74 1162.29V1160.54H1007.69V1144.34L1011.34 1146.59L1006.85 1134.95L1002.36 1146.59L1006.08 1144.34V1162.29H1031.74ZM1136.78 1254.7V1256.46H1160.83V1272.65L1157.18 1270.41L1161.67 1282.05L1166.16 1270.41L1162.44 1272.65V1254.7H1136.78ZM1031.74 1410.71V1408.96H1007.69V1392.76L1011.34 1395.01L1006.85 1383.37L1002.36 1395.01L1006.08 1392.76V1410.71H1031.74ZM1136.78 1503.19V1504.95H1160.83V1521.14L1157.18 1518.9L1161.67 1530.54L1166.16 1518.9L1162.44 1521.14V1503.19H1136.78ZM1031.74 1659.13V1657.38H1007.69V1641.18L1011.34 1643.42L1006.85 1631.78L1002.36 1643.42L1006.08 1641.18V1659.13H1031.74ZM1136.78 1751.61V1753.36H1160.83V1769.56L1157.18 1767.32L1161.67 1778.95L1166.16 1767.32L1162.44 1769.56V1751.61H1136.78ZM1031.74 1907.62V1905.86H1007.69V1889.67L1011.34 1891.91L1006.85 1880.27L1002.36 1891.91L1006.08 1889.67V1907.62H1031.74ZM888.278 12.5469V14.2998H912.329V30.4963L908.683 28.2526L913.17 39.8917L917.658 28.2526L913.942 30.4963V12.5469H888.278ZM783.31 168.553V166.8H759.259V150.603L762.905 152.847L758.418 141.208L753.93 152.847L757.646 150.603V168.553H783.31ZM888.278 260.964V262.717H912.329V278.914L908.683 276.67L913.17 288.309L917.658 276.67L913.942 278.914V260.964H888.278ZM783.31 416.97V415.218H759.259V399.021L762.905 401.265L758.418 389.626L753.93 401.265L757.646 399.021V416.97H783.31ZM888.278 509.452V511.205H912.329V527.402L908.683 525.158L913.17 536.797L917.658 525.158L913.942 527.402V509.452H888.278ZM783.31 665.388V663.635H759.259V647.439L762.905 649.682L758.418 638.043L753.93 649.682L757.646 647.439V665.388H783.31ZM888.278 757.87V759.623H912.329V775.819L908.683 773.575L913.17 785.215L917.658 773.575L913.942 775.819V757.87H888.278ZM783.31 913.876V912.123H759.259V895.926L762.905 898.17L758.418 886.531L753.93 898.17L757.646 895.926V913.876H783.31ZM888.278 1006.29V1008.04H912.329V1024.24L908.683 1021.99L913.17 1033.63L917.658 1021.99L913.942 1024.24V1006.29H888.278ZM783.31 1162.29V1160.54H759.259V1144.34L762.905 1146.59L758.418 1134.95L753.93 1146.59L757.646 1144.34V1162.29H783.31ZM888.278 1254.7V1256.46H912.329V1272.65L908.683 1270.41L913.17 1282.05L917.658 1270.41L913.942 1272.65V1254.7H888.278ZM783.31 1410.71V1408.96H759.259V1392.76L762.905 1395.01L758.418 1383.37L753.93 1395.01L757.646 1392.76V1410.71H783.31ZM888.278 1503.19V1504.95H912.329V1521.14L908.683 1518.9L913.17 1530.54L917.658 1518.9L913.942 1521.14V1503.19H888.278ZM783.31 1659.13V1657.38H759.259V1641.18L762.905 1643.42L758.418 1631.78L753.93 1643.42L757.646 1641.18V1659.13H783.31ZM888.278 1751.61V1753.36H912.329V1769.56L908.683 1767.32L913.17 1778.95L917.658 1767.32L913.942 1769.56V1751.61H888.278ZM783.31 1907.62V1905.86H759.259V1889.67L762.905 1891.91L758.418 1880.27L753.93 1891.91L757.646 1889.67V1907.62H783.31ZM639.846 12.5469V14.2998H663.897V30.4963L660.251 28.2526L664.739 39.8917L669.226 28.2526L665.51 30.4963V12.5469H639.846ZM534.878 168.553V166.8H510.827V150.603L514.473 152.847L509.986 141.208L505.498 152.847L509.215 150.603V168.553H534.878ZM639.846 260.964V262.717H663.897V278.914L660.251 276.67L664.739 288.309L669.226 276.67L665.51 278.914V260.964H639.846ZM534.878 416.97V415.218H510.827V399.021L514.473 401.265L509.986 389.626L505.498 401.265L509.215 399.021V416.97H534.878ZM639.846 509.452V511.205H663.897V527.402L660.251 525.158L664.739 536.797L669.226 525.158L665.51 527.402V509.452H639.846ZM534.878 665.388V663.635H510.827V647.439L514.473 649.682L509.986 638.043L505.498 649.682L509.215 647.439V665.388H534.878ZM639.846 757.87V759.623H663.897V775.819L660.251 773.575L664.739 785.215L669.226 773.575L665.51 775.819V757.87H639.846ZM534.878 913.876V912.123H510.827V895.926L514.473 898.17L509.986 886.531L505.498 898.17L509.215 895.926V913.876H534.878ZM639.846 1006.29V1008.04H663.897V1024.24L660.251 1021.99L664.739 1033.63L669.226 1021.99L665.51 1024.24V1006.29H639.846ZM534.878 1162.29V1160.54H510.827V1144.34L514.473 1146.59L509.986 1134.95L505.498 1146.59L509.215 1144.34V1162.29H534.878ZM639.846 1254.7V1256.46H663.897V1272.65L660.251 1270.41L664.739 1282.05L669.226 1270.41L665.51 1272.65V1254.7H639.846ZM534.878 1410.71V1408.96H510.827V1392.76L514.473 1395.01L509.986 1383.37L505.498 1395.01L509.215 1392.76V1410.71H534.878ZM639.846 1503.19V1504.95H663.897V1521.14L660.251 1518.9L664.739 1530.54L669.226 1518.9L665.51 1521.14V1503.19H639.846ZM534.878 1659.13V1657.38H510.827V1641.18L514.473 1643.42L509.986 1631.78L505.498 1643.42L509.215 1641.18V1659.13H534.878ZM639.846 1751.61V1753.36H663.897V1769.56L660.251 1767.32L664.739 1778.95L669.226 1767.32L665.51 1769.56V1751.61H639.846ZM534.878 1907.62V1905.86H510.827V1889.67L514.473 1891.91L509.986 1880.27L505.498 1891.91L509.215 1889.67V1907.62H534.878ZM391.415 12.5469V14.2998H415.465V30.4963L411.819 28.2526L416.307 39.8917L420.794 28.2526L417.078 30.4963V12.5469H391.415ZM286.446 168.553V166.8H262.395V150.603L266.042 152.847L261.554 141.208L257.066 152.847L260.783 150.603V168.553H286.446ZM391.415 260.964V262.717H415.465V278.914L411.819 276.67L416.307 288.309L420.794 276.67L417.078 278.914V260.964H391.415ZM286.446 416.97V415.218H262.395V399.021L266.042 401.265L261.554 389.626L257.066 401.265L260.783 399.021V416.97H286.446ZM391.415 509.452V511.205H415.465V527.402L411.819 525.158L416.307 536.797L420.794 525.158L417.078 527.402V509.452H391.415ZM286.446 665.388V663.635H262.395V647.439L266.042 649.682L261.554 638.043L257.066 649.682L260.783 647.439V665.388H286.446ZM391.415 757.87V759.623H415.465V775.819L411.819 773.575L416.307 785.215L420.794 773.575L417.078 775.819V757.87H391.415ZM286.446 913.876V912.123H262.395V895.926L266.042 898.17L261.554 886.531L257.066 898.17L260.783 895.926V913.876H286.446ZM391.415 1006.29V1008.04H415.465V1024.24L411.819 1021.99L416.307 1033.63L420.794 1021.99L417.078 1024.24V1006.29H391.415ZM286.446 1162.29V1160.54H262.395V1144.34L266.042 1146.59L261.554 1134.95L257.066 1146.59L260.783 1144.34V1162.29H286.446ZM391.415 1254.7V1256.46H415.465V1272.65L411.819 1270.41L416.307 1282.05L420.794 1270.41L417.078 1272.65V1254.7H391.415ZM286.446 1410.71V1408.96H262.395V1392.76L266.042 1395.01L261.554 1383.37L257.066 1395.01L260.783 1392.76V1410.71H286.446ZM391.415 1503.19V1504.95H415.465V1521.14L411.819 1518.9L416.307 1530.54L420.794 1518.9L417.078 1521.14V1503.19H391.415ZM286.446 1659.13V1657.38H262.395V1641.18L266.042 1643.42L261.554 1631.78L257.066 1643.42L260.783 1641.18V1659.13H286.446ZM391.415 1751.61V1753.36H415.465V1769.56L411.819 1767.32L416.307 1778.95L420.794 1767.32L417.078 1769.56V1751.61H391.415ZM286.446 1907.62V1905.86H262.395V1889.67L266.042 1891.91L261.554 1880.27L257.066 1891.91L260.783 1889.67V1907.62H286.446ZM142.913 12.5469V14.2998H166.963V30.4963L163.317 28.2526L167.805 39.8917L172.292 28.2526L168.576 30.4963V12.5469H142.913ZM37.9443 168.553V166.8H13.8935V150.603L17.5397 152.847L13.0521 141.208L8.56445 152.847L12.2106 150.603V168.553H37.8742H37.9443ZM142.913 260.964V262.717H166.963V278.914L163.317 276.67L167.805 288.309L172.292 276.67L168.576 278.914V260.964H142.913ZM37.9443 416.97V415.218H13.8935V399.021L17.5397 401.265L13.0521 389.626L8.56445 401.265L12.2106 399.021V416.97H37.8742H37.9443ZM142.913 509.452V511.205H166.963V527.402L163.317 525.158L167.805 536.797L172.292 525.158L168.576 527.402V509.452H142.913ZM37.9443 665.388V663.635H13.8935V647.439L17.5397 649.682L13.0521 638.043L8.56445 649.682L12.2106 647.439V665.388H37.8742H37.9443ZM142.913 757.87V759.623H166.963V775.819L163.317 773.575L167.805 785.215L172.292 773.575L168.576 775.819V757.87H142.913ZM37.9443 913.876V912.123H13.8935V895.926L17.5397 898.17L13.0521 886.531L8.56445 898.17L12.2106 895.926V913.876H37.8742H37.9443ZM142.913 1006.29V1008.04H166.963V1024.24L163.317 1021.99L167.805 1033.63L172.292 1021.99L168.576 1024.24V1006.29H142.913ZM37.9443 1162.29V1160.54H13.8935V1144.34L17.5397 1146.59L13.0521 1134.95L8.56445 1146.59L12.2106 1144.34V1162.29H37.8742H37.9443ZM142.913 1254.7V1256.46H166.963V1272.65L163.317 1270.41L167.805 1282.05L172.292 1270.41L168.576 1272.65V1254.7H142.913ZM37.9443 1410.71V1408.96H13.8935V1392.76L17.5397 1395.01L13.0521 1383.37L8.56445 1395.01L12.2106 1392.76V1410.71H37.8742H37.9443ZM142.913 1503.19V1504.95H166.963V1521.14L163.317 1518.9L167.805 1530.54L172.292 1518.9L168.576 1521.14V1503.19H142.913ZM37.9443 1659.13V1657.38H13.8935V1641.18L17.5397 1643.42L13.0521 1631.78L8.56445 1643.42L12.2106 1641.18V1659.13H37.8742H37.9443ZM142.913 1751.61V1753.36H166.963V1769.56L163.317 1767.32L167.805 1778.95L172.292 1767.32L168.576 1769.56V1751.61H142.913ZM37.9443 1907.62V1905.86H13.8935V1889.67L17.5397 1891.91L13.0521 1880.27L8.56445 1891.91L12.2106 1889.67V1907.62H37.8742H37.9443Z" fill="#9D9D9D"></path><path d="M1765.32 12.2V13.8828H1753.75L1753.12 14.5138V26.0828H1751.43V14.5138L1750.8 13.8828H1739.23V12.2H1750.8L1751.43 11.569V0H1753.12V11.569L1753.75 12.2H1765.32ZM1908.43 167.715L1907.8 167.084V155.515H1906.12V167.084L1905.49 167.715H1893.92V169.398H1905.49L1906.12 170.029V181.598H1907.8V170.029L1908.43 169.398H1920V167.715H1908.43ZM1851.7 81.8944L1855.21 83.9978V99.5634H1851.35V92.4818H1837.89V99.5634H1834.03V83.9978L1837.54 81.8944H1851.7ZM1851.28 85.4001H1837.82V89.0461H1851.28V85.4001ZM1829.06 101.386H1830.11V80.2116H1829.06V101.386ZM1821.76 81.8944L1825.27 83.9978V89.3266L1822.39 90.7289L1825.27 92.0611V97.4599L1821.76 99.5634H1804.02V81.8944H1821.69H1821.76ZM1821.34 92.5519H1807.88V96.0576H1821.34V92.5519ZM1821.34 85.4001H1807.88V89.0461H1821.34V85.4001ZM1796.31 102.648H1800.24V101.386H1797.64V80.2116H1800.24V78.9495H1796.31V102.648ZM1859 78.9495V80.2116H1861.59V101.386H1859V102.648H1862.92V78.9495H1859ZM1753.68 260.618L1753.05 259.987V248.418H1751.36V259.987L1750.73 260.618H1739.16V262.3H1750.73L1751.36 262.931V274.5H1753.05V262.931L1753.68 262.3H1765.25V260.618H1753.68ZM1908.43 416.133L1907.8 415.502V403.933H1906.12V415.502L1905.49 416.133H1893.92V417.815H1905.49L1906.12 418.447V430.016H1907.8V418.447L1908.43 417.815H1920V416.133H1908.43ZM1851.7 330.382L1855.21 332.486V348.051H1851.35V340.969H1837.89V348.051H1834.03V332.486L1837.54 330.382H1851.7ZM1851.28 333.818H1837.82V337.464H1851.28V333.818ZM1829.06 349.804H1830.11V328.629H1829.06V349.804ZM1821.76 330.382L1825.27 332.486V337.814L1822.39 339.217L1825.27 340.549V345.948L1821.76 348.051H1804.02V330.382H1821.69H1821.76ZM1821.34 340.969H1807.88V344.475H1821.34V340.969ZM1821.34 333.818H1807.88V337.464H1821.34V333.818ZM1796.31 351.066H1800.24V349.804H1797.64V328.629H1800.24V327.367H1796.31V351.066ZM1859 327.367V328.629H1861.59V349.804H1859V351.066H1862.92V327.367H1859ZM1753.68 509.035L1753.05 508.404V496.835H1751.36V508.404L1750.73 509.035H1739.16V510.718H1750.73L1751.36 511.349V522.918H1753.05V511.349L1753.68 510.718H1765.25V509.035H1753.68ZM1908.43 664.55L1907.8 663.919V652.35H1906.12V663.919L1905.49 664.55H1893.92V666.233H1905.49L1906.12 666.864V678.433H1907.8V666.864L1908.43 666.233H1920V664.55H1908.43ZM1851.7 578.8L1855.21 580.903V596.469H1851.35V589.387H1837.89V596.469H1834.03V580.903L1837.54 578.8H1851.7ZM1851.28 582.305H1837.82V585.951H1851.28V582.305ZM1829.06 598.222H1830.11V577.047H1829.06V598.222ZM1821.76 578.8L1825.27 580.903V586.232L1822.39 587.634L1825.27 588.966V594.365L1821.76 596.469H1804.02V578.8H1821.69H1821.76ZM1821.34 589.457H1807.88V592.963H1821.34V589.457ZM1821.34 582.305H1807.88V585.951H1821.34V582.305ZM1796.31 599.484H1800.24V598.222H1797.64V577.047H1800.24V575.785H1796.31V599.484ZM1859 575.785V577.047H1861.59V598.222H1859V599.484H1862.92V575.785H1859ZM1753.68 757.453L1753.05 756.822V745.253H1751.36V756.822L1750.73 757.453H1739.16V759.136H1750.73L1751.36 759.767V771.336H1753.05V759.767L1753.68 759.136H1765.25V757.453H1753.68ZM1908.43 912.968L1907.8 912.337V900.768H1906.12V912.337L1905.49 912.968H1893.92V914.651H1905.49L1906.12 915.282V926.851H1907.8V915.282L1908.43 914.651H1920V912.968H1908.43ZM1851.7 827.217L1855.21 829.321V844.886H1851.35V837.805H1837.89V844.886H1834.03V829.321L1837.54 827.217H1851.7ZM1851.28 830.723H1837.82V834.369H1851.28V830.723ZM1829.06 846.709H1830.11V825.535H1829.06V846.709ZM1821.76 827.217L1825.27 829.321V834.65L1822.39 836.052L1825.27 837.384V842.783L1821.76 844.886H1804.02V827.217H1821.69H1821.76ZM1821.34 837.875H1807.88V841.38H1821.34V837.875ZM1821.34 830.723H1807.88V834.369H1821.34V830.723ZM1796.31 847.971H1800.24V846.709H1797.64V825.535H1800.24V824.273H1796.31V847.971ZM1859 824.202V825.464H1861.59V846.639H1859V847.901H1862.92V824.202H1859ZM1753.68 1005.94L1753.05 1005.31V993.741H1751.36V1005.31L1750.73 1005.94H1739.16V1007.62H1750.73L1751.36 1008.25V1019.82H1753.05V1008.25L1753.68 1007.62H1765.25V1005.94H1753.68ZM1908.43 1161.46L1907.8 1160.82V1149.26H1906.12V1160.82L1905.49 1161.46H1893.92V1163.14H1905.49L1906.12 1163.77V1175.34H1907.8V1163.77L1908.43 1163.14H1920V1161.46H1908.43ZM1851.7 1075.71L1855.21 1077.81V1093.37H1851.35V1086.29H1837.89V1093.37H1834.03V1077.81L1837.54 1075.71H1851.7ZM1851.28 1079.14H1837.82V1082.79H1851.28V1079.14ZM1829.06 1095.13H1830.11V1073.95H1829.06V1095.13ZM1821.76 1075.71L1825.27 1077.81V1083.14L1822.39 1084.54L1825.27 1085.87V1091.27L1821.76 1093.37H1804.02V1075.71H1821.69H1821.76ZM1821.34 1086.29H1807.88V1089.8H1821.34V1086.29ZM1821.34 1079.14H1807.88V1082.79H1821.34V1079.14ZM1796.31 1096.39H1800.24V1095.13H1797.64V1073.95H1800.24V1072.69H1796.31V1096.39ZM1859 1072.69V1073.95H1861.59V1095.13H1859V1096.39H1862.92V1072.69H1859ZM1753.68 1254.36L1753.05 1253.73V1242.16H1751.36V1253.73L1750.73 1254.36H1739.16V1256.04H1750.73L1751.36 1256.67V1268.24H1753.05V1256.67L1753.68 1256.04H1765.25V1254.36H1753.68ZM1908.43 1409.87L1907.8 1409.24V1397.67H1906.12V1409.24L1905.49 1409.87H1893.92V1411.56H1905.49L1906.12 1412.19V1423.76H1907.8V1412.19L1908.43 1411.56H1920V1409.87H1908.43ZM1851.7 1324.12L1855.21 1326.23V1341.79H1851.35V1334.71H1837.89V1341.79H1834.03V1326.23L1837.54 1324.12H1851.7ZM1851.28 1327.63H1837.82V1331.27H1851.28V1327.63ZM1829.06 1343.54H1830.11V1322.37H1829.06V1343.54ZM1821.76 1324.12L1825.27 1326.23V1331.55L1822.39 1332.96L1825.27 1334.29V1339.69L1821.76 1341.79H1804.02V1324.12H1821.69H1821.76ZM1821.34 1334.71H1807.88V1338.22H1821.34V1334.71ZM1821.34 1327.63H1807.88V1331.27H1821.34V1327.63ZM1796.31 1344.81H1800.24V1343.54H1797.64V1322.37H1800.24V1321.11H1796.31V1344.81ZM1859 1321.11V1322.37H1861.59V1343.54H1859V1344.81H1862.92V1321.11H1859ZM1753.68 1502.78L1753.05 1502.14V1490.58H1751.36V1502.14L1750.73 1502.78H1739.16V1504.46H1750.73L1751.36 1505.09V1516.66H1753.05V1505.09L1753.68 1504.46H1765.25V1502.78H1753.68ZM1908.43 1658.29L1907.8 1657.66V1646.09H1906.12V1657.66L1905.49 1658.29H1893.92V1659.97H1905.49L1906.12 1660.6V1672.17H1907.8V1660.6L1908.43 1659.97H1920V1658.29H1908.43ZM1851.7 1572.54L1855.21 1574.64V1590.21H1851.35V1583.13H1837.89V1590.21H1834.03V1574.64L1837.54 1572.54H1851.7ZM1851.28 1576.05H1837.82V1579.69H1851.28V1576.05ZM1829.06 1592.03H1830.11V1570.86H1829.06V1592.03ZM1821.76 1572.54L1825.27 1574.64V1579.97L1822.39 1581.37L1825.27 1582.71V1588.11L1821.76 1590.21H1804.02V1572.54H1821.69H1821.76ZM1821.34 1583.2H1807.88V1586.7H1821.34V1583.2ZM1821.34 1576.05H1807.88V1579.69H1821.34V1576.05ZM1796.31 1593.29H1800.24V1592.03H1797.64V1570.86H1800.24V1569.6H1796.31V1593.29ZM1859 1569.53V1570.79H1861.59V1591.96H1859V1593.22H1862.92V1569.53H1859ZM1753.68 1751.26L1753.05 1750.63V1739.06H1751.36V1750.63L1750.73 1751.26H1739.16V1752.95H1750.73L1751.36 1753.58V1765.15H1753.05V1753.58L1753.68 1752.95H1765.25V1751.26H1753.68ZM1908.43 1906.78L1907.8 1906.15V1894.58H1906.12V1906.15L1905.49 1906.78H1893.92V1908.46H1905.49L1906.12 1909.09V1920.66H1907.8V1909.09L1908.43 1908.46H1920V1906.78H1908.43ZM1851.7 1821.03L1855.21 1823.13V1838.7H1851.35V1831.62H1837.89V1838.7H1834.03V1823.13L1837.54 1821.03H1851.7ZM1851.28 1824.46H1837.82V1828.11H1851.28V1824.46ZM1829.06 1840.45H1830.11V1819.27H1829.06V1840.45ZM1821.76 1821.03L1825.27 1823.13V1828.46L1822.39 1829.86L1825.27 1831.19V1836.59L1821.76 1838.7H1804.02V1821.03H1821.69H1821.76ZM1821.34 1831.62H1807.88V1835.12H1821.34V1831.62ZM1821.34 1824.46H1807.88V1828.11H1821.34V1824.46ZM1796.31 1841.71H1800.24V1840.45H1797.64V1819.27H1800.24V1818.01H1796.31V1841.71ZM1859 1818.01V1819.27H1861.59V1840.45H1859V1841.71H1862.92V1818.01H1859ZM1505.25 12.2L1504.61 11.569V0H1502.93V11.569L1502.3 12.2H1490.73V13.8828H1502.3L1502.93 14.5138V26.0828H1504.61V14.5138L1505.25 13.8828H1516.82V12.2H1505.25ZM1659.93 167.715L1659.3 167.084V155.515H1657.61V167.084L1656.98 167.715H1645.41V169.398H1656.98L1657.61 170.029V181.598H1659.3V170.029L1659.93 169.398H1671.5V167.715H1659.93ZM1603.2 81.8944L1606.71 83.9978V99.5634H1602.85V92.4818H1589.39V99.5634H1585.53V83.9978L1589.04 81.8944H1603.2ZM1602.85 85.4001H1589.39V89.0461H1602.85V85.4001ZM1580.62 101.386H1581.68V80.2116H1580.62V101.386ZM1573.26 81.8944L1576.77 83.9978V89.3266L1573.89 90.7289L1576.77 92.0611V97.4599L1573.26 99.5634H1555.52V81.8944H1573.19H1573.26ZM1572.91 92.5519H1559.45V96.0576H1572.91V92.5519ZM1572.91 85.4001H1559.45V89.0461H1572.91V85.4001ZM1547.88 102.648H1551.8V101.386H1549.21V80.2116H1551.8V78.9495H1547.88V102.648ZM1610.56 78.9495V80.2116H1613.16V101.386H1610.56V102.648H1614.49V78.9495H1610.56ZM1505.25 260.618L1504.61 259.987V248.418H1502.93V259.987L1502.3 260.618H1490.73V262.3H1502.3L1502.93 262.931V274.5H1504.61V262.931L1505.25 262.3H1516.82V260.618H1505.25ZM1659.93 416.133L1659.3 415.502V403.933H1657.61V415.502L1656.98 416.133H1645.41V417.815H1656.98L1657.61 418.447V430.016H1659.3V418.447L1659.93 417.815H1671.5V416.133H1659.93ZM1603.2 330.382L1606.71 332.486V348.051H1602.85V340.969H1589.39V348.051H1585.53V332.486L1589.04 330.382H1603.2ZM1602.85 333.818H1589.39V337.464H1602.85V333.818ZM1580.62 349.804H1581.68V328.629H1580.62V349.804ZM1573.26 330.382L1576.77 332.486V337.814L1573.89 339.217L1576.77 340.549V345.948L1573.26 348.051H1555.52V330.382H1573.19H1573.26ZM1572.91 340.969H1559.45V344.475H1572.91V340.969ZM1572.91 333.818H1559.45V337.464H1572.91V333.818ZM1547.88 351.066H1551.8V349.804H1549.21V328.629H1551.8V327.367H1547.88V351.066ZM1610.56 327.367V328.629H1613.16V349.804H1610.56V351.066H1614.49V327.367H1610.56ZM1505.25 509.035L1504.61 508.404V496.835H1502.93V508.404L1502.3 509.035H1490.73V510.718H1502.3L1502.93 511.349V522.918H1504.61V511.349L1505.25 510.718H1516.82V509.035H1505.25ZM1659.93 664.55L1659.3 663.919V652.35H1657.61V663.919L1656.98 664.55H1645.41V666.233H1656.98L1657.61 666.864V678.433H1659.3V666.864L1659.93 666.233H1671.5V664.55H1659.93ZM1603.2 578.8L1606.71 580.903V596.469H1602.85V589.387H1589.39V596.469H1585.53V580.903L1589.04 578.8H1603.2ZM1602.85 582.305H1589.39V585.951H1602.85V582.305ZM1580.62 598.222H1581.68V577.047H1580.62V598.222ZM1573.26 578.8L1576.77 580.903V586.232L1573.89 587.634L1576.77 588.966V594.365L1573.26 596.469H1555.52V578.8H1573.19H1573.26ZM1572.91 589.457H1559.45V592.963H1572.91V589.457ZM1572.91 582.305H1559.45V585.951H1572.91V582.305ZM1547.88 599.484H1551.8V598.222H1549.21V577.047H1551.8V575.785H1547.88V599.484ZM1610.56 575.785V577.047H1613.16V598.222H1610.56V599.484H1614.49V575.785H1610.56ZM1505.25 757.453L1504.61 756.822V745.253H1502.93V756.822L1502.3 757.453H1490.73V759.136H1502.3L1502.93 759.767V771.336H1504.61V759.767L1505.25 759.136H1516.82V757.453H1505.25ZM1659.93 912.968L1659.3 912.337V900.768H1657.61V912.337L1656.98 912.968H1645.41V914.651H1656.98L1657.61 915.282V926.851H1659.3V915.282L1659.93 914.651H1671.5V912.968H1659.93ZM1603.2 827.217L1606.71 829.321V844.886H1602.85V837.805H1589.39V844.886H1585.53V829.321L1589.04 827.217H1603.2ZM1602.85 830.723H1589.39V834.369H1602.85V830.723ZM1580.62 846.709H1581.68V825.535H1580.62V846.709ZM1573.26 827.217L1576.77 829.321V834.65L1573.89 836.052L1576.77 837.384V842.783L1573.26 844.886H1555.52V827.217H1573.19H1573.26ZM1572.91 837.875H1559.45V841.38H1572.91V837.875ZM1572.91 830.723H1559.45V834.369H1572.91V830.723ZM1547.88 847.971H1551.8V846.709H1549.21V825.535H1551.8V824.273H1547.88V847.971ZM1610.56 824.202V825.464H1613.16V846.639H1610.56V847.901H1614.49V824.202H1610.56ZM1505.25 1005.94L1504.61 1005.31V993.741H1502.93V1005.31L1502.3 1005.94H1490.73V1007.62H1502.3L1502.93 1008.25V1019.82H1504.61V1008.25L1505.25 1007.62H1516.82V1005.94H1505.25ZM1659.93 1161.46L1659.3 1160.82V1149.26H1657.61V1160.82L1656.98 1161.46H1645.41V1163.14H1656.98L1657.61 1163.77V1175.34H1659.3V1163.77L1659.93 1163.14H1671.5V1161.46H1659.93ZM1603.2 1075.71L1606.71 1077.81V1093.37H1602.85V1086.29H1589.39V1093.37H1585.53V1077.81L1589.04 1075.71H1603.2ZM1602.85 1079.14H1589.39V1082.79H1602.85V1079.14ZM1580.62 1095.13H1581.68V1073.95H1580.62V1095.13ZM1573.26 1075.71L1576.77 1077.81V1083.14L1573.89 1084.54L1576.77 1085.87V1091.27L1573.26 1093.37H1555.52V1075.71H1573.19H1573.26ZM1572.91 1086.29H1559.45V1089.8H1572.91V1086.29ZM1572.91 1079.14H1559.45V1082.79H1572.91V1079.14ZM1547.88 1096.39H1551.8V1095.13H1549.21V1073.95H1551.8V1072.69H1547.88V1096.39ZM1610.56 1072.69V1073.95H1613.16V1095.13H1610.56V1096.39H1614.49V1072.69H1610.56ZM1505.25 1254.36L1504.61 1253.73V1242.16H1502.93V1253.73L1502.3 1254.36H1490.73V1256.04H1502.3L1502.93 1256.67V1268.24H1504.61V1256.67L1505.25 1256.04H1516.82V1254.36H1505.25ZM1659.93 1409.87L1659.3 1409.24V1397.67H1657.61V1409.24L1656.98 1409.87H1645.41V1411.56H1656.98L1657.61 1412.19V1423.76H1659.3V1412.19L1659.93 1411.56H1671.5V1409.87H1659.93ZM1603.2 1324.12L1606.71 1326.23V1341.79H1602.85V1334.71H1589.39V1341.79H1585.53V1326.23L1589.04 1324.12H1603.2ZM1602.85 1327.63H1589.39V1331.27H1602.85V1327.63ZM1580.62 1343.54H1581.68V1322.37H1580.62V1343.54ZM1573.26 1324.12L1576.77 1326.23V1331.55L1573.89 1332.96L1576.77 1334.29V1339.69L1573.26 1341.79H1555.52V1324.12H1573.19H1573.26ZM1572.91 1334.71H1559.45V1338.22H1572.91V1334.71ZM1572.91 1327.63H1559.45V1331.27H1572.91V1327.63ZM1547.88 1344.81H1551.8V1343.54H1549.21V1322.37H1551.8V1321.11H1547.88V1344.81ZM1610.56 1321.11V1322.37H1613.16V1343.54H1610.56V1344.81H1614.49V1321.11H1610.56ZM1505.25 1502.78L1504.61 1502.14V1490.58H1502.93V1502.14L1502.3 1502.78H1490.73V1504.46H1502.3L1502.93 1505.09V1516.66H1504.61V1505.09L1505.25 1504.46H1516.82V1502.78H1505.25ZM1659.93 1658.29L1659.3 1657.66V1646.09H1657.61V1657.66L1656.98 1658.29H1645.41V1659.97H1656.98L1657.61 1660.6V1672.17H1659.3V1660.6L1659.93 1659.97H1671.5V1658.29H1659.93ZM1603.2 1572.54L1606.71 1574.64V1590.21H1602.85V1583.13H1589.39V1590.21H1585.53V1574.64L1589.04 1572.54H1603.2ZM1602.85 1576.05H1589.39V1579.69H1602.85V1576.05ZM1580.62 1592.03H1581.68V1570.86H1580.62V1592.03ZM1573.26 1572.54L1576.77 1574.64V1579.97L1573.89 1581.37L1576.77 1582.71V1588.11L1573.26 1590.21H1555.52V1572.54H1573.19H1573.26ZM1572.91 1583.2H1559.45V1586.7H1572.91V1583.2ZM1572.91 1576.05H1559.45V1579.69H1572.91V1576.05ZM1547.88 1593.29H1551.8V1592.03H1549.21V1570.86H1551.8V1569.6H1547.88V1593.29ZM1610.56 1569.53V1570.79H1613.16V1591.96H1610.56V1593.22H1614.49V1569.53H1610.56ZM1505.25 1751.26L1504.61 1750.63V1739.06H1502.93V1750.63L1502.3 1751.26H1490.73V1752.95H1502.3L1502.93 1753.58V1765.15H1504.61V1753.58L1505.25 1752.95H1516.82V1751.26H1505.25ZM1659.93 1906.78L1659.3 1906.15V1894.58H1657.61V1906.15L1656.98 1906.78H1645.41V1908.46H1656.98L1657.61 1909.09V1920.66H1659.3V1909.09L1659.93 1908.46H1671.5V1906.78H1659.93ZM1603.2 1821.03L1606.71 1823.13V1838.7H1602.85V1831.62H1589.39V1838.7H1585.53V1823.13L1589.04 1821.03H1603.2ZM1602.85 1824.46H1589.39V1828.11H1602.85V1824.46ZM1580.62 1840.45H1581.68V1819.27H1580.62V1840.45ZM1573.26 1821.03L1576.77 1823.13V1828.46L1573.89 1829.86L1576.77 1831.19V1836.59L1573.26 1838.7H1555.52V1821.03H1573.19H1573.26ZM1572.91 1831.62H1559.45V1835.12H1572.91V1831.62ZM1572.91 1824.46H1559.45V1828.11H1572.91V1824.46ZM1547.88 1841.71H1551.8V1840.45H1549.21V1819.27H1551.8V1818.01H1547.88V1841.71ZM1610.56 1818.01V1819.27H1613.16V1840.45H1610.56V1841.71H1614.49V1818.01H1610.56ZM1256.81 12.2L1256.18 11.569V0H1254.5V11.569L1253.87 12.2H1242.3V13.8828H1253.87L1254.5 14.5138V26.0828H1256.18V14.5138L1256.81 13.8828H1268.38V12.2H1256.81ZM1411.5 167.715L1410.87 167.084V155.515H1409.18V167.084L1408.55 167.715H1396.98V169.398H1408.55L1409.18 170.029V181.598H1410.87V170.029L1411.5 169.398H1423.07V167.715H1411.5ZM1354.77 81.8944L1358.28 83.9978V99.5634H1354.42V92.4818H1340.96V99.5634H1337.1V83.9978L1340.61 81.8944H1354.77ZM1354.42 85.4001H1340.96V89.0461H1354.42V85.4001ZM1332.19 101.386H1333.24V80.2116H1332.19V101.386ZM1324.83 81.8944L1328.34 83.9978V89.3266L1325.46 90.7289L1328.34 92.0611V97.4599L1324.83 99.5634H1307.09V81.8944H1324.76H1324.83ZM1324.48 92.5519H1311.02V96.0576H1324.48V92.5519ZM1324.48 85.4001H1311.02V89.0461H1324.48V85.4001ZM1299.38 102.648H1303.3V101.386H1300.71V80.2116H1303.3V78.9495H1299.38V102.648ZM1362.13 78.9495V80.2116H1364.73V101.386H1362.13V102.648H1366.06V78.9495H1362.13ZM1256.81 260.618L1256.18 259.987V248.418H1254.5V259.987L1253.87 260.618H1242.3V262.3H1253.87L1254.5 262.931V274.5H1256.18V262.931L1256.81 262.3H1268.38V260.618H1256.81ZM1411.5 416.133L1410.87 415.502V403.933H1409.18V415.502L1408.55 416.133H1396.98V417.815H1408.55L1409.18 418.447V430.016H1410.87V418.447L1411.5 417.815H1423.07V416.133H1411.5ZM1354.77 330.382L1358.28 332.486V348.051H1354.42V340.969H1340.96V348.051H1337.1V332.486L1340.61 330.382H1354.77ZM1354.42 333.818H1340.96V337.464H1354.42V333.818ZM1332.19 349.804H1333.24V328.629H1332.19V349.804ZM1324.83 330.382L1328.34 332.486V337.814L1325.46 339.217L1328.34 340.549V345.948L1324.83 348.051H1307.09V330.382H1324.76H1324.83ZM1324.48 340.969H1311.02V344.475H1324.48V340.969ZM1324.48 333.818H1311.02V337.464H1324.48V333.818ZM1299.38 351.066H1303.3V349.804H1300.71V328.629H1303.3V327.367H1299.38V351.066ZM1362.13 327.367V328.629H1364.73V349.804H1362.13V351.066H1366.06V327.367H1362.13ZM1256.81 509.035L1256.18 508.404V496.835H1254.5V508.404L1253.87 509.035H1242.3V510.718H1253.87L1254.5 511.349V522.918H1256.18V511.349L1256.81 510.718H1268.38V509.035H1256.81ZM1411.5 664.55L1410.87 663.919V652.35H1409.18V663.919L1408.55 664.55H1396.98V666.233H1408.55L1409.18 666.864V678.433H1410.87V666.864L1411.5 666.233H1423.07V664.55H1411.5ZM1354.77 578.8L1358.28 580.903V596.469H1354.42V589.387H1340.96V596.469H1337.1V580.903L1340.61 578.8H1354.77ZM1354.42 582.305H1340.96V585.951H1354.42V582.305ZM1332.19 598.222H1333.24V577.047H1332.19V598.222ZM1324.83 578.8L1328.34 580.903V586.232L1325.46 587.634L1328.34 588.966V594.365L1324.83 596.469H1307.09V578.8H1324.76H1324.83ZM1324.48 589.457H1311.02V592.963H1324.48V589.457ZM1324.48 582.305H1311.02V585.951H1324.48V582.305ZM1299.38 599.484H1303.3V598.222H1300.71V577.047H1303.3V575.785H1299.38V599.484ZM1362.13 575.785V577.047H1364.73V598.222H1362.13V599.484H1366.06V575.785H1362.13ZM1256.81 757.453L1256.18 756.822V745.253H1254.5V756.822L1253.87 757.453H1242.3V759.136H1253.87L1254.5 759.767V771.336H1256.18V759.767L1256.81 759.136H1268.38V757.453H1256.81ZM1411.5 912.968L1410.87 912.337V900.768H1409.18V912.337L1408.55 912.968H1396.98V914.651H1408.55L1409.18 915.282V926.851H1410.87V915.282L1411.5 914.651H1423.07V912.968H1411.5ZM1354.77 827.217L1358.28 829.321V844.886H1354.42V837.805H1340.96V844.886H1337.1V829.321L1340.61 827.217H1354.77ZM1354.42 830.723H1340.96V834.369H1354.42V830.723ZM1332.19 846.709H1333.24V825.535H1332.19V846.709ZM1324.83 827.217L1328.34 829.321V834.65L1325.46 836.052L1328.34 837.384V842.783L1324.83 844.886H1307.09V827.217H1324.76H1324.83ZM1324.48 837.875H1311.02V841.38H1324.48V837.875ZM1324.48 830.723H1311.02V834.369H1324.48V830.723ZM1299.38 847.971H1303.3V846.709H1300.71V825.535H1303.3V824.273H1299.38V847.971ZM1362.13 824.202V825.464H1364.73V846.639H1362.13V847.901H1366.06V824.202H1362.13ZM1256.81 1005.94L1256.18 1005.31V993.741H1254.5V1005.31L1253.87 1005.94H1242.3V1007.62H1253.87L1254.5 1008.25V1019.82H1256.18V1008.25L1256.81 1007.62H1268.38V1005.94H1256.81ZM1411.5 1161.46L1410.87 1160.82V1149.26H1409.18V1160.82L1408.55 1161.46H1396.98V1163.14H1408.55L1409.18 1163.77V1175.34H1410.87V1163.77L1411.5 1163.14H1423.07V1161.46H1411.5ZM1354.77 1075.71L1358.28 1077.81V1093.37H1354.42V1086.29H1340.96V1093.37H1337.1V1077.81L1340.61 1075.71H1354.77ZM1354.42 1079.14H1340.96V1082.79H1354.42V1079.14ZM1332.19 1095.13H1333.24V1073.95H1332.19V1095.13ZM1324.83 1075.71L1328.34 1077.81V1083.14L1325.46 1084.54L1328.34 1085.87V1091.27L1324.83 1093.37H1307.09V1075.71H1324.76H1324.83ZM1324.48 1086.29H1311.02V1089.8H1324.48V1086.29ZM1324.48 1079.14H1311.02V1082.79H1324.48V1079.14ZM1299.38 1096.39H1303.3V1095.13H1300.71V1073.95H1303.3V1072.69H1299.38V1096.39ZM1362.13 1072.69V1073.95H1364.73V1095.13H1362.13V1096.39H1366.06V1072.69H1362.13ZM1256.81 1254.36L1256.18 1253.73V1242.16H1254.5V1253.73L1253.87 1254.36H1242.3V1256.04H1253.87L1254.5 1256.67V1268.24H1256.18V1256.67L1256.81 1256.04H1268.38V1254.36H1256.81ZM1411.5 1409.87L1410.87 1409.24V1397.67H1409.18V1409.24L1408.55 1409.87H1396.98V1411.56H1408.55L1409.18 1412.19V1423.76H1410.87V1412.19L1411.5 1411.56H1423.07V1409.87H1411.5ZM1354.77 1324.12L1358.28 1326.23V1341.79H1354.42V1334.71H1340.96V1341.79H1337.1V1326.23L1340.61 1324.12H1354.77ZM1354.42 1327.63H1340.96V1331.27H1354.42V1327.63ZM1332.19 1343.54H1333.24V1322.37H1332.19V1343.54ZM1324.83 1324.12L1328.34 1326.23V1331.55L1325.46 1332.96L1328.34 1334.29V1339.69L1324.83 1341.79H1307.09V1324.12H1324.76H1324.83ZM1324.48 1334.71H1311.02V1338.22H1324.48V1334.71ZM1324.48 1327.63H1311.02V1331.27H1324.48V1327.63ZM1299.38 1344.81H1303.3V1343.54H1300.71V1322.37H1303.3V1321.11H1299.38V1344.81ZM1362.13 1321.11V1322.37H1364.73V1343.54H1362.13V1344.81H1366.06V1321.11H1362.13ZM1256.81 1502.78L1256.18 1502.14V1490.58H1254.5V1502.14L1253.87 1502.78H1242.3V1504.46H1253.87L1254.5 1505.09V1516.66H1256.18V1505.09L1256.81 1504.46H1268.38V1502.78H1256.81ZM1411.5 1658.29L1410.87 1657.66V1646.09H1409.18V1657.66L1408.55 1658.29H1396.98V1659.97H1408.55L1409.18 1660.6V1672.17H1410.87V1660.6L1411.5 1659.97H1423.07V1658.29H1411.5ZM1354.77 1572.54L1358.28 1574.64V1590.21H1354.42V1583.13H1340.96V1590.21H1337.1V1574.64L1340.61 1572.54H1354.77ZM1354.42 1576.05H1340.96V1579.69H1354.42V1576.05ZM1332.19 1592.03H1333.24V1570.86H1332.19V1592.03ZM1324.83 1572.54L1328.34 1574.64V1579.97L1325.46 1581.37L1328.34 1582.71V1588.11L1324.83 1590.21H1307.09V1572.54H1324.76H1324.83ZM1324.48 1583.2H1311.02V1586.7H1324.48V1583.2ZM1324.48 1576.05H1311.02V1579.69H1324.48V1576.05ZM1299.38 1593.29H1303.3V1592.03H1300.71V1570.86H1303.3V1569.6H1299.38V1593.29ZM1362.13 1569.53V1570.79H1364.73V1591.96H1362.13V1593.22H1366.06V1569.53H1362.13ZM1256.81 1751.26L1256.18 1750.63V1739.06H1254.5V1750.63L1253.87 1751.26H1242.3V1752.95H1253.87L1254.5 1753.58V1765.15H1256.18V1753.58L1256.81 1752.95H1268.38V1751.26H1256.81ZM1411.5 1906.78L1410.87 1906.15V1894.58H1409.18V1906.15L1408.55 1906.78H1396.98V1908.46H1408.55L1409.18 1909.09V1920.66H1410.87V1909.09L1411.5 1908.46H1423.07V1906.78H1411.5ZM1354.77 1821.03L1358.28 1823.13V1838.7H1354.42V1831.62H1340.96V1838.7H1337.1V1823.13L1340.61 1821.03H1354.77ZM1354.42 1824.46H1340.96V1828.11H1354.42V1824.46ZM1332.19 1840.45H1333.24V1819.27H1332.19V1840.45ZM1324.83 1821.03L1328.34 1823.13V1828.46L1325.46 1829.86L1328.34 1831.19V1836.59L1324.83 1838.7H1307.09V1821.03H1324.76H1324.83ZM1324.48 1831.62H1311.02V1835.12H1324.48V1831.62ZM1324.48 1824.46H1311.02V1828.11H1324.48V1824.46ZM1299.38 1841.71H1303.3V1840.45H1300.71V1819.27H1303.3V1818.01H1299.38V1841.71ZM1362.13 1818.01V1819.27H1364.73V1840.45H1362.13V1841.71H1366.06V1818.01H1362.13ZM1008.31 12.2L1007.68 11.569V0H1006V11.569L1005.37 12.2H993.797V13.8828H1005.37L1006 14.5138V26.0828H1007.68V14.5138L1008.31 13.8828H1019.88V12.2H1008.31ZM1163.06 167.715L1162.43 167.084V155.515H1160.75V167.084L1160.12 167.715H1148.55V169.398H1160.12L1160.75 170.029V181.598H1162.43V170.029L1163.06 169.398H1174.63V167.715H1163.06ZM1106.34 81.8944L1109.84 83.9978V99.5634H1105.99V92.4818H1092.53V99.5634H1088.67V83.9978L1092.17 81.8944H1106.34ZM1105.92 85.4001H1092.45V89.0461H1105.92V85.4001ZM1083.69 101.386H1084.74V80.2116H1083.69V101.386ZM1076.4 81.8944L1079.9 83.9978V89.3266L1077.03 90.7289L1079.9 92.0611V97.4599L1076.4 99.5634H1058.66V81.8944H1076.33H1076.4ZM1075.98 92.5519H1062.51V96.0576H1075.98V92.5519ZM1075.98 85.4001H1062.51V89.0461H1075.98V85.4001ZM1050.94 102.648H1054.87V101.386H1052.28V80.2116H1054.87V78.9495H1050.94V102.648ZM1113.63 78.9495V80.2116H1116.23V101.386H1113.63V102.648H1117.56V78.9495H1113.63ZM1008.31 260.618L1007.68 259.987V248.418H1006V259.987L1005.37 260.618H993.797V262.3H1005.37L1006 262.931V274.5H1007.68V262.931L1008.31 262.3H1019.88V260.618H1008.31ZM1163.06 416.133L1162.43 415.502V403.933H1160.75V415.502L1160.12 416.133H1148.55V417.815H1160.12L1160.75 418.447V430.016H1162.43V418.447L1163.06 417.815H1174.63V416.133H1163.06ZM1106.34 330.382L1109.84 332.486V348.051H1105.99V340.969H1092.53V348.051H1088.67V332.486L1092.17 330.382H1106.34ZM1105.92 333.818H1092.45V337.464H1105.92V333.818ZM1083.69 349.804H1084.74V328.629H1083.69V349.804ZM1076.4 330.382L1079.9 332.486V337.814L1077.03 339.217L1079.9 340.549V345.948L1076.4 348.051H1058.66V330.382H1076.33H1076.4ZM1075.98 340.969H1062.51V344.475H1075.98V340.969ZM1075.98 333.818H1062.51V337.464H1075.98V333.818ZM1050.94 351.066H1054.87V349.804H1052.28V328.629H1054.87V327.367H1050.94V351.066ZM1113.63 327.367V328.629H1116.23V349.804H1113.63V351.066H1117.56V327.367H1113.63ZM1008.31 509.035L1007.68 508.404V496.835H1006V508.404L1005.37 509.035H993.797V510.718H1005.37L1006 511.349V522.918H1007.68V511.349L1008.31 510.718H1019.88V509.035H1008.31ZM1163.06 664.55L1162.43 663.919V652.35H1160.75V663.919L1160.12 664.55H1148.55V666.233H1160.12L1160.75 666.864V678.433H1162.43V666.864L1163.06 666.233H1174.63V664.55H1163.06ZM1106.34 578.8L1109.84 580.903V596.469H1105.99V589.387H1092.53V596.469H1088.67V580.903L1092.17 578.8H1106.34ZM1105.92 582.305H1092.45V585.951H1105.92V582.305ZM1083.69 598.222H1084.74V577.047H1083.69V598.222ZM1076.4 578.8L1079.9 580.903V586.232L1077.03 587.634L1079.9 588.966V594.365L1076.4 596.469H1058.66V578.8H1076.33H1076.4ZM1075.98 589.457H1062.51V592.963H1075.98V589.457ZM1075.98 582.305H1062.51V585.951H1075.98V582.305ZM1050.94 599.484H1054.87V598.222H1052.28V577.047H1054.87V575.785H1050.94V599.484ZM1113.63 575.785V577.047H1116.23V598.222H1113.63V599.484H1117.56V575.785H1113.63ZM1008.31 757.453L1007.68 756.822V745.253H1006V756.822L1005.37 757.453H993.797V759.136H1005.37L1006 759.767V771.336H1007.68V759.767L1008.31 759.136H1019.88V757.453H1008.31ZM1163.06 912.968L1162.43 912.337V900.768H1160.75V912.337L1160.12 912.968H1148.55V914.651H1160.12L1160.75 915.282V926.851H1162.43V915.282L1163.06 914.651H1174.63V912.968H1163.06ZM1106.34 827.217L1109.84 829.321V844.886H1105.99V837.805H1092.53V844.886H1088.67V829.321L1092.17 827.217H1106.34ZM1105.92 830.723H1092.45V834.369H1105.92V830.723ZM1083.69 846.709H1084.74V825.535H1083.69V846.709ZM1076.4 827.217L1079.9 829.321V834.65L1077.03 836.052L1079.9 837.384V842.783L1076.4 844.886H1058.66V827.217H1076.33H1076.4ZM1075.98 837.875H1062.51V841.38H1075.98V837.875ZM1075.98 830.723H1062.51V834.369H1075.98V830.723ZM1050.94 847.971H1054.87V846.709H1052.28V825.535H1054.87V824.273H1050.94V847.971ZM1113.63 824.202V825.464H1116.23V846.639H1113.63V847.901H1117.56V824.202H1113.63ZM1008.31 1005.94L1007.68 1005.31V993.741H1006V1005.31L1005.37 1005.94H993.797V1007.62H1005.37L1006 1008.25V1019.82H1007.68V1008.25L1008.31 1007.62H1019.88V1005.94H1008.31ZM1163.06 1161.46L1162.43 1160.82V1149.26H1160.75V1160.82L1160.12 1161.46H1148.55V1163.14H1160.12L1160.75 1163.77V1175.34H1162.43V1163.77L1163.06 1163.14H1174.63V1161.46H1163.06ZM1106.34 1075.71L1109.84 1077.81V1093.37H1105.99V1086.29H1092.53V1093.37H1088.67V1077.81L1092.17 1075.71H1106.34ZM1105.92 1079.14H1092.45V1082.79H1105.92V1079.14ZM1083.69 1095.13H1084.74V1073.95H1083.69V1095.13ZM1076.4 1075.71L1079.9 1077.81V1083.14L1077.03 1084.54L1079.9 1085.87V1091.27L1076.4 1093.37H1058.66V1075.71H1076.33H1076.4ZM1075.98 1086.29H1062.51V1089.8H1075.98V1086.29ZM1075.98 1079.14H1062.51V1082.79H1075.98V1079.14ZM1050.94 1096.39H1054.87V1095.13H1052.28V1073.95H1054.87V1072.69H1050.94V1096.39ZM1113.63 1072.69V1073.95H1116.23V1095.13H1113.63V1096.39H1117.56V1072.69H1113.63ZM1008.31 1254.36L1007.68 1253.73V1242.16H1006V1253.73L1005.37 1254.36H993.797V1256.04H1005.37L1006 1256.67V1268.24H1007.68V1256.67L1008.31 1256.04H1019.88V1254.36H1008.31ZM1163.06 1409.87L1162.43 1409.24V1397.67H1160.75V1409.24L1160.12 1409.87H1148.55V1411.56H1160.12L1160.75 1412.19V1423.76H1162.43V1412.19L1163.06 1411.56H1174.63V1409.87H1163.06ZM1106.34 1324.12L1109.84 1326.23V1341.79H1105.99V1334.71H1092.53V1341.79H1088.67V1326.23L1092.17 1324.12H1106.34ZM1105.92 1327.63H1092.45V1331.27H1105.92V1327.63ZM1083.69 1343.54H1084.74V1322.37H1083.69V1343.54ZM1076.4 1324.12L1079.9 1326.23V1331.55L1077.03 1332.96L1079.9 1334.29V1339.69L1076.4 1341.79H1058.66V1324.12H1076.33H1076.4ZM1075.98 1334.71H1062.51V1338.22H1075.98V1334.71ZM1075.98 1327.63H1062.51V1331.27H1075.98V1327.63ZM1050.94 1344.81H1054.87V1343.54H1052.28V1322.37H1054.87V1321.11H1050.94V1344.81ZM1113.63 1321.11V1322.37H1116.23V1343.54H1113.63V1344.81H1117.56V1321.11H1113.63ZM1008.31 1502.78L1007.68 1502.14V1490.58H1006V1502.14L1005.37 1502.78H993.797V1504.46H1005.37L1006 1505.09V1516.66H1007.68V1505.09L1008.31 1504.46H1019.88V1502.78H1008.31ZM1163.06 1658.29L1162.43 1657.66V1646.09H1160.75V1657.66L1160.12 1658.29H1148.55V1659.97H1160.12L1160.75 1660.6V1672.17H1162.43V1660.6L1163.06 1659.97H1174.63V1658.29H1163.06ZM1106.34 1572.54L1109.84 1574.64V1590.21H1105.99V1583.13H1092.53V1590.21H1088.67V1574.64L1092.17 1572.54H1106.34ZM1105.92 1576.05H1092.45V1579.69H1105.92V1576.05ZM1083.69 1592.03H1084.74V1570.86H1083.69V1592.03ZM1076.4 1572.54L1079.9 1574.64V1579.97L1077.03 1581.37L1079.9 1582.71V1588.11L1076.4 1590.21H1058.66V1572.54H1076.33H1076.4ZM1075.98 1583.2H1062.51V1586.7H1075.98V1583.2ZM1075.98 1576.05H1062.51V1579.69H1075.98V1576.05ZM1050.94 1593.29H1054.87V1592.03H1052.28V1570.86H1054.87V1569.6H1050.94V1593.29ZM1113.63 1569.53V1570.79H1116.23V1591.96H1113.63V1593.22H1117.56V1569.53H1113.63ZM1008.31 1751.26L1007.68 1750.63V1739.06H1006V1750.63L1005.37 1751.26H993.797V1752.95H1005.37L1006 1753.58V1765.15H1007.68V1753.58L1008.31 1752.95H1019.88V1751.26H1008.31ZM1163.06 1906.78L1162.43 1906.15V1894.58H1160.75V1906.15L1160.12 1906.78H1148.55V1908.46H1160.12L1160.75 1909.09V1920.66H1162.43V1909.09L1163.06 1908.46H1174.63V1906.78H1163.06ZM1106.34 1821.03L1109.84 1823.13V1838.7H1105.99V1831.62H1092.53V1838.7H1088.67V1823.13L1092.17 1821.03H1106.34ZM1105.92 1824.46H1092.45V1828.11H1105.92V1824.46ZM1083.69 1840.45H1084.74V1819.27H1083.69V1840.45ZM1076.4 1821.03L1079.9 1823.13V1828.46L1077.03 1829.86L1079.9 1831.19V1836.59L1076.4 1838.7H1058.66V1821.03H1076.33H1076.4ZM1075.98 1831.62H1062.51V1835.12H1075.98V1831.62ZM1075.98 1824.46H1062.51V1828.11H1075.98V1824.46ZM1050.94 1841.71H1054.87V1840.45H1052.28V1819.27H1054.87V1818.01H1050.94V1841.71ZM1113.63 1818.01V1819.27H1116.23V1840.45H1113.63V1841.71H1117.56V1818.01H1113.63ZM759.88 12.2L759.249 11.569V0H757.566V11.569L756.935 12.2H745.366V13.8828H756.935L757.566 14.5138V26.0828H759.249V14.5138L759.88 13.8828H771.45V12.2H759.88ZM914.633 167.715L914.002 167.084V155.515H912.319V167.084L911.688 167.715H900.118V169.398H911.688L912.319 170.029V181.598H914.002V170.029L914.633 169.398H926.203V167.715H914.633ZM857.837 81.8944L861.343 83.9978V99.5634H857.486V92.4818H844.023V99.5634H840.167V83.9978L843.673 81.8944H857.837ZM857.486 85.4001H844.023V89.0461H857.486V85.4001ZM835.258 101.386H836.31V80.2116H835.258V101.386ZM827.896 81.8944L831.402 83.9978V89.3266L828.527 90.7289L831.402 92.0611V97.4599L827.896 99.5634H810.156V81.8944H827.826H827.896ZM827.545 92.5519H814.082V96.0576H827.545V92.5519ZM827.545 85.4001H814.082V89.0461H827.545V85.4001ZM802.513 102.648H806.439V101.386H803.845V80.2116H806.439V78.9495H802.513V102.648ZM865.199 78.9495V80.2116H867.794V101.386H865.199V102.648H869.126V78.9495H865.199ZM759.88 260.618L759.249 259.987V248.418H757.566V259.987L756.935 260.618H745.366V262.3H756.935L757.566 262.931V274.5H759.249V262.931L759.88 262.3H771.45V260.618H759.88ZM914.633 416.133L914.002 415.502V403.933H912.319V415.502L911.688 416.133H900.118V417.815H911.688L912.319 418.447V430.016H914.002V418.447L914.633 417.815H926.203V416.133H914.633ZM857.837 330.382L861.343 332.486V348.051H857.486V340.969H844.023V348.051H840.167V332.486L843.673 330.382H857.837ZM857.486 333.818H844.023V337.464H857.486V333.818ZM835.258 349.804H836.31V328.629H835.258V349.804ZM827.896 330.382L831.402 332.486V337.814L828.527 339.217L831.402 340.549V345.948L827.896 348.051H810.156V330.382H827.826H827.896ZM827.545 340.969H814.082V344.475H827.545V340.969ZM827.545 333.818H814.082V337.464H827.545V333.818ZM802.513 351.066H806.439V349.804H803.845V328.629H806.439V327.367H802.513V351.066ZM865.199 327.367V328.629H867.794V349.804H865.199V351.066H869.126V327.367H865.199ZM759.88 509.035L759.249 508.404V496.835H757.566V508.404L756.935 509.035H745.366V510.718H756.935L757.566 511.349V522.918H759.249V511.349L759.88 510.718H771.45V509.035H759.88ZM914.633 664.55L914.002 663.919V652.35H912.319V663.919L911.688 664.55H900.118V666.233H911.688L912.319 666.864V678.433H914.002V666.864L914.633 666.233H926.203V664.55H914.633ZM857.837 578.8L861.343 580.903V596.469H857.486V589.387H844.023V596.469H840.167V580.903L843.673 578.8H857.837ZM857.486 582.305H844.023V585.951H857.486V582.305ZM835.258 598.222H836.31V577.047H835.258V598.222ZM827.896 578.8L831.402 580.903V586.232L828.527 587.634L831.402 588.966V594.365L827.896 596.469H810.156V578.8H827.826H827.896ZM827.545 589.457H814.082V592.963H827.545V589.457ZM827.545 582.305H814.082V585.951H827.545V582.305ZM802.513 599.484H806.439V598.222H803.845V577.047H806.439V575.785H802.513V599.484ZM865.199 575.785V577.047H867.794V598.222H865.199V599.484H869.126V575.785H865.199ZM759.88 757.453L759.249 756.822V745.253H757.566V756.822L756.935 757.453H745.366V759.136H756.935L757.566 759.767V771.336H759.249V759.767L759.88 759.136H771.45V757.453H759.88ZM914.633 912.968L914.002 912.337V900.768H912.319V912.337L911.688 912.968H900.118V914.651H911.688L912.319 915.282V926.851H914.002V915.282L914.633 914.651H926.203V912.968H914.633ZM857.837 827.217L861.343 829.321V844.886H857.486V837.805H844.023V844.886H840.167V829.321L843.673 827.217H857.837ZM857.486 830.723H844.023V834.369H857.486V830.723ZM835.258 846.709H836.31V825.535H835.258V846.709ZM827.896 827.217L831.402 829.321V834.65L828.527 836.052L831.402 837.384V842.783L827.896 844.886H810.156V827.217H827.826H827.896ZM827.545 837.875H814.082V841.38H827.545V837.875ZM827.545 830.723H814.082V834.369H827.545V830.723ZM802.513 847.971H806.439V846.709H803.845V825.535H806.439V824.273H802.513V847.971ZM865.199 824.202V825.464H867.794V846.639H865.199V847.901H869.126V824.202H865.199ZM759.88 1005.94L759.249 1005.31V993.741H757.566V1005.31L756.935 1005.94H745.366V1007.62H756.935L757.566 1008.25V1019.82H759.249V1008.25L759.88 1007.62H771.45V1005.94H759.88ZM914.633 1161.46L914.002 1160.82V1149.26H912.319V1160.82L911.688 1161.46H900.118V1163.14H911.688L912.319 1163.77V1175.34H914.002V1163.77L914.633 1163.14H926.203V1161.46H914.633ZM857.837 1075.71L861.343 1077.81V1093.37H857.486V1086.29H844.023V1093.37H840.167V1077.81L843.673 1075.71H857.837ZM857.486 1079.14H844.023V1082.79H857.486V1079.14ZM835.258 1095.13H836.31V1073.95H835.258V1095.13ZM827.896 1075.71L831.402 1077.81V1083.14L828.527 1084.54L831.402 1085.87V1091.27L827.896 1093.37H810.156V1075.71H827.826H827.896ZM827.545 1086.29H814.082V1089.8H827.545V1086.29ZM827.545 1079.14H814.082V1082.79H827.545V1079.14ZM802.513 1096.39H806.439V1095.13H803.845V1073.95H806.439V1072.69H802.513V1096.39ZM865.199 1072.69V1073.95H867.794V1095.13H865.199V1096.39H869.126V1072.69H865.199ZM759.88 1254.36L759.249 1253.73V1242.16H757.566V1253.73L756.935 1254.36H745.366V1256.04H756.935L757.566 1256.67V1268.24H759.249V1256.67L759.88 1256.04H771.45V1254.36H759.88ZM914.633 1409.87L914.002 1409.24V1397.67H912.319V1409.24L911.688 1409.87H900.118V1411.56H911.688L912.319 1412.19V1423.76H914.002V1412.19L914.633 1411.56H926.203V1409.87H914.633ZM857.837 1324.12L861.343 1326.23V1341.79H857.486V1334.71H844.023V1341.79H840.167V1326.23L843.673 1324.12H857.837ZM857.486 1327.63H844.023V1331.27H857.486V1327.63ZM835.258 1343.54H836.31V1322.37H835.258V1343.54ZM827.896 1324.12L831.402 1326.23V1331.55L828.527 1332.96L831.402 1334.29V1339.69L827.896 1341.79H810.156V1324.12H827.826H827.896ZM827.545 1334.71H814.082V1338.22H827.545V1334.71ZM827.545 1327.63H814.082V1331.27H827.545V1327.63ZM802.513 1344.81H806.439V1343.54H803.845V1322.37H806.439V1321.11H802.513V1344.81ZM865.199 1321.11V1322.37H867.794V1343.54H865.199V1344.81H869.126V1321.11H865.199ZM759.88 1502.78L759.249 1502.14V1490.58H757.566V1502.14L756.935 1502.78H745.366V1504.46H756.935L757.566 1505.09V1516.66H759.249V1505.09L759.88 1504.46H771.45V1502.78H759.88ZM914.633 1658.29L914.002 1657.66V1646.09H912.319V1657.66L911.688 1658.29H900.118V1659.97H911.688L912.319 1660.6V1672.17H914.002V1660.6L914.633 1659.97H926.203V1658.29H914.633ZM857.837 1572.54L861.343 1574.64V1590.21H857.486V1583.13H844.023V1590.21H840.167V1574.64L843.673 1572.54H857.837ZM857.486 1576.05H844.023V1579.69H857.486V1576.05ZM835.258 1592.03H836.31V1570.86H835.258V1592.03ZM827.896 1572.54L831.402 1574.64V1579.97L828.527 1581.37L831.402 1582.71V1588.11L827.896 1590.21H810.156V1572.54H827.826H827.896ZM827.545 1583.2H814.082V1586.7H827.545V1583.2ZM827.545 1576.05H814.082V1579.69H827.545V1576.05ZM802.513 1593.29H806.439V1592.03H803.845V1570.86H806.439V1569.6H802.513V1593.29ZM865.199 1569.53V1570.79H867.794V1591.96H865.199V1593.22H869.126V1569.53H865.199ZM759.88 1751.26L759.249 1750.63V1739.06H757.566V1750.63L756.935 1751.26H745.366V1752.95H756.935L757.566 1753.58V1765.15H759.249V1753.58L759.88 1752.95H771.45V1751.26H759.88ZM914.633 1906.78L914.002 1906.15V1894.58H912.319V1906.15L911.688 1906.78H900.118V1908.46H911.688L912.319 1909.09V1920.66H914.002V1909.09L914.633 1908.46H926.203V1906.78H914.633ZM857.837 1821.03L861.343 1823.13V1838.7H857.486V1831.62H844.023V1838.7H840.167V1823.13L843.673 1821.03H857.837ZM857.486 1824.46H844.023V1828.11H857.486V1824.46ZM835.258 1840.45H836.31V1819.27H835.258V1840.45ZM827.896 1821.03L831.402 1823.13V1828.46L828.527 1829.86L831.402 1831.19V1836.59L827.896 1838.7H810.156V1821.03H827.826H827.896ZM827.545 1831.62H814.082V1835.12H827.545V1831.62ZM827.545 1824.46H814.082V1828.11H827.545V1824.46ZM802.513 1841.71H806.439V1840.45H803.845V1819.27H806.439V1818.01H802.513V1841.71ZM865.199 1818.01V1819.27H867.794V1840.45H865.199V1841.71H869.126V1818.01H865.199ZM511.448 12.2L510.817 11.569V0H509.134V11.569L508.503 12.2H496.934V13.8828H508.503L509.134 14.5138V26.0828H510.817V14.5138L511.448 13.8828H523.018V12.2H511.448ZM666.131 167.715L665.5 167.084V155.515H663.817V167.084L663.186 167.715H651.616V169.398H663.186L663.817 170.029V181.598H665.5V170.029L666.131 169.398H677.701V167.715H666.131ZM609.405 81.8944L612.911 83.9978V99.5634H609.054V92.4818H595.591V99.5634H591.735V83.9978L595.241 81.8944H609.405ZM609.054 85.4001H595.591V89.0461H609.054V85.4001ZM586.826 101.386H587.878V80.2116H586.826V101.386ZM579.464 81.8944L582.97 83.9978V89.3266L580.095 90.7289L582.97 92.0611V97.4599L579.464 99.5634H561.724V81.8944H579.394H579.464ZM579.113 92.5519H565.65V96.0576H579.113V92.5519ZM579.113 85.4001H565.65V89.0461H579.113V85.4001ZM554.011 102.648H557.937V101.386H555.343V80.2116H557.937V78.9495H554.011V102.648ZM616.767 78.9495V80.2116H619.362V101.386H616.767V102.648H620.694V78.9495H616.767ZM511.448 260.618L510.817 259.987V248.418H509.134V259.987L508.503 260.618H496.934V262.3H508.503L509.134 262.931V274.5H510.817V262.931L511.448 262.3H523.018V260.618H511.448ZM666.131 416.133L665.5 415.502V403.933H663.817V415.502L663.186 416.133H651.616V417.815H663.186L663.817 418.447V430.016H665.5V418.447L666.131 417.815H677.701V416.133H666.131ZM609.405 330.382L612.911 332.486V348.051H609.054V340.969H595.591V348.051H591.735V332.486L595.241 330.382H609.405ZM609.054 333.818H595.591V337.464H609.054V333.818ZM586.826 349.804H587.878V328.629H586.826V349.804ZM579.464 330.382L582.97 332.486V337.814L580.095 339.217L582.97 340.549V345.948L579.464 348.051H561.724V330.382H579.394H579.464ZM579.113 340.969H565.65V344.475H579.113V340.969ZM579.113 333.818H565.65V337.464H579.113V333.818ZM554.011 351.066H557.937V349.804H555.343V328.629H557.937V327.367H554.011V351.066ZM616.767 327.367V328.629H619.362V349.804H616.767V351.066H620.694V327.367H616.767ZM511.448 509.035L510.817 508.404V496.835H509.134V508.404L508.503 509.035H496.934V510.718H508.503L509.134 511.349V522.918H510.817V511.349L511.448 510.718H523.018V509.035H511.448ZM666.131 664.55L665.5 663.919V652.35H663.817V663.919L663.186 664.55H651.616V666.233H663.186L663.817 666.864V678.433H665.5V666.864L666.131 666.233H677.701V664.55H666.131ZM609.405 578.8L612.911 580.903V596.469H609.054V589.387H595.591V596.469H591.735V580.903L595.241 578.8H609.405ZM609.054 582.305H595.591V585.951H609.054V582.305ZM586.826 598.222H587.878V577.047H586.826V598.222ZM579.464 578.8L582.97 580.903V586.232L580.095 587.634L582.97 588.966V594.365L579.464 596.469H561.724V578.8H579.394H579.464ZM579.113 589.457H565.65V592.963H579.113V589.457ZM579.113 582.305H565.65V585.951H579.113V582.305ZM554.011 599.484H557.937V598.222H555.343V577.047H557.937V575.785H554.011V599.484ZM616.767 575.785V577.047H619.362V598.222H616.767V599.484H620.694V575.785H616.767ZM511.448 757.453L510.817 756.822V745.253H509.134V756.822L508.503 757.453H496.934V759.136H508.503L509.134 759.767V771.336H510.817V759.767L511.448 759.136H523.018V757.453H511.448ZM666.131 912.968L665.5 912.337V900.768H663.817V912.337L663.186 912.968H651.616V914.651H663.186L663.817 915.282V926.851H665.5V915.282L666.131 914.651H677.701V912.968H666.131ZM609.405 827.217L612.911 829.321V844.886H609.054V837.805H595.591V844.886H591.735V829.321L595.241 827.217H609.405ZM609.054 830.723H595.591V834.369H609.054V830.723ZM586.826 846.709H587.878V825.535H586.826V846.709ZM579.464 827.217L582.97 829.321V834.65L580.095 836.052L582.97 837.384V842.783L579.464 844.886H561.724V827.217H579.394H579.464ZM579.113 837.875H565.65V841.38H579.113V837.875ZM579.113 830.723H565.65V834.369H579.113V830.723ZM554.011 847.971H557.937V846.709H555.343V825.535H557.937V824.273H554.011V847.971ZM616.767 824.202V825.464H619.362V846.639H616.767V847.901H620.694V824.202H616.767ZM511.448 1005.94L510.817 1005.31V993.741H509.134V1005.31L508.503 1005.94H496.934V1007.62H508.503L509.134 1008.25V1019.82H510.817V1008.25L511.448 1007.62H523.018V1005.94H511.448ZM666.131 1161.46L665.5 1160.82V1149.26H663.817V1160.82L663.186 1161.46H651.616V1163.14H663.186L663.817 1163.77V1175.34H665.5V1163.77L666.131 1163.14H677.701V1161.46H666.131ZM609.405 1075.71L612.911 1077.81V1093.37H609.054V1086.29H595.591V1093.37H591.735V1077.81L595.241 1075.71H609.405ZM609.054 1079.14H595.591V1082.79H609.054V1079.14ZM586.826 1095.13H587.878V1073.95H586.826V1095.13ZM579.464 1075.71L582.97 1077.81V1083.14L580.095 1084.54L582.97 1085.87V1091.27L579.464 1093.37H561.724V1075.71H579.394H579.464ZM579.113 1086.29H565.65V1089.8H579.113V1086.29ZM579.113 1079.14H565.65V1082.79H579.113V1079.14ZM554.011 1096.39H557.937V1095.13H555.343V1073.95H557.937V1072.69H554.011V1096.39ZM616.767 1072.69V1073.95H619.362V1095.13H616.767V1096.39H620.694V1072.69H616.767ZM511.448 1254.36L510.817 1253.73V1242.16H509.134V1253.73L508.503 1254.36H496.934V1256.04H508.503L509.134 1256.67V1268.24H510.817V1256.67L511.448 1256.04H523.018V1254.36H511.448ZM666.131 1409.87L665.5 1409.24V1397.67H663.817V1409.24L663.186 1409.87H651.616V1411.56H663.186L663.817 1412.19V1423.76H665.5V1412.19L666.131 1411.56H677.701V1409.87H666.131ZM609.405 1324.12L612.911 1326.23V1341.79H609.054V1334.71H595.591V1341.79H591.735V1326.23L595.241 1324.12H609.405ZM609.054 1327.63H595.591V1331.27H609.054V1327.63ZM586.826 1343.54H587.878V1322.37H586.826V1343.54ZM579.464 1324.12L582.97 1326.23V1331.55L580.095 1332.96L582.97 1334.29V1339.69L579.464 1341.79H561.724V1324.12H579.394H579.464ZM579.113 1334.71H565.65V1338.22H579.113V1334.71ZM579.113 1327.63H565.65V1331.27H579.113V1327.63ZM554.011 1344.81H557.937V1343.54H555.343V1322.37H557.937V1321.11H554.011V1344.81ZM616.767 1321.11V1322.37H619.362V1343.54H616.767V1344.81H620.694V1321.11H616.767ZM511.448 1502.78L510.817 1502.14V1490.58H509.134V1502.14L508.503 1502.78H496.934V1504.46H508.503L509.134 1505.09V1516.66H510.817V1505.09L511.448 1504.46H523.018V1502.78H511.448ZM666.131 1658.29L665.5 1657.66V1646.09H663.817V1657.66L663.186 1658.29H651.616V1659.97H663.186L663.817 1660.6V1672.17H665.5V1660.6L666.131 1659.97H677.701V1658.29H666.131ZM609.405 1572.54L612.911 1574.64V1590.21H609.054V1583.13H595.591V1590.21H591.735V1574.64L595.241 1572.54H609.405ZM609.054 1576.05H595.591V1579.69H609.054V1576.05ZM586.826 1592.03H587.878V1570.86H586.826V1592.03ZM579.464 1572.54L582.97 1574.64V1579.97L580.095 1581.37L582.97 1582.71V1588.11L579.464 1590.21H561.724V1572.54H579.394H579.464ZM579.113 1583.2H565.65V1586.7H579.113V1583.2ZM579.113 1576.05H565.65V1579.69H579.113V1576.05ZM554.011 1593.29H557.937V1592.03H555.343V1570.86H557.937V1569.6H554.011V1593.29ZM616.767 1569.53V1570.79H619.362V1591.96H616.767V1593.22H620.694V1569.53H616.767ZM511.448 1751.26L510.817 1750.63V1739.06H509.134V1750.63L508.503 1751.26H496.934V1752.95H508.503L509.134 1753.58V1765.15H510.817V1753.58L511.448 1752.95H523.018V1751.26H511.448ZM666.131 1906.78L665.5 1906.15V1894.58H663.817V1906.15L663.186 1906.78H651.616V1908.46H663.186L663.817 1909.09V1920.66H665.5V1909.09L666.131 1908.46H677.701V1906.78H666.131ZM609.405 1821.03L612.911 1823.13V1838.7H609.054V1831.62H595.591V1838.7H591.735V1823.13L595.241 1821.03H609.405ZM609.054 1824.46H595.591V1828.11H609.054V1824.46ZM586.826 1840.45H587.878V1819.27H586.826V1840.45ZM579.464 1821.03L582.97 1823.13V1828.46L580.095 1829.86L582.97 1831.19V1836.59L579.464 1838.7H561.724V1821.03H579.394H579.464ZM579.113 1831.62H565.65V1835.12H579.113V1831.62ZM579.113 1824.46H565.65V1828.11H579.113V1824.46ZM554.011 1841.71H557.937V1840.45H555.343V1819.27H557.937V1818.01H554.011V1841.71ZM616.767 1818.01V1819.27H619.362V1840.45H616.767V1841.71H620.694V1818.01H616.767ZM262.946 12.2L262.315 11.569V0H260.633V11.569L260.001 12.2H248.432V13.8828H260.001L260.633 14.5138V26.0828H262.315V14.5138L262.946 13.8828H274.516V12.2H262.946ZM417.699 167.715L417.068 167.084V155.515H415.385V167.084L414.754 167.715H403.185V169.398H414.754L415.385 170.029V181.598H417.068V170.029L417.699 169.398H429.269V167.715H417.699ZM360.973 81.8944L364.479 83.9978V99.5634H360.622V92.4818H347.159V99.5634H343.303V83.9978L346.809 81.8944H360.973ZM360.622 85.4001H347.159V89.0461H360.622V85.4001ZM338.324 101.386H339.376V80.2116H338.324V101.386ZM331.032 81.8944L334.538 83.9978V89.3266L331.663 90.7289L334.538 92.0611V97.4599L331.032 99.5634H313.292V81.8944H330.962H331.032ZM330.611 92.5519H317.148V96.0576H330.611V92.5519ZM330.611 85.4001H317.148V89.0461H330.611V85.4001ZM305.579 102.648H309.506V101.386H306.911V80.2116H309.506V78.9495H305.579V102.648ZM368.265 78.9495V80.2116H370.86V101.386H368.265V102.648H372.192V78.9495H368.265ZM262.946 260.618L262.315 259.987V248.418H260.633V259.987L260.001 260.618H248.432V262.3H260.001L260.633 262.931V274.5H262.315V262.931L262.946 262.3H274.516V260.618H262.946ZM417.699 416.133L417.068 415.502V403.933H415.385V415.502L414.754 416.133H403.185V417.815H414.754L415.385 418.447V430.016H417.068V418.447L417.699 417.815H429.269V416.133H417.699ZM360.973 330.382L364.479 332.486V348.051H360.622V340.969H347.159V348.051H343.303V332.486L346.809 330.382H360.973ZM360.622 333.818H347.159V337.464H360.622V333.818ZM338.324 349.804H339.376V328.629H338.324V349.804ZM331.032 330.382L334.538 332.486V337.814L331.663 339.217L334.538 340.549V345.948L331.032 348.051H313.292V330.382H330.962H331.032ZM330.611 340.969H317.148V344.475H330.611V340.969ZM330.611 333.818H317.148V337.464H330.611V333.818ZM305.579 351.066H309.506V349.804H306.911V328.629H309.506V327.367H305.579V351.066ZM368.265 327.367V328.629H370.86V349.804H368.265V351.066H372.192V327.367H368.265ZM262.946 509.035L262.315 508.404V496.835H260.633V508.404L260.001 509.035H248.432V510.718H260.001L260.633 511.349V522.918H262.315V511.349L262.946 510.718H274.516V509.035H262.946ZM417.699 664.55L417.068 663.919V652.35H415.385V663.919L414.754 664.55H403.185V666.233H414.754L415.385 666.864V678.433H417.068V666.864L417.699 666.233H429.269V664.55H417.699ZM360.973 578.8L364.479 580.903V596.469H360.622V589.387H347.159V596.469H343.303V580.903L346.809 578.8H360.973ZM360.622 582.305H347.159V585.951H360.622V582.305ZM338.324 598.222H339.376V577.047H338.324V598.222ZM331.032 578.8L334.538 580.903V586.232L331.663 587.634L334.538 588.966V594.365L331.032 596.469H313.292V578.8H330.962H331.032ZM330.611 589.457H317.148V592.963H330.611V589.457ZM330.611 582.305H317.148V585.951H330.611V582.305ZM305.579 599.484H309.506V598.222H306.911V577.047H309.506V575.785H305.579V599.484ZM368.265 575.785V577.047H370.86V598.222H368.265V599.484H372.192V575.785H368.265ZM262.946 757.453L262.315 756.822V745.253H260.633V756.822L260.001 757.453H248.432V759.136H260.001L260.633 759.767V771.336H262.315V759.767L262.946 759.136H274.516V757.453H262.946ZM417.699 912.968L417.068 912.337V900.768H415.385V912.337L414.754 912.968H403.185V914.651H414.754L415.385 915.282V926.851H417.068V915.282L417.699 914.651H429.269V912.968H417.699ZM360.973 827.217L364.479 829.321V844.886H360.622V837.805H347.159V844.886H343.303V829.321L346.809 827.217H360.973ZM360.622 830.723H347.159V834.369H360.622V830.723ZM338.324 846.709H339.376V825.535H338.324V846.709ZM331.032 827.217L334.538 829.321V834.65L331.663 836.052L334.538 837.384V842.783L331.032 844.886H313.292V827.217H330.962H331.032ZM330.611 837.875H317.148V841.38H330.611V837.875ZM330.611 830.723H317.148V834.369H330.611V830.723ZM305.579 847.971H309.506V846.709H306.911V825.535H309.506V824.273H305.579V847.971ZM368.265 824.202V825.464H370.86V846.639H368.265V847.901H372.192V824.202H368.265ZM262.946 1005.94L262.315 1005.31V993.741H260.633V1005.31L260.001 1005.94H248.432V1007.62H260.001L260.633 1008.25V1019.82H262.315V1008.25L262.946 1007.62H274.516V1005.94H262.946ZM417.699 1161.46L417.068 1160.82V1149.26H415.385V1160.82L414.754 1161.46H403.185V1163.14H414.754L415.385 1163.77V1175.34H417.068V1163.77L417.699 1163.14H429.269V1161.46H417.699ZM360.973 1075.71L364.479 1077.81V1093.37H360.622V1086.29H347.159V1093.37H343.303V1077.81L346.809 1075.71H360.973ZM360.622 1079.14H347.159V1082.79H360.622V1079.14ZM338.324 1095.13H339.376V1073.95H338.324V1095.13ZM331.032 1075.71L334.538 1077.81V1083.14L331.663 1084.54L334.538 1085.87V1091.27L331.032 1093.37H313.292V1075.71H330.962H331.032ZM330.611 1086.29H317.148V1089.8H330.611V1086.29ZM330.611 1079.14H317.148V1082.79H330.611V1079.14ZM305.579 1096.39H309.506V1095.13H306.911V1073.95H309.506V1072.69H305.579V1096.39ZM368.265 1072.69V1073.95H370.86V1095.13H368.265V1096.39H372.192V1072.69H368.265ZM262.946 1254.36L262.315 1253.73V1242.16H260.633V1253.73L260.001 1254.36H248.432V1256.04H260.001L260.633 1256.67V1268.24H262.315V1256.67L262.946 1256.04H274.516V1254.36H262.946ZM417.699 1409.87L417.068 1409.24V1397.67H415.385V1409.24L414.754 1409.87H403.185V1411.56H414.754L415.385 1412.19V1423.76H417.068V1412.19L417.699 1411.56H429.269V1409.87H417.699ZM360.973 1324.12L364.479 1326.23V1341.79H360.622V1334.71H347.159V1341.79H343.303V1326.23L346.809 1324.12H360.973ZM360.622 1327.63H347.159V1331.27H360.622V1327.63ZM338.324 1343.54H339.376V1322.37H338.324V1343.54ZM331.032 1324.12L334.538 1326.23V1331.55L331.663 1332.96L334.538 1334.29V1339.69L331.032 1341.79H313.292V1324.12H330.962H331.032ZM330.611 1334.71H317.148V1338.22H330.611V1334.71ZM330.611 1327.63H317.148V1331.27H330.611V1327.63ZM305.579 1344.81H309.506V1343.54H306.911V1322.37H309.506V1321.11H305.579V1344.81ZM368.265 1321.11V1322.37H370.86V1343.54H368.265V1344.81H372.192V1321.11H368.265ZM262.946 1502.78L262.315 1502.14V1490.58H260.633V1502.14L260.001 1502.78H248.432V1504.46H260.001L260.633 1505.09V1516.66H262.315V1505.09L262.946 1504.46H274.516V1502.78H262.946ZM417.699 1658.29L417.068 1657.66V1646.09H415.385V1657.66L414.754 1658.29H403.185V1659.97H414.754L415.385 1660.6V1672.17H417.068V1660.6L417.699 1659.97H429.269V1658.29H417.699ZM360.973 1572.54L364.479 1574.64V1590.21H360.622V1583.13H347.159V1590.21H343.303V1574.64L346.809 1572.54H360.973ZM360.622 1576.05H347.159V1579.69H360.622V1576.05ZM338.324 1592.03H339.376V1570.86H338.324V1592.03ZM331.032 1572.54L334.538 1574.64V1579.97L331.663 1581.37L334.538 1582.71V1588.11L331.032 1590.21H313.292V1572.54H330.962H331.032ZM330.611 1583.2H317.148V1586.7H330.611V1583.2ZM330.611 1576.05H317.148V1579.69H330.611V1576.05ZM305.579 1593.29H309.506V1592.03H306.911V1570.86H309.506V1569.6H305.579V1593.29ZM368.265 1569.53V1570.79H370.86V1591.96H368.265V1593.22H372.192V1569.53H368.265ZM262.946 1751.26L262.315 1750.63V1739.06H260.633V1750.63L260.001 1751.26H248.432V1752.95H260.001L260.633 1753.58V1765.15H262.315V1753.58L262.946 1752.95H274.516V1751.26H262.946ZM417.699 1906.78L417.068 1906.15V1894.58H415.385V1906.15L414.754 1906.78H403.185V1908.46H414.754L415.385 1909.09V1920.66H417.068V1909.09L417.699 1908.46H429.269V1906.78H417.699ZM360.973 1821.03L364.479 1823.13V1838.7H360.622V1831.62H347.159V1838.7H343.303V1823.13L346.809 1821.03H360.973ZM360.622 1824.46H347.159V1828.11H360.622V1824.46ZM338.324 1840.45H339.376V1819.27H338.324V1840.45ZM331.032 1821.03L334.538 1823.13V1828.46L331.663 1829.86L334.538 1831.19V1836.59L331.032 1838.7H313.292V1821.03H330.962H331.032ZM330.611 1831.62H317.148V1835.12H330.611V1831.62ZM330.611 1824.46H317.148V1828.11H330.611V1824.46ZM305.579 1841.71H309.506V1840.45H306.911V1819.27H309.506V1818.01H305.579V1841.71ZM368.265 1818.01V1819.27H370.86V1840.45H368.265V1841.71H372.192V1818.01H368.265ZM14.5146 12.2L13.8836 11.569V0H12.2007V11.569L11.5696 12.2H0V13.8828H11.5696L12.2007 14.5138V26.0828H13.8836V14.5138L14.5146 13.8828H26.0843V12.2H14.5146ZM169.267 167.715L168.636 167.084V155.515H166.953V167.084L166.322 167.715H154.753V169.398H166.322L166.953 170.029V181.598H168.636V170.029L169.267 169.398H180.837V167.715H169.267ZM112.471 81.8944L115.977 83.9978V99.5634H112.12V92.4818H98.6575V99.5634H94.801V83.9978L98.3069 81.8944H112.471ZM112.12 85.4001H98.6575V89.0461H112.12V85.4001ZM89.8926 101.386H90.9444V80.2116H89.8926V101.386ZM82.5301 81.8944L86.0361 83.9978V89.3266L83.1612 90.7289L86.0361 92.0611V97.4599L82.5301 99.5634H64.79V81.8944H82.46H82.5301ZM82.1795 92.5519H68.7167V96.0576H82.1795V92.5519ZM82.1795 85.4001H68.7167V89.0461H82.1795V85.4001ZM57.147 102.648H61.0737V101.386H58.4793V80.2116H61.0737V78.9495H57.147V102.648ZM119.833 78.9495V80.2116H122.428V101.386H119.833V102.648H123.76V78.9495H119.833ZM14.5146 260.618L13.8836 259.987V248.418H12.2007V259.987L11.5696 260.618H0V262.3H11.5696L12.2007 262.931V274.5H13.8836V262.931L14.5146 262.3H26.0843V260.618H14.5146ZM169.267 416.133L168.636 415.502V403.933H166.953V415.502L166.322 416.133H154.753V417.815H166.322L166.953 418.447V430.016H168.636V418.447L169.267 417.815H180.837V416.133H169.267ZM112.471 330.382L115.977 332.486V348.051H112.12V340.969H98.6575V348.051H94.801V332.486L98.3069 330.382H112.471ZM112.12 333.818H98.6575V337.464H112.12V333.818ZM89.8926 349.804H90.9444V328.629H89.8926V349.804ZM82.5301 330.382L86.0361 332.486V337.814L83.1612 339.217L86.0361 340.549V345.948L82.5301 348.051H64.79V330.382H82.46H82.5301ZM82.1795 340.969H68.7167V344.475H82.1795V340.969ZM82.1795 333.818H68.7167V337.464H82.1795V333.818ZM57.147 351.066H61.0737V349.804H58.4793V328.629H61.0737V327.367H57.147V351.066ZM119.833 327.367V328.629H122.428V349.804H119.833V351.066H123.76V327.367H119.833ZM14.5146 509.035L13.8836 508.404V496.835H12.2007V508.404L11.5696 509.035H0V510.718H11.5696L12.2007 511.349V522.918H13.8836V511.349L14.5146 510.718H26.0843V509.035H14.5146ZM169.267 664.55L168.636 663.919V652.35H166.953V663.919L166.322 664.55H154.753V666.233H166.322L166.953 666.864V678.433H168.636V666.864L169.267 666.233H180.837V664.55H169.267ZM112.471 578.8L115.977 580.903V596.469H112.12V589.387H98.6575V596.469H94.801V580.903L98.3069 578.8H112.471ZM112.12 582.305H98.6575V585.951H112.12V582.305ZM89.8926 598.222H90.9444V577.047H89.8926V598.222ZM82.5301 578.8L86.0361 580.903V586.232L83.1612 587.634L86.0361 588.966V594.365L82.5301 596.469H64.79V578.8H82.46H82.5301ZM82.1795 589.457H68.7167V592.963H82.1795V589.457ZM82.1795 582.305H68.7167V585.951H82.1795V582.305ZM57.147 599.484H61.0737V598.222H58.4793V577.047H61.0737V575.785H57.147V599.484ZM119.833 575.785V577.047H122.428V598.222H119.833V599.484H123.76V575.785H119.833ZM14.5146 757.453L13.8836 756.822V745.253H12.2007V756.822L11.5696 757.453H0V759.136H11.5696L12.2007 759.767V771.336H13.8836V759.767L14.5146 759.136H26.0843V757.453H14.5146ZM169.267 912.968L168.636 912.337V900.768H166.953V912.337L166.322 912.968H154.753V914.651H166.322L166.953 915.282V926.851H168.636V915.282L169.267 914.651H180.837V912.968H169.267ZM112.471 827.217L115.977 829.321V844.886H112.12V837.805H98.6575V844.886H94.801V829.321L98.3069 827.217H112.471ZM112.12 830.723H98.6575V834.369H112.12V830.723ZM89.8926 846.709H90.9444V825.535H89.8926V846.709ZM82.5301 827.217L86.0361 829.321V834.65L83.1612 836.052L86.0361 837.384V842.783L82.5301 844.886H64.79V827.217H82.46H82.5301ZM82.1795 837.875H68.7167V841.38H82.1795V837.875ZM82.1795 830.723H68.7167V834.369H82.1795V830.723ZM57.147 847.971H61.0737V846.709H58.4793V825.535H61.0737V824.273H57.147V847.971ZM119.833 824.202V825.464H122.428V846.639H119.833V847.901H123.76V824.202H119.833ZM14.5146 1005.94L13.8836 1005.31V993.741H12.2007V1005.31L11.5696 1005.94H0V1007.62H11.5696L12.2007 1008.25V1019.82H13.8836V1008.25L14.5146 1007.62H26.0843V1005.94H14.5146ZM169.267 1161.46L168.636 1160.82V1149.26H166.953V1160.82L166.322 1161.46H154.753V1163.14H166.322L166.953 1163.77V1175.34H168.636V1163.77L169.267 1163.14H180.837V1161.46H169.267ZM112.471 1075.71L115.977 1077.81V1093.37H112.12V1086.29H98.6575V1093.37H94.801V1077.81L98.3069 1075.71H112.471ZM112.12 1079.14H98.6575V1082.79H112.12V1079.14ZM89.8926 1095.13H90.9444V1073.95H89.8926V1095.13ZM82.5301 1075.71L86.0361 1077.81V1083.14L83.1612 1084.54L86.0361 1085.87V1091.27L82.5301 1093.37H64.79V1075.71H82.46H82.5301ZM82.1795 1086.29H68.7167V1089.8H82.1795V1086.29ZM82.1795 1079.14H68.7167V1082.79H82.1795V1079.14ZM57.147 1096.39H61.0737V1095.13H58.4793V1073.95H61.0737V1072.69H57.147V1096.39ZM119.833 1072.69V1073.95H122.428V1095.13H119.833V1096.39H123.76V1072.69H119.833ZM14.5146 1254.36L13.8836 1253.73V1242.16H12.2007V1253.73L11.5696 1254.36H0V1256.04H11.5696L12.2007 1256.67V1268.24H13.8836V1256.67L14.5146 1256.04H26.0843V1254.36H14.5146ZM169.267 1409.87L168.636 1409.24V1397.67H166.953V1409.24L166.322 1409.87H154.753V1411.56H166.322L166.953 1412.19V1423.76H168.636V1412.19L169.267 1411.56H180.837V1409.87H169.267ZM112.471 1324.12L115.977 1326.23V1341.79H112.12V1334.71H98.6575V1341.79H94.801V1326.23L98.3069 1324.12H112.471ZM112.12 1327.63H98.6575V1331.27H112.12V1327.63ZM89.8926 1343.54H90.9444V1322.37H89.8926V1343.54ZM82.5301 1324.12L86.0361 1326.23V1331.55L83.1612 1332.96L86.0361 1334.29V1339.69L82.5301 1341.79H64.79V1324.12H82.46H82.5301ZM82.1795 1334.71H68.7167V1338.22H82.1795V1334.71ZM82.1795 1327.63H68.7167V1331.27H82.1795V1327.63ZM57.147 1344.81H61.0737V1343.54H58.4793V1322.37H61.0737V1321.11H57.147V1344.81ZM119.833 1321.11V1322.37H122.428V1343.54H119.833V1344.81H123.76V1321.11H119.833ZM14.5146 1502.78L13.8836 1502.14V1490.58H12.2007V1502.14L11.5696 1502.78H0V1504.46H11.5696L12.2007 1505.09V1516.66H13.8836V1505.09L14.5146 1504.46H26.0843V1502.78H14.5146ZM169.267 1658.29L168.636 1657.66V1646.09H166.953V1657.66L166.322 1658.29H154.753V1659.97H166.322L166.953 1660.6V1672.17H168.636V1660.6L169.267 1659.97H180.837V1658.29H169.267ZM112.471 1572.54L115.977 1574.64V1590.21H112.12V1583.13H98.6575V1590.21H94.801V1574.64L98.3069 1572.54H112.471ZM112.12 1576.05H98.6575V1579.69H112.12V1576.05ZM89.8926 1592.03H90.9444V1570.86H89.8926V1592.03ZM82.5301 1572.54L86.0361 1574.64V1579.97L83.1612 1581.37L86.0361 1582.71V1588.11L82.5301 1590.21H64.79V1572.54H82.46H82.5301ZM82.1795 1583.2H68.7167V1586.7H82.1795V1583.2ZM82.1795 1576.05H68.7167V1579.69H82.1795V1576.05ZM57.147 1593.29H61.0737V1592.03H58.4793V1570.86H61.0737V1569.6H57.147V1593.29ZM119.833 1569.53V1570.79H122.428V1591.96H119.833V1593.22H123.76V1569.53H119.833ZM14.5146 1751.26L13.8836 1750.63V1739.06H12.2007V1750.63L11.5696 1751.26H0V1752.95H11.5696L12.2007 1753.58V1765.15H13.8836V1753.58L14.5146 1752.95H26.0843V1751.26H14.5146ZM169.267 1906.78L168.636 1906.15V1894.58H166.953V1906.15L166.322 1906.78H154.753V1908.46H166.322L166.953 1909.09V1920.66H168.636V1909.09L169.267 1908.46H180.837V1906.78H169.267ZM112.471 1821.03L115.977 1823.13V1838.7H112.12V1831.62H98.6575V1838.7H94.801V1823.13L98.3069 1821.03H112.471ZM112.12 1824.46H98.6575V1828.11H112.12V1824.46ZM89.8926 1840.45H90.9444V1819.27H89.8926V1840.45ZM82.5301 1821.03L86.0361 1823.13V1828.46L83.1612 1829.86L86.0361 1831.19V1836.59L82.5301 1838.7H64.79V1821.03H82.46H82.5301ZM82.1795 1831.62H68.7167V1835.12H82.1795V1831.62ZM82.1795 1824.46H68.7167V1828.11H82.1795V1824.46ZM57.147 1841.71H61.0737V1840.45H58.4793V1819.27H61.0737V1818.01H57.147V1841.71ZM119.833 1818.01V1819.27H122.428V1840.45H119.833V1841.71H123.76V1818.01H119.833Z" fill="white"></path></g><defs><clipPath id="clip0_1115_1014"><rect width="1920" height="994" fill="white"></rect></clipPath></defs></svg> 