<?xml version="1.0" encoding="UTF-8"?> <svg xmlns="http://www.w3.org/2000/svg" width="496" height="438" viewBox="0 0 496 438" fill="none"><path d="M494.609 431.016C494.608 431.291 494.426 431.565 494.315 431.878C494.02 431.972 493.747 432.143 493.471 432.143C492.077 432.171 490.683 432.152 489.188 432.152C488.99 431.603 488.729 431.158 488.69 430.704C488.607 429.71 488.506 428.707 488.907 427.751C489.723 426.747 491.056 427.429 491.995 426.766C492.675 426.056 492.546 425.119 492.551 424.239C492.569 420.936 492.552 417.632 492.566 414.329C492.57 413.449 492.444 412.53 492.963 411.546C493.367 411.518 493.826 411.489 494.343 411.461C494.467 411.953 494.643 412.341 494.643 412.72C494.65 418.815 494.637 424.921 494.609 431.016ZM485.938 426.085C417.233 426.094 348.528 426.085 279.824 426.085C190.267 426.085 100.709 426.085 11.1521 426.085C9.54098 426.085 7.92799 426.104 6.3169 426.066C5.83964 426.047 5.36523 425.886 4.98096 425.801C4.39364 424.712 4.57297 423.69 4.56917 422.706C4.55114 417.983 4.56159 413.259 4.56159 408.536C4.56159 294.573 4.56064 180.61 4.56064 66.6476C4.56064 48.2564 4.55779 29.8643 4.57012 11.474C4.57107 10.2852 4.38985 9.06891 4.88987 7.77972C5.4288 7.67087 5.99999 7.47586 6.57592 7.45505C7.98492 7.40298 9.39676 7.42758 10.8067 7.42758C98.0467 7.42758 185.288 7.42758 272.529 7.42758C342.945 7.42758 413.362 7.42667 483.779 7.42667C485.592 7.42667 487.406 7.4115 489.219 7.44464C489.802 7.45505 490.385 7.59796 491.083 7.69638C491.221 8.23117 491.409 8.69214 491.446 9.16541C491.508 9.96524 491.48 10.7717 491.48 11.5763C491.48 144.633 491.478 277.697 491.477 410.751C491.477 414.67 491.489 418.588 491.473 422.507C491.469 423.501 491.629 424.523 491.123 425.649C490.778 425.763 490.328 426.019 489.865 426.047C488.558 426.113 487.247 426.085 485.938 426.085ZM342.663 432.114C340.796 432.114 339.21 432.114 337.493 432.114C337.34 431.603 337.108 431.158 337.086 430.694C337.041 429.71 337.103 428.716 337.123 427.628C337.674 427.448 338.123 427.192 338.579 427.183C339.866 427.136 341.17 426.975 342.57 427.391C343.441 428.849 343.238 430.335 342.663 432.114ZM221.688 427.722C221.769 427.571 221.838 427.287 221.933 427.278C222.728 427.202 223.528 427.136 224.327 427.136C254.309 427.136 284.291 427.136 314.273 427.145C315.119 427.145 316.027 426.918 317.306 427.722C313.441 428.025 224.042 427.978 221.688 427.722ZM276.828 429.682C277.357 429.511 277.899 429.294 278.463 429.19C278.952 429.095 279.465 429.133 279.968 429.133C287.711 429.133 295.452 429.133 303.194 429.142C304.191 429.142 305.211 429.029 306.271 429.549C307.219 430.846 306.843 432.247 306.539 433.79C305.87 433.884 305.388 434.007 304.906 434.007C296.058 434.017 287.21 434.017 278.362 434.007C277.967 434.007 277.574 433.913 276.919 433.837C276.477 432.37 276.537 431.102 276.828 429.682ZM313.827 435.342C313.934 435.834 313.973 436.005 314.035 436.279C313.657 436.374 313.28 436.525 312.898 436.544C311.995 436.591 311.087 436.591 310.182 436.591C297.703 436.591 285.224 436.591 272.745 436.591C271.742 436.591 270.74 436.591 269.738 436.591C269.556 436.251 269.433 436.014 269.31 435.787C269.546 435.645 269.714 435.465 269.885 435.456C284.472 435.238 299.059 435.408 313.827 435.342ZM260.908 433.127C259.73 433.619 258.418 433.373 257.143 433.411C255.841 433.449 254.535 433.439 253.233 433.421C251.939 433.392 250.634 433.544 249.074 433.174C248.971 432.625 248.841 432.247 248.841 431.868C248.84 431.177 248.918 430.486 248.967 429.729C249.37 429.559 249.724 429.265 250.081 429.265C253.386 429.227 256.691 429.237 259.997 429.246C260.272 429.256 260.545 429.445 260.79 429.54C261.367 431.139 261.389 431.139 260.908 433.127ZM246.713 432.976C246.401 433.108 246.139 433.307 245.863 433.326C243.624 433.534 237.348 433.43 235.287 433.184C234.448 432.171 234.806 431.007 234.892 429.814C235.338 429.597 235.684 429.284 236.034 429.275C239.233 429.237 242.432 429.237 245.632 429.256C245.907 429.256 246.181 429.455 246.593 429.615C247.186 430.846 247.112 431.897 246.713 432.976ZM211.578 432.928C211.239 433.118 211.069 433.297 210.898 433.297C206.577 433.345 202.255 433.373 197.934 433.392C197.552 433.392 197.17 433.26 196.694 433.165C196.163 431.253 196.187 429.426 196.695 427.438C197.335 427.334 197.906 427.173 198.482 427.154C205.764 426.918 209.355 427.031 211.627 427.59C211.893 429.511 211.999 431.281 211.578 432.928ZM158.523 432.029C156.715 432.285 154.957 432.294 153.098 432.02C152.528 430.534 152.675 429.095 152.938 427.561C154.793 426.861 156.621 427.069 158.688 427.419C159.046 429.142 159.271 430.571 158.523 432.029ZM7.18032 431.717C5.26466 432.332 4.12323 432.36 1.42764 431.868C1.32991 431.452 1.12402 430.988 1.12212 430.515C1.1022 424.618 1.10789 418.721 1.12497 412.824C1.12592 412.445 1.27488 412.067 1.38115 411.556C1.89161 411.518 2.35273 411.489 2.74175 411.461C3.38694 412.389 3.20951 413.316 3.21616 414.196C3.23893 417.49 3.21806 420.794 3.23514 424.088C3.23893 424.977 3.11654 425.905 3.95814 426.918C4.9544 427.069 5.92503 427.202 7.00004 427.353C7.57692 428.858 7.41468 430.297 7.18032 431.717ZM3.06055 21.5972C2.45425 22.2343 1.94189 22.2939 1.41245 21.7562C0.987382 19.4978 0.84601 11.4399 1.10599 3.43036C1.12496 2.84827 1.25779 2.27182 1.3764 1.41519C3.41256 1.41519 5.1081 1.41519 6.92983 1.41519C7.08259 1.92633 7.31505 2.37878 7.33688 2.84259C7.38242 3.83548 7.31979 4.83502 7.30461 5.66324C6.29412 6.7811 5.00088 6.10147 4.1403 6.5842C3.22469 7.16443 3.24652 8.00024 3.24178 8.79626C3.22375 12.0107 3.24178 15.227 3.22091 18.4415C3.21331 19.5347 3.3395 20.645 3.06055 21.5972ZM152.796 1.75308C153.345 1.59314 153.795 1.36121 154.25 1.34702C155.633 1.30539 157.02 1.34799 158.575 1.35938C159.153 3.06314 159.062 4.41193 158.74 5.90744C158.31 6.05417 157.869 6.31445 157.412 6.33908C156.033 6.41669 154.646 6.43375 153.145 6.26337C152.994 5.72195 152.78 5.27234 152.761 4.8161C152.72 3.83267 152.777 2.8454 152.796 1.75308ZM337.426 1.55148C339.025 1.11041 340.7 1.32809 342.526 1.43506C342.714 1.96039 343.02 2.48572 343.072 3.0347C343.165 4.01248 343.28 5.02905 342.556 6.17624C340.785 6.50754 339.127 6.42331 337.533 6.22833C336.918 4.02765 336.918 4.02762 337.426 1.55148ZM489.029 1.53824C490.744 1.16245 492.414 1.27039 494.24 1.47388C494.385 2.02856 494.654 2.58133 494.656 3.13504C494.686 8.93445 494.68 14.7339 494.658 20.5333C494.657 21.0075 494.468 21.4808 494.353 22.0108C493.876 22.0108 493.499 22.0108 493.19 22.0108C492.475 21.4372 492.581 20.7008 492.577 20.0212C492.558 16.6213 492.577 13.2213 492.549 9.8223C492.542 8.84076 492.734 7.81567 492.221 7.02249C491.291 6.00497 489.947 6.72998 488.939 5.88757C488.486 4.53592 488.488 3.10947 489.029 1.53824ZM495.797 410.893C495.057 409.681 493.813 410.145 492.94 409.568C492.305 408.479 492.576 407.249 492.575 406.066C492.559 354.517 492.557 302.96 492.557 251.411C492.558 181.065 492.56 110.718 492.562 40.3717C492.562 35.6476 492.559 30.9244 492.57 26.2002C492.572 25.4099 492.447 24.5798 493.028 23.885C493.859 23.3758 495.1 23.8348 495.812 22.6062C495.85 22.4055 495.989 22.0147 495.99 21.6247C496.003 15.0936 496.006 8.56155 495.982 2.02951C495.98 1.55814 495.749 1.08676 495.629 0.634308C493.84 -0.344421 491.994 0.122192 490.217 0.0455322C489.327 0.00769043 488.386 -0.00271606 487.626 0.839691C486.918 2.43271 487.735 4.34473 486.989 6.09393C485.759 6.53311 484.545 6.3779 483.358 6.3779C438.329 6.38547 393.3 6.38354 348.271 6.3826C347.566 6.3826 346.858 6.41196 346.156 6.36273C345.679 6.32867 345.209 6.18384 344.877 6.11664C344.21 5.11615 344.463 4.18668 344.4 3.30356C344.336 2.41382 344.532 1.48431 343.887 0.549133C343.537 0.42514 343.075 0.129791 342.607 0.121277C340.799 0.0834351 338.988 0.111816 337.18 0.179016C336.818 0.193207 336.466 0.49231 336.183 0.624817C335.216 2.37686 336.17 4.32104 335.394 5.92923C335.134 6.07498 334.961 6.25391 334.788 6.25391C277.776 6.30594 220.762 6.34476 163.749 6.37979C162.751 6.38074 161.753 6.32391 160.599 6.28986C159.619 4.30875 160.523 2.37119 159.697 0.666473C158.35 -0.271545 156.798 0.061676 155.323 0.0437012C154.147 0.0275879 152.884 -0.220398 151.853 0.71286C150.881 2.34091 151.886 4.30594 150.97 6.06839C150.644 6.15451 150.271 6.32013 149.889 6.33908C148.884 6.38925 147.876 6.3826 146.869 6.3826C102.142 6.38449 57.4155 6.38449 12.6873 6.3826C11.8827 6.3826 11.0752 6.39111 10.2716 6.34378C9.88729 6.32013 9.50967 6.17722 9.1273 6.08826C8.14053 4.30307 9.2829 2.17618 8.03046 0.427948C7.58356 0.311523 7.10821 0.0871887 6.63095 0.0824585C4.92213 0.0644836 3.21047 0.093811 1.5026 0.167633C1.13256 0.183746 0.773899 0.457275 0.453199 0.593597C-0.127478 1.59219 0.0167422 2.61636 0.0138958 3.60739C0.000612328 9.13422 0.000615108 14.6619 0.016745 20.1888C0.0186426 20.9857 0.118272 21.7846 0.210308 22.5779C0.230233 22.7558 0.406704 22.9158 0.616393 23.2518C1.30998 23.4515 2.14589 23.6928 2.95238 23.9257C3.40212 25.4562 3.21616 26.8685 3.21616 28.2589C3.22754 91.5699 3.22564 154.884 3.22564 218.197C3.22564 280.498 3.22755 342.809 3.22185 405.11C3.22185 406.416 3.15544 407.722 3.09377 409.019C3.08428 409.199 2.92297 409.369 2.81291 409.577C2.01306 409.852 1.18569 410.136 0.317524 410.439C0.209359 411.016 0.0404645 411.499 0.0395157 411.982C0.0290787 418.513 0.0328749 425.044 0.0641859 431.575C0.0660836 432.048 0.302336 432.512 0.440864 433.023C0.994025 433.184 1.46748 433.43 1.94379 433.43C3.75129 433.449 5.56069 433.402 7.36818 433.326C7.63385 433.316 7.89004 433.061 8.2041 432.89C9.14248 431.253 8.26102 429.303 9.06182 427.514C9.47171 427.401 9.93758 427.202 10.4167 427.173C11.3191 427.107 12.229 427.136 13.1351 427.136C57.7609 427.136 102.388 427.136 147.013 427.136C147.92 427.136 148.829 427.107 149.732 427.173C150.203 427.211 150.662 427.429 151.05 427.543C151.589 428.839 151.319 430.06 151.419 431.253C151.478 431.963 151.573 432.654 152.35 433.222C154.28 433.733 156.39 433.525 158.488 433.383C158.942 433.345 159.375 433.023 159.791 432.843C160.197 431.527 159.997 430.306 160.105 429.123C160.156 428.555 160.356 427.997 160.491 427.419C161.017 427.315 161.402 427.164 161.786 427.164C172.364 427.154 182.941 427.145 193.518 427.164C193.985 427.173 194.451 427.391 194.881 427.505C195.74 429.748 194.753 432.058 195.617 434.055C196.554 434.859 197.593 434.727 198.588 434.736C202.315 434.746 206.042 434.736 209.769 434.736C210.273 434.736 210.795 434.784 211.275 434.67C211.831 434.528 212.351 434.244 212.91 434.017C213.461 431.859 212.872 429.701 213.398 427.561C215.249 426.833 217.114 427.117 218.929 427.315C219.382 427.864 219.758 428.319 220.12 428.764C220.451 428.858 220.735 428.991 221.028 429.019C221.829 429.085 222.635 429.123 223.44 429.133C225.958 429.142 228.477 429.133 230.995 429.152C231.688 429.161 232.416 429.123 233.14 429.871C233.286 431.139 233.457 432.597 233.633 434.121C234.188 434.32 234.634 434.575 235.106 434.642C235.799 434.746 236.512 434.727 237.216 434.727C244.368 434.736 251.52 434.746 258.671 434.736C259.376 434.736 260.095 434.784 260.78 434.66C261.335 434.566 261.849 434.235 262.308 434.045C262.761 432.928 262.599 431.906 262.705 430.922C262.755 430.448 262.929 429.985 263.033 429.568C263.464 429.426 263.744 429.246 264.024 429.246C267.245 429.218 270.467 429.19 273.687 429.218C274.142 429.227 274.593 429.54 275.148 429.757C275.18 430.723 275.259 431.622 275.214 432.512C275.191 432.966 274.944 433.421 274.83 433.771C272.541 434.452 270.226 433.439 268.168 434.566C267.718 435.711 267.569 436.743 268.543 437.614C271.018 437.983 291.862 438.115 312.37 437.888C313.265 437.879 314.16 437.794 314.813 437.756C315.684 437.121 315.829 436.449 315.776 435.721C315.73 435.077 315.477 434.566 314.558 434.102C313.277 434.083 311.673 434.055 310.07 434.017C309.48 433.998 308.844 434.083 308.303 433.383C308.129 432.152 307.865 430.789 308.649 429.445C311.822 428.669 315.111 429.634 318.126 428.792C318.691 428.167 319.15 427.656 319.614 427.145C324.434 427.145 329.167 427.145 333.899 427.154C334.29 427.154 334.681 427.296 335.068 427.391C335.158 427.41 335.231 427.505 335.385 427.618C336.188 429.218 335.201 431.168 336.112 432.767C336.954 433.629 338.004 433.534 338.991 433.487C340.667 433.421 342.423 433.894 343.984 432.89C344.652 431.632 344.265 430.297 344.426 429.019C344.496 428.461 344.718 427.912 344.843 427.467C346.096 426.965 347.218 427.145 348.314 427.145C393.343 427.136 438.372 427.136 483.401 427.136C484.206 427.136 485.017 427.098 485.815 427.183C486.275 427.23 486.712 427.486 487.062 427.609C487.662 429.417 486.925 431.206 487.708 432.834C487.971 432.985 488.213 433.222 488.489 433.269C490.584 433.657 492.691 433.629 494.787 433.297C495.14 433.241 495.45 432.9 495.785 432.692C495.866 432.228 495.991 431.84 495.992 431.442C496.004 424.911 496.003 418.38 495.987 411.849C495.987 411.461 495.835 411.073 495.797 410.893Z" fill="#EAFFFB"></path><path d="M408.733 311.413C408.733 331.87 408.734 352.327 408.732 372.784C408.732 373.79 408.741 374.806 408.68 375.803C408.651 376.287 408.465 376.752 408.279 377.512C407.099 377.578 406.205 377.664 405.309 377.664C299.624 377.616 193.939 377.569 88.2532 377.502C88.0829 377.502 87.9125 377.322 87.5557 377.122C87.4999 376.781 87.3769 376.297 87.3561 375.822C87.3173 374.911 87.3324 374.009 87.3324 373.097C87.3305 268.6 87.3296 164.093 87.3314 59.5855C87.3314 58.3799 87.3655 57.1839 87.3854 55.8549C88.0308 55.665 88.574 55.4277 89.1352 55.3707C90.0324 55.2948 90.9419 55.3328 91.8456 55.3328C195.828 55.3328 299.81 55.3328 403.791 55.3328C405.189 55.3328 406.587 55.3897 408.086 55.4182C408.315 56.0732 408.622 56.6048 408.67 57.1649C408.768 58.2661 408.732 59.3767 408.732 60.4874C408.733 144.129 408.733 227.771 408.733 311.413ZM409.628 54.6113C409.266 54.4499 408.835 54.1272 408.38 54.0892C407.282 53.9848 406.173 54.0038 405.068 54.0038C300.364 54.0038 195.66 54.0038 90.9551 54.0038C90.0504 54.0038 89.1447 53.9847 88.2428 54.0322C87.7535 54.0512 87.269 54.1936 86.9832 54.2506C86.6756 54.5259 86.4646 54.6398 86.3945 54.8011C86.2422 55.1714 86.0822 55.5606 86.0643 55.9498C86.0094 57.1554 86.0056 58.3705 86.0056 59.576C86.0037 103.224 86.0046 146.863 86.0046 190.511C86.0056 251.693 86.0046 312.875 86.0065 374.056C86.0065 375.062 85.9677 376.078 86.0794 377.075C86.1419 377.626 86.4797 378.157 86.6813 378.66C88.08 379.135 89.3955 378.974 90.6882 378.974C195.594 378.983 300.499 378.983 405.404 378.983C406.309 378.983 407.215 379.002 408.115 378.936C408.591 378.898 409.053 378.698 409.738 378.508C410.091 376.629 409.976 375.015 409.976 373.411C409.982 278.264 409.981 183.116 409.981 87.9693C409.981 78.0872 409.986 68.2051 409.97 58.3325C409.968 57.1364 410.152 55.9118 409.628 54.6113Z" fill="#EAFFFB"></path><path d="M483.807 413.51C483.805 414.315 483.798 415.119 483.729 415.924C483.66 416.729 483.482 417.514 482.642 418.281C482.192 418.395 481.526 418.641 480.839 418.717C479.835 418.821 478.815 418.83 477.802 418.83C460.046 418.83 442.29 418.84 424.535 418.83C423.02 418.83 421.485 418.953 420.069 418.423C419.07 417.789 418.786 416.814 418.682 415.801C418.58 414.807 418.586 413.794 418.586 412.791C418.581 378.731 418.583 344.661 418.582 310.602C418.582 294.622 418.575 278.643 418.588 262.664C418.589 261.386 418.387 260.061 418.84 259.029C419.394 258.414 419.92 258.433 420.418 258.433C423.055 258.423 425.693 258.433 428.331 258.433C438.883 258.433 449.435 258.442 459.987 258.414C461.174 258.414 462.432 258.698 463.657 257.846C463.774 257.372 463.99 256.814 464.041 256.227C464.119 255.328 464.096 254.428 464.096 253.52C464.098 229.305 464.099 205.08 464.097 180.865C464.097 179.862 464.114 178.859 464.048 177.855C464.009 177.268 463.821 176.7 463.681 176.028C463.038 175.867 462.477 175.649 461.901 175.602C460.994 175.526 460.076 175.564 459.164 175.564C446.886 175.564 434.61 175.574 422.333 175.555C421.243 175.555 420.116 175.754 418.921 175.242C418.817 174.76 418.655 174.296 418.625 173.813C418.569 172.914 418.578 172.005 418.578 171.106C418.577 121.161 418.579 71.2168 418.581 21.2771C418.581 20.4734 418.573 19.6678 418.606 18.866C418.649 17.7424 418.895 16.6812 419.714 15.7809C420.919 15.1628 422.243 15.176 423.557 15.1722C427.615 15.1618 431.674 15.1647 435.732 15.1647C449.835 15.1647 463.938 15.1647 478.041 15.1675C478.853 15.1675 479.67 15.1297 480.474 15.2149C481.263 15.3001 482.037 15.5225 482.546 15.6266C483.52 16.4995 483.701 17.3893 483.762 18.298C483.822 19.1983 483.809 20.1052 483.809 21.0092C483.811 86.5239 483.81 152.05 483.811 217.566C483.811 278.757 483.812 339.957 483.813 401.157C483.813 405.274 483.815 409.392 483.807 413.51ZM418.225 255.422C417.835 254.996 417.308 254.684 416.823 254.296C417.288 253.86 417.891 254.078 418.425 254.069C430.698 254.059 442.971 254.059 455.244 254.059C456.154 254.059 457.076 254.078 457.972 254.22C459.458 254.447 460.458 255.347 461.367 256.88C457.634 257.249 421.722 257.183 419.125 256.833C418.86 256.407 418.611 255.858 418.225 255.422ZM416.886 251.399C416.35 251.588 416.082 252.365 415.322 252.109C414.692 251.56 414.91 250.812 414.905 250.14C414.883 246.524 414.897 242.917 414.897 239.301C414.897 221.23 414.892 203.159 414.91 185.087C414.912 184.018 414.665 182.901 415.166 181.954C416.237 181.538 416.517 182.929 417.471 182.655C417.82 181.888 416.707 181.566 416.86 180.865C416.994 180.733 417.121 180.506 417.269 180.487C418.072 180.411 418.881 180.354 419.688 180.354C431.346 180.345 443.003 180.345 454.661 180.354C455.562 180.354 456.463 180.43 457.279 180.468C457.868 181.433 456.741 181.774 456.798 182.598C457.704 183.005 458.063 181.793 458.823 181.831C458.97 181.954 459.226 182.068 459.242 182.2C459.332 182.995 459.411 183.8 459.412 184.595C459.423 206.178 459.425 227.762 459.419 249.345C459.419 250.235 459.338 251.134 459.298 251.929C458.159 252.545 457.858 251.162 456.943 251.276C456.453 252.052 457.588 252.403 457.493 253.065C457.365 253.207 457.248 253.453 457.106 253.463C456.305 253.557 455.498 253.633 454.693 253.633C443.036 253.643 431.377 253.633 419.72 253.624C418.819 253.624 417.918 253.557 416.58 253.491C417.07 252.573 417.342 252.062 417.7 251.39C417.363 251.39 417.099 251.323 416.886 251.399ZM462.391 178.205C462.583 178.461 462.788 178.612 462.788 178.754C462.801 204.342 462.801 229.92 462.801 255.943C461.342 255.356 460.747 254.447 460.08 253.576C460.019 253.065 459.909 252.573 459.909 252.071C459.902 228.699 459.904 205.317 459.915 181.945C459.915 181.443 460.025 180.951 460.09 180.411C460.738 179.55 461.357 178.669 462.391 178.205ZM418.128 178.698C418.521 178.262 418.767 177.704 419.165 177.05C420.102 177.003 421.104 176.899 422.107 176.899C434.386 176.89 446.665 176.89 458.945 176.899C459.639 176.899 460.334 176.984 460.982 177.022C461.264 177.893 460.615 178.205 460.235 178.622C459.679 179.237 458.99 179.663 458.153 179.777C457.553 179.862 456.941 179.909 456.335 179.909C443.447 179.909 430.559 179.909 417.671 179.909C417.372 179.909 417.072 179.843 416.67 179.805C417.213 179.398 417.747 179.114 418.128 178.698ZM484.884 17.1403C484.857 17.0437 484.816 16.951 484.725 16.7001C484.137 15.673 483.184 14.8088 482.11 14.2181C479.572 13.9511 423.395 13.9199 420.437 14.1764C419.138 14.8817 417.98 15.8075 417.373 17.6326C417.373 18.956 417.373 20.5624 417.373 22.1679C417.375 66.389 417.376 110.606 417.377 154.833C417.377 161.166 417.377 167.489 417.369 173.822C417.367 175.119 417.441 176.426 416.925 177.732C415.744 178.054 414.597 178.357 413.404 178.669C413.263 179.256 413.083 179.72 413.046 180.203C412.983 180.998 413.004 181.812 413.004 182.607C413.002 205.525 413.001 228.443 413.003 251.352C413.003 252.156 412.984 252.961 413.042 253.766C413.078 254.248 413.243 254.722 413.31 255.015C414.376 256.151 415.819 255.602 416.989 256.397C417.092 256.956 417.286 257.628 417.328 258.31C417.396 259.417 417.373 260.525 417.373 261.632C417.375 312.078 417.375 362.534 417.376 412.98C417.376 413.889 417.383 414.788 417.384 415.697C417.387 416.757 417.728 417.675 418.537 418.385C419.138 418.906 419.769 419.398 420.468 419.976C421.276 419.976 422.081 419.976 422.888 419.976C425.729 419.976 428.57 419.976 431.411 419.976C447.241 419.976 463.072 419.985 478.902 419.976C480.008 419.966 481.138 420.137 482.288 419.692C483.322 418.991 484.357 418.196 484.844 417.022C484.902 416.71 484.971 416.52 484.971 416.322C484.985 284.162 484.994 152.003 485 19.8439C485 19.0402 484.965 18.2384 484.941 17.4348C484.938 17.3363 484.911 17.2368 484.884 17.1403Z" fill="#EAFFFB"></path><path d="M80.5641 251.951C79.997 252.225 79.7406 251.837 79.4099 251.638C79.1678 251.496 78.899 251.383 78.6484 251.269C78.4301 251.6 78.4301 251.6 78.9629 252.954C78.8133 253.409 78.4311 253.532 78.0232 253.56C77.3169 253.598 76.6078 253.608 75.9007 253.608C64.5723 253.608 53.2449 253.608 41.9155 253.598C40.9177 253.598 39.9179 253.532 38.5845 253.485C38.8704 252.528 39.0325 251.989 39.2784 251.174C38.4787 251.563 37.9145 251.847 37.2712 252.159C37.1206 251.809 36.9376 251.553 36.9204 251.297C36.869 250.493 36.8709 249.688 36.8709 248.883C36.868 227.683 36.8651 206.483 36.868 185.283C36.868 184.184 36.9204 183.086 36.9452 182.092C37.9641 181.495 38.2309 182.726 39.0229 182.556C39.6748 181.94 38.2976 181.448 39.0163 180.567C39.1011 180.539 39.4623 180.378 39.8321 180.35C40.7394 180.302 41.6515 180.312 42.5617 180.312C53.5861 180.302 64.6104 180.302 75.6357 180.312C76.7213 180.312 77.8354 180.16 79.0268 180.643C78.8228 181.287 78.6503 181.827 78.4463 182.47C79.2774 182.897 79.5681 181.77 80.3973 181.921C80.4573 182.016 80.7118 182.234 80.7309 182.47C80.8014 183.37 80.8157 184.279 80.8167 185.178C80.8205 206.483 80.8224 227.787 80.81 249.091C80.81 250.067 81.0273 251.08 80.5641 251.951ZM77.9402 255.227C77.5438 255.653 77.3017 256.221 76.951 256.799C75.8101 257.196 74.5921 257.092 73.3931 257.092C68.4418 257.111 63.4905 257.102 58.5383 257.102C51.7685 257.102 44.9978 257.111 38.2281 257.092C37.233 257.083 36.2085 257.272 34.9513 256.695C35.77 255.151 36.8232 254.327 38.3272 254.138C39.0258 254.043 39.7387 254.043 40.4449 254.043C52.8741 254.034 65.3023 254.034 77.7315 254.034C78.2357 254.034 78.7389 254.034 79.6196 254.034C78.8638 254.555 78.3215 254.82 77.9402 255.227ZM77.5075 262.764C77.5085 312.625 77.5075 362.496 77.5056 412.358C77.5056 413.163 77.5075 413.968 77.478 414.763C77.4342 415.984 77.1492 417.139 76.4792 418.105C75.4108 418.806 74.2775 418.778 73.1777 418.815C71.7624 418.872 70.3442 418.844 68.9279 418.844C52.0287 418.844 35.1305 418.844 18.2314 418.834C17.3202 418.834 16.4081 418.844 15.5008 418.796C14.6935 418.749 13.8786 418.664 13.1953 418.048C12.2527 416.799 12.1698 415.303 12.1707 413.788C12.1726 409.763 12.1688 405.739 12.1688 401.715C12.1669 338.389 12.1659 275.054 12.165 211.719C12.164 162.965 12.1631 114.202 12.1631 65.4484C12.1631 50.5733 12.1707 35.6896 12.1679 20.8117C12.1679 19.096 12.144 17.385 13.2763 15.7176C13.8138 15.566 14.4705 15.2849 15.1491 15.2138C16.2528 15.0993 17.3707 15.0926 18.482 15.0926C36.2923 15.086 54.1017 15.0851 71.911 15.0889C72.8212 15.0889 73.7362 15.0888 74.6388 15.1854C75.224 15.2469 75.7891 15.4846 76.3295 15.6352C77.154 16.7165 77.417 17.8792 77.4742 19.095C77.5219 20.0987 77.5095 21.1042 77.5095 22.1098C77.5114 71.8681 77.5133 121.635 77.5009 171.402C77.5009 172.68 77.7458 174.006 77.0872 175.18C76.0627 175.738 75.0343 175.511 74.045 175.511C61.5987 175.53 49.1523 175.521 36.705 175.521C35.6948 175.521 34.6778 175.511 33.6752 175.615C33.2139 175.663 32.7802 175.984 32.2808 176.202C32.1922 176.96 32.0606 177.651 32.0444 178.342C32.0073 179.848 32.0292 181.353 32.0282 182.859C32.0282 206.388 32.0273 229.908 32.0292 253.437C32.0292 254.441 31.9872 255.454 32.0864 256.448C32.1416 257.007 32.4438 257.547 32.5944 257.982C33.9163 258.598 35.1496 258.399 36.3495 258.399C47.1766 258.408 58.0046 258.408 68.8326 258.408C70.957 258.408 73.0824 258.389 75.2078 258.399C75.7977 258.408 76.3877 258.513 77.0682 258.569C77.2188 259.109 77.4265 259.573 77.4628 260.056C77.5304 260.955 77.5075 261.864 77.5075 262.764ZM36.4096 250.398C36.4096 250.796 36.3924 251.193 36.3962 251.6C36.4134 253.494 35.3736 254.725 33.6027 255.975C33.3044 252.954 33.2892 181.249 33.5417 178.437C33.9668 178.134 34.2832 178.38 34.553 178.674C35.0953 179.261 35.6128 179.867 36.2085 180.539C36.2761 181.618 36.4048 182.717 36.4058 183.806C36.4162 206 36.4115 228.204 36.4096 250.398ZM79.6558 179.8C78.7437 179.829 78.0851 179.876 77.4265 179.876C65.0974 179.876 52.7683 179.876 40.4392 179.867C39.8331 179.867 39.2259 179.867 38.6217 179.829C36.969 179.725 35.832 178.872 35.0028 177.357C35.3183 177.178 35.5442 176.941 35.7882 176.922C36.5926 176.856 37.4027 176.846 38.2099 176.846C49.7308 176.846 61.2517 176.846 72.7717 176.846C74.0812 176.856 75.3898 176.912 76.7803 176.95C77.9536 178.806 77.9536 178.806 79.6558 179.8ZM82.9783 183.682C82.9783 182.575 82.9897 181.467 82.9134 180.368C82.8725 179.791 82.6533 179.223 82.5017 178.607C81.3523 178.295 80.2991 178.02 79.246 177.736C78.6207 176.837 78.5045 175.842 78.4759 174.839C78.4444 173.731 78.4435 172.623 78.4435 171.515C78.4435 152.521 78.4482 133.527 78.4482 114.524C78.4492 83.1736 78.4492 51.8137 78.4425 20.4509C78.4425 19.1518 78.3768 17.8537 78.3482 16.8036C77.4999 15.4004 76.5792 14.5085 75.1448 14C54.9461 14 34.6187 14 14.481 14C13.1085 14.5245 12.266 15.371 11.3463 16.5583C11.2586 17.2183 11.0918 18.1008 11.0375 18.9918C10.9746 19.9926 11.0099 21.001 11.0099 22.0056C11.0079 64.4258 11.0051 106.836 11.0051 149.255C11.0051 232.076 11.0051 314.898 11.006 397.719C11.006 403.05 11.0032 408.372 11.0175 413.702C11.0203 415 10.8879 416.325 11.7113 417.906C12.2317 418.389 13.038 419.128 13.789 419.819C17.2802 420.084 73.1729 420.046 75.7291 419.781C76.2114 419.402 76.8661 418.929 77.4475 418.38C77.803 418.048 78.046 417.594 78.432 417.064C78.4378 415.236 78.4482 413.333 78.4482 411.43C78.4502 361.379 78.4501 311.319 78.4578 261.268C78.4578 260.16 78.4654 259.052 78.6103 257.963C78.697 257.301 79.0563 256.676 79.2393 256.183C80.4469 255.672 81.704 256.013 82.6466 254.971C83.1269 253.636 82.9783 252.112 82.9783 250.625C82.9849 228.308 82.9821 206 82.9783 183.682Z" fill="#EAFFFB"></path><path d="M400.729 229.2C400.729 227.998 400.729 227.25 400.729 226.493C400.92 227.25 400.964 228.007 400.729 229.2ZM400.879 204.128C400.879 204.885 400.879 205.642 400.879 206.39C400.713 205.633 400.616 204.885 400.879 204.128ZM400.463 201.478C399.919 200.692 400.116 200.172 400.052 199.273C400.54 200.162 400.494 200.683 400.463 201.478ZM400.039 233.137C400.07 232.654 400.101 232.172 400.146 231.49C400.746 232.191 400.398 232.702 400.039 233.137ZM398.69 231.547C398.243 236.043 397.84 240.538 397.378 245.034C397.287 245.924 397.077 246.813 396.819 247.675C394.237 256.231 391.639 264.777 389.027 273.314C388.764 274.176 388.454 275.037 388.035 275.832C385.69 280.271 383.312 284.691 380.923 289.111C380.696 289.527 380.325 289.868 380.016 290.237C379.963 290.067 379.93 289.877 379.829 289.745C378.805 288.363 376.144 285.789 374.461 284.511C373.653 284.492 373.258 285.145 372.771 285.609C371.258 287.076 369.77 288.562 368.2 290.105C366.511 289.31 365.601 287.871 364.579 286.887C364.426 285.694 364.99 285.06 365.379 284.378C367.423 280.81 369.477 277.242 371.559 273.683C372.375 272.292 373.01 270.835 373.506 269.292C375.877 261.938 378.267 254.584 380.673 247.239C381.366 245.129 381.746 242.971 381.944 240.756C382.22 237.661 382.593 234.566 382.918 231.471C383.2 228.783 383.472 226.086 383.749 223.389C383.759 223.284 383.752 223.18 383.771 223.086C384.865 217.36 384.021 211.69 383.339 206.012C382.777 201.327 382.369 196.623 381.918 191.928C381.737 190.016 381.458 188.152 380.86 186.316C378.366 178.687 375.927 171.03 373.415 163.402C372.979 162.077 372.389 160.78 371.699 159.569C367.67 152.508 363.61 145.457 359.508 138.434C358.805 137.232 357.931 136.096 357.001 135.055C351.515 128.913 346.001 122.799 340.465 116.694C339.66 115.814 338.746 115 337.78 114.299C331.054 109.368 324.312 104.466 317.547 99.6009C316.578 98.9005 315.503 98.3232 314.412 97.831C307.178 94.5847 299.92 91.3856 292.687 88.1393C291.12 87.4294 289.515 86.8899 287.843 86.5397C280.191 84.9023 272.538 83.265 264.88 81.656C263.012 81.2585 261.125 81.0787 259.202 81.0881C251.969 81.126 244.736 81.126 237.504 81.0881C235.581 81.0787 233.699 81.2869 231.83 81.6844C224.272 83.2839 216.715 84.8835 209.162 86.5019C207.394 86.8805 205.688 87.4294 204.027 88.1866C197.626 91.0828 191.196 93.9127 184.773 96.7615C182.573 97.7458 180.352 98.6828 178.334 100.207C176.8 99.5252 175.83 98.3042 174.807 96.9508C176.454 94.6036 178.879 93.023 180.541 90.6379C179.099 88.4516 177.167 86.8805 175.329 85.1768C174.815 85.2147 174.345 85.243 173.877 85.2809C174.778 84.6941 175.649 84.0505 176.59 83.5395C180.56 81.3815 184.538 79.2425 188.546 77.1508C189.694 76.5546 190.922 76.0719 192.16 75.6933C200.312 73.1757 208.477 70.7149 216.635 68.2162C218.275 67.7146 219.933 67.4212 221.651 67.2982C224.752 67.071 227.842 66.683 230.937 66.3707C233.034 66.153 235.13 65.9353 237.228 65.7365C240.125 65.462 243.02 65.1213 245.923 64.951C247.922 64.8374 249.943 64.8563 251.94 65.0078C254.84 65.216 257.727 65.6135 260.621 65.9164C262.817 66.1435 265.014 66.3612 267.212 66.5694C270.01 66.8344 272.805 67.1373 275.608 67.3171C277.028 67.4117 278.399 67.6578 279.744 68.0648C288.197 70.6297 296.648 73.1852 305.088 75.7879C306.23 76.1381 307.348 76.6303 308.406 77.1887C315.946 81.1828 323.48 85.1958 330.988 89.2561C332.303 89.9659 333.565 90.8177 334.726 91.7642C341.123 96.9508 347.496 102.175 353.84 107.428C355.069 108.441 356.236 109.577 357.254 110.807C362.576 117.224 367.857 123.679 373.11 130.153C374.053 131.307 374.9 132.576 375.611 133.891C379.628 141.311 383.607 148.751 387.553 156.209C388.207 157.439 388.751 158.755 389.163 160.08C391.714 168.333 394.187 176.605 396.741 184.849C397.555 187.48 397.59 190.196 397.899 192.875C398.555 198.563 399.065 204.261 399.618 209.958C399.83 212.154 400.142 214.359 400.137 216.565C400.134 218.76 399.811 220.966 399.589 223.161C399.308 225.953 398.969 228.745 398.69 231.547ZM394.54 260.708C394.575 260.452 394.61 260.196 394.653 259.875C395.005 260.282 394.709 260.48 394.54 260.708ZM393.296 264.276C393.511 263.074 393.775 261.891 394.492 260.859C394.494 262.137 394.277 263.339 393.296 264.276ZM393.219 264.503C393.185 264.711 393.148 264.938 393.102 265.232C392.902 264.891 393.105 264.692 393.219 264.503ZM383.089 288.41C383.142 288.022 383.257 287.663 383.603 287.417C383.432 287.748 383.26 288.079 383.089 288.41ZM380.667 292.632C381.186 291.136 381.723 289.641 383.015 288.59C382.605 290.152 382.04 291.628 380.667 292.632ZM374.703 300.705C374.323 301.405 373.77 302.011 373.261 302.636C367.921 309.157 362.589 315.687 357.21 322.18C356.257 323.335 355.172 324.404 354.02 325.36C347.525 330.736 340.993 336.065 334.465 341.403C333.845 341.914 333.223 342.444 332.526 342.822C329.358 344.564 326.167 346.249 322.975 347.943C322.74 348.066 322.455 348.094 322.187 348.16C322.707 347.583 323.21 346.987 323.758 346.438C341.853 328.342 359.951 310.236 378.053 292.139C378.674 291.524 379.336 290.947 379.98 290.351C379.931 290.625 379.917 290.909 379.794 291.146C378.114 294.335 376.433 297.534 374.703 300.705ZM367.693 311.286C367.827 311.154 367.962 311.031 368.097 310.898C368.239 311.315 368.003 311.343 367.693 311.286ZM362.65 317.959C362.753 316.975 363.419 316.066 366.216 313.406C365.436 315.214 364.318 316.795 362.65 317.959ZM345.893 333.992C346.004 333.367 346.004 333.367 346.918 333.055C346.498 333.443 346.22 333.699 345.893 333.992ZM342.255 337.39C342.069 337.551 341.781 337.579 341.45 337.702C342.001 336.633 342.005 336.642 343.464 336.226C343.063 336.614 342.685 337.03 342.255 337.39ZM339.613 338.923L339.618 338.772L339.797 338.847L339.613 338.923ZM321.117 350.479C321.127 350.47 321.131 350.47 321.117 350.479V350.479ZM317.995 352.382C318.359 351.748 318.988 351.492 319.621 351.246C319.226 351.833 318.657 352.173 317.995 352.382ZM314.397 354.208C315.032 353.565 315.778 353.139 316.687 353.035C316.192 353.953 315.295 354.085 314.397 354.208ZM317.824 352.457C317.468 352.637 317.111 352.808 316.755 352.987C317.015 352.599 317.4 352.486 317.824 352.457ZM304.826 357.209C296.679 359.726 288.517 362.187 280.363 364.686C278.724 365.187 277.068 365.49 275.35 365.613C272.25 365.85 269.164 366.247 266.07 366.569C263.975 366.787 261.877 366.995 259.78 367.194C256.783 367.468 253.785 367.752 250.785 367.998C247.87 368.235 244.973 368.008 242.078 367.629C239.79 367.336 237.49 367.128 235.193 366.91C232.296 366.635 229.396 366.399 226.499 366.134C224.201 365.926 221.899 365.736 219.609 365.452C218.622 365.329 217.649 365.026 216.691 364.742C208.72 362.329 200.747 359.934 192.792 357.474C191.267 357 189.749 356.423 188.34 355.675C180.879 351.748 173.458 347.744 166.016 343.778C164.59 343.021 163.269 342.132 162.023 341.109C155.512 335.743 148.973 330.414 142.468 325.038C141.547 324.281 140.687 323.42 139.925 322.492C134.488 315.915 129.09 309.299 123.66 302.711C122.694 301.547 121.892 300.288 121.181 298.954C117.215 291.515 113.219 284.085 109.274 276.627C108.621 275.397 108.063 274.09 107.653 272.756C105.2 264.796 102.814 256.818 100.377 248.848C99.697 246.624 99.343 244.362 99.1575 242.053C98.8991 238.854 98.5262 235.655 98.2101 232.465C97.9243 229.569 97.7947 226.644 97.3394 223.777C96.3655 217.634 97.0697 211.577 97.7672 205.482C98.3493 200.399 98.7524 195.298 99.2086 190.196C99.3875 188.19 99.7386 186.23 100.33 184.29C102.768 176.33 105.16 168.352 107.595 160.383C107.946 159.237 108.334 158.083 108.887 157.023C111.263 152.489 113.7 147.984 116.134 143.479C116.403 142.977 116.774 142.542 117.105 142.078C117.088 142.438 117.071 142.788 117.057 143.091C118.605 145.182 120.442 147.019 122.518 148.533C122.948 148.23 123.471 147.946 123.889 147.558C124.985 146.526 126.027 145.429 127.106 144.378C127.605 143.895 128.137 143.441 128.629 142.996C130.394 143.905 130.55 144.047 132.471 146.517C132.172 147.151 131.881 147.889 131.494 148.561C129.549 151.969 127.594 155.357 125.61 158.736C124.639 160.392 123.85 162.115 123.262 163.941C120.867 171.399 118.461 178.858 115.999 186.287C115.07 189.098 115.007 192.013 114.664 194.9C114.046 200.087 113.544 205.283 113.002 210.479C112.804 212.372 112.487 214.274 112.485 216.177C112.481 218.174 112.76 220.18 112.969 222.177C113.251 224.865 113.606 227.562 113.892 230.25C114.348 234.547 114.747 238.844 115.228 243.141C115.349 244.23 115.596 245.318 115.932 246.359C118.461 254.196 121.008 262.033 123.596 269.85C124.003 271.081 124.549 272.283 125.193 273.409C129.233 280.47 133.308 287.511 137.4 294.553C137.952 295.499 138.582 296.427 139.312 297.241C144.803 303.383 150.337 309.488 155.838 315.631C157.121 317.06 158.551 318.29 160.109 319.416C166.221 323.827 172.314 328.256 178.396 332.705C179.782 333.727 181.23 334.588 182.803 335.279C190.061 338.488 197.312 341.706 204.541 344.98C206.585 345.898 208.742 346.305 210.899 346.769C217.866 348.265 224.833 349.76 231.801 351.246C233.771 351.672 235.754 351.861 237.779 351.852C244.813 351.804 251.848 351.804 258.882 351.852C261.11 351.861 263.285 351.625 265.453 351.161C272.814 349.59 280.177 348.019 287.541 346.466C289.315 346.088 291.025 345.558 292.685 344.81C299.921 341.554 307.183 338.355 314.415 335.099C315.868 334.437 317.23 333.585 318.731 332.78C320.023 333.509 320.985 334.626 322.001 335.923C321.73 336.349 321.525 336.793 321.202 337.134C319.951 338.44 318.646 339.69 317.396 340.996C316.995 341.422 316.698 341.933 316.27 342.52C318.131 344.583 319.893 346.608 322.099 348.179C321.528 348.567 320.986 349.012 320.382 349.344C316.411 351.492 312.44 353.64 308.437 355.742C307.289 356.338 306.064 356.83 304.826 357.209ZM287.207 364.07C287.676 363.995 287.97 363.947 288.246 363.9C288.053 364.023 287.863 364.156 287.662 364.26C287.62 364.288 287.527 364.203 287.207 364.07ZM257.233 369.068C256.89 369.068 256.547 369.068 256.203 369.068C256.203 369.039 256.203 369.002 256.204 368.973C256.548 368.973 256.89 368.973 257.234 368.973C257.233 369.002 257.233 369.039 257.233 369.068ZM225.21 367.497C226.526 367.572 227.842 367.648 229.16 367.724C227.829 367.856 226.492 368.093 225.21 367.497ZM224.235 367.307C224.584 367.09 224.772 367.307 224.971 367.43C224.75 367.402 224.524 367.364 224.235 367.307ZM198.052 360.635C198.036 360.625 198.041 360.531 198.036 360.474C198.129 360.512 198.223 360.559 198.414 360.644C198.214 360.644 198.13 360.644 198.052 360.635ZM195.001 359.679C195.286 359.717 195.584 359.755 196.055 359.811C195.459 360.152 195.232 359.897 195.001 359.679ZM167.267 345.804C167.902 346.069 168.541 346.324 168.895 346.968C168.237 346.741 167.575 346.514 167.267 345.804ZM145.328 329.137C145.177 329.014 145.026 328.881 144.874 328.749C144.911 328.711 144.948 328.663 144.984 328.616C145.135 328.749 145.286 328.881 145.438 329.004C145.401 329.051 145.364 329.089 145.328 329.137ZM121.595 133.21C122.493 131.525 123.701 130.086 125.086 128.667C126.186 129.235 126.618 130.247 127.505 131.279C126.77 131.109 126.347 131.023 125.762 130.891C124.286 131.913 123.025 133.285 121.832 134.819C122.05 135.5 122.253 136.134 122.488 136.873C120.838 138.699 119.357 140.658 117.189 141.917C117.476 141.207 117.721 140.488 118.071 139.816C119.223 137.601 120.421 135.406 121.595 133.21ZM104.017 97.8215C102.362 95.6447 101.152 93.2312 99.9014 90.8367C99.7784 90.6001 99.8418 90.2593 99.8172 89.9375C100.374 89.9659 100.288 90.4486 100.47 90.7137C100.643 90.9503 100.725 91.2626 100.893 91.5087C102.362 93.6666 103.791 95.8435 105.713 97.6607C107.829 99.6577 109.815 101.797 111.919 103.813C113.002 104.844 114.215 105.743 115.37 106.709C117.021 108.081 118.929 108.895 120.992 109.472C124.412 110.438 127.689 110.154 131.013 108.942C133.963 107.873 136.383 106.056 138.234 103.699C142.012 98.9005 143.111 93.4773 141.066 87.5524C140.189 85.0254 138.66 82.9243 136.836 81.0408C134.042 78.1541 131.213 75.2958 128.304 72.5226C127.006 71.2922 125.477 70.2985 123.79 68.9924C125.058 68.7936 125.836 69.2479 126.579 69.7495C127.494 70.3647 128.388 71.0178 129.268 71.6803C165.558 99.1371 201.845 126.594 238.134 154.041C250.55 163.44 263.005 172.781 275.359 182.255C277.731 184.073 279.847 186.287 281.826 188.54C283.13 190.026 283.938 191.947 285.042 193.622C286.38 195.648 287.508 197.758 288.064 200.143C288.179 200.626 288.351 201.099 288.502 201.582C290.544 208.009 290.544 208.009 291.155 214.492C291.184 214.795 291.228 215.098 291.217 215.391C291.061 219.612 290.839 223.824 289.631 227.894C288.917 230.307 288.144 232.692 287.333 235.068C287.044 235.91 286.621 236.724 286.162 237.5C284.927 239.564 283.648 241.608 282.365 243.652C282.047 244.154 281.646 244.608 281.274 245.072C281.15 245.233 280.99 245.356 280.854 245.507C278.258 248.328 275.428 250.845 272.005 252.653C270.676 253.353 269.439 254.224 268.64 254.726C266.308 255.502 264.445 255.975 262.715 256.742C259.913 257.982 256.961 258.379 253.977 258.805C250.681 259.269 247.439 259.316 244.108 258.938C241.093 258.597 238.138 258.247 235.321 257.083C234.858 256.893 234.38 256.713 233.891 256.619C230.489 255.899 227.577 254.12 224.589 252.464C220.011 249.946 216.434 246.34 213.32 242.233C199.006 223.332 184.707 204.431 170.403 185.521C148.28 156.284 126.166 127.039 104.017 97.8215ZM100.292 76.8574C100.587 77.4064 100.587 77.4064 99.9771 78.0027C99.6241 77.4916 99.9222 77.1792 100.292 76.8574ZM101.634 80.0943C102.78 76.0245 105.006 72.693 109.071 70.7812C111.507 69.636 113.976 68.9829 116.624 69.1438C119.246 69.2952 121.768 69.882 123.995 71.4059C125.903 72.7214 127.732 74.1032 129.335 75.7879C131.061 77.6051 132.902 79.3182 134.636 81.1354C136.373 82.9526 137.908 84.8929 138.931 87.2496C139.755 89.152 140.073 91.1017 140.064 93.1082C140.05 96.5154 139.113 99.6861 137.031 102.383C135.622 104.22 133.913 105.762 131.689 106.652C129.628 107.485 127.591 108.327 126.362 108.166C122.124 108.053 119.171 107.324 116.551 105.422C115.085 104.362 113.67 103.254 112.408 101.948C110.733 100.216 109.03 98.5125 107.297 96.8372C105.989 95.5784 104.891 94.1588 103.832 92.6917C102.877 91.3667 102.303 89.9091 101.742 88.3948C100.712 85.6028 100.876 82.7823 101.634 80.0943ZM102.509 72.7025C102.78 72.2955 103.117 71.8979 103.506 71.6046C104.618 70.7527 105.771 69.9578 107.056 69.0397C107.282 69.0397 107.629 69.0397 107.988 69.0397C105.928 70.2512 104.5 72.2009 102.757 73.7152C102.096 73.4029 102.318 72.9864 102.509 72.7025ZM108.168 68.964C108.256 68.8788 108.344 68.7841 108.432 68.6989C108.542 69.0397 108.325 68.964 108.168 68.964ZM112.569 67.2982C112.714 67.2508 112.868 67.2319 113.019 67.2035C113.019 67.2698 113.019 67.3455 113.019 67.4212C112.872 67.4496 112.719 67.4686 112.565 67.4969C112.565 67.4307 112.549 67.3076 112.569 67.2982ZM119.677 67.4023L119.641 67.5821L119.435 67.4496L119.677 67.4023ZM161.397 92.3794C162.746 91.1774 164.171 90.0984 165.793 89.275C167.843 88.2434 169.841 87.1076 171.883 86.0476C172.481 85.7447 173.145 85.5648 173.781 85.3282C173.669 85.5838 173.6 85.8867 173.418 86.076C171.966 87.5809 170.489 89.0668 168.965 90.6095C168.226 90.354 167.593 90.1269 166.833 89.8618C165.088 91.0828 163.575 92.6066 162.438 94.4995C161.458 94.0547 161.458 94.0546 160.752 93.2596C160.952 92.9851 161.123 92.616 161.397 92.3794ZM168.23 86.3599C168.141 86.9562 167.637 86.9373 167.258 87.0887C167.425 86.6533 167.738 86.4073 168.23 86.3599ZM164.251 93.9221C164.746 92.7202 165.825 92.0482 166.699 91.0922C167.04 91.3856 167.241 91.5465 167.496 91.7642C166.844 92.9662 165.84 93.6949 164.957 94.5089C164.629 94.2344 164.492 94.1209 164.251 93.9221ZM169.743 100.112C167.892 99.2697 166.323 97.9919 164.925 96.4492C165.134 96.08 165.23 95.7772 165.43 95.569C168.315 92.6444 171.213 89.7293 174.119 86.8332C174.318 86.6344 174.627 86.5397 174.865 86.4167C176.793 87.6187 177.845 88.6693 179.032 90.5717C177.877 92.351 172.986 97.3862 169.743 100.112ZM193.866 117.82C194.054 118.01 194.149 118.284 194.43 118.767C193.94 118.568 193.668 118.511 193.47 118.369C186.575 113.164 179.684 107.958 172.804 102.734C172.097 102.204 171.318 101.693 171.073 100.623C171.424 100.207 171.78 99.7239 172.201 99.3075C172.622 98.8816 173.105 98.522 173.671 98.0487C174.102 98.3327 174.565 98.5314 174.898 98.8626C181.231 105.176 187.552 111.488 193.866 117.82ZM269.631 175.195C269.128 175.252 269.008 175.308 268.941 175.27C268.425 174.977 267.89 174.693 267.413 174.333C249.577 161.074 230.457 146.479 228.53 144.643C228.628 137.223 228.966 129.708 229.455 122.202C230.247 110.069 229.663 103.557 230.858 99.4873C231.239 99.156 231.756 98.7018 232.315 98.2096C233.228 98.1717 234.124 98.0866 235.02 98.0866C243.958 98.0771 252.897 98.0771 261.836 98.0771C262.438 98.0771 263.044 98.0676 263.641 98.1339C265.207 98.2948 266.187 99.2318 266.449 100.803C266.531 101.295 266.533 101.806 266.557 102.308C266.918 109.728 267.279 117.148 267.633 124.569C267.677 125.468 267.677 126.376 267.713 127.275C267.988 134.204 268.253 141.122 268.551 148.041C268.895 156.067 269.274 164.093 269.625 172.119C269.668 173.113 269.631 174.106 269.631 175.195ZM363.169 285.486C362.13 284.483 361.332 283.735 360.56 282.959C345.817 268.156 331.077 253.354 316.342 238.541C316.297 238.504 316.348 238.362 316.354 238.267C316.507 238.163 316.656 237.983 316.815 237.974C319.822 237.784 322.828 237.576 325.837 237.434C333.962 237.046 342.088 236.667 350.215 236.317C353.026 236.194 355.841 236.194 358.651 236.071C360.754 235.976 362.852 235.768 364.642 235.636C367.278 234.491 368.116 232.673 368.102 230.203C368.049 221.06 368.051 211.917 368.102 202.775C368.116 200.437 367.369 198.667 365.055 197.465C362.977 197.124 360.682 196.925 358.376 196.84C351.25 196.566 344.122 196.339 336.998 196.026C331.079 195.761 325.164 195.402 319.248 195.089C319.048 195.08 318.847 195.07 318.645 195.061C311.62 194.796 304.593 194.55 297.569 194.247C294.26 194.105 290.956 193.859 287.581 193.651C286.486 192.619 285.685 191.341 284.838 190.12C283.227 187.792 281.379 185.682 279.22 183.855C277.075 182.038 274.926 180.23 272.787 178.403C272.257 177.949 271.755 177.466 271.201 176.965C271.148 176.349 271.077 175.753 271.046 175.157C270.865 171.551 270.671 167.935 270.518 164.32C270.256 158.102 270.048 151.874 269.77 145.656C269.451 138.529 269.082 131.411 268.736 124.285C268.711 123.783 268.693 123.281 268.674 122.78C268.416 116.154 268.158 109.529 267.9 102.904C267.892 102.705 267.889 102.507 267.874 102.298C267.692 99.7902 267.456 99.3453 265.343 97.4524C264.238 96.894 263.052 96.7615 261.832 96.7615C252.889 96.771 243.947 96.7615 235.005 96.7615C234.503 96.7615 233.996 96.7615 233.501 96.8372C230.933 97.1779 229.33 98.8437 229.138 101.428C228.952 103.926 228.795 106.434 228.691 108.942C228.399 116.069 228.155 123.196 227.863 130.323C227.704 134.241 227.494 138.15 227.293 142.069C227.273 142.438 227.152 142.807 227.093 143.1C226.376 143.394 226.002 142.996 225.617 142.712C222.566 140.412 219.523 138.112 216.479 135.803C212.873 133.077 209.255 130.37 205.667 127.616C204.634 126.821 203.625 125.988 202.702 125.07C195.294 117.697 187.907 110.305 180.521 102.914C180.034 102.431 179.609 101.882 179.126 101.323C179.931 100.207 181.038 99.724 182.127 99.2318C184.87 97.9919 187.623 96.7615 190.374 95.5406C194.868 93.5341 199.37 91.5465 203.854 89.5211C205.692 88.6977 207.57 88.073 209.56 87.6755C217.131 86.1328 224.685 84.5049 232.231 82.8485C233.623 82.5362 234.999 82.4132 236.408 82.4132C244.245 82.4132 252.083 82.4605 259.919 82.3848C262.06 82.3659 264.118 82.716 266.175 83.1514C273.641 84.7036 281.099 86.2937 288.552 87.9216C289.719 88.1772 290.872 88.5841 291.967 89.0668C299.409 92.351 306.841 95.6542 314.255 98.9952C315.434 99.5252 316.571 100.207 317.622 100.964C324.229 105.715 330.817 110.495 337.381 115.303C338.425 116.069 339.387 116.978 340.259 117.934C345.46 123.66 350.615 129.433 355.804 135.169C356.821 136.295 357.703 137.488 358.458 138.803C362.408 145.694 366.374 152.565 370.359 159.427C371.17 160.827 371.801 162.285 372.297 163.818C374.725 171.371 377.193 178.914 379.655 186.448C380.125 187.887 380.396 189.354 380.539 190.868C381.001 195.761 381.562 200.655 382.079 205.548C382.365 208.236 382.643 210.933 382.918 213.631C383.204 216.451 382.989 219.253 382.636 222.045C382.333 224.439 382.078 226.834 381.831 229.228C381.368 233.724 380.949 238.229 380.455 242.715C380.325 243.908 380.091 245.1 379.726 246.246C377.206 254.082 374.648 261.91 372.077 269.727C371.766 270.674 371.401 271.63 370.91 272.491C368.736 276.343 366.51 280.157 364.288 283.981C364.041 284.407 363.701 284.776 363.169 285.486ZM364.02 293.871C363.53 293.483 363.039 293.143 362.612 292.736C352.948 283.546 295.191 225.528 293.354 223.171C293.354 221.903 293.339 220.606 293.362 219.309C293.369 218.931 293.484 218.562 293.571 218.069C293.963 218.23 294.27 218.278 294.462 218.448C295.132 219.054 295.767 219.697 296.406 220.331C319.186 243.113 341.967 265.894 364.736 288.675C365.503 289.442 366.439 290.095 366.901 291.221C366.151 292.31 365.324 293.266 364.02 293.871ZM372.585 287.142C373.074 286.65 373.623 286.215 374.229 285.685C376.051 286.735 377.219 288.335 378.522 289.65C378.392 290.057 378.387 290.294 378.266 290.417C360.055 308.684 341.837 326.941 323.614 345.198C323.124 345.69 322.581 346.126 322.089 346.57C320.343 345.558 319.481 344.734 317.73 342.482C317.794 342.292 317.805 342.056 317.93 341.923C336.141 323.657 354.36 305.399 372.585 287.142ZM359.926 293.862C360.101 293.521 360.415 293.266 360.718 292.906C361.811 293.247 362.424 293.985 363 295.007C362.671 295.452 362.374 295.963 361.972 296.37C360.147 298.244 358.292 300.08 356.445 301.926C347.497 310.87 338.551 319.823 329.6 328.767C328.824 329.544 328.026 330.301 327.15 331.143C325.818 330.471 325.168 329.6 324.35 328.654C324.97 328.114 325.45 327.632 325.994 327.234C329.801 324.442 333.611 321.66 337.445 318.905C338.761 317.968 339.928 316.889 341.006 315.687C346.032 310.075 351.072 304.481 356.124 298.888C357.541 297.326 358.939 295.755 359.926 293.862ZM306.718 238.56C307.349 239.128 308.043 239.696 308.676 240.33C325.162 256.808 341.643 273.286 358.117 289.773C358.675 290.332 359.16 290.956 359.72 291.6C358.718 293.909 357.481 295.925 355.842 297.724C351.376 302.626 346.891 307.51 342.532 312.507C340.069 315.328 337.372 317.817 334.278 319.928C331.294 321.972 328.422 324.177 325.489 326.288C324.852 326.752 324.162 327.13 323.456 327.575C323.045 327.291 322.697 327.092 322.41 326.827C318.963 323.685 271.909 276.4 270.403 274.545C270.403 274.128 270.388 273.532 270.407 272.936C270.467 271.033 270.523 269.122 270.615 267.219C270.804 263.32 271.015 259.42 271.211 255.625C280.784 248.252 280.064 249.227 287.535 239.251C293.969 239.005 300.267 238.324 306.718 238.56ZM292.117 205.292C291.302 201.97 289.875 198.885 288.633 195.998C288.888 195.203 289.328 195.165 289.707 195.165C292.216 195.212 294.725 195.26 297.233 195.364C299.74 195.458 302.243 195.648 304.75 195.752C310.969 196.017 317.189 196.235 323.407 196.49C327.619 196.66 331.831 196.85 336.041 197.058C341.955 197.351 347.868 197.692 353.782 197.976C356.289 198.099 358.799 198.137 361.309 198.222C362.11 198.251 362.922 198.222 363.712 198.345C364.827 198.525 365.855 198.923 366.588 200.408C366.628 201.014 366.749 202.008 366.751 203.002C366.765 211.936 366.764 220.88 366.751 229.815C366.75 230.809 366.646 231.812 366.609 232.475C365.933 233.904 364.957 234.377 363.826 234.576C363.336 234.661 362.827 234.651 362.326 234.67C358.717 234.85 355.11 235.049 351.499 235.191C344.779 235.465 338.057 235.693 331.337 235.967C326.623 236.156 321.912 236.383 317.197 236.573C316.298 236.611 315.396 236.582 314.184 236.582C307.65 230.042 301.189 223.587 294.74 217.123C294.321 216.707 293.99 216.195 293.523 215.609C293.412 212.182 292.96 208.709 292.117 205.292ZM292.848 225.035C294.701 226.275 301.619 232.938 304.32 236.033C304.492 236.232 304.535 236.535 304.642 236.809C301.308 237.595 291.587 237.992 288.846 237.472C288.809 237.283 288.685 237.046 288.75 236.904C290.46 233.165 291.69 229.247 292.848 225.035ZM257.04 261.143C257.831 260.282 259.006 260.329 259.985 259.969C261.016 259.591 262.108 259.373 263.152 259.032C264.195 258.682 265.22 258.275 266.239 257.859C267.242 257.452 268.226 256.988 269.461 256.448C269.881 260.291 269.453 269.756 268.792 272.633C268.6 272.614 268.343 272.671 268.227 272.567C265.672 270.324 258.313 262.799 257.04 261.143ZM250.233 262.383C250.112 262.26 250.102 262.023 249.932 261.531C251.757 261.408 253.349 261.304 254.932 261.2C255.309 261.474 255.668 261.673 255.944 261.947C279.163 285.174 302.375 308.409 325.581 331.645C325.71 331.777 325.735 332.014 325.842 332.279C325.181 333.367 324.228 334.2 323.187 334.901C322.774 334.673 322.463 334.579 322.262 334.38C298.245 310.387 274.236 286.385 250.233 262.383ZM227.249 256.581C227.729 256.685 228.126 256.713 228.485 256.855C230.077 257.461 231.682 258.048 233.236 258.739C235.548 259.78 237.974 260.376 240.46 260.745C242.837 261.105 245.224 261.398 247.715 261.73C249.443 263.055 266.078 279.599 268.467 282.419C268.487 283.11 268.565 284.009 268.533 284.899C268.25 292.622 267.975 300.345 267.642 308.059C267.312 315.678 266.903 323.297 266.559 330.916C266.487 332.515 266.174 333.916 264.24 334.749C263.543 334.768 262.545 334.834 261.546 334.834C252.812 334.844 244.08 334.844 235.346 334.834C234.744 334.834 234.142 334.825 233.54 334.815C232.474 334.787 231.588 334.408 230.814 333.339C230.711 332.866 230.496 332.194 230.428 331.503C230.271 329.913 230.15 328.304 230.075 326.704C229.682 318.281 229.309 309.857 228.929 301.443C228.92 301.244 228.907 301.036 228.9 300.837C228.64 294.118 228.411 287.398 228.114 280.687C227.817 273.967 227.441 267.248 227.125 260.537C227.065 259.259 226.867 257.963 227.249 256.581ZM176.421 196.509C177.442 197.02 177.968 198.023 178.626 198.894C182.999 204.639 187.354 210.403 191.714 216.167C196.498 222.489 201.285 228.802 206.058 235.134C206.586 235.835 207.288 236.45 207.424 237.481C207.153 237.576 206.894 237.756 206.64 237.746C203.533 237.642 200.428 237.51 197.322 237.377C196.921 237.368 196.522 237.311 196.121 237.292C189.707 237.036 183.291 236.8 176.877 236.516C169.864 236.204 162.853 235.844 155.84 235.513C155.539 235.494 155.239 235.475 154.938 235.465C148.322 235.2 141.706 234.935 135.091 234.689C133.684 234.642 132.264 234.699 130.925 233.62C130.29 232.787 130.028 231.945 130.007 231.017C129.995 230.515 129.988 230.014 129.988 229.512C129.987 220.776 129.988 212.05 129.988 203.314C129.988 201.913 129.907 200.484 131.01 199.254C131.821 198.572 132.873 198.307 134 198.26C134.2 198.251 134.401 198.251 134.602 198.241C141.218 197.995 147.836 197.777 154.449 197.474C160.662 197.2 166.869 196.831 173.08 196.519C174.178 196.462 175.281 196.509 176.421 196.509ZM133.32 147.918C134.087 147.7 134.411 148.145 134.753 148.476C135.839 149.517 136.899 150.587 137.965 151.656C144.148 157.837 150.339 164.008 156.503 170.207C157.562 171.276 158.575 172.403 159.485 173.595C164.24 179.832 168.964 186.089 173.677 192.345C174.265 193.13 175.079 193.802 175.191 194.862C175.022 195.004 174.892 195.203 174.723 195.25C174.339 195.345 173.937 195.402 173.541 195.421C167.317 195.667 161.092 195.875 154.87 196.159C147.646 196.49 140.424 196.878 133.202 197.247C132.802 197.266 132.406 197.342 132.075 197.38C130.718 197.881 129.796 198.752 129 200.361C128.931 201.27 128.753 202.557 128.749 203.854C128.724 212.296 128.737 220.738 128.737 229.181C128.737 230.487 128.795 231.793 129.319 233.355C129.889 233.923 130.662 234.689 131.309 235.333C133.393 235.853 135.294 235.976 137.201 236.052C144.329 236.317 151.458 236.544 158.584 236.857C164.604 237.122 170.621 237.481 176.639 237.794C176.84 237.803 177.041 237.822 177.241 237.832C184.168 238.097 191.095 238.343 198.019 238.636C201.63 238.797 205.235 239.043 209.005 239.261C209.408 239.706 209.718 239.971 209.943 240.292C212.006 243.293 214.625 245.801 217.064 248.47C218.634 250.183 220.342 251.716 222.322 252.947C223.344 253.581 224.308 254.309 225.371 255.048C225.483 255.72 225.639 256.392 225.702 257.083C225.845 258.682 225.987 260.291 226.052 261.891C226.344 269.122 226.577 276.352 226.895 283.574C227.16 289.593 227.515 295.613 227.829 301.632C227.845 301.935 227.857 302.238 227.868 302.541C228.136 309.564 228.39 316.596 228.679 323.619C228.787 326.231 228.946 328.843 229.135 331.446C229.333 334.181 230.986 335.838 233.737 336.122C234.334 336.188 234.941 336.169 235.544 336.169C244.086 336.169 252.627 336.178 261.169 336.169C261.972 336.169 262.786 336.188 263.574 336.065C265.717 335.733 267.223 334.304 267.666 332.184C267.829 331.408 267.872 330.594 267.904 329.79C268.172 323.164 268.397 316.539 268.691 309.914C268.949 304.093 269.289 298.282 269.572 292.461C269.681 290.256 269.732 288.041 269.814 285.836C269.832 285.353 269.788 284.852 270.053 284.445C270.346 284.473 270.591 284.426 270.714 284.53C272.401 285.902 316.362 330.064 317.495 331.493C317.53 332.09 317.101 332.402 316.688 332.648C315.917 333.112 315.127 333.557 314.307 333.926C306.881 337.248 299.446 340.541 292.017 343.864C290.634 344.479 289.199 344.867 287.712 345.179C279.95 346.788 272.204 348.473 264.445 350.11C263.373 350.328 262.262 350.479 261.169 350.489C252.728 350.517 244.287 350.479 235.846 350.527C234.004 350.536 232.256 350.101 230.495 349.741C223.126 348.208 215.768 346.627 208.415 345.018C207.248 344.763 206.092 344.375 204.997 343.892C197.463 340.57 189.94 337.219 182.431 333.841C181.34 333.348 180.284 332.733 179.314 332.033C172.791 327.338 166.284 322.625 159.805 317.864C158.681 317.041 157.626 316.075 156.688 315.044C151.28 309.1 145.906 303.118 140.549 297.127C139.819 296.304 139.165 295.395 138.614 294.449C134.477 287.322 130.36 280.186 126.277 273.03C125.634 271.914 125.094 270.702 124.689 269.472C122.178 261.843 119.728 254.186 117.236 246.548C116.48 244.239 116.324 241.826 116.064 239.431C115.521 234.443 114.992 229.455 114.459 224.458C114.213 222.158 113.947 219.868 113.739 217.568C113.667 216.773 113.689 215.959 113.758 215.164C113.927 213.261 114.149 211.368 114.349 209.466C114.946 203.778 115.53 198.08 116.146 192.392C116.428 189.799 116.913 187.253 117.75 184.754C120.112 177.703 122.344 170.614 124.654 163.553C124.996 162.512 125.384 161.452 125.922 160.506C128.089 156.654 130.32 152.83 132.54 149.006C132.785 148.59 133.109 148.211 133.32 147.918ZM132.372 139.277C133.094 139.125 133.475 139.466 133.813 139.835C134.29 140.346 134.749 140.876 135.172 141.434C140.323 148.23 145.466 155.035 150.609 161.831C150.964 162.304 151.294 162.796 151.635 163.279C151.511 163.354 151.386 163.421 151.26 163.497C144.272 156.455 137.282 149.404 130.302 142.353C130.176 142.22 130.16 141.983 130.063 141.728C130.624 140.687 131.515 139.911 132.372 139.277ZM123.26 134.79C123.812 133.787 124.704 133.049 125.722 132.159C126.051 132.415 126.195 132.528 126.338 132.642C126.419 133.409 125.389 134.44 123.616 135.358C123.518 135.207 123.42 135.046 123.26 134.79ZM128.456 132.907C129.949 134.317 131.008 135.869 132.085 137.554C130.946 139.608 129.044 140.952 127.489 142.599C125.985 144.189 124.385 145.694 122.867 147.189C120.996 146.242 120.06 145.353 118.452 143.062C118.541 142.826 118.581 142.504 118.756 142.296C120.412 140.327 126.665 134.251 128.456 132.907ZM197.195 72.6552C196.538 73.1189 195.774 73.1757 195.006 73.2136C195.652 72.7025 196.453 72.7877 197.195 72.6552ZM197.591 72.5226C197.622 72.5132 197.624 72.5132 197.591 72.5226V72.5226ZM197.445 72.5605C197.488 72.5321 197.524 72.5132 197.553 72.5037C197.527 72.5132 197.494 72.5321 197.445 72.5605ZM225.595 65.4526C225.209 65.6324 224.829 65.8974 224.187 65.5567C224.763 65.5188 225.185 65.481 225.595 65.4526ZM229.144 65.1403C228.036 65.2349 226.926 65.3201 225.817 65.4052C226.878 64.8847 228.013 65.0267 229.144 65.1403ZM256.261 63.7489C256.616 63.7773 256.97 63.7963 257.325 63.8247C257.321 63.8815 257.317 63.9477 257.313 64.014C256.959 63.9856 256.604 63.9666 256.249 63.9477C256.254 63.8814 256.256 63.8152 256.261 63.7489ZM288.265 68.9924C287.983 68.9545 287.687 68.9167 287.237 68.8504C287.805 68.5286 288.024 68.8125 288.265 68.9924ZM316.683 79.8577C315.755 79.7915 315.004 79.375 314.4 78.6841C315.28 78.8355 316.168 78.987 316.683 79.8577ZM318.433 81.0598C317.774 80.8042 317.123 80.5392 316.738 79.8861C317.49 80.0186 318.1 80.3405 318.433 81.0598ZM340.826 94.9443C340.364 94.8686 339.902 94.8023 339.813 94.1777C340.325 94.225 340.646 94.49 340.826 94.9443ZM343.839 97.3862C342.256 96.6196 342.252 96.6195 340.843 94.9538C342.61 95.6731 342.614 95.6731 343.839 97.3862ZM346.402 99.4968C346.612 99.6198 346.886 99.7145 346.661 100.017C346.539 99.9037 346.409 99.7902 346.296 99.6671C346.284 99.6482 346.398 99.4968 346.402 99.4968ZM365.968 119.694C364.649 118.104 363.326 116.514 362.019 114.905C361.924 114.792 361.939 114.593 361.864 114.262C363.846 115.672 365.247 117.385 365.968 119.694ZM367.749 121.549C367.895 121.663 368.042 121.767 368.188 121.871C368.163 121.918 368.136 121.956 368.111 121.994C367.96 121.89 367.81 121.786 367.659 121.682C367.69 121.635 367.719 121.597 367.749 121.549ZM380.47 139.967C380.461 139.949 380.462 139.958 380.47 139.967V139.967ZM383.308 144.785C382.515 144.643 382.463 144.075 382.265 143.687C381.697 142.561 381.203 141.416 380.683 140.27C382.166 141.387 382.62 143.072 383.308 144.785ZM393.202 168.371C393.101 168.191 392.991 167.973 392.83 167.67C393.19 167.888 393.173 168.153 393.202 168.371ZM394.492 172.034C393.745 171.021 393.508 169.819 393.299 168.617C394.249 169.563 394.486 170.756 394.492 172.034ZM395.003 173.046C394.525 172.781 394.575 172.478 394.551 172.223C394.668 172.431 394.795 172.668 395.003 173.046ZM402.395 204.336C402.342 203.437 402.359 202.519 402.236 201.629C401.617 197.153 401.062 192.666 400.285 188.218C399.751 185.161 398.937 182.142 398.161 179.132C397.286 175.734 396.423 172.318 395.361 168.977C393.015 161.594 390.087 154.448 386.476 147.586C385.729 146.157 385.077 144.69 384.351 143.252C383.851 142.267 383.316 141.302 382.77 140.346C379.331 134.317 375.572 128.506 371.153 123.13C370.324 122.127 369.54 121.076 368.781 120.016C365.551 115.501 361.61 111.621 357.888 107.542C357.349 106.945 356.728 106.425 356.124 105.895C353.256 103.377 350.387 100.86 347.505 98.3516C345.685 96.771 343.912 95.1241 341.992 93.6761C337.587 90.3445 333.122 87.0981 328.212 84.5049C324.751 82.6782 321.431 80.5865 318.002 78.6936C314.13 76.5546 310.135 74.6427 305.968 73.1757C300.29 71.1692 294.557 69.3331 288.823 67.4969C283.553 65.8028 278.152 64.7049 272.648 64.1086C268.557 63.6638 264.464 63.2379 260.386 62.6889C253.977 61.8371 246.675 61.7803 240.264 62.4902C236.376 62.9255 232.468 63.2095 228.561 63.4461C224.636 63.6827 220.763 64.2695 216.985 65.2917C209.916 67.213 202.882 69.2574 195.851 71.3112C192.958 72.163 190.157 73.2704 187.474 74.6617C181.146 77.9459 174.811 81.2206 168.478 84.4954C165.704 85.934 163.083 87.5903 160.663 89.5779C159.896 90.2026 159.197 90.9597 157.849 91.3004C157.16 90.8366 156.48 90.4108 155.842 89.9281C153.591 88.2434 151.354 86.5397 149.111 84.8456C142.304 79.6874 135.499 74.5291 128.686 69.3804C125.766 67.1751 122.596 65.4999 118.928 64.9226C113.684 64.0897 108.904 65.3485 104.714 68.4718C102.055 70.4499 99.9308 72.9675 98.4704 76.0719C97.1889 78.7977 96.71 81.656 96.6608 84.5332C96.6088 87.5619 97.4094 90.5243 99.0354 93.146C100.198 95.02 101.458 96.8467 102.785 98.6071C109.126 107.04 115.51 115.435 121.862 123.859C122.39 124.559 123.14 125.155 123.196 126.282C122.834 126.764 122.391 127.304 122.001 127.881C120.988 129.377 119.883 130.825 119.018 132.396C114.917 139.882 110.864 147.397 106.844 154.931C106.138 156.247 105.551 157.657 105.109 159.086C102.498 167.528 99.9478 175.99 97.3763 184.442C96.9069 185.984 96.6419 187.565 96.5179 189.174C96.2879 192.174 95.9765 195.175 95.6765 198.175C95.1777 203.172 94.6553 208.16 94.1518 213.157C93.8887 215.77 93.9975 218.372 94.2502 220.975C94.4253 222.773 94.6052 224.572 94.785 226.379C95.0348 228.869 95.2875 231.367 95.5402 233.866C95.8639 237.065 96.233 240.254 96.4942 243.454C96.6428 245.271 96.9353 247.041 97.4672 248.773C99.9913 257.035 102.471 265.307 105.021 273.551C105.493 275.084 106.096 276.589 106.846 277.999C110.86 285.533 114.944 293.029 118.995 300.544C120.001 302.418 121.218 304.131 122.574 305.75C127.402 311.542 132.235 317.315 137.037 323.127C139.224 325.767 141.678 328.124 144.358 330.263C149.778 334.588 155.187 338.923 160.575 343.286C163.006 345.255 165.607 346.949 168.378 348.388C174.262 351.435 180.177 354.426 186.028 357.54C189.684 359.49 193.502 360.976 197.465 362.121C203.154 363.768 208.859 365.348 214.549 366.995C219.391 368.386 224.311 369.257 229.352 369.503C232.359 369.655 235.363 369.901 238.361 370.185C243.957 370.724 249.546 371.368 255.181 370.743C257.374 370.497 259.575 370.317 261.767 370.081C265.857 369.617 269.945 369.153 274.029 368.661C275.722 368.453 277.424 368.263 279.088 367.913C283.605 366.948 288.079 365.831 292.443 364.288C296.322 362.916 300.247 361.666 304.157 360.389C309.043 358.789 313.674 356.603 318.168 354.142C322.839 351.587 327.425 348.88 332.034 346.22C333.163 345.567 334.264 344.867 335.338 344.119C340.138 340.806 344.717 337.219 349.023 333.273C350.948 331.512 352.934 329.809 354.908 328.105C359.33 324.272 363.176 319.89 366.856 315.375C369.964 311.561 372.867 307.576 375.84 303.658C376.567 302.693 377.246 301.699 377.888 300.677C381.533 294.894 384.931 288.978 387.747 282.741C388.118 281.918 388.518 281.104 388.936 280.299C391.975 274.488 394.091 268.298 395.933 262.042C398.06 254.839 400.117 247.58 401.041 240.075C401.667 234.992 402.572 229.938 402.536 224.789C402.528 223.691 402.652 222.584 402.761 221.486C403.048 218.581 403.064 215.675 402.877 212.76C402.697 209.949 402.554 207.147 402.395 204.336Z" fill="#EAFFFB"></path><path d="M438.055 206.289C444.103 206.318 448.571 210.798 448.631 216.907C448.692 223.124 443.998 227.77 437.916 227.692C432.095 227.672 427.408 223.476 427.352 217.073C427.296 210.798 431.838 206.259 438.055 206.289ZM437.855 229C442.841 229.039 449.551 225.047 450 216.985C449.58 209.148 442.971 205.049 438.128 205C432.857 204.952 426.253 209.363 426 217.015C426.328 224.871 433.089 228.961 437.855 229Z" fill="#EAFFFB"></path><path d="M58.0549 206.289C64.1032 206.318 68.5705 210.798 68.6307 216.907C68.6919 223.124 63.9983 227.77 57.916 227.692C52.095 227.672 47.4082 223.476 47.3518 217.073C47.2965 210.798 51.8376 206.259 58.0549 206.289ZM57.8548 229C62.8407 229.039 69.5513 225.047 70 216.985C69.5805 209.148 62.9708 205.049 58.1277 205C52.8573 204.952 46.2535 209.363 46 217.015C46.3282 224.871 53.0894 228.961 57.8548 229Z" fill="#EAFFFB"></path><path d="M150.998 126.959C150.497 126.174 150.222 125.322 150.586 123.968C151.605 122.852 152.687 121.668 153.643 120.627C155.106 120.097 156.259 120.391 157.308 121.082C158.399 121.81 159.447 122.596 160.495 123.382C178.161 136.651 195.823 149.911 213.486 163.18C216.471 165.423 219.464 167.647 222.43 169.909C223.382 170.638 224.259 171.461 225.114 172.2C225.412 174.85 224.529 177.367 225.417 179.629C225.022 180.954 224.15 181.664 223.379 182.45C213.061 192.946 212.751 193.23 210.552 194.602C207.935 194.536 205.424 194.489 203.054 194.432C201.672 193.769 200.952 192.643 200.159 191.621C197.581 188.27 195.028 184.892 192.466 181.532C179.167 164.079 165.866 146.626 152.57 129.164C152.022 128.445 151.487 127.716 150.998 126.959ZM246.107 176.591C270.817 176.25 288.535 194.252 288.668 216.986C288.801 239.606 271.252 257.503 247.701 257.731C225.349 257.352 207.544 240.704 206.961 217.203C207.519 194.11 224.619 177.935 246.107 176.591ZM199.006 191.791C199.982 193.059 201.059 194.299 202.275 195.331C204.149 196.93 206.377 197.432 208.803 196.722C209.557 196.505 210.303 196.258 211.721 195.823C210.882 197.489 210.31 198.539 209.816 199.628C209.191 200.991 208.527 202.354 208.063 203.783C206.815 207.616 205.938 211.506 205.861 215.585C205.789 219.314 205.989 223.024 206.89 226.64C208.723 233.994 212.273 240.42 217.574 245.938C223.185 251.787 229.966 255.525 237.702 257.731C238.089 257.844 238.49 257.91 238.889 257.977C243.183 258.601 247.462 259.529 251.835 258.62C252.128 258.554 252.44 258.582 252.743 258.563C257.687 258.289 262.173 256.462 266.629 254.532C266.905 254.418 267.156 254.238 267.417 254.077C273.406 250.556 273.381 250.528 278.407 245.654C280.16 243.95 281.568 242.029 282.943 240.032C285.192 236.757 286.845 233.246 287.987 229.47C288.161 228.892 288.412 228.343 288.576 227.756C289.645 223.961 290.054 220.062 289.994 216.153C289.955 213.56 289.381 210.976 289.027 208.383C288.945 207.796 288.843 207.19 288.641 206.622C287.754 204.171 286.844 201.719 285.906 199.278C285.655 198.634 285.327 197.99 284.943 197.413C283.56 195.312 282.156 193.22 280.718 191.157C280.262 190.495 279.728 189.879 279.144 189.33C277.157 187.466 275.147 185.63 273.111 183.822C272.514 183.292 271.827 182.847 271.134 182.44C264.432 178.503 264.407 178.588 257.004 176.392C254.906 175.777 246.06 175.446 244.043 175.569C243.943 175.569 243.843 175.597 243.743 175.607C238.939 176.355 234.179 177.244 229.844 179.61C229.138 179.998 228.374 180.282 227.623 180.576C227.374 180.67 227.077 180.651 226.823 180.689C226.757 180.528 226.672 180.424 226.694 180.358C226.849 179.875 227.042 179.412 227.193 178.938C228.118 176.004 227.592 173.373 225.419 171.149C224.577 170.297 223.639 169.512 222.674 168.792C201.538 152.901 180.392 137.02 159.247 121.148C158.682 120.722 158.121 120.287 157.515 119.927C155.023 118.441 152.595 118.753 150.631 120.779C148.725 122.738 148.477 124.962 149.952 127.366C150.425 128.133 150.996 128.843 151.545 129.571C160.764 141.667 169.986 153.753 179.207 165.849C185.802 174.499 192.382 183.169 199.006 191.791Z" fill="#EAFFFB"></path><rect width="324" height="365" transform="matrix(-1 0 0 1 410 38)" fill="#095540"></rect><rect x="83.5" y="396.5" width="329" height="23" rx="3.5" stroke="#EAFFFB"></rect><rect x="25" y="173" width="66" height="97" fill="#095540"></rect><rect x="413" y="168" width="66" height="97" fill="#095540"></rect><rect x="87.5" y="119.5" width="322" height="269" rx="3.5" stroke="#EAFFFB"></rect><path d="M78 17L241 388L418 17.5V33.5L247 388H241H235.5L78 32V17Z" fill="#095540"></path><path d="M241 388L78 17V32L235.5 388H241ZM241 388L418 17.5V33.5L247 388H241Z" stroke="#EAFFFB"></path><circle cx="243" cy="205" r="65.25" stroke="#EAFFFB" stroke-width="1.5"></circle><path d="M237.381 143.392L235.114 185.392C235.052 186.537 235.964 187.5 237.111 187.5H250.802C251.981 187.5 252.904 186.486 252.793 185.312L248.826 143.312C248.729 142.285 247.867 141.5 246.835 141.5H239.378C238.315 141.5 237.438 142.331 237.381 143.392Z" stroke="#EAFFFB" stroke-width="0.7"></path><path d="M181.892 211.619L223.892 213.886C225.037 213.948 226 213.036 226 211.889V198.198C226 197.019 224.986 196.096 223.812 196.207L181.812 200.174C180.785 200.271 180 201.133 180 202.165V209.622C180 210.685 180.831 211.562 181.892 211.619Z" stroke="#EAFFFB" stroke-width="0.7"></path><path d="M197.67 163.203L224.198 196.847C224.906 197.746 226.223 197.868 227.085 197.115L235.918 189.391C236.78 188.637 236.834 187.315 236.037 186.493L206.323 155.835C205.593 155.082 204.405 155.021 203.601 155.695L197.955 160.433C197.127 161.128 197.001 162.354 197.67 163.203Z" stroke="#EAFFFB" stroke-width="0.7"></path><path d="M288.41 163.285L262.787 196.809C262.087 197.726 260.759 197.861 259.888 197.106L251.536 189.866C250.686 189.128 250.611 187.835 251.371 187.004L279.559 156.199C280.264 155.428 281.443 155.33 282.266 155.973L288.053 160.494C288.916 161.169 289.076 162.414 288.41 163.285Z" stroke="#EAFFFB" stroke-width="0.7"></path><path d="M290.886 243.575L261.938 212.546C261.154 211.706 259.826 211.697 259.031 212.526L250.47 221.462C249.672 222.295 249.742 223.627 250.622 224.372L282.899 251.698C283.693 252.371 284.87 252.322 285.605 251.586L290.838 246.354C291.6 245.592 291.621 244.363 290.886 243.575Z" stroke="#EAFFFB" stroke-width="0.7"></path><path d="M195.679 244.472L225.551 212.544C226.336 211.706 227.664 211.699 228.457 212.529L236.549 220.992C237.336 221.816 237.278 223.129 236.421 223.879L203.665 252.552C202.873 253.245 201.678 253.206 200.934 252.461L195.725 247.252C194.962 246.489 194.942 245.259 195.679 244.472Z" stroke="#EAFFFB" stroke-width="0.7"></path><path d="M304.108 211.619L262.108 213.886C260.963 213.948 260 213.036 260 211.889V198.198C260 197.019 261.014 196.096 262.188 196.207L304.188 200.174C305.215 200.271 306 201.133 306 202.165V209.622C306 210.685 305.169 211.562 304.108 211.619Z" stroke="#EAFFFB" stroke-width="0.7"></path><path d="M249.619 266.108L251.886 224.108C251.948 222.963 251.036 222 249.889 222H236.198C235.019 222 234.096 223.014 234.207 224.188L238.174 266.188C238.271 267.215 239.133 268 240.165 268H247.622C248.685 268 249.562 267.169 249.619 266.108Z" stroke="#EAFFFB" stroke-width="0.7"></path><rect x="223.5" y="185.5" width="40" height="40" rx="1.5" fill="#095540" stroke="#EAFFFB"></rect><path d="M346.5 200C346.5 198.067 348.067 196.5 350 196.5H395C396.933 196.5 398.5 198.067 398.5 200V300.5H346.5V200Z" stroke="#EAFFFB"></path><path d="M118.5 291.5C118.5 280.454 127.454 271.5 138.5 271.5C149.546 271.5 158.5 280.454 158.5 291.5V388.5H118.5V291.5Z" stroke="#EAFFFB"></path><rect x="354.5" y="203.5" width="35" height="22" rx="1.5" stroke="#EAFFFB"></rect><path d="M410 300L289.5 300" stroke="#EAFFFB"></path><path d="M283 300L202 300" stroke="#EAFFFB"></path><path d="M257.742 353L225.5 353" stroke="#EAFFFB"></path><path d="M127 275V261.5C127 260.395 127.895 259.5 129 259.5H148C149.105 259.5 150 260.395 150 261.5V275.2" stroke="#EAFFFB" stroke-width="0.7"></path><path d="M87.5 313H202L213 337H87.5V313Z" fill="#095540" stroke="#EAFFFB" stroke-width="0.7"></path><path d="M78 172.5V270.5" stroke="#EAFFFB"></path><path d="M418 168V266" stroke="#EAFFFB"></path></svg> 